<svg xmlns="http://www.w3.org/2000/svg" version="1.1" viewBox="0.00 0.00 288.00 288.00" width="288.00" height="288.00">
<path d="&#10;  M 139.29 0.00&#10;  L 149.03 0.00&#10;  C 226.17 3.67 284.22 62.87 288.00 139.79&#10;  L 288.00 148.30&#10;  C 286.72 180.80 275.27 211.70 254.31 236.37&#10;  Q 213.36 284.57 147.97 288.00&#10;  L 140.21 288.00&#10;  C 63.26 285.41 2.32 224.54 0.00 147.43&#10;  L 0.00 139.20&#10;  C 3.43 62.04 62.49 4.27 139.29 0.00&#10;  Z&#10;  M 179.28 165.76&#10;  C 176.94 189.40 170.92 228.60 138.59 227.82&#10;  C 123.68 227.46 115.23 213.63 109.83 201.34&#10;  Q 109.60 200.82 109.09 201.06&#10;  L 83.52 213.11&#10;  Q 82.65 213.52 83.02 214.42&#10;  C 94.23 241.61 113.24 258.56 144.33 256.29&#10;  C 190.79 252.90 205.72 213.77 209.41 173.99&#10;  C 211.97 146.29 211.31 117.53 205.75 90.01&#10;  C 200.10 62.02 185.70 37.85 155.49 32.60&#10;  C 117.19 25.94 88.43 48.78 80.13 85.18&#10;  C 70.67 126.65 83.54 176.52 133.87 180.85&#10;  C 152.15 182.42 164.48 176.28 178.97 165.58&#10;  Q 179.33 165.32 179.28 165.76&#10;  Z"/>
<path d="&#10;  M 146.20 60.40&#10;  C 175.47 63.49 179.62 106.64 179.82 128.26&#10;  Q 179.83 128.75 179.55 129.16&#10;  C 168.31 145.83 150.56 156.54 130.19 150.05&#10;  C 104.65 141.91 105.56 107.23 111.58 87.32&#10;  C 116.52 70.99 127.97 58.47 146.20 60.40&#10;  Z"/>
</svg>