<?xml version="1.0" encoding="UTF-8"?>
<svg width="24px" height="24px" viewBox="0 0 24 24" version="1.1" xmlns="http://www.w3.org/2000/svg" xmlns:xlink="http://www.w3.org/1999/xlink">
    <g id="页面-1" stroke="none" stroke-width="1">
        <g id="Group-1">
            <rect id="矩形" fill="#000000" opacity="0" x="0" y="0" width="24" height="24"></rect>
            <path d="M11.1484,1 L2,1 C0.895431,1 0,1.895429 0,3 L0,21.529 C0,22.6336 0.895428,23.529 2,23.529 L14.6638,23.529 C13.5458,22.4392 12.8516,20.9168 12.8516,19.2323 C12.8516,15.9315 15.517,13.2532 18.8129,13.2324 L18.8129,7.65808 L12.1484,7.65808 C11.5961,7.65808 11.1484,7.21036 11.1484,6.65808 L11.1484,1 Z M4.37419,9.12904 C3.88248,9.12904 3.48387,9.52766 3.48387,10.01937 C3.48387,10.51108 3.88248,10.90969 4.37419,10.90969 L14.2839,10.90969 C14.7756,10.90969 15.1742,10.51108 15.1742,10.01937 C15.1742,9.52766 14.7756,9.12904 14.2839,9.12904 L4.37419,9.12904 Z M3.48387,13.271 C3.48387,12.7793 3.88248,12.3807 4.37419,12.3807 L13.8194,12.3807 C14.3111,12.3807 14.7097,12.7793 14.7097,13.271 C14.7097,13.7627 14.3111,14.1613 13.8194,14.1613 L4.37419,14.1613 C3.88248,14.1613 3.48387,13.7627 3.48387,13.271 Z M4.37419,15.5549 C3.88248,15.5549 3.48387,15.9535 3.48387,16.4452 C3.48387,16.9369 3.88248,17.3355 4.37419,17.3355 L11.4968,17.3355 C11.9885,17.3355 12.3871,16.9369 12.3871,16.4452 C12.3871,15.9535 11.9885,15.5549 11.4968,15.5549 L4.37419,15.5549 Z M3.48387,19.5419 C3.48387,19.0502 3.88248,18.6516 4.37419,18.6516 L10.9548,18.6516 C11.4466,18.6516 11.8452,19.0502 11.8452,19.5419 C11.8452,20.0337 11.4465,20.4323 10.9548,20.4323 L4.37419,20.4323 C3.88248,20.4323 3.48387,20.0337 3.48387,19.5419 Z" id="形状" fill-opacity="0.7" ></path>
            <path d="M23,19.5 C23,21.9852731 20.9852731,24 18.5,24 C16.0147269,24 14,21.9852731 14,19.5 C14,17.0147269 16.0147269,15 18.5,15 C20.9852731,15 23,17.0147269 23,19.5 Z M19,17.4999752 C19,17.7761439 18.7761439,18 18.4999752,18 C18.2238561,18 18,17.7761439 18,17.4999752 C18,17.2238561 18.2238561,17 18.4999752,17 C18.7761439,17 19,17.2238561 19,17.4999752 Z M18.4999752,19 C18.2238561,19 18,19.3492121 18,19.780031 L18,21.219969 C18,21.6507879 18.2238561,22 18.4999752,22 C18.7761439,22 19,21.6507879 19,21.219969 L19,19.780031 C19,19.3492121 18.7761439,19 18.4999752,19 Z" id="形状" fill-opacity="0.7" ></path>
            <path d="M12.0009,6.21379 L12.0009,1 L19.0000084,7 L12.8493,7 C12.1366,7 11.9867,6.47586 12.0009,6.21379 Z" id="路径" fill-opacity="0.7" ></path>
        </g>
    </g>
</svg>