<?xml version="1.0" encoding="UTF-8"?>
<svg width="24px" height="24px" viewBox="0 0 24 24" version="1.1" xmlns="http://www.w3.org/2000/svg" xmlns:xlink="http://www.w3.org/1999/xlink">
   
    <g  stroke="none" stroke-width="1" >
        <g  transform="translate(-112.000000, -6.000000)">
            <g  transform="translate(112.000000, 6.000000)">
                <path d="M12.0908326,0 C18.6681245,0 24,5.51354079 24,12.0908326 C24,18.6681245 18.6681245,24 12.0908326,24 C5.51354079,24 0,18.6681245 0,12.0908326 C0,5.51354079 5.51354079,0 12.0908326,0 Z M12.0794786,1.5 C6.32434819,1.5 1.5,6.32434819 1.5,12.0794786 C1.5,17.8346089 6.32434819,22.5 12.0794786,22.5 C17.8346089,22.5 22.5,17.8346089 22.5,12.0794786 C22.5,6.32434819 17.8346089,1.5 12.0794786,1.5 Z" id="quan" ></path>
                <path d="M11.8721581,12.7534595 L8.61513535,17.674973 C8.38871786,18.0169349 7.94139529,18.1027513 7.61555009,17.8668106 C7.28990906,17.6308699 7.20926442,17.1624647 7.43547775,16.8205029 L10.3852342,12.3637012 L7.02470048,8.10677562 C6.77072089,7.78501861 6.80992031,7.30553332 7.11208252,7.03526612 C7.41424473,6.76521618 7.86503808,6.80692945 8.11881351,7.1284692 L11.7733429,11.7577726 C11.7892677,11.7777602 11.8004967,11.7999204 11.8139715,11.8209943 C12.0330391,12.0738809 12.0665219,12.4599459 11.8721581,12.7534595 Z" id="jiantou" ></path>
                <path d="M17.0150153,12.7534595 L13.7579925,17.674973 C13.531575,18.0169349 13.0842524,18.1027513 12.7584072,17.8668106 C12.4327662,17.6308699 12.3521216,17.1624647 12.5783349,16.8205029 L15.5280914,12.3637012 L12.1675576,8.10677562 C11.913578,7.78501861 11.9527775,7.30553332 12.2549397,7.03526612 C12.5571019,6.76521618 13.0078952,6.80692945 13.2616706,7.1284692 L16.9162001,11.7577726 C16.9321248,11.7777602 16.9433538,11.7999204 16.9568286,11.8209943 C17.1758962,12.0738809 17.2093791,12.4599459 17.0150153,12.7534595 Z" id="jiantou" ></path>
            </g>
        </g>
    </g>
</svg>