<svg id="导航分红" xmlns="http://www.w3.org/2000/svg" width="22" height="22" viewBox="0 0 22 22">
  <path id="路径_2284" data-name="路径 2284" d="M-9542.831,433h-7.265a4.874,4.874,0,0,1-3.867-1.887,4.873,4.873,0,0,1-.889-4.209l.923-3.677a6.408,6.408,0,0,1,1.991-3.265,6.41,6.41,0,0,1,3.491-1.559,15.233,15.233,0,0,1,1.843-.112,15.327,15.327,0,0,1,1.945.125,6.454,6.454,0,0,1,5.327,4.456l1.177,3.759a4.921,4.921,0,0,1-.726,4.369A4.917,4.917,0,0,1-9542.831,433Zm-6.016-5.713a.536.536,0,0,0-.534.536,2.166,2.166,0,0,0,2.124,2.2h.257v.417a.542.542,0,0,0,.536.536.544.544,0,0,0,.536-.536v-.417h.464a1.958,1.958,0,0,0,1.922-1.987,1.778,1.778,0,0,0-1.307-1.886l-1.079-.386v-2.417h.258a1.092,1.092,0,0,1,1.05,1.129.537.537,0,0,0,.537.536.537.537,0,0,0,.537-.536,2.166,2.166,0,0,0-2.124-2.2h-.258v-.415a.544.544,0,0,0-.536-.536.542.542,0,0,0-.536.536v.415h-.465a1.959,1.959,0,0,0-1.925,1.987,1.781,1.781,0,0,0,1.31,1.887l1.08.386v2.415h-.257a1.094,1.094,0,0,1-1.053-1.129A.537.537,0,0,0-9548.847,427.286Zm3.383,1.667h-.457v-2.036l.721.251c.365.128.588.25.588.871A.886.886,0,0,1-9545.464,428.953Zm-1.535-3.559h0l-.72-.252c-.366-.128-.589-.25-.589-.871a.887.887,0,0,1,.844-.922h.466v2.044Zm2.605-8.329h-4.361a1.824,1.824,0,0,1-1.436-.69l-.675-.841a.94.94,0,0,1-.113-1,.949.949,0,0,1,.85-.534h7.108a.953.953,0,0,1,.851.534.943.943,0,0,1-.113,1l-.674.841A1.829,1.829,0,0,1-9544.394,417.064Z" transform="translate(9557.467 -412.5)" />
  <rect id="矩形_8166" data-name="矩形 8166" width="22" height="22" fill="none"/>
</svg>
