<svg id="棋牌-选择" xmlns="http://www.w3.org/2000/svg" width="20" height="20" viewBox="0 0 20 20">
  <path id="路径_2314" data-name="路径 2314" d="M3,5.332H16.929l2.441.655.6,1.548L18.536,14.32l-1.607,6.072-1.548.417-3.1-1.667s-6.964-1.548-7.2-1.726S1.75,10.63,1.75,10.63Z" transform="translate(-0.5 -1.523)" fill="#fff"/>
  <g id="组_3409" data-name="组 3409">
    <rect id="矩形_1126" data-name="矩形 1126" width="20" height="20" fill="none"/>
    <path id="减去_7" data-name="减去 7" d="M3.831,17.01a2.2,2.2,0,0,1-.419-.041l-3.624-.7a5.013,5.013,0,0,0,1.982-.95l1.892.368a.873.873,0,0,0,1.024-.691L7.021,2.982A.874.874,0,0,0,6.33,1.958l-2.8-.544A4.964,4.964,0,0,0,2.915-.042L6.58.671A2.185,2.185,0,0,1,8.308,3.232L5.973,15.242A2.188,2.188,0,0,1,3.831,17.01Z" transform="translate(11.652 2.763)" fill="#0f1213"/>
    <path id="减去_13" data-name="减去 13" d="M10.83,18.785H4a4,4,0,0,1-4-4V4A4,4,0,0,1,4,0h6.83a4,4,0,0,1,4,4V14.784A4,4,0,0,1,10.83,18.785ZM6.944,12.156v0l-.9,2.139H8.782l-.9-2.142a2.6,2.6,0,0,0,1.534.475l.136,0a2.358,2.358,0,0,0,1.6-.695,2.243,2.243,0,0,0,.715-1.62A3.781,3.781,0,0,0,10.845,7.92a28.085,28.085,0,0,0-2.787-2.7l-.63-.541-.021.016-.022-.017-.613.54-.027.024A28.173,28.173,0,0,0,3.983,7.92a3.785,3.785,0,0,0-1.019,2.394,2.239,2.239,0,0,0,.714,1.62,2.35,2.35,0,0,0,1.6.695l.136,0a2.611,2.611,0,0,0,1.532-.473ZM5.4,11.584l-.084,0a1.311,1.311,0,0,1-.907-.4,1.205,1.205,0,0,1-.4-.872,2.8,2.8,0,0,1,.779-1.726A27.5,27.5,0,0,1,7.414,6.046l.019.016a27.149,27.149,0,0,1,2.6,2.526,2.8,2.8,0,0,1,.78,1.726,1.206,1.206,0,0,1-.4.873,1.306,1.306,0,0,1-.907.4l-.08,0a1.635,1.635,0,0,1-1.147-.443,4.731,4.731,0,0,1-.467-.471l-.4-.485-.4.485a4.753,4.753,0,0,1-.465.471A1.632,1.632,0,0,1,5.4,11.584Z" transform="translate(0.494 0.369)" fill="#0f1213"/>
  </g>
</svg>
