<svg id="真人视讯-选择" xmlns="http://www.w3.org/2000/svg" width="20" height="20" viewBox="0 0 20 20">
  <rect id="矩形_1235" data-name="矩形 1235" width="20" height="20" fill="none"/>
  <circle id="椭圆_22" data-name="椭圆 22" cx="6.429" cy="6.429" r="6.429" transform="translate(3.571 1.429)" fill="#fff"/>
  <path id="路径_150" data-name="路径 150" d="M15.243,18.812a11.572,11.572,0,0,0-6.86-2.364,11.88,11.88,0,0,0-6.965,2.366.893.893,0,0,1-.527.176H.855a.889.889,0,0,1-.695-.332l-.007-.01a.831.831,0,0,1,.275-1.193,14.1,14.1,0,0,1,4.356-2.2,7.977,7.977,0,0,1-4.5-7.185,8.045,8.045,0,1,1,16.089,0,7.92,7.92,0,0,1-1.514,4.679,8.008,8.008,0,0,1-2.981,2.507,14.1,14.1,0,0,1,4.356,2.2,1,1,0,0,1,.419.637.734.734,0,0,1-.144.556l-.006.008a.908.908,0,0,1-1.264.156ZM2,8.072a6.412,6.412,0,0,0,6.387,6.267A6.288,6.288,0,0,0,12.818,3.6,6.188,6.188,0,0,0,8.383,1.7,6.463,6.463,0,0,0,2,8.072Z" transform="translate(2)" fill="#0f1213"/>
  <path id="减去_11" data-name="减去 11" d="M7,14a7,7,0,1,1,7-7A7.008,7.008,0,0,1,7,14ZM7.366,3.6A3.489,3.489,0,0,0,3.873,7.107,3.321,3.321,0,0,0,4.9,9.545a3.592,3.592,0,0,0,2.488.955,3.415,3.415,0,0,0,2.437-.962,3.392,3.392,0,0,0,.965-2.431,3.568,3.568,0,0,0-.958-2.48A3.334,3.334,0,0,0,7.393,3.6ZM7.241,8.566h0A1.428,1.428,0,0,1,5.813,7.114V7.107A1.522,1.522,0,0,1,7.275,5.535h.116a1.517,1.517,0,1,1-.116,3.031H7.241Z" transform="translate(3 0.971)" fill="#0f1213"/>
</svg>
