<svg xmlns="http://www.w3.org/2000/svg" width="28" height="28" viewBox="0 0 28 28"><path class="b" d="M36.937,9.911a1.969,1.969,0,1,0-1.95-1.969,1.969,1.969,0,0,0,1.95,1.969Zm13.985,1.715a1.543,1.543,0,0,0-.309-.928c-.106-.141-.243-.313-.427-.532a25.856,25.856,0,0,0-3.348-3.222l1.973-2.161a.6.6,0,0,0,.176-.427.615.615,0,0,0-.266-.5h0l-.031-.023c-3.226-1.875-8.292-1.609-9.62-1.5A29.724,29.724,0,0,0,28.8.151h-.07a1.515,1.515,0,0,0-1.386.92l-.039.106a1.041,1.041,0,0,0-.035.125,32.586,32.586,0,0,0-.775,17.548,29.216,29.216,0,0,0,2.572,7.028h0a1.5,1.5,0,0,0,1.135.771h.07c.736.067,1.464.1,2.169.1A18.024,18.024,0,0,0,46.83,20.107a19.024,19.024,0,0,0,4.06-8.179.2.2,0,0,0,.008-.055,1.591,1.591,0,0,0,.023-.254ZM36.937,5.233a2.705,2.705,0,1,1-2.678,2.705,2.705,2.705,0,0,1,2.678-2.705ZM27.489,18.09l-.012-.047a14.279,14.279,0,0,0,3.015-.454l-1.175,2.545Zm4.949,7.517c-.2,0-.4,0-.607-.008-.442-.012-.9-.039-1.355-.086a.65.65,0,0,1-.5-.345l-.2-.4h.274A8.846,8.846,0,0,0,36.9,22.115c3.093-3.375,2.611-8.8,2.474-9.906h0a.56.56,0,0,0-.556-.505.572.572,0,0,0-.388.157l-.008.012-.012.012c-.779.787-5.278,5.023-11.119,5.2a31.369,31.369,0,0,1,.337-12.862.83.83,0,0,1,.814-.673.8.8,0,0,1,.274.047l.039.02.023.012a34.963,34.963,0,0,1,5.07,2.584,3.571,3.571,0,0,0,3.093,5.3,3.492,3.492,0,0,0,2.517-1.073,34.07,34.07,0,0,1,6.6,8.2.642.642,0,0,1-.1.728A16.93,16.93,0,0,1,32.442,25.6Zm-.689-4.538,2.5,1.868a8.715,8.715,0,0,1-3.234.838l.736-2.705Zm-.368-3.731a17.74,17.74,0,0,0,3.007-1.292L33.9,19.03Zm3.676-1.668a21.226,21.226,0,0,0,2.474-1.707l.055,2.725Zm2.725,3.136a7.952,7.952,0,0,1-1.57,2.666l-.227.235-.576-2.85Zm0,0" transform="translate(-24.242 1.249)"/></svg>