<svg id="质押分红-选择" xmlns="http://www.w3.org/2000/svg" width="20" height="20" viewBox="0 0 20 20">
  <circle id="椭圆_18" data-name="椭圆 18" cx="9.091" cy="9.091" r="9.091" transform="translate(0.909 0.909)" fill="#fff"/>
  <path id="椭圆_18_-_轮廓" data-name="椭圆 18 - 轮廓" d="M10,.714A9.286,9.286,0,0,0,3.434,16.566,9.286,9.286,0,0,0,16.566,3.434,9.225,9.225,0,0,0,10,.714M10,0A10,10,0,1,1,0,10,10,10,0,0,1,10,0Z" transform="translate(0 0)" fill="#0f1213"/>
  <g id="组_3408" data-name="组 3408" transform="translate(0)">
    <path id="路径_2184" data-name="路径 2184" d="M2.876,9.985a7.153,7.153,0,0,1,.17-1.554A.534.534,0,0,0,2.68,7.8L.957,7.285a.533.533,0,0,0-.672.386,10.084,10.084,0,0,0,0,4.663.533.533,0,0,0,.672.386L2.686,12.2a.536.536,0,0,0,.366-.632,7.155,7.155,0,0,1-.176-1.583Zm.406,3.639-1.594.858a.534.534,0,0,0-.2.749,10.052,10.052,0,0,0,3.3,3.3.534.534,0,0,0,.749-.2l.861-1.6a.536.536,0,0,0-.187-.705A7.17,7.17,0,0,1,3.988,13.81a.535.535,0,0,0-.705-.186Zm6.729,3.5a7.146,7.146,0,0,1-1.564-.172.536.536,0,0,0-.631.367l-.523,1.741a.534.534,0,0,0,.386.672,10.083,10.083,0,0,0,4.663,0,.534.534,0,0,0,.386-.672l-.523-1.741a.536.536,0,0,0-.631-.367,7.146,7.146,0,0,1-1.564.172ZM6.378,3.252,5.531,1.679a.534.534,0,0,0-.749-.2,10.051,10.051,0,0,0-3.3,3.3.533.533,0,0,0,.2.749l1.578.85a.534.534,0,0,0,.705-.187A7.172,7.172,0,0,1,6.192,3.957a.534.534,0,0,0,.187-.7ZM19.066,7.284,17.344,7.8a.536.536,0,0,0-.367.63,7.182,7.182,0,0,1-.006,3.137.536.536,0,0,0,.366.632l1.729.519a.533.533,0,0,0,.672-.386,10.084,10.084,0,0,0,0-4.663.533.533,0,0,0-.672-.386Zm-5.435,9.441.861,1.6a.534.534,0,0,0,.749.2,10.052,10.052,0,0,0,3.3-3.3.534.534,0,0,0-.2-.749l-1.595-.858a.534.534,0,0,0-.7.185,7.17,7.17,0,0,1-2.218,2.211.535.535,0,0,0-.187.706ZM16.756,6.371l1.578-.85a.533.533,0,0,0,.2-.749,10.051,10.051,0,0,0-3.3-3.3.534.534,0,0,0-.749.2l-.847,1.574a.534.534,0,0,0,.186.7,7.172,7.172,0,0,1,2.22,2.227.534.534,0,0,0,.705.187ZM10.011,2.849a7.159,7.159,0,0,1,1.573.174.536.536,0,0,0,.631-.366l.513-1.71a.533.533,0,0,0-.386-.672,10.075,10.075,0,0,0-4.663,0,.533.533,0,0,0-.386.672l.514,1.71a.536.536,0,0,0,.631.366,7.159,7.159,0,0,1,1.572-.174Z" transform="translate(-0.012 -0.002)" fill="#0f1213"/>
    <path id="路径_2185" data-name="路径 2185" d="M183.8,192.042a6.424,6.424,0,1,0,6.424-6.392A6.408,6.408,0,0,0,183.8,192.042Z" transform="translate(-180.206 -182.023)" fill="#0f1213"/>
  </g>
</svg>
