<?xml version="1.0" encoding="UTF-8"?>
<svg width="14px" height="14px" viewBox="0 0 14 14" version="1.1" xmlns="http://www.w3.org/2000/svg" xmlns:xlink="http://www.w3.org/1999/xlink">
    <g id="登录H5" stroke="none" stroke-width="1" fill="none" fill-rule="evenodd">
        <g id="登录白间距" transform="translate(-348.000000, -14.000000)" fill="#757575">
            <path d="M361.659527,14.3380821 C362.110303,14.7856926 362.112869,15.5139788 361.665259,15.9647549 L356.512,21.08 L361.49207,26.0253857 C361.945412,26.4818937 361.942846,27.2101799 361.49207,27.6577904 C361.037171,28.1094939 360.303018,28.1094939 359.84812,27.6577904 L354.869,22.713 L350.15188,27.3973197 C349.696982,27.8490233 348.962829,27.8490233 348.50793,27.3973197 C348.057154,26.9497092 348.054588,26.221423 348.502199,25.7706469 L353.224,21.08 L348.340473,16.2309575 C347.887131,15.7744495 347.889697,15.0461632 348.340473,14.5985528 C348.795371,14.1468492 349.529524,14.1468492 349.984423,14.5985528 L354.868,19.448 L360.015577,14.3380821 C360.470476,13.8863785 361.204629,13.8863785 361.659527,14.3380821 Z" id="形状结合"></path>
        </g>
    </g>
</svg>