<?xml version="1.0" encoding="UTF-8"?>
<svg width="24px" height="24px" viewBox="0 0 24 24" version="1.1" xmlns="http://www.w3.org/2000/svg" xmlns:xlink="http://www.w3.org/1999/xlink">
    <title>关闭2</title>
    <g id="页面-1" stroke="none" stroke-width="1"  fill-rule="evenodd">
        <g id="关闭2"  fill-rule="nonzero">
            <path d="M12,24 C5.38287096,24 0,18.617129 0,12 C0,5.38287096 5.38287096,0 12,0 C18.617129,0 24,5.38287096 24,12 C24,18.617129 18.617129,24 12,24 Z M12,1.72198053 C6.332559,1.72198053 1.72198053,6.33255897 1.72198053,12 C1.72198053,17.6665656 6.33255897,22.2780195 12,22.2780195 C17.6665656,22.2780195 22.2780195,17.6666116 22.2780195,12 C22.2780195,6.332559 17.6665656,1.72198053 12,1.72198053 Z" id="形状"></path>
            <path d="M13.2068424,12.0368614 L16.9131185,8.37085645 C17.2499856,8.03827441 17.2525659,7.49572061 16.9199839,7.15885345 C16.5874019,6.82198629 16.0439726,6.81940599 15.7079809,7.151988 L11.9965443,10.8222781 L8.34168988,7.15627313 C8.00652755,6.82111079 7.46484921,6.81940596 7.12968688,7.15456829 C6.79452455,7.48885516 6.79369519,8.03140896 7.12798205,8.36657129 L10.7776758,12.0274157 L7.09794003,15.6677098 C6.76107287,16.0011212 6.75849257,16.5428456 7.09107458,16.8797128 C7.25907043,17.0494135 7.4793634,17.1342869 7.70048577,17.1342869 C7.91819845,17.1342869 8.13591112,17.0511644 8.30307758,16.8865782 L11.9879279,13.241999 L15.7027742,16.9688713 C15.8699407,17.1368672 16.0893582,17.2208651 16.3096512,17.2208651 C16.5290687,17.2208651 16.7476569,17.1368672 16.9147772,16.9705762 C17.2499396,16.6362893 17.2507689,16.0945649 16.9164821,15.7585732 L13.2068424,12.0368614 Z" id="路径"></path>
        </g>
    </g>
</svg>