<svg xmlns="http://www.w3.org/2000/svg" width="20" height="20.002" viewBox="0 0 20 20.002">
    <path data-name="矩形 8413" style="fill:none" d="M0 0h20v20H0z"/>
    <g data-name="组 3892" transform="translate(-.218 -1.35)">
        <path data-name="路径 2379" d="M2.013 17.832a28.352 28.352 0 0 1 3.417-3.25L8.1 9.748l3.333-3.5L14.847 4l4.083 5.75-10.417 8.082H6.68l-3.667 2.75s-2.413-1.082-1-2.75z" style="fill:#fff"/>
        <path data-name="联合 25" d="M8484.155 16958.467a2.623 2.623 0 0 1 .256-3.648l2.392-2.123-.4-.469a1.753 1.753 0 0 1 .171-2.436l9.9-8.775a1.658 1.658 0 0 1 2.383.17l3.878 4.545a1.75 1.75 0 0 1-.17 2.432l-9.9 8.775a1.678 1.678 0 0 1-1.23.422 1.647 1.647 0 0 1-1.153-.588l-.152-.178-2.393 2.119a2.5 2.5 0 0 1-3.58-.246zm1.362-2.35a.874.874 0 0 0-.085 1.217.831.831 0 0 0 1.191.08l2.239-1.979-1.111-1.3zm7.921-10.641a.873.873 0 0 0-.289.592.853.853 0 0 0 .2.625l3.133 3.674a.835.835 0 0 0 1.191.084.873.873 0 0 0 .085-1.217l-3.133-3.674a.814.814 0 0 0-.578-.293h-.062a.826.826 0 0 0-.547.21zm2.341-2.078a.877.877 0 0 0-.289.592.85.85 0 0 0 .2.625l3.133 3.674a.809.809 0 0 0 .579.293.828.828 0 0 0 .612-.207.875.875 0 0 0 .085-1.219l-3.132-3.672a.835.835 0 0 0-.579-.295h-.051a.852.852 0 0 0-.558.211z" transform="translate(-8482.938 -16938)" style="fill:#0f1213"/>
        <ellipse data-name="椭圆 8" cx="3.459" cy="3.516" rx="3.459" ry="3.516" transform="translate(.641 2)" style="fill:#0f1213"/>
    </g>
</svg>
