<svg xmlns="http://www.w3.org/2000/svg" width="16" height="16" viewBox="0 0 16 16">
    <path d="M78.405 66.586h-2.531a.979.979 0 0 0-.091-.288l-.623-1.281a1.4 1.4 0 0 0-1.273-.717h-5.143a1.4 1.4 0 0 0-1.273.717l-.625 1.283a1.08 1.08 0 0 0-.093.288h-2.56a.9.9 0 0 0-.893.894v.493a.9.9 0 0 0 .893.894h1.389v10.54a.9.9 0 0 0 .893.894h9.635a.9.9 0 0 0 .89-.897V68.864h1.405a.9.9 0 0 0 .893-.894v-.493a.9.9 0 0 0-.893-.891zm-9.343 10.847a.58.58 0 1 1-1.161 0v-6.842a.58.58 0 1 1 1.161 0zm2.873 0a.58.58 0 1 1-1.161 0v-6.842a.58.58 0 1 1 1.161 0zm2.86 0a.58.58 0 1 1-1.161 0v-6.842a.58.58 0 1 1 1.161 0z" transform="translate(-63.3 -64.3)" style=""/>
</svg>
