<svg xmlns="http://www.w3.org/2000/svg" width="16" height="16" viewBox="0 0 16 16"><path class="b" d="M-591.454-10027H-600a3,3,0,0,1-3-3v-10a3,3,0,0,1,3-3h5.774v4.5a1,1,0,0,0,1,1h4.774v7.5A3,3,0,0,1-591.454-10027Zm-2.455-9.73a.725.725,0,0,0-.514.213l-4.6,4.6-.28,1.946,1.946-.277,4.6-4.6a.726.726,0,0,0,.214-.518.718.718,0,0,0-.214-.511l-.638-.641A.725.725,0,0,0-593.909-10036.73Z" transform="translate(603.727 10043)"/><path class="b" d="M-597.727-10038.032H-601.5a1,1,0,0,1-1-1v-3.5l4.774,4.48v.018Z" transform="translate(613 10042.531)"/></svg>