<?xml version="1.0" encoding="UTF-8"?>
<svg width="24px" height="25px" viewBox="0 0 24 25" version="1.1" xmlns="http://www.w3.org/2000/svg" xmlns:xlink="http://www.w3.org/1999/xlink">
    
    <g id="页面-1" stroke="none" stroke-width="1" >
        <g id="编组" transform="translate(0.000000, 0.510206)" >
            <path d="M23.3802354,11.4784311 L23.942029,10.82166 L24,11.4599697 L23.3802354,11.4784311 Z M21.2353079,7.06927725 L22.0469021,5.44489492 C22.0469021,5.44489492 23.3623188,7.28194208 23.826087,9.95123752 L22.8584963,10.8982655 L21.2353079,7.06927725 Z M16.4816847,5.90900416 L13.583134,1.32582388 L13.9710145,0.144478169 C16.1934598,0.468555803 17.9772177,1.43142603 19.2463768,2.40757648 C20.6894586,3.51749631 21.4671919,4.63267474 21.4671919,4.63267474 L20.3657427,6.3731134 L16.4816847,5.90900416 Z M7.38023541,2.71815159 C7.38023541,2.71815159 6.00191304,1.61235855 5.97101449,1.59518222 C7.52806671,0.654148468 9.05731909,0.241870051 10.4347826,0.0864500073 C11.7754083,-0.0648135969 12.9855072,0.0284218455 12.9855072,0.0284218455 L12.6555977,1.09376926 L7.38023541,2.71815159 Z M6.28458324,8.28763654 L2.69038034,11.1883483 L0.405797101,8.96475877 C0.405797101,8.96475877 0.529126599,8.08265821 1.2173913,6.70166046 C1.87154855,5.38909907 3.13043478,3.39405523 5.41501802,1.96395957 L6.85849628,3.18226083 L6.28458324,8.28763654 Z M0.0121194703,11.4784311 C0.0210493613,11.1983802 0.0363332094,10.9601137 0.0579710145,10.7636318 C0.0796088196,10.5671499 0.118256163,10.3156945 0.173913043,10.0092657 L1.24110498,11.4784311 L0.0121194703,11.4784311 Z M2.40052527,12.2906513 C2.40052527,12.2906513 3.82139483,15.5072683 4.66139483,16.5837488 C4.66139483,16.5837488 4.43722092,17.1058862 3.55994556,17.1058862 C2.78701802,17.1058862 0.764873093,16.0413015 0.255597731,14.4951992 C0.255597731,14.4951992 -0.0655616891,12.6138101 0.0121194703,12.2906513 L2.40052527,12.2906513 Z M5.47298904,17.6280236 L7.09617744,19.4264904 L4.34782609,21.2087009 C4.34782609,21.2087009 3.36231884,20.4543348 2.49275362,19.2937716 C1.83450018,18.4152351 1.27536232,17.3788422 1.27536232,17.3788422 C1.27536232,17.3788422 2.80887309,18.2081891 3.79182962,18.2081891 C4.87913396,18.2081891 5.45953976,17.6581982 5.47298904,17.6280236 Z M7.67588759,20.0646841 C7.67588759,20.0646841 9.54510498,21.4928152 9.47298904,21.51504 C8.56278614,22.5877486 8.5454528,23.4875333 8.5454528,23.4875333 C7.83663574,23.3070163 7.05415265,22.9763026 6.37681159,22.6013768 C5.58552992,22.1633819 4.95124991,21.6890664 4.95124991,21.6890664 L7.27009048,20.0646841 C7.52922092,19.9517033 7.67588759,20.0646841 7.67588759,20.0646841 Z M10.4584963,21.8631509 C10.4584963,21.8631509 12.5805217,23.3111773 15.6521739,23.4137711 C15.6521739,23.4137711 12.5003514,24.4960047 9.47298904,23.7195879 C9.47298904,23.7195879 9.76910498,22.5405717 10.4584963,21.8631509 Z M18.1628441,18.9623811 C21.3566992,17.7865565 23.4782609,15.4639129 23.4782609,15.4639129 C23.2680969,16.2422861 22.8480807,17.2407897 22.3188406,18.0751802 C21.9993144,18.5789394 21.7053399,19.0709712 21.3913043,19.4678561 C20.7907305,20.2268742 20.2498006,20.7028198 20.2498006,20.7028198 C19.744064,21.1589434 19.3516184,21.4823122 19.0724638,21.6729262 C18.8549954,21.8214193 18.6605196,21.9856266 18.3188406,22.1951797 C18.2061736,22.2642788 17.9936132,22.3803351 17.6811594,22.5433486 C14.4317101,23.1034365 11.4440035,21.4570118 11.4440035,21.4570118 C13.0774528,20.3950965 14.968989,20.1381478 18.1628441,18.9623811 Z M20.2555977,7.35936003 L21.9889311,11.4784311 L13.2932789,11.4784311 L13.0092209,11.1303201 L16.3715398,6.72122434 L20.2555977,7.35936003 Z M12.8295108,1.96395957 L15.5599456,6.43114156 L12.1976267,10.6662109 L7.20632237,8.51969116 L7.55994556,3.47234361 L12.8295108,1.96395957 Z M12.0237137,11.4784311 L3.7338586,11.4784311 L6.69038034,9.15782685 L12.0237137,11.4784311 Z M14.8005253,12.2906513 C14.8005253,12.2906513 9.67710498,17.5566489 7.84400353,18.6722984 L6.05269918,16.8158034 C6.05269918,16.8158034 7.29896005,15.786906 7.84980063,12.2906513 L14.8005253,12.2906513 Z M3.38603251,12.2906513 L6.85849628,12.2906513 C6.85849628,12.2906513 6.2876557,15.0874926 5.41501802,16.0035832 C5.41501802,16.0035832 3.86423541,13.7240629 3.38603251,12.2906513 Z M15.975134,18.6541355 C13.2295687,19.295927 10.5084673,20.8195144 10.4584963,20.8188963 L8.48168469,19.4264904 C12.2951919,16.710018 16.0179166,12.2906513 16.0179166,12.2906513 L24,12.272364 C24,13.1427864 23.7280615,13.5089525 23.7280615,13.5089525 C22.1428441,15.6012159 19.1899745,17.9026708 15.975134,18.6541355 Z" id="形状"></path>
        </g>
    </g>
</svg>