<svg xmlns="http://www.w3.org/2000/svg" width="24" height="24" viewBox="0 0 24 24">
  <g id="组_3805" data-name="组 3805" transform="translate(161 -436)">
    <rect id="矩形_8426" data-name="矩形 8426" width="24" height="24" transform="translate(-161 436)" fill="none"/>
    <path id="路径_2376" data-name="路径 2376" d="M-154,450.5a7.509,7.509,0,0,1,7.5-7.5,7.444,7.444,0,0,1,3.5.872V438a2,2,0,0,0-2-2h-14a2,2,0,0,0-2,2v20a2,2,0,0,0,2,2h14a2,2,0,0,0,2-2v-.872a7.444,7.444,0,0,1-3.5.872A7.509,7.509,0,0,1-154,450.5Zm-4-12.5h12a1,1,0,0,1,1,1,1,1,0,0,1-1,1h-12a1,1,0,0,1-1-1A1,1,0,0,1-158,438Zm0,4h5a1,1,0,0,1,1,1,1,1,0,0,1-1,1h-5a1,1,0,0,1-1-1A1,1,0,0,1-158,442Zm2,6h-2a1,1,0,0,1-1-1,1,1,0,0,1,1-1h2a1,1,0,0,1,1,1A1,1,0,0,1-156,448Zm18.707,10.293-4.677-4.677A5.47,5.47,0,0,0-141,450.5a5.5,5.5,0,0,0-5.5-5.5,5.5,5.5,0,0,0-5.5,5.5,5.5,5.5,0,0,0,5.5,5.5,5.47,5.47,0,0,0,3.116-.97l4.677,4.677A1,1,0,0,0-138,460a1,1,0,0,0,.707-.293A1,1,0,0,0-137.293,458.293ZM-146.5,454.5a.5.5,0,0,1-.5-.5.5.5,0,0,1,.5-.5,3,3,0,0,0,3-3,.5.5,0,0,1,.5-.5.5.5,0,0,1,.5.5A4,4,0,0,1-146.5,454.5Z" fill="currentColor" />
  </g>
</svg>
