<?xml version="1.0" encoding="UTF-8"?>
<svg width="24px" height="24px" viewBox="0 0 24 24" version="1.1" xmlns="http://www.w3.org/2000/svg" xmlns:xlink="http://www.w3.org/1999/xlink">
   
    <g id="页面-1" stroke="none" stroke-width="1" >
        <g id="本周热门--">
            <rect id="矩形"  opacity="0" x="0" y="0" width="24" height="24"></rect>
            <g id="热门" transform="translate(3.333333, 0.666667)" >
                <path d="M6.78940101,22.8272819 L6.773,22.82 L6.7349412,22.8030344 L6.65293928,22.7661006 L6.61684606,22.7500391 C5.53420407,22.2572787 2.32914522,20.6533357 1.05147668,18.4126953 C0.919143547,18.2238046 0.805290073,18.0142417 0.713630084,17.7793532 C0.532144648,17.3136256 0.389855771,16.8614109 0.280812377,16.4223066 C0.279537146,16.4173175 0.278418523,16.4123284 0.2772999,16.4071604 C0.251986046,16.3050338 0.228268342,16.2025181 0.206155461,16.0996509 C0.204119567,16.0889121 0.202083673,16.0781957 0.199868799,16.0674793 C0.179685352,15.9725546 0.161076364,15.8773019 0.144049498,15.7817605 C0.141275313,15.7673526 0.139261791,15.7529448 0.136487605,15.7385145 C0.120759762,15.6479508 0.106172915,15.5575884 0.0932416305,15.4683446 C0.0910267565,15.4519009 0.08878951,15.4356137 0.0863956563,15.4191923 C0.0743816426,15.3321411 0.0631059202,15.2454702 0.0538660922,15.1593585 C0.0518301979,15.1419751 0.0501746355,15.1247707 0.0483177209,15.1072307 C0.0396372045,15.0227523 0.0316949794,14.9386542 0.0254083168,14.8551378 C0.0241107138,14.8374188 0.0231934427,14.8200354 0.0215378803,14.802294 C0.0157881568,14.7195159 0.0111794291,14.6370733 0.00766695206,14.5552125 L0.00581003747,14.503465 C0.00265551991,14.4216041 0.000820977778,14.3402802 3.43480342e-05,14.2593366 L0.000561364283,14.089318 L0.00285687209,13.9677339 L0.00397549534,13.92413 C0.00649085981,13.8426267 0.0102498716,13.7611665 0.0152512177,13.6797779 C0.0158105293,13.6675849 0.0165488206,13.655034 0.017287112,13.642841 C0.0227129538,13.5603913 0.0293060344,13.4780225 0.037064371,13.3957595 C0.0379816421,13.3859604 0.0387199334,13.3763402 0.0398385567,13.36672 C0.0479703114,13.28243 0.0574574639,13.1982763 0.0682963321,13.1142915 L0.0705112061,13.0965278 C0.0818245402,13.009081 0.0947056949,12.9218442 0.109148453,12.8348594 C0.135570334,12.672234 0.167361607,12.5169914 0.201748086,12.3632255 L0.231682444,12.2359262 C0.260925605,12.11342 0.292971381,11.9915998 0.327794553,11.8705614 C0.336273717,11.840985 0.344059335,11.8106927 0.352918831,11.7814743 C0.374530633,11.7090546 0.397999348,11.6380668 0.421468064,11.5671013 C0.445854051,11.4928247 0.468785827,11.4233582 0.493171814,11.3549432 C0.504626516,11.323152 0.516841882,11.2921214 0.528654544,11.2603301 C0.570225494,11.1480386 0.614159868,11.0366362 0.660428362,10.9261973 C0.674075566,10.8936678 0.687409555,10.8607579 0.701437091,10.8284073 C0.758665923,10.6955349 0.819051415,10.5640445 0.882542194,10.4340478 C0.885517732,10.4279625 0.888828857,10.4220338 0.891804395,10.4159485 C0.952612755,10.2926539 1.01599395,10.1729164 1.08049376,10.0553939 C1.09519712,10.0286977 1.11004519,10.0020816 1.12503734,9.97554654 C1.18872503,9.86179731 1.25471502,9.74935251 1.32296654,9.63828163 C1.32630004,9.63291224 1.32945455,9.62718489 1.33296703,9.62183787 C1.40650532,9.50281636 1.48174392,9.38786663 1.55787742,9.27551211 C1.56212819,9.26960578 1.56599863,9.26291641 1.57007042,9.25701008 L1.70853264,9.06010424 C2.86651869,7.44495907 4.18731323,6.5909953 4.18731323,6.5909953 C4.18563529,6.5991165 4.18433769,6.60652179 4.18268213,6.61444164 C4.04889479,7.24961829 3.98365668,7.80624522 3.98179977,8.29266735 C3.98159841,9.36122103 4.29114384,10.0884604 4.81490562,10.5928028 C6.81766631,8.77689699 8.7021214,7.03526771 9.16082405,4.11270786 L9.16820697,4.06818666 C9.18207789,3.97578838 9.19335362,3.88097387 9.20445036,3.78636072 C9.27613174,3.16113981 9.2857519,2.48439512 9.21901483,1.74256892 L9.22588318,1.80004379 C9.17894575,1.23784611 9.09097722,0.640904004 8.95199947,0 C8.95199947,0 8.98506597,0.0343864787 9.04383843,0.0968504008 C9.04180254,0.0931365716 9.03940869,0.0887068236 9.03717144,0.0850153669 C9.98947778,1.0925817 19.1193451,11.0002949 16.4770004,17.7794203 C16.3851167,18.0143088 16.2712632,18.223894 16.1391315,18.4127624 C15.3121333,19.8627442 13.6784288,21.046091 12.3347385,21.8342506 L12.1553164,21.9359946 C11.064487,22.5601102 10.2063117,22.9090909 10.2063117,22.9090909 L10.1776153,22.711297 C10.009037,21.7504173 9.41316169,21.206166 8.59330173,20.8662164 C8.58961028,20.867693 8.58627678,20.8693709 8.58258532,20.8708475 C8.459671,20.922237 8.34214844,20.9784143 8.23033086,21.0399386 L8.2125895,21.0497377 C8.10097327,21.1120227 7.99526337,21.179677 7.89601912,21.2534166 C7.89324493,21.2554302 7.89029177,21.2572871 7.88751758,21.259144 L7.758747,21.3640192 C7.33892644,21.7241453 7.0586808,22.2165614 6.98324492,22.9090909 L6.974,22.906 L6.96,22.9 L6.94928183,22.8957485 L6.86594052,22.8602964 L6.86,22.858 L6.861,22.858 L6.852,22.854 L6.80613139,22.8343034 L6.79,22.827 L6.794,22.829 Z M8.657108,13.3537664 C8.30861212,13.3537664 8.0010131,13.4102569 7.73433331,13.5231259 C7.53380891,13.6068661 7.34934794,13.7353511 7.18097277,13.9085811 C7.01257522,14.0818559 6.87970515,14.2775031 6.78238493,14.4955451 C6.65193109,14.7914881 6.58671535,15.1574569 6.58671535,15.5934738 C6.58671535,16.2748944 6.77457694,16.8097529 7.15032249,17.1981613 C7.52600092,17.5865249 8.03220031,17.7806955 8.66878643,17.7806955 C9.2976093,17.7806955 9.79984877,17.5855405 10.1756167,17.1951857 C10.5512951,16.8048981 10.7391791,16.2642003 10.7391791,15.5731149 C10.7391791,14.8761679 10.5498185,14.3320024 10.1712317,13.940708 C9.79253297,13.5494583 9.28783254,13.3537664 8.657108,13.3537664 Z M3.31033498,13.4267677 L2.44595242,13.4267677 L2.44595242,17.7076942 L3.31033498,17.7076942 L3.31033498,15.8358571 L5.00402006,15.8358571 L5.00402006,17.7076942 L5.86840262,17.7076942 L5.86840262,13.4267677 L5.00402006,13.4267677 L5.00402006,15.1117052 L3.31033498,15.1117052 L3.31033498,13.4267677 Z M14.5091184,13.4267677 L11.107139,13.4267677 L11.107139,14.150942 L12.3774028,14.150942 L12.3774028,17.7076942 L13.241763,17.7076942 L13.241763,14.150942 L14.5091184,14.150942 L14.5091184,13.4267677 Z M8.66590038,14.0925499 C9.02213714,14.0925499 9.30778878,14.2132717 9.52294477,14.4546483 C9.73801128,14.6960248 9.84562283,15.0620159 9.84562283,15.552577 C9.84562283,16.0490443 9.7351476,16.4213222 9.51419714,16.6695447 C9.2932243,16.9177672 9.01045872,17.0418896 8.66590038,17.0418896 C8.32129731,17.0418896 8.03705514,16.9168275 7.81321863,16.6666586 C7.589315,16.4165345 7.47738555,16.0490667 7.47738555,15.5643225 C7.47738555,15.0717703 7.58640658,14.7033406 7.80444862,14.4590333 C8.02244592,14.2147259 8.30961888,14.0925499 8.66590038,14.0925499 Z" id="形状结合"></path>
            </g>
        </g>
    </g>
</svg>