<?xml version="1.0" encoding="UTF-8"?>
<svg width="24px" height="24px" viewBox="0 0 24 24" version="1.1" xmlns="http://www.w3.org/2000/svg" xmlns:xlink="http://www.w3.org/1999/xlink">
    
    <g id="页面-1" stroke="none" stroke-width="1" >
        <g id="百家乐-">
            <rect id="矩形"  opacity="0" x="0" y="0" width="24" height="24"></rect>
            <g id="编组" transform="translate(2.181818, 0.000000)" >
                <path d="M6.90509826,0.000403448978 C9.81141961,-0.0227517894 11.3525138,0.953991061 12.9672857,2.10928965 C15.8875805,4.19861003 17.8155537,7.25503111 19.0365305,11.0370065 C20.5596286,15.7549039 19.1098554,20.852153 15.5078998,22.2845403 C13.062841,23.2568492 10.3119912,21.9711352 8.81055881,21.0191664 C5.47939032,18.771771 3.41323593,15.5205363 2.03558794,11.177627 C1.57277275,9.43816892 1.34616409,6.52300183 1.89444272,4.63996718 C2.51901035,2.91303683 3.49157153,1.49838549 4.85849247,0.633055234 C5.33803338,0.381444362 5.98906574,0.199017682 6.41108996,0.0707137319 C6.67270264,0.0183505182 6.84419409,0.0781740823 6.90509826,0.000403448978 Z M9.65743017,3.02318257 C9.7016792,2.34647249 9.42905719,1.91848768 9.3045671,1.2657774 C7.96926269,1.23220582 7.19691601,1.47649711 6.26994474,1.89842919 C6.26994474,1.94530271 6.26994474,1.99217623 6.26994474,2.03897937 C6.80424999,2.19599863 7.96756895,3.14930472 8.24597791,3.51528417 C8.72191961,3.27704563 9.07873474,3.0518275 9.65743017,3.02318257 Z M1.82387011,2.3202205 C2.06678104,2.42248361 1.96699136,2.3049479 1.96501533,2.53108097 C1.67051582,2.90712486 1.63367691,3.5843276 1.40043443,4.14793596 C0.891958748,6.04736931 0.875162466,9.15277533 1.40043443,11.1073167 C3.03101465,16.3094331 5.61975925,20.454995 10.2925837,22.4954008 C11.266274,22.8875618 14.0494462,24.0022508 15.4373272,23.5498439 C15.4373272,23.5967174 15.4373272,23.6435909 15.4373272,23.6904644 C15.0319581,23.7226988 14.6035118,23.8222171 14.2375928,23.9013249 C12.6293135,24.2491462 10.2520044,23.5964359 9.23399449,23.1983628 C5.55511474,21.6375309 3.55367543,19.0801791 1.68272488,15.6063303 C0.899439445,13.9787774 -0.41913926,10.4149822 0.130127388,7.6627463 C0.469087649,6.42552461 0.598094386,5.22398592 0.976998747,4.14793596 C1.28674195,3.54913727 1.71116564,2.96293672 1.82387011,2.3202205 Z M12.4732774,2.46077069 C12.5516836,2.8629258 12.7228928,3.6396468 12.9672857,3.93700511 C13.156138,4.13878647 14.2926394,5.01931895 14.378738,4.99151859 C14.6588407,4.92423468 14.872958,4.77643528 15.0138915,4.56972727 C14.1174782,3.98423053 13.4631995,3.04971608 12.4732774,2.46077069 Z M10.0808658,3.79645492 C9.93266336,3.86669483 9.65743017,3.93700511 9.44571233,4.00731539 C8.92933252,4.29622802 8.41902195,4.87440517 8.10483268,5.48354981 C6.85873205,8.66616342 9.47499997,12.7517609 11.1323978,13.9894753 C12.0009349,14.6381739 13.5058959,15.964216 15.2256094,15.2548492 C16.8665638,14.577928 17.4039742,11.9116973 16.7076342,9.77170288 C15.8268174,7.0647218 13.7459839,3.7535931 10.0808658,3.79645492 Z M4.08219373,5.55386009 C3.70935861,7.66070526 4.31578908,9.7650871 4.64677463,11.3884875 C4.73379067,11.3884875 4.75736192,11.3884875 4.71734725,11.3884875 C5.26901336,10.9160221 7.0317761,10.2415642 7.04624348,9.56077204 C6.75710749,9.06184351 6.75393172,7.9601046 6.69338042,7.17071508 C5.80501236,6.87870571 5.03915836,5.99373924 4.08219373,5.55386009 Z M17.1310699,7.87367715 C17.0010046,8.0998806 16.824573,8.33410745 16.6370616,8.50632893 C17.1645213,9.72384403 17.2019954,10.5116852 18.4013769,11.1073167 C18.1135818,10.2500803 17.7334072,8.34325694 17.1310699,7.87367715 Z M17.3427877,14.0597856 C17.2463856,14.8438966 16.7006475,15.133513 16.6370616,15.887501 C16.9667063,16.3235092 17.2712271,17.6781963 17.4133604,18.2776284 C17.4701007,18.2058401 17.4384136,18.2583441 17.483933,18.1370078 C18.2024327,17.6180208 18.6319377,16.0475467 18.6836674,14.9033682 C18.236731,14.6221975 17.7897241,14.3409563 17.3427877,14.0597856 Z M11.0618252,15.6063303 C10.9283724,16.0017992 9.62898941,17.6183023 9.23399449,17.9261473 C9.34204116,18.0494543 9.31113036,17.9944166 9.3045671,18.0666975 C10.1007673,18.9931182 12.3065144,19.85873 13.9553023,19.894413 C13.9553023,19.8709762 13.9553023,19.8475395 13.9553023,19.8241027 C13.6225524,19.3351682 13.2666548,17.227197 13.108431,16.5201528 C12.2443399,16.4195085 11.7800427,15.8216247 11.0618252,15.6063303 Z" id="形状"></path>
            </g>
        </g>
    </g>
</svg>