<?xml version="1.0" encoding="UTF-8"?>
<svg width="24px" height="24px" viewBox="0 0 24 24" version="1.1" xmlns="http://www.w3.org/2000/svg" xmlns:xlink="http://www.w3.org/1999/xlink">
    
    <g id="页面-1" stroke="none" stroke-width="1" >
        <g id="iPhone-SE-gen-2" transform="translate(-230.000000, -376.000000)">
            <g id="收藏-2" transform="translate(230.000000, 376.000000)">
                <rect id="矩形"  opacity="0" x="0" y="0" width="24" height="24"></rect>
                <path d="M22.2480828,4.3377716 C22.0011824,4.008571 21.7542819,3.76167055 21.5073815,3.51477009 C18.6268762,0.551964684 15.5817706,0.798865135 12.7012654,3.10326934 C12.4543649,3.26786964 12.2074645,3.51477009 11.960564,3.76167055 C11.7136636,3.51477009 11.4667631,3.35016979 11.2198627,3.10326934 C8.33935742,0.881165285 5.29425186,0.551964684 2.4137466,3.51477009 C2.16684615,3.76167055 1.9199457,4.008571 1.7553454,4.3377716 C-1.70126092,9.35808077 0.191642542,14.2960898 5.29425186,18.7402979 C6.44645396,19.7278997 7.59865607,20.6332014 8.83315832,21.3739027 C9.24465907,21.6208032 9.65615983,21.8677036 9.98536043,22.1146041 C10.2322609,22.2792044 10.314561,22.3615045 10.4791613,22.3615045 C10.5614615,22.4438047 10.6437616,22.4438047 10.8083619,22.5261048 C10.8906621,22.608405 11.0552624,22.608405 11.2198627,22.6907051 C11.8782639,22.8553054 12.8658657,22.7730053 13.5242669,22.3615045 C13.606567,22.3615045 13.7711673,22.2792044 13.9357676,22.1146041 C14.2649682,21.9500038 14.676469,21.7031033 15.0879697,21.3739027 C16.322472,20.6332014 17.4746741,19.7278997 18.6268762,18.7402979 C23.8117857,14.2137896 25.7046891,9.27578062 22.2480828,4.3377716 Z" id="形状"  fill-rule="nonzero"></path>
            </g>
        </g>
    </g>
</svg>