<?xml version="1.0" encoding="UTF-8"?>
<svg width="24px" height="24px" viewBox="0 0 24 24" version="1.1" xmlns="http://www.w3.org/2000/svg" xmlns:xlink="http://www.w3.org/1999/xlink">
    <title>Teen Patti </title>
    <g id="页面-1" stroke="none" stroke-width="1" >
        <g id="Teen-Patti-">
            <rect id="矩形"  opacity="0" x="0" y="0" width="24" height="24"></rect>
            <g id="一副牌" transform="translate(0.000000, 3.000000)" >
                <path d="M10.0148139,8.05775437e-05 C10.5015828,8.05775437e-05 10.9620835,0.223441529 11.266022,0.59442054 C11.2337104,0.680638512 11.2050248,0.768790345 11.1807709,0.859037193 L8.66586521,10.245757 L7.65501993,9.49574122 L6.47326967,12.2061281 L7.8671806,13.2402602 C7.56888253,14.6087087 8.29907623,15.9872293 9.56615811,16.5254873 L5.30964936,17.6659818 C5.17129772,17.7030475 5.0321403,17.7207746 4.8950779,17.7207746 C4.18373934,17.7207746 3.5283216,17.2443196 3.33590243,16.5265348 L0.0547848491,4.28084316 C-0.174699995,3.42470676 0.338095493,2.5365005 1.19423189,2.30709623 L9.60016183,0.0548733073 C9.73851347,0.0178076372 9.87767089,8.05775437e-05 10.0148139,8.05775437e-05 Z M13.9852723,0 C14.1224153,0 14.2614922,0.0177270596 14.3998438,0.0547927297 L22.8056932,2.30709623 C23.6618296,2.5365005 24.1747056,3.42470676 23.9452208,4.28084316 L20.6641032,16.5265348 C20.471684,17.2443196 19.8161857,17.7207746 19.1049277,17.7207746 C18.9677848,17.7207746 18.8287079,17.7030475 18.6903563,17.6659818 L10.2845069,15.4136783 C9.42837051,15.1841935 8.91549444,14.2960678 9.14497929,13.4399314 L12.4260969,1.19423978 C12.618516,0.476455016 13.2740144,0 13.9852723,0 Z M14.8498694,10.3884598 C14.1121014,10.4224635 13.0077056,11.6887396 15.1313267,14.0170278 C18.1375137,13.0720143 17.819313,11.4221891 17.1987048,11.0221216 C16.6756759,10.6846629 16.1924524,10.8642702 15.8785223,11.2462078 C15.7472615,10.7928785 15.4716057,10.3600159 14.8498694,10.3884598 Z M6.09084865,3.65822048 L4.90925955,6.36860732 L7.23722536,8.0960287 L8.41881446,5.38556129 L6.09084865,3.65822048 Z M16.7031529,3.45879106 C15.9653849,3.49279479 14.8609891,4.75907089 16.9846102,7.08735901 C19.9907972,6.14234558 19.6725965,4.49252037 19.0519883,4.09245287 C18.5289594,3.75499411 18.0457359,3.93460146 17.7318058,4.31653902 C17.600545,3.86320976 17.3248892,3.43034719 16.7031529,3.45879106 Z" id="形状结合"></path>
            </g>
        </g>
    </g>
</svg>