<?xml version="1.0" encoding="UTF-8"?>
<svg width="24px" height="24px" viewBox="0 0 24 24" version="1.1" xmlns="http://www.w3.org/2000/svg" xmlns:xlink="http://www.w3.org/1999/xlink">
   
    <g id="页面-1" stroke="none" stroke-width="1" >
        <g id="收藏-">
            <rect id="矩形"  opacity="0" x="0" y="0" width="24" height="24"></rect>
            <g id="收藏" transform="translate(0.000000, 0.750000)">
                <path d="M2.72727273,13.0909091 C8.31115539,13.5832663 13.0350792,17.0442478 15.2727273,21.8722446 L12.1283198,20.6181818 C12.0756693,20.5979083 12.0230187,20.5892196 11.9703682,20.5892196 C11.9147926,20.5892196 11.8621421,20.5979083 11.8124165,20.6181818 L6.3660103,22.7903459 C6.16125819,22.8714401 5.95065601,22.9090909 5.74005384,22.9090909 C5.07607198,22.9090909 4.44719049,22.5152051 4.18393777,21.8693484 C4.0903368,21.6347546 4.04938638,21.3827836 4.06693656,21.1337088 L4.47351576,15.3383749 C4.48229085,15.2312148 4.44719049,15.1240547 4.37698976,15.0429606 Z M10.5552306,0.798915694 C11.0567917,0.00165486642 12.1136526,-0.239308294 12.913762,0.26046715 C13.1317023,0.397310427 13.3168022,0.581751364 13.4541344,0.798915694 L16.6336736,5.85616721 C16.6933833,5.94838768 16.7859332,6.01680932 16.8934106,6.04358301 L22.7061456,7.49531168 C23.6226888,7.72437542 24.1779886,8.64955497 23.9481065,9.5687848 C23.8824258,9.81867252 23.765992,10.053686 23.598805,10.2500263 L19.7535031,14.8283264 C19.6818515,14.9145971 19.6460257,15.0216919 19.6549822,15.1317615 L20.0669788,21.0874189 C20.129674,22.0274727 19.4191291,22.8396078 18.4757165,22.9050545 C18.2159795,22.9229037 17.9562425,22.8812557 17.7174039,22.7860604 L17.0904525,22.5361727 L16.5261962,21.3135077 C14.0004778,15.8308521 8.69228934,12.0944357 2.67355601,11.558962 L1.40174033,11.4459176 L0.398618112,10.2500263 C-0.207434898,9.52713685 -0.111899448,8.45023976 0.613572873,7.84634443 C0.813600221,7.67975262 1.04646788,7.56075846 1.29724844,7.49828653 L7.10998345,6.04655786 C7.21746084,6.01978418 7.3100108,5.95136254 7.36972046,5.85914207 Z" id="形状结合"></path>
            </g>
        </g>
    </g>
</svg>