<?xml version="1.0" encoding="UTF-8"?>
<svg width="24px" height="24px" viewBox="0 0 24 24" version="1.1" xmlns="http://www.w3.org/2000/svg" xmlns:xlink="http://www.w3.org/1999/xlink">
   
    <g stroke="none" stroke-width="1" >
        <g >
            <path d="M10.9661329,15.5999544 C11.0935741,16.2950882 11.6994093,16.7999509 12.4061287,16.7999509 C13.1128481,16.7999509 13.7186833,16.2950882 13.8461245,15.5999544 L14.8061217,2.39999299 C14.8033424,1.07566639 13.7304553,0.00277928434 12.4061287,0 C11.732438,0.0166134658 11.0948692,0.308104539 10.641558,0.806746858 C10.1882468,1.30538918 9.95865815,1.96777127 10.0061357,2.63999228 L10.9661329,15.5999544 Z M12.4061287,19.1999439 C11.4354221,19.1999439 10.5602976,19.7846834 10.1888243,20.6814993 C9.81735098,21.5783152 10.0226842,22.610595 10.7090774,23.2969882 C11.3954706,23.9833814 12.4277504,24.1887146 13.3245663,23.8172413 C14.2213822,23.4457679 14.8061217,22.5706434 14.8061217,21.5999368 C14.8452615,20.9522113 14.6050015,20.3187571 14.146155,19.8599106 C13.6873084,19.401064 13.0538542,19.1608041 12.4061287,19.1999439 Z" ></path>
        </g>
    </g>
</svg>