<?xml version="1.0" encoding="UTF-8"?>
<svg width="25px" height="25px" viewBox="0 0 25 25" version="1.1" xmlns="http://www.w3.org/2000/svg" xmlns:xlink="http://www.w3.org/1999/xlink">
   
    <g  stroke="none" stroke-width="1" >
        <g transform="translate(0.030303, 0.272727)" >
            <path d="M12.0131858,0 C13.6721438,0 15.2285222,0.316784532 16.6823746,0.94994667 C18.135844,1.58313559 19.402602,2.43932629 20.4814465,3.51855352 C21.5606738,4.59742207 22.4168644,5.86415595 23.0500533,7.31762547 C23.6832128,8.77147776 24,10.3278562 24,11.9868142 C24,13.6453893 23.6832396,15.2061794 23.0500533,16.66919 C22.4168939,18.1318418 21.5606738,19.4026047 20.4814465,20.4814465 C19.4026047,21.5606738 18.1358735,22.4172499 16.6823746,23.0500533 C15.2285222,23.6835983 13.6721438,24 12.0131858,24 C10.3546402,24 8.79384734,23.6835983 7.33080997,23.0500533 C5.86815813,22.4172499 4.59739529,21.5606738 3.51855352,20.4814465 C2.43932626,19.4025779 1.58275008,18.1318418 0.94994667,16.66919 C0.316401704,15.2061794 0,13.6453893 0,11.9868142 C0,10.3278562 0.316401704,8.77147776 0.94994667,7.31762547 C1.58275008,5.86412917 2.43932626,4.59739797 3.51855352,3.51855352 C4.59739529,2.43932629 5.86815813,1.58310613 7.33080997,0.94994667 C8.79384734,0.31678719 10.3546375,0 12.0131858,0 Z M12,16.8605576 C11.0412354,16.8605576 10.2646794,17.6371136 10.2646794,18.5958782 C10.2646794,19.5546428 11.0412354,20.3311988 12,20.3311988 C12.9587646,20.3311988 13.7353206,19.5546428 13.7353206,18.5958782 C13.7353206,17.6371136 12.9587646,16.8605576 12,16.8605576 Z M12,3.41518732 C11.0412354,3.41518732 10.2646794,4.22518168 10.2646794,5.22523062 L11.1323397,13.3704255 C11.1323397,14.3704744 11.5210515,15.1804688 12,15.1804688 C12.4789485,15.1804688 12.8676603,14.3704744 12.8676603,13.3704255 L13.7353206,5.22523062 C13.7353206,4.22518168 12.9587646,3.41518732 12,3.41518732 Z" ></path>
        </g>
    </g>
</svg>