<svg xmlns="http://www.w3.org/2000/svg" width="18" height="18" viewBox="0 0 18 18">
    <path data-name="语言" d="M145.83 136.83a9 9 0 1 0 9 9 9.01 9.01 0 0 0-9-9zm6.375 4.846h-2.062a10.021 10.021 0 0 0-1.2-2.787 7.658 7.658 0 0 1 3.258 2.788zm-2.913 4.154a15 15 0 0 1-.253 2.769h-6.418a15.291 15.291 0 0 1 0-5.539h6.418a15 15 0 0 1 .253 2.769zm-3.462 7.615c-1.06 0-2.2-1.317-2.867-3.461h5.737c-.674 2.144-1.81 3.461-2.87 3.461zm-2.867-11.769c.672-2.144 1.807-3.461 2.867-3.461s2.2 1.317 2.867 3.461zm-.249-2.787a10.02 10.02 0 0 0-1.2 2.787h-2.062a7.657 7.657 0 0 1 3.262-2.787zm-3.97 4.172h2.467a17.01 17.01 0 0 0 0 5.539h-2.467a7.517 7.517 0 0 1-.001-5.539zm.712 6.923h2.062a10.02 10.02 0 0 0 1.2 2.787 7.658 7.658 0 0 1-3.263-2.787zm9.491 2.787a10.021 10.021 0 0 0 1.2-2.787h2.053a7.658 7.658 0 0 1-3.254 2.787zm3.97-4.172h-2.467a17.01 17.01 0 0 0 0-5.539h2.467a7.517 7.517 0 0 1 0 5.54z" transform="translate(-136.83 -136.83)" />
</svg>
