<svg xmlns="http://www.w3.org/2000/svg" width="28" height="28" viewBox="0 0 28 28"><path class="b" d="M399.444,144.588V142h-2.489v2.588a7.827,7.827,0,0,1,2.489,0Zm-6.455,1.641L391.16,144.4l-1.76,1.76,1.829,1.829A8.8,8.8,0,0,1,392.99,146.23Zm12.181,1.76L407,146.16l-1.76-1.76-1.829,1.829A8.8,8.8,0,0,1,405.17,147.989ZM389.489,153.2a8.731,8.731,0,0,1,.1-1.244H387v2.489h2.588A8.731,8.731,0,0,1,389.489,153.2Zm17.323-1.244a7.828,7.828,0,0,1,0,2.489H409.4v-2.489Zm-3.4,8.215L405.24,162l1.76-1.76-1.829-1.829A8.8,8.8,0,0,1,403.411,160.17Zm-12.181-1.76L389.4,160.24l1.76,1.76,1.829-1.829A8.8,8.8,0,0,1,391.23,158.41Zm5.726,3.4V164.4h2.489v-2.588a7.828,7.828,0,0,1-2.489,0Zm1.244-14.834a6.222,6.222,0,1,0,6.222,6.222A6.223,6.223,0,0,0,398.2,146.978Zm0,9.956a3.733,3.733,0,1,1,3.733-3.733A3.738,3.738,0,0,1,398.2,156.933Z" transform="translate(-384.2 -139.2)"/><circle class="b" cx="4.2" cy="4.2" r="4.2" transform="translate(9.8 9.8)"/></svg>