<svg xmlns="http://www.w3.org/2000/svg" version="1.1" viewBox="0.00 0.00 200.00 200.00" width="200.00" height="200.00">
<g stroke-width="2.00" fill="none" stroke-linecap="butt">
<path stroke="#548cf0" vector-effect="non-scaling-stroke" d="&#10;  M 196.19 101.52&#10;  Q 195.67 103.67 194.17 100.34&#10;  Q 193.94 99.83 193.38 99.87&#10;  C 190.40 100.03 185.40 102.06 182.37 99.83&#10;  Q 181.99 99.56 181.82 99.13&#10;  Q 172.48 76.11 160.29 54.45&#10;  Q 158.25 50.81 155.87 47.34&#10;  Q 155.58 46.93 155.10 46.81&#10;  L 154.22 46.59"/>
<path stroke="#4e7acf" vector-effect="non-scaling-stroke" d="&#10;  M 197.80 109.35&#10;  Q 193.50 112.86 185.96 114.35&#10;  Q 185.82 114.37 185.44 114.69&#10;  Q 185.37 114.75 185.34 114.81&#10;  Q 185.08 115.30 184.87 114.79&#10;  Q 183.81 112.25 180.67 113.39&#10;  Q 177.47 114.56 170.54 116.00&#10;  Q 167.75 116.58 166.50 114.19"/>
<path stroke="#8789b4" vector-effect="non-scaling-stroke" d="&#10;  M 166.50 114.19&#10;  L 161.26 100.75"/>
<path stroke="#9d9ac1" vector-effect="non-scaling-stroke" d="&#10;  M 161.26 100.75&#10;  L 148.13 72.28"/>
<path stroke="#857e9e" vector-effect="non-scaling-stroke" d="&#10;  M 166.50 114.19&#10;  L 169.17 123.23"/>
<path stroke="#d39e90" vector-effect="non-scaling-stroke" d="&#10;  M 164.70 122.57&#10;  C 163.60 117.97 163.65 115.13 159.14 112.51&#10;  Q 158.67 112.24 158.13 112.26&#10;  Q 156.05 112.35 154.92 110.50&#10;  Q 154.70 110.13 154.87 109.73&#10;  Q 156.26 106.45 156.01 103.03"/>
<path stroke="#d39e90" vector-effect="non-scaling-stroke" d="&#10;  M 161.26 100.75&#10;  Q 161.36 101.77 160.81 102.05&#10;  Q 160.31 102.30 159.99 101.85&#10;  Q 158.59 99.86 156.51 100.84"/>
<path stroke="#c76c5e" vector-effect="non-scaling-stroke" d="&#10;  M 156.51 100.84&#10;  Q 154.49 98.30 151.73 97.73"/>
<path stroke="#548cf0" vector-effect="non-scaling-stroke" d="&#10;  M 153.94 46.84&#10;  Q 167.43 68.85 177.45 92.89&#10;  Q 177.80 93.71 177.26 93.95&#10;  A 0.49 0.49 0.0 0 1 176.61 93.72&#10;  L 172.70 85.66&#10;  A 2.61 2.61 0.0 0 0 168.70 84.78&#10;  Q 166.69 86.41 163.97 86.48&#10;  A 1.60 1.57 24.6 0 0 163.06 86.81&#10;  Q 160.66 88.64 157.69 88.03&#10;  A 0.87 0.86 82.3 0 1 157.07 87.55&#10;  L 152.59 78.10&#10;  A 0.26 0.26 0.0 0 0 152.14 78.07&#10;  L 151.90 78.43&#10;  A 0.17 0.16 -43.8 0 1 151.62 78.43&#10;  L 148.13 72.28"/>
<path stroke="#a1a1cc" vector-effect="non-scaling-stroke" d="&#10;  M 148.13 72.28&#10;  Q 143.47 63.68 140.69 59.06&#10;  Q 139.56 57.20 137.38 57.60"/>
<path stroke="#acaed8" vector-effect="non-scaling-stroke" d="&#10;  M 137.38 57.60&#10;  Q 137.00 57.19 137.15 57.08"/>
<path stroke="#c76c5e" vector-effect="non-scaling-stroke" d="&#10;  M 138.41 136.26&#10;  Q 139.43 136.35 140.10 135.79&#10;  A 0.66 0.66 0.0 0 0 139.89 134.66&#10;  L 97.76 120.47"/>
<path stroke="#f4b7a3" vector-effect="non-scaling-stroke" d="&#10;  M 97.76 120.47&#10;  Q 98.58 118.61 100.25 118.99&#10;  Q 110.47 121.31 119.62 124.60&#10;  Q 128.05 127.63 131.77 128.48&#10;  C 139.96 130.34 149.36 132.56 155.71 125.75&#10;  Q 156.04 125.39 155.88 124.93&#10;  C 154.90 122.18 154.16 120.69 151.25 119.41&#10;  Q 147.26 117.66 144.48 114.89"/>
<path stroke="#c76c5e" vector-effect="non-scaling-stroke" d="&#10;  M 144.48 114.89&#10;  Q 142.90 112.87 137.88 112.45"/>
<path stroke="#b15b51" vector-effect="non-scaling-stroke" d="&#10;  M 156.51 100.84&#10;  Q 159.35 103.18 158.26 106.30&#10;  A 0.48 0.48 0.0 0 1 157.34 106.25&#10;  L 156.81 104.10&#10;  Q 156.69 103.59 156.29 103.26&#10;  L 156.01 103.03"/>
<path stroke="#c76c5e" vector-effect="non-scaling-stroke" d="&#10;  M 156.01 103.03&#10;  Q 155.81 101.72 155.08 100.97"/>
<path stroke="#f4b7a3" vector-effect="non-scaling-stroke" d="&#10;  M 145.45 72.96&#10;  C 147.28 79.80 142.26 84.25 147.40 90.83&#10;  Q 149.25 93.20 147.33 95.15&#10;  Q 146.94 95.54 147.37 95.88&#10;  Q 149.23 97.33 151.73 97.73"/>
<path stroke="#d17364" vector-effect="non-scaling-stroke" d="&#10;  M 151.73 97.73&#10;  L 155.08 100.97"/>
<path stroke="#f4b7a3" vector-effect="non-scaling-stroke" d="&#10;  M 155.08 100.97&#10;  L 153.88 105.25&#10;  Q 153.75 105.73 153.38 106.07&#10;  C 149.85 109.31 147.13 112.40 141.76 110.75&#10;  Q 139.95 110.20 137.88 112.45"/>
<path stroke="#d17364" vector-effect="non-scaling-stroke" d="&#10;  M 137.88 112.45&#10;  L 100.47 101.82"/>
<path stroke="#f4bda9" vector-effect="non-scaling-stroke" d="&#10;  M 137.38 57.60&#10;  Q 143.15 64.39 145.45 72.96"/>
<path stroke="#ffc4af" vector-effect="non-scaling-stroke" d="&#10;  M 145.45 72.96&#10;  L 144.10 76.74&#10;  Q 143.94 77.20 143.48 77.40&#10;  L 141.05 78.43&#10;  Q 140.55 78.64 140.80 78.16&#10;  L 140.94 77.90&#10;  A 0.12 0.12 0.0 0 0 140.83 77.72&#10;  Q 138.46 77.95 136.30 76.99&#10;  Q 135.88 76.80 135.42 76.80&#10;  Q 128.92 76.77 124.09 72.61&#10;  C 117.80 67.19 107.53 69.20 101.01 72.78&#10;  Q 97.58 74.66 94.57 75.89&#10;  C 91.77 77.03 81.93 77.38 79.77 74.96&#10;  C 76.65 71.49 79.54 65.46 83.40 64.00&#10;  Q 83.87 63.83 84.20 63.45&#10;  C 86.54 60.82 89.33 59.25 91.29 56.30&#10;  Q 91.76 55.59 91.03 56.03&#10;  C 88.02 57.86 84.85 59.06 82.20 61.34&#10;  Q 78.17 64.79 74.12 68.21&#10;  C 72.70 69.40 72.18 70.95 71.11 72.45&#10;  Q 70.84 72.82 70.82 73.28&#10;  C 70.45 79.29 74.80 82.24 80.19 82.70&#10;  C 86.45 83.23 91.54 84.61 97.87 82.92&#10;  C 99.32 82.53 100.98 82.68 102.44 83.09&#10;  Q 114.39 86.41 126.39 89.60&#10;  C 133.02 91.36 139.18 95.78 145.26 97.97&#10;  C 147.46 98.77 150.94 100.08 151.84 101.71&#10;  Q 152.20 102.37 152.20 102.44&#10;  A 1.69 1.69 0.0 0 1 150.61 104.16&#10;  Q 141.93 104.71 133.77 103.16&#10;  C 126.12 101.71 115.38 101.55 106.21 100.58&#10;  C 105.08 100.46 103.91 99.76 102.48 100.04&#10;  Q 102.04 100.13 101.86 100.55&#10;  Q 101.51 101.40 100.47 101.82"/>
<path stroke="#d2796a" vector-effect="non-scaling-stroke" d="&#10;  M 100.47 101.82&#10;  L 98.08 101.49&#10;  Q 97.57 101.42 97.98 101.73&#10;  Q 99.58 102.95 101.50 103.50&#10;  Q 120.55 108.99 139.40 114.14"/>
<path stroke="#ffc4af" vector-effect="non-scaling-stroke" d="&#10;  M 139.40 114.14&#10;  Q 140.72 117.18 144.73 117.80&#10;  Q 148.29 118.36 151.21 121.92&#10;  A 1.08 1.07 27.0 0 1 151.45 122.65&#10;  Q 151.37 124.50 149.42 124.45&#10;  Q 142.62 124.25 135.27 121.53&#10;  C 132.69 120.58 129.68 120.64 126.95 119.22&#10;  Q 126.51 118.99 126.01 119.01&#10;  C 123.15 119.08 120.50 117.94 117.74 118.43&#10;  C 109.10 119.98 103.56 119.39 95.08 116.51&#10;  Q 94.59 116.34 94.13 116.58&#10;  L 90.17 118.63"/>
<path stroke="#d2796a" vector-effect="non-scaling-stroke" d="&#10;  M 90.17 118.63&#10;  Q 92.42 120.02 93.31 120.29&#10;  Q 113.92 126.71 134.30 133.94"/>
<path stroke="#ffc4af" vector-effect="non-scaling-stroke" d="&#10;  M 134.30 133.94&#10;  Q 133.63 134.92 133.74 135.83&#10;  Q 133.79 136.20 134.10 136.41&#10;  L 136.22 137.84&#10;  A 0.60 0.60 0.0 0 1 136.21 138.84&#10;  C 129.63 143.16 112.78 137.04 105.98 134.20&#10;  Q 102.95 132.93 100.75 133.30&#10;  Q 100.44 133.35 100.26 133.25&#10;  Q 99.98 133.07 99.93 132.74&#10;  Q 99.86 132.29 99.42 132.18&#10;  C 96.31 131.38 91.82 129.05 88.87 130.73&#10;  A 0.97 0.95 -44.5 0 1 87.92 130.73&#10;  L 86.75 130.05&#10;  Q 86.30 129.79 85.78 129.73&#10;  Q 79.27 128.89 72.77 128.02&#10;  C 65.40 127.03 59.53 123.48 53.98 118.92&#10;  A 1.06 1.03 17.6 0 1 53.60 118.21&#10;  Q 53.26 114.92 49.99 114.19&#10;  Q 49.44 114.06 49.36 113.51&#10;  C 49.05 111.57 48.50 109.66 48.88 107.72&#10;  Q 50.64 98.74 54.49 90.43&#10;  C 55.33 88.62 55.54 86.52 56.65 84.59&#10;  Q 56.89 84.18 56.95 83.70&#10;  L 57.50 79.26"/>
<path stroke="#f4bda9" vector-effect="non-scaling-stroke" d="&#10;  M 57.50 79.26&#10;  Q 58.85 77.26 59.98 75.09&#10;  C 61.01 73.08 60.96 70.71 62.52 68.54&#10;  A 1.49 1.48 -29.3 0 0 62.80 67.56&#10;  Q 62.65 65.35 63.75 63.55&#10;  Q 64.02 63.10 63.99 62.57&#10;  Q 63.88 60.68 64.59 58.75"/>
<path stroke="#d17364" vector-effect="non-scaling-stroke" d="&#10;  M 97.76 120.47&#10;  L 90.17 118.63"/>
<path stroke="#d17364" vector-effect="non-scaling-stroke" d="&#10;  M 144.48 114.89&#10;  L 139.40 114.14"/>
<path stroke="#d17364" vector-effect="non-scaling-stroke" d="&#10;  M 134.30 133.94&#10;  Q 136.82 134.74 138.41 136.26"/>
<path stroke="#f4b7a3" vector-effect="non-scaling-stroke" d="&#10;  M 138.41 136.26&#10;  L 139.87 140.23"/>
<path stroke="#f4b7a3" vector-effect="non-scaling-stroke" d="&#10;  M 139.27 144.82&#10;  Q 138.37 144.82 137.54 144.03&#10;  Q 137.15 143.65 136.74 144.02&#10;  C 132.57 147.84 128.59 147.76 123.09 145.95&#10;  C 118.84 144.55 114.78 143.09 110.42 142.01&#10;  Q 108.41 141.51 106.01 140.22&#10;  Q 101.16 137.61 88.79 134.03&#10;  Q 88.34 133.90 87.87 133.97&#10;  C 86.25 134.19 83.07 132.43 82.44 134.89&#10;  A 0.60 0.60 0.0 0 0 82.89 135.62&#10;  L 86.25 136.38"/>
<path stroke="#ffc4af" vector-effect="non-scaling-stroke" d="&#10;  M 86.25 136.38&#10;  Q 84.88 136.69 84.73 137.99&#10;  Q 84.67 138.52 85.08 138.85&#10;  C 86.06 139.64 86.72 140.54 87.86 141.09&#10;  Q 102.61 148.23 113.26 151.03&#10;  Q 116.01 151.75 116.70 147.91"/>
<path stroke="#d17364" vector-effect="non-scaling-stroke" d="&#10;  M 116.70 147.91&#10;  L 121.20 149.99"/>
<path stroke="#f4b7a3" vector-effect="non-scaling-stroke" d="&#10;  M 57.50 79.26&#10;  Q 59.87 74.57 61.24 69.71&#10;  Q 61.32 69.42 61.21 69.22&#10;  Q 61.07 68.98 60.99 69.24&#10;  C 59.49 73.86 57.43 77.86 55.52 82.31&#10;  C 54.86 83.86 54.72 85.56 53.95 87.29&#10;  Q 52.70 90.08 52.44 90.87&#10;  C 50.90 95.47 48.44 99.64 47.42 104.56&#10;  C 46.76 107.77 44.85 110.72 45.02 114.58&#10;  A 1.00 1.00 0.0 0 1 44.79 115.27&#10;  Q 42.39 118.17 45.03 120.54&#10;  Q 45.41 120.87 45.44 121.38&#10;  Q 45.51 122.41 46.52 122.73&#10;  A 1.84 1.82 -13.0 0 1 47.28 123.20&#10;  Q 48.77 124.72 50.78 125.49&#10;  A 1.00 0.98 -4.7 0 1 51.25 125.88&#10;  Q 52.42 127.76 54.48 128.34&#10;  Q 54.92 128.47 55.23 128.81&#10;  Q 57.05 130.81 59.46 131.91&#10;  Q 62.44 133.27 63.60 134.11&#10;  Q 68.79 137.90 70.73 138.71&#10;  C 72.83 139.59 74.14 140.89 75.51 141.61&#10;  C 79.08 143.50 82.34 146.00 86.32 147.19&#10;  C 89.16 148.03 91.49 149.92 94.54 150.60&#10;  C 102.69 152.45 115.17 159.16 121.51 150.98"/>
<path stroke="#c76c5e" vector-effect="non-scaling-stroke" d="&#10;  M 121.50 149.04&#10;  Q 120.10 148.87 119.23 147.83&#10;  Q 118.91 147.45 118.44 147.28&#10;  L 87.28 135.98&#10;  Q 86.69 135.77 86.48 136.35&#10;  Q 86.41 136.56 86.34 136.87"/>
<path stroke="#f4bda9" vector-effect="non-scaling-stroke" d="&#10;  M 86.34 136.87&#10;  Q 86.30 136.63 86.25 136.38"/>
<path stroke="#d2796a" vector-effect="non-scaling-stroke" d="&#10;  M 116.70 147.91&#10;  L 86.34 136.87"/>
<path stroke="#d39e90" vector-effect="non-scaling-stroke" d="&#10;  M 63.26 58.76&#10;  L 61.57 63.39&#10;  A 0.76 0.60 64.9 0 0 61.53 63.56&#10;  C 61.34 66.45 58.79 70.82 57.63 73.64&#10;  C 57.07 74.99 55.89 76.30 55.62 78.06&#10;  Q 55.54 78.58 55.22 79.00&#10;  Q 53.71 80.96 53.44 83.41&#10;  A 1.62 1.59 -22.8 0 1 53.09 84.25&#10;  C 51.33 86.46 50.94 90.10 49.56 92.78&#10;  Q 47.26 97.26 46.66 99.00&#10;  Q 44.19 106.08 41.90 113.21&#10;  C 41.38 114.80 41.24 116.59 40.62 118.28&#10;  Q 39.78 120.62 39.58 122.02&#10;  Q 39.20 124.72 38.75 127.45"/>
<path stroke="#857e9e" vector-effect="non-scaling-stroke" d="&#10;  M 35.95 126.54&#10;  Q 34.17 121.54 36.38 115.52&#10;  C 37.12 113.49 37.38 111.33 38.05 109.24"/>
<path stroke="#8789b4" vector-effect="non-scaling-stroke" d="&#10;  M 63.13 58.50&#10;  C 54.90 61.00 40.96 100.60 38.05 109.24"/>
<path stroke="#4e7acf" vector-effect="non-scaling-stroke" d="&#10;  M 38.05 109.24&#10;  C 35.86 112.02 35.14 115.94 34.48 119.24&#10;  Q 34.38 119.73 33.93 119.92&#10;  Q 30.51 121.35 28.07 120.69&#10;  C 24.66 119.76 19.41 117.99 17.50 120.27&#10;  Q 17.12 120.71 17.04 120.13&#10;  L 16.98 119.66&#10;  Q 16.93 119.33 16.72 119.59&#10;  L 16.36 120.04&#10;  Q 16.09 120.36 15.69 120.24&#10;  L 3.96 116.89"/>
<path stroke="#548cf0" vector-effect="non-scaling-stroke" d="&#10;  M 5.68 102.26&#10;  Q 7.37 102.08 7.51 100.92&#10;  C 7.79 98.69 8.94 96.58 10.24 94.96&#10;  A 2.83 2.82 30.3 0 1 13.53 94.10&#10;  Q 15.44 94.88 17.50 94.75&#10;  Q 18.07 94.71 18.34 95.20&#10;  L 18.79 96.02&#10;  A 0.64 0.64 0.0 0 0 19.95 95.93&#10;  C 21.19 92.50 23.40 89.84 24.64 86.68&#10;  Q 31.58 69.03 40.92 52.63&#10;  A 0.87 0.86 17.8 0 0 40.25 51.34&#10;  Q 35.98 50.90 33.05 47.68&#10;  Q 32.84 47.45 32.53 47.37&#10;  Q 31.76 47.17 30.73 45.47"/>
<path stroke="#548cf0" vector-effect="non-scaling-stroke" d="&#10;  M 50.13 75.71&#10;  C 52.19 71.72 53.25 67.45 55.58 63.54&#10;  A 1.31 1.29 57.5 0 0 55.76 62.69&#10;  Q 55.48 60.48 53.72 59.47&#10;  Q 47.72 56.00 43.75 52.29&#10;  Q 43.36 51.93 43.07 52.37&#10;  Q 39.29 57.99 35.61 65.84&#10;  Q 26.84 84.53 20.09 104.00&#10;  Q 19.30 106.29 21.07 104.63&#10;  C 23.62 102.23 32.98 104.21 36.06 105.21&#10;  A 1.60 1.60 0.0 0 0 38.05 104.24&#10;  C 41.60 94.54 45.42 84.87 50.13 75.71"/>
<path stroke="#f4b7a3" vector-effect="non-scaling-stroke" d="&#10;  M 115.60 72.08&#10;  Q 115.46 71.56 114.45 71.32&#10;  C 111.18 70.54 108.65 72.23 106.20 72.80&#10;  C 102.14 73.75 99.19 75.97 95.40 77.39&#10;  Q 93.32 78.18 91.37 79.26&#10;  Q 90.95 79.50 90.46 79.50&#10;  L 85.32 79.50&#10;  Q 84.92 79.50 84.60 79.24&#10;  Q 83.16 78.07 81.88 77.98&#10;  A 0.99 0.99 0.0 0 0 81.31 79.82&#10;  L 84.81 81.88&#10;  A 0.52 0.46 59.9 0 0 85.02 81.95&#10;  C 88.82 82.31 92.55 82.66 96.35 81.58&#10;  C 100.75 80.33 103.98 81.18 109.31 82.59&#10;  C 110.91 83.01 116.05 83.79 115.47 80.60&#10;  Q 115.38 80.09 115.71 79.68&#10;  Q 118.39 76.33 115.87 72.95&#10;  Q 115.81 72.88 115.60 72.08"/>
<path stroke="#c76c5e" vector-effect="non-scaling-stroke" d="&#10;  M 106.08 76.58&#10;  L 103.69 77.80&#10;  Q 103.11 78.10 103.60 78.52&#10;  Q 104.68 79.44 106.27 79.82"/>
<path stroke="#d39e90" vector-effect="non-scaling-stroke" d="&#10;  M 106.27 79.82&#10;  Q 107.90 81.84 111.07 78.83&#10;  Q 111.99 77.95 111.17 76.97&#10;  Q 109.48 74.93 106.08 76.58"/>
<path stroke="#b15b51" vector-effect="non-scaling-stroke" d="&#10;  M 106.27 79.82&#10;  Q 106.70 77.62 106.08 76.58"/>
</g>
<path fill="#5892fb" d="&#10;  M 196.19 101.52&#10;  Q 195.67 103.67 194.17 100.34&#10;  Q 193.94 99.83 193.38 99.87&#10;  C 190.40 100.03 185.40 102.06 182.37 99.83&#10;  Q 181.99 99.56 181.82 99.13&#10;  Q 172.48 76.11 160.29 54.45&#10;  Q 158.25 50.81 155.87 47.34&#10;  Q 155.58 46.93 155.10 46.81&#10;  L 154.22 46.59&#10;  L 162.78 40.72&#10;  A 2.99 2.99 0.0 0 1 166.76 41.25&#10;  Q 170.19 45.31 172.51 49.21&#10;  Q 187.22 73.97 196.19 101.52&#10;  Z"/>
<path fill="#5085e5" d="&#10;  M 63.13 58.50&#10;  C 54.90 61.00 40.96 100.60 38.05 109.24&#10;  C 35.86 112.02 35.14 115.94 34.48 119.24&#10;  Q 34.38 119.73 33.93 119.92&#10;  Q 30.51 121.35 28.07 120.69&#10;  C 24.66 119.76 19.41 117.99 17.50 120.27&#10;  Q 17.12 120.71 17.04 120.13&#10;  L 16.98 119.66&#10;  Q 16.93 119.33 16.72 119.59&#10;  L 16.36 120.04&#10;  Q 16.09 120.36 15.69 120.24&#10;  L 3.96 116.89&#10;  Q 3.30 110.12 5.68 102.26&#10;  Q 7.37 102.08 7.51 100.92&#10;  C 7.79 98.69 8.94 96.58 10.24 94.96&#10;  A 2.83 2.82 30.3 0 1 13.53 94.10&#10;  Q 15.44 94.88 17.50 94.75&#10;  Q 18.07 94.71 18.34 95.20&#10;  L 18.79 96.02&#10;  A 0.64 0.64 0.0 0 0 19.95 95.93&#10;  C 21.19 92.50 23.40 89.84 24.64 86.68&#10;  Q 31.58 69.03 40.92 52.63&#10;  A 0.87 0.86 17.8 0 0 40.25 51.34&#10;  Q 35.98 50.90 33.05 47.68&#10;  Q 32.84 47.45 32.53 47.37&#10;  Q 31.76 47.17 30.73 45.47&#10;  C 34.70 40.97 41.11 46.68 44.63 49.20&#10;  A 0.98 0.98 0.0 0 0 46.04 48.92&#10;  Q 47.12 47.16 49.35 48.22&#10;  C 53.62 50.27 62.98 54.44 63.13 58.50&#10;  Z&#10;  M 50.13 75.71&#10;  C 52.19 71.72 53.25 67.45 55.58 63.54&#10;  A 1.31 1.29 57.5 0 0 55.76 62.69&#10;  Q 55.48 60.48 53.72 59.47&#10;  Q 47.72 56.00 43.75 52.29&#10;  Q 43.36 51.93 43.07 52.37&#10;  Q 39.29 57.99 35.61 65.84&#10;  Q 26.84 84.53 20.09 104.00&#10;  Q 19.30 106.29 21.07 104.63&#10;  C 23.62 102.23 32.98 104.21 36.06 105.21&#10;  A 1.60 1.60 0.0 0 0 38.05 104.24&#10;  C 41.60 94.54 45.42 84.87 50.13 75.71&#10;  Z"/>
<path fill="#5892fb" d="&#10;  M 153.94 46.84&#10;  Q 167.43 68.85 177.45 92.89&#10;  Q 177.80 93.71 177.26 93.95&#10;  A 0.49 0.49 0.0 0 1 176.61 93.72&#10;  L 172.70 85.66&#10;  A 2.61 2.61 0.0 0 0 168.70 84.78&#10;  Q 166.69 86.41 163.97 86.48&#10;  A 1.60 1.57 24.6 0 0 163.06 86.81&#10;  Q 160.66 88.64 157.69 88.03&#10;  A 0.87 0.86 82.3 0 1 157.07 87.55&#10;  L 152.59 78.10&#10;  A 0.26 0.26 0.0 0 0 152.14 78.07&#10;  L 151.90 78.43&#10;  A 0.17 0.16 -43.8 0 1 151.62 78.43&#10;  L 148.13 72.28&#10;  Q 143.47 63.68 140.69 59.06&#10;  Q 139.56 57.20 137.38 57.60&#10;  Q 137.00 57.19 137.15 57.08&#10;  Q 136.80 53.66 139.61 51.92&#10;  C 143.11 49.75 146.41 47.36 150.03 45.30&#10;  A 1.29 1.29 0.0 0 1 150.98 45.18&#10;  Q 152.47 45.55 153.94 46.84&#10;  Z"/>
<path fill="#5892fb" d="&#10;  M 30.73 45.47&#10;  Q 31.76 47.17 32.53 47.37&#10;  Q 32.84 47.45 33.05 47.68&#10;  Q 35.98 50.90 40.25 51.34&#10;  A 0.87 0.86 17.8 0 1 40.92 52.63&#10;  Q 31.58 69.03 24.64 86.68&#10;  C 23.40 89.84 21.19 92.50 19.95 95.93&#10;  A 0.64 0.64 0.0 0 1 18.79 96.02&#10;  L 18.34 95.20&#10;  Q 18.07 94.71 17.50 94.75&#10;  Q 15.44 94.88 13.53 94.10&#10;  A 2.83 2.82 30.3 0 0 10.24 94.96&#10;  C 8.94 96.58 7.79 98.69 7.51 100.92&#10;  Q 7.37 102.08 5.68 102.26&#10;  C 10.59 84.18 18.80 61.14 30.73 45.47&#10;  Z"/>
<path fill="#5085e5" d="&#10;  M 154.22 46.59&#10;  L 155.10 46.81&#10;  Q 155.58 46.93 155.87 47.34&#10;  Q 158.25 50.81 160.29 54.45&#10;  Q 172.48 76.11 181.82 99.13&#10;  Q 181.99 99.56 182.37 99.83&#10;  C 185.40 102.06 190.40 100.03 193.38 99.87&#10;  Q 193.94 99.83 194.17 100.34&#10;  Q 195.67 103.67 196.19 101.52&#10;  L 197.80 109.35&#10;  Q 193.50 112.86 185.96 114.35&#10;  Q 185.82 114.37 185.44 114.69&#10;  Q 185.37 114.75 185.34 114.81&#10;  Q 185.08 115.30 184.87 114.79&#10;  Q 183.81 112.25 180.67 113.39&#10;  Q 177.47 114.56 170.54 116.00&#10;  Q 167.75 116.58 166.50 114.19&#10;  L 161.26 100.75&#10;  L 148.13 72.28&#10;  L 151.62 78.43&#10;  A 0.17 0.16 -43.8 0 0 151.90 78.43&#10;  L 152.14 78.07&#10;  A 0.26 0.26 0.0 0 1 152.59 78.10&#10;  L 157.07 87.55&#10;  A 0.87 0.86 82.3 0 0 157.69 88.03&#10;  Q 160.66 88.64 163.06 86.81&#10;  A 1.60 1.57 24.6 0 1 163.97 86.48&#10;  Q 166.69 86.41 168.70 84.78&#10;  A 2.61 2.61 0.0 0 1 172.70 85.66&#10;  L 176.61 93.72&#10;  A 0.49 0.49 0.0 0 0 177.26 93.95&#10;  Q 177.80 93.71 177.45 92.89&#10;  Q 167.43 68.85 153.94 46.84&#10;  Q 154.13 46.30 154.22 46.59&#10;  Z"/>
<path fill="#ffcab5" d="&#10;  M 137.15 57.08&#10;  Q 137.00 57.19 137.38 57.60&#10;  Q 143.15 64.39 145.45 72.96&#10;  L 144.10 76.74&#10;  Q 143.94 77.20 143.48 77.40&#10;  L 141.05 78.43&#10;  Q 140.55 78.64 140.80 78.16&#10;  L 140.94 77.90&#10;  A 0.12 0.12 0.0 0 0 140.83 77.72&#10;  Q 138.46 77.95 136.30 76.99&#10;  Q 135.88 76.80 135.42 76.80&#10;  Q 128.92 76.77 124.09 72.61&#10;  C 117.80 67.19 107.53 69.20 101.01 72.78&#10;  Q 97.58 74.66 94.57 75.89&#10;  C 91.77 77.03 81.93 77.38 79.77 74.96&#10;  C 76.65 71.49 79.54 65.46 83.40 64.00&#10;  Q 83.87 63.83 84.20 63.45&#10;  C 86.54 60.82 89.33 59.25 91.29 56.30&#10;  Q 91.76 55.59 91.03 56.03&#10;  C 88.02 57.86 84.85 59.06 82.20 61.34&#10;  Q 78.17 64.79 74.12 68.21&#10;  C 72.70 69.40 72.18 70.95 71.11 72.45&#10;  Q 70.84 72.82 70.82 73.28&#10;  C 70.45 79.29 74.80 82.24 80.19 82.70&#10;  C 86.45 83.23 91.54 84.61 97.87 82.92&#10;  C 99.32 82.53 100.98 82.68 102.44 83.09&#10;  Q 114.39 86.41 126.39 89.60&#10;  C 133.02 91.36 139.18 95.78 145.26 97.97&#10;  C 147.46 98.77 150.94 100.08 151.84 101.71&#10;  Q 152.20 102.37 152.20 102.44&#10;  A 1.69 1.69 0.0 0 1 150.61 104.16&#10;  Q 141.93 104.71 133.77 103.16&#10;  C 126.12 101.71 115.38 101.55 106.21 100.58&#10;  C 105.08 100.46 103.91 99.76 102.48 100.04&#10;  Q 102.04 100.13 101.86 100.55&#10;  Q 101.51 101.40 100.47 101.82&#10;  L 98.08 101.49&#10;  Q 97.57 101.42 97.98 101.73&#10;  Q 99.58 102.95 101.50 103.50&#10;  Q 120.55 108.99 139.40 114.14&#10;  Q 140.72 117.18 144.73 117.80&#10;  Q 148.29 118.36 151.21 121.92&#10;  A 1.08 1.07 27.0 0 1 151.45 122.65&#10;  Q 151.37 124.50 149.42 124.45&#10;  Q 142.62 124.25 135.27 121.53&#10;  C 132.69 120.58 129.68 120.64 126.95 119.22&#10;  Q 126.51 118.99 126.01 119.01&#10;  C 123.15 119.08 120.50 117.94 117.74 118.43&#10;  C 109.10 119.98 103.56 119.39 95.08 116.51&#10;  Q 94.59 116.34 94.13 116.58&#10;  L 90.17 118.63&#10;  Q 92.42 120.02 93.31 120.29&#10;  Q 113.92 126.71 134.30 133.94&#10;  Q 133.63 134.92 133.74 135.83&#10;  Q 133.79 136.20 134.10 136.41&#10;  L 136.22 137.84&#10;  A 0.60 0.60 0.0 0 1 136.21 138.84&#10;  C 129.63 143.16 112.78 137.04 105.98 134.20&#10;  Q 102.95 132.93 100.75 133.30&#10;  Q 100.44 133.35 100.26 133.25&#10;  Q 99.98 133.07 99.93 132.74&#10;  Q 99.86 132.29 99.42 132.18&#10;  C 96.31 131.38 91.82 129.05 88.87 130.73&#10;  A 0.97 0.95 -44.5 0 1 87.92 130.73&#10;  L 86.75 130.05&#10;  Q 86.30 129.79 85.78 129.73&#10;  Q 79.27 128.89 72.77 128.02&#10;  C 65.40 127.03 59.53 123.48 53.98 118.92&#10;  A 1.06 1.03 17.6 0 1 53.60 118.21&#10;  Q 53.26 114.92 49.99 114.19&#10;  Q 49.44 114.06 49.36 113.51&#10;  C 49.05 111.57 48.50 109.66 48.88 107.72&#10;  Q 50.64 98.74 54.49 90.43&#10;  C 55.33 88.62 55.54 86.52 56.65 84.59&#10;  Q 56.89 84.18 56.95 83.70&#10;  L 57.50 79.26&#10;  Q 58.85 77.26 59.98 75.09&#10;  C 61.01 73.08 60.96 70.71 62.52 68.54&#10;  A 1.49 1.48 -29.3 0 0 62.80 67.56&#10;  Q 62.65 65.35 63.75 63.55&#10;  Q 64.02 63.10 63.99 62.57&#10;  Q 63.88 60.68 64.59 58.75&#10;  C 69.77 57.64 74.86 56.49 79.91 54.53&#10;  C 93.67 49.20 104.96 42.50 118.30 51.98&#10;  C 122.94 55.28 131.50 56.25 137.15 57.08&#10;  Z"/>
<path fill="#5892fb" d="&#10;  M 50.13 75.71&#10;  C 45.42 84.87 41.60 94.54 38.05 104.24&#10;  A 1.60 1.60 0.0 0 1 36.06 105.21&#10;  C 32.98 104.21 23.62 102.23 21.07 104.63&#10;  Q 19.30 106.29 20.09 104.00&#10;  Q 26.84 84.53 35.61 65.84&#10;  Q 39.29 57.99 43.07 52.37&#10;  Q 43.36 51.93 43.75 52.29&#10;  Q 47.72 56.00 53.72 59.47&#10;  Q 55.48 60.48 55.76 62.69&#10;  A 1.31 1.29 57.5 0 1 55.58 63.54&#10;  C 53.25 67.45 52.19 71.72 50.13 75.71&#10;  Z"/>
<path fill="#febea8" d="&#10;  M 145.45 72.96&#10;  C 147.28 79.80 142.26 84.25 147.40 90.83&#10;  Q 149.25 93.20 147.33 95.15&#10;  Q 146.94 95.54 147.37 95.88&#10;  Q 149.23 97.33 151.73 97.73&#10;  L 155.08 100.97&#10;  L 153.88 105.25&#10;  Q 153.75 105.73 153.38 106.07&#10;  C 149.85 109.31 147.13 112.40 141.76 110.75&#10;  Q 139.95 110.20 137.88 112.45&#10;  L 100.47 101.82&#10;  Q 101.51 101.40 101.86 100.55&#10;  Q 102.04 100.13 102.48 100.04&#10;  C 103.91 99.76 105.08 100.46 106.21 100.58&#10;  C 115.38 101.55 126.12 101.71 133.77 103.16&#10;  Q 141.93 104.71 150.61 104.16&#10;  A 1.69 1.69 0.0 0 0 152.20 102.44&#10;  Q 152.20 102.37 151.84 101.71&#10;  C 150.94 100.08 147.46 98.77 145.26 97.97&#10;  C 139.18 95.78 133.02 91.36 126.39 89.60&#10;  Q 114.39 86.41 102.44 83.09&#10;  C 100.98 82.68 99.32 82.53 97.87 82.92&#10;  C 91.54 84.61 86.45 83.23 80.19 82.70&#10;  C 74.80 82.24 70.45 79.29 70.82 73.28&#10;  Q 70.84 72.82 71.11 72.45&#10;  C 72.18 70.95 72.70 69.40 74.12 68.21&#10;  Q 78.17 64.79 82.20 61.34&#10;  C 84.85 59.06 88.02 57.86 91.03 56.03&#10;  Q 91.76 55.59 91.29 56.30&#10;  C 89.33 59.25 86.54 60.82 84.20 63.45&#10;  Q 83.87 63.83 83.40 64.00&#10;  C 79.54 65.46 76.65 71.49 79.77 74.96&#10;  C 81.93 77.38 91.77 77.03 94.57 75.89&#10;  Q 97.58 74.66 101.01 72.78&#10;  C 107.53 69.20 117.80 67.19 124.09 72.61&#10;  Q 128.92 76.77 135.42 76.80&#10;  Q 135.88 76.80 136.30 76.99&#10;  Q 138.46 77.95 140.83 77.72&#10;  A 0.12 0.12 0.0 0 1 140.94 77.90&#10;  L 140.80 78.16&#10;  Q 140.55 78.64 141.05 78.43&#10;  L 143.48 77.40&#10;  Q 143.94 77.20 144.10 76.74&#10;  L 145.45 72.96&#10;  Z&#10;  M 115.60 72.08&#10;  Q 115.46 71.56 114.45 71.32&#10;  C 111.18 70.54 108.65 72.23 106.20 72.80&#10;  C 102.14 73.75 99.19 75.97 95.40 77.39&#10;  Q 93.32 78.18 91.37 79.26&#10;  Q 90.95 79.50 90.46 79.50&#10;  L 85.32 79.50&#10;  Q 84.92 79.50 84.60 79.24&#10;  Q 83.16 78.07 81.88 77.98&#10;  A 0.99 0.99 0.0 0 0 81.31 79.82&#10;  L 84.81 81.88&#10;  A 0.52 0.46 59.9 0 0 85.02 81.95&#10;  C 88.82 82.31 92.55 82.66 96.35 81.58&#10;  C 100.75 80.33 103.98 81.18 109.31 82.59&#10;  C 110.91 83.01 116.05 83.79 115.47 80.60&#10;  Q 115.38 80.09 115.71 79.68&#10;  Q 118.39 76.33 115.87 72.95&#10;  Q 115.81 72.88 115.60 72.08&#10;  Z"/>
<path fill="#e9af9d" d="&#10;  M 137.38 57.60&#10;  Q 139.56 57.20 140.69 59.06&#10;  Q 143.47 63.68 148.13 72.28&#10;  L 161.26 100.75&#10;  Q 161.36 101.77 160.81 102.05&#10;  Q 160.31 102.30 159.99 101.85&#10;  Q 158.59 99.86 156.51 100.84&#10;  Q 154.49 98.30 151.73 97.73&#10;  Q 149.23 97.33 147.37 95.88&#10;  Q 146.94 95.54 147.33 95.15&#10;  Q 149.25 93.20 147.40 90.83&#10;  C 142.26 84.25 147.28 79.80 145.45 72.96&#10;  Q 143.15 64.39 137.38 57.60&#10;  Z"/>
<path fill="#bd8d83" d="&#10;  M 63.13 58.50&#10;  Q 63.20 58.63 63.26 58.76&#10;  L 61.57 63.39&#10;  A 0.76 0.60 64.9 0 0 61.53 63.56&#10;  C 61.34 66.45 58.79 70.82 57.63 73.64&#10;  C 57.07 74.99 55.89 76.30 55.62 78.06&#10;  Q 55.54 78.58 55.22 79.00&#10;  Q 53.71 80.96 53.44 83.41&#10;  A 1.62 1.59 -22.8 0 1 53.09 84.25&#10;  C 51.33 86.46 50.94 90.10 49.56 92.78&#10;  Q 47.26 97.26 46.66 99.00&#10;  Q 44.19 106.08 41.90 113.21&#10;  C 41.38 114.80 41.24 116.59 40.62 118.28&#10;  Q 39.78 120.62 39.58 122.02&#10;  Q 39.20 124.72 38.75 127.45&#10;  Q 36.82 125.93 35.95 126.54&#10;  Q 34.17 121.54 36.38 115.52&#10;  C 37.12 113.49 37.38 111.33 38.05 109.24&#10;  C 40.96 100.60 54.90 61.00 63.13 58.50&#10;  Z"/>
<path fill="#e9af9d" d="&#10;  M 63.26 58.76&#10;  Q 63.64 58.96 64.59 58.75&#10;  Q 63.88 60.68 63.99 62.57&#10;  Q 64.02 63.10 63.75 63.55&#10;  Q 62.65 65.35 62.80 67.56&#10;  A 1.49 1.48 -29.3 0 1 62.52 68.54&#10;  C 60.96 70.71 61.01 73.08 59.98 75.09&#10;  Q 58.85 77.26 57.50 79.26&#10;  Q 59.87 74.57 61.24 69.71&#10;  Q 61.32 69.42 61.21 69.22&#10;  Q 61.07 68.98 60.99 69.24&#10;  C 59.49 73.86 57.43 77.86 55.52 82.31&#10;  C 54.86 83.86 54.72 85.56 53.95 87.29&#10;  Q 52.70 90.08 52.44 90.87&#10;  C 50.90 95.47 48.44 99.64 47.42 104.56&#10;  C 46.76 107.77 44.85 110.72 45.02 114.58&#10;  A 1.00 1.00 0.0 0 1 44.79 115.27&#10;  Q 42.39 118.17 45.03 120.54&#10;  Q 45.41 120.87 45.44 121.38&#10;  Q 45.51 122.41 46.52 122.73&#10;  A 1.84 1.82 -13.0 0 1 47.28 123.20&#10;  Q 48.77 124.72 50.78 125.49&#10;  A 1.00 0.98 -4.7 0 1 51.25 125.88&#10;  Q 52.42 127.76 54.48 128.34&#10;  Q 54.92 128.47 55.23 128.81&#10;  Q 57.05 130.81 59.46 131.91&#10;  Q 62.44 133.27 63.60 134.11&#10;  Q 68.79 137.90 70.73 138.71&#10;  C 72.83 139.59 74.14 140.89 75.51 141.61&#10;  C 79.08 143.50 82.34 146.00 86.32 147.19&#10;  C 89.16 148.03 91.49 149.92 94.54 150.60&#10;  C 102.69 152.45 115.17 159.16 121.51 150.98&#10;  Q 122.21 152.00 122.03 153.26&#10;  C 120.46 164.03 109.59 161.07 102.03 158.97&#10;  A 1.78 1.70 42.5 0 0 101.03 158.99&#10;  C 94.52 161.05 87.28 163.47 85.46 153.97&#10;  A 0.88 0.86 6.0 0 0 84.94 153.34&#10;  L 79.96 151.30&#10;  Q 79.50 151.11 79.03 151.23&#10;  Q 71.10 153.28 67.65 146.01&#10;  Q 67.43 145.55 66.97 145.30&#10;  Q 51.87 137.18 38.75 127.45&#10;  Q 39.20 124.72 39.58 122.02&#10;  Q 39.78 120.62 40.62 118.28&#10;  C 41.24 116.59 41.38 114.80 41.90 113.21&#10;  Q 44.19 106.08 46.66 99.00&#10;  Q 47.26 97.26 49.56 92.78&#10;  C 50.94 90.10 51.33 86.46 53.09 84.25&#10;  A 1.62 1.59 -22.8 0 0 53.44 83.41&#10;  Q 53.71 80.96 55.22 79.00&#10;  Q 55.54 78.58 55.62 78.06&#10;  C 55.89 76.30 57.07 74.99 57.63 73.64&#10;  C 58.79 70.82 61.34 66.45 61.53 63.56&#10;  A 0.76 0.60 64.9 0 1 61.57 63.39&#10;  L 63.26 58.76&#10;  Z"/>
<path fill="#febea8" d="&#10;  M 57.50 79.26&#10;  L 56.95 83.70&#10;  Q 56.89 84.18 56.65 84.59&#10;  C 55.54 86.52 55.33 88.62 54.49 90.43&#10;  Q 50.64 98.74 48.88 107.72&#10;  C 48.50 109.66 49.05 111.57 49.36 113.51&#10;  Q 49.44 114.06 49.99 114.19&#10;  Q 53.26 114.92 53.60 118.21&#10;  A 1.06 1.03 17.6 0 0 53.98 118.92&#10;  C 59.53 123.48 65.40 127.03 72.77 128.02&#10;  Q 79.27 128.89 85.78 129.73&#10;  Q 86.30 129.79 86.75 130.05&#10;  L 87.92 130.73&#10;  A 0.97 0.95 -44.5 0 0 88.87 130.73&#10;  C 91.82 129.05 96.31 131.38 99.42 132.18&#10;  Q 99.86 132.29 99.93 132.74&#10;  Q 99.98 133.07 100.26 133.25&#10;  Q 100.44 133.35 100.75 133.30&#10;  Q 102.95 132.93 105.98 134.20&#10;  C 112.78 137.04 129.63 143.16 136.21 138.84&#10;  A 0.60 0.60 0.0 0 0 136.22 137.84&#10;  L 134.10 136.41&#10;  Q 133.79 136.20 133.74 135.83&#10;  Q 133.63 134.92 134.30 133.94&#10;  Q 136.82 134.74 138.41 136.26&#10;  L 139.87 140.23&#10;  Q 140.18 142.52 139.27 144.82&#10;  Q 138.37 144.82 137.54 144.03&#10;  Q 137.15 143.65 136.74 144.02&#10;  C 132.57 147.84 128.59 147.76 123.09 145.95&#10;  C 118.84 144.55 114.78 143.09 110.42 142.01&#10;  Q 108.41 141.51 106.01 140.22&#10;  Q 101.16 137.61 88.79 134.03&#10;  Q 88.34 133.90 87.87 133.97&#10;  C 86.25 134.19 83.07 132.43 82.44 134.89&#10;  A 0.60 0.60 0.0 0 0 82.89 135.62&#10;  L 86.25 136.38&#10;  Q 84.88 136.69 84.73 137.99&#10;  Q 84.67 138.52 85.08 138.85&#10;  C 86.06 139.64 86.72 140.54 87.86 141.09&#10;  Q 102.61 148.23 113.26 151.03&#10;  Q 116.01 151.75 116.70 147.91&#10;  L 121.20 149.99&#10;  L 121.51 150.98&#10;  C 115.17 159.16 102.69 152.45 94.54 150.60&#10;  C 91.49 149.92 89.16 148.03 86.32 147.19&#10;  C 82.34 146.00 79.08 143.50 75.51 141.61&#10;  C 74.14 140.89 72.83 139.59 70.73 138.71&#10;  Q 68.79 137.90 63.60 134.11&#10;  Q 62.44 133.27 59.46 131.91&#10;  Q 57.05 130.81 55.23 128.81&#10;  Q 54.92 128.47 54.48 128.34&#10;  Q 52.42 127.76 51.25 125.88&#10;  A 1.00 0.98 -4.7 0 0 50.78 125.49&#10;  Q 48.77 124.72 47.28 123.20&#10;  A 1.84 1.82 -13.0 0 0 46.52 122.73&#10;  Q 45.51 122.41 45.44 121.38&#10;  Q 45.41 120.87 45.03 120.54&#10;  Q 42.39 118.17 44.79 115.27&#10;  A 1.00 1.00 0.0 0 0 45.02 114.58&#10;  C 44.85 110.72 46.76 107.77 47.42 104.56&#10;  C 48.44 99.64 50.90 95.47 52.44 90.87&#10;  Q 52.70 90.08 53.95 87.29&#10;  C 54.72 85.56 54.86 83.86 55.52 82.31&#10;  C 57.43 77.86 59.49 73.86 60.99 69.24&#10;  Q 61.07 68.98 61.21 69.22&#10;  Q 61.32 69.42 61.24 69.71&#10;  Q 59.87 74.57 57.50 79.26&#10;  Z"/>
<path fill="#e9af9d" d="&#10;  M 115.87 72.95&#10;  Q 118.39 76.33 115.71 79.68&#10;  Q 115.38 80.09 115.47 80.60&#10;  C 116.05 83.79 110.91 83.01 109.31 82.59&#10;  C 103.98 81.18 100.75 80.33 96.35 81.58&#10;  C 92.55 82.66 88.82 82.31 85.02 81.95&#10;  A 0.52 0.46 59.9 0 1 84.81 81.88&#10;  L 81.31 79.82&#10;  A 0.99 0.99 0.0 0 1 81.88 77.98&#10;  Q 83.16 78.07 84.60 79.24&#10;  Q 84.92 79.50 85.32 79.50&#10;  L 90.46 79.50&#10;  Q 90.95 79.50 91.37 79.26&#10;  Q 93.32 78.18 95.40 77.39&#10;  C 99.19 75.97 102.14 73.75 106.20 72.80&#10;  C 108.65 72.23 111.18 70.54 114.45 71.32&#10;  Q 115.46 71.56 115.60 72.08&#10;  Q 115.81 72.88 115.87 72.95&#10;  Z&#10;  M 106.08 76.58&#10;  L 103.69 77.80&#10;  Q 103.11 78.10 103.60 78.52&#10;  Q 104.68 79.44 106.27 79.82&#10;  Q 107.90 81.84 111.07 78.83&#10;  Q 111.99 77.95 111.17 76.97&#10;  Q 109.48 74.93 106.08 76.58&#10;  Z"/>
<path fill="#bd8d83" d="&#10;  M 106.27 79.82&#10;  Q 106.70 77.62 106.08 76.58&#10;  Q 109.48 74.93 111.17 76.97&#10;  Q 111.99 77.95 111.07 78.83&#10;  Q 107.90 81.84 106.27 79.82&#10;  Z"/>
<path fill="#a4281f" d="&#10;  M 106.08 76.58&#10;  Q 106.70 77.62 106.27 79.82&#10;  Q 104.68 79.44 103.60 78.52&#10;  Q 103.11 78.10 103.69 77.80&#10;  L 106.08 76.58&#10;  Z"/>
<path fill="#a4281f" d="&#10;  M 156.51 100.84&#10;  Q 159.35 103.18 158.26 106.30&#10;  A 0.48 0.48 0.0 0 1 157.34 106.25&#10;  L 156.81 104.10&#10;  Q 156.69 103.59 156.29 103.26&#10;  L 156.01 103.03&#10;  Q 155.81 101.72 155.08 100.97&#10;  L 151.73 97.73&#10;  Q 154.49 98.30 156.51 100.84&#10;  Z"/>
<path fill="#bd8d83" d="&#10;  M 161.26 100.75&#10;  L 166.50 114.19&#10;  L 169.17 123.23&#10;  Q 165.93 120.46 164.70 122.57&#10;  C 163.60 117.97 163.65 115.13 159.14 112.51&#10;  Q 158.67 112.24 158.13 112.26&#10;  Q 156.05 112.35 154.92 110.50&#10;  Q 154.70 110.13 154.87 109.73&#10;  Q 156.26 106.45 156.01 103.03&#10;  L 156.29 103.26&#10;  Q 156.69 103.59 156.81 104.10&#10;  L 157.34 106.25&#10;  A 0.48 0.48 0.0 0 0 158.26 106.30&#10;  Q 159.35 103.18 156.51 100.84&#10;  Q 158.59 99.86 159.99 101.85&#10;  Q 160.31 102.30 160.81 102.05&#10;  Q 161.36 101.77 161.26 100.75&#10;  Z"/>
<path fill="#e9af9d" d="&#10;  M 155.08 100.97&#10;  Q 155.81 101.72 156.01 103.03&#10;  Q 156.26 106.45 154.87 109.73&#10;  Q 154.70 110.13 154.92 110.50&#10;  Q 156.05 112.35 158.13 112.26&#10;  Q 158.67 112.24 159.14 112.51&#10;  C 163.65 115.13 163.60 117.97 164.70 122.57&#10;  L 157.18 128.41&#10;  A 1.72 1.70 81.7 0 0 156.64 129.14&#10;  Q 154.68 134.23 149.64 135.30&#10;  C 145.72 136.14 143.10 138.14 139.87 140.23&#10;  L 138.41 136.26&#10;  Q 139.43 136.35 140.10 135.79&#10;  A 0.66 0.66 0.0 0 0 139.89 134.66&#10;  L 97.76 120.47&#10;  Q 98.58 118.61 100.25 118.99&#10;  Q 110.47 121.31 119.62 124.60&#10;  Q 128.05 127.63 131.77 128.48&#10;  C 139.96 130.34 149.36 132.56 155.71 125.75&#10;  Q 156.04 125.39 155.88 124.93&#10;  C 154.90 122.18 154.16 120.69 151.25 119.41&#10;  Q 147.26 117.66 144.48 114.89&#10;  Q 142.90 112.87 137.88 112.45&#10;  Q 139.95 110.20 141.76 110.75&#10;  C 147.13 112.40 149.85 109.31 153.38 106.07&#10;  Q 153.75 105.73 153.88 105.25&#10;  L 155.08 100.97&#10;  Z"/>
<path fill="#a4281f" d="&#10;  M 100.47 101.82&#10;  L 137.88 112.45&#10;  Q 142.90 112.87 144.48 114.89&#10;  L 139.40 114.14&#10;  Q 120.55 108.99 101.50 103.50&#10;  Q 99.58 102.95 97.98 101.73&#10;  Q 97.57 101.42 98.08 101.49&#10;  L 100.47 101.82&#10;  Z"/>
<path fill="#4c6fb8" d="&#10;  M 197.80 109.35&#10;  Q 197.94 111.65 195.16 112.62&#10;  Q 190.48 114.25 185.78 115.38&#10;  A 1.02 1.02 0.0 0 0 185.06 116.71&#10;  Q 185.60 118.23 183.66 119.07&#10;  Q 176.49 122.19 170.75 123.23&#10;  Q 169.82 123.40 169.17 123.23&#10;  L 166.50 114.19&#10;  Q 167.75 116.58 170.54 116.00&#10;  Q 177.47 114.56 180.67 113.39&#10;  Q 183.81 112.25 184.87 114.79&#10;  Q 185.08 115.30 185.34 114.81&#10;  Q 185.37 114.75 185.44 114.69&#10;  Q 185.82 114.37 185.96 114.35&#10;  Q 193.50 112.86 197.80 109.35&#10;  Z"/>
<path fill="#4c6fb8" d="&#10;  M 38.05 109.24&#10;  C 37.38 111.33 37.12 113.49 36.38 115.52&#10;  Q 34.17 121.54 35.95 126.54&#10;  C 35.38 131.08 24.45 126.79 20.41 125.98&#10;  Q 17.22 125.35 16.73 122.00&#10;  Q 16.66 121.49 16.17 121.36&#10;  C 12.11 120.28 6.37 120.09 3.96 116.89&#10;  L 15.69 120.24&#10;  Q 16.09 120.36 16.36 120.04&#10;  L 16.72 119.59&#10;  Q 16.93 119.33 16.98 119.66&#10;  L 17.04 120.13&#10;  Q 17.12 120.71 17.50 120.27&#10;  C 19.41 117.99 24.66 119.76 28.07 120.69&#10;  Q 30.51 121.35 33.93 119.92&#10;  Q 34.38 119.73 34.48 119.24&#10;  C 35.14 115.94 35.86 112.02 38.05 109.24&#10;  Z"/>
<path fill="#febea8" d="&#10;  M 139.40 114.14&#10;  L 144.48 114.89&#10;  Q 147.26 117.66 151.25 119.41&#10;  C 154.16 120.69 154.90 122.18 155.88 124.93&#10;  Q 156.04 125.39 155.71 125.75&#10;  C 149.36 132.56 139.96 130.34 131.77 128.48&#10;  Q 128.05 127.63 119.62 124.60&#10;  Q 110.47 121.31 100.25 118.99&#10;  Q 98.58 118.61 97.76 120.47&#10;  L 90.17 118.63&#10;  L 94.13 116.58&#10;  Q 94.59 116.34 95.08 116.51&#10;  C 103.56 119.39 109.10 119.98 117.74 118.43&#10;  C 120.50 117.94 123.15 119.08 126.01 119.01&#10;  Q 126.51 118.99 126.95 119.22&#10;  C 129.68 120.64 132.69 120.58 135.27 121.53&#10;  Q 142.62 124.25 149.42 124.45&#10;  Q 151.37 124.50 151.45 122.65&#10;  A 1.08 1.07 27.0 0 0 151.21 121.92&#10;  Q 148.29 118.36 144.73 117.80&#10;  Q 140.72 117.18 139.40 114.14&#10;  Z"/>
<path fill="#a4281f" d="&#10;  M 97.76 120.47&#10;  L 139.89 134.66&#10;  A 0.66 0.66 0.0 0 1 140.10 135.79&#10;  Q 139.43 136.35 138.41 136.26&#10;  Q 136.82 134.74 134.30 133.94&#10;  Q 113.92 126.71 93.31 120.29&#10;  Q 92.42 120.02 90.17 118.63&#10;  L 97.76 120.47&#10;  Z"/>
<path fill="#e9af9d" d="&#10;  M 139.27 144.82&#10;  C 136.49 152.63 129.14 151.29 122.91 148.96&#10;  A 0.97 0.95 50.1 0 0 122.42 148.91&#10;  L 121.50 149.04&#10;  Q 120.10 148.87 119.23 147.83&#10;  Q 118.91 147.45 118.44 147.28&#10;  L 87.28 135.98&#10;  Q 86.69 135.77 86.48 136.35&#10;  Q 86.41 136.56 86.34 136.87&#10;  Q 86.30 136.63 86.25 136.38&#10;  L 82.89 135.62&#10;  A 0.60 0.60 0.0 0 1 82.44 134.89&#10;  C 83.07 132.43 86.25 134.19 87.87 133.97&#10;  Q 88.34 133.90 88.79 134.03&#10;  Q 101.16 137.61 106.01 140.22&#10;  Q 108.41 141.51 110.42 142.01&#10;  C 114.78 143.09 118.84 144.55 123.09 145.95&#10;  C 128.59 147.76 132.57 147.84 136.74 144.02&#10;  Q 137.15 143.65 137.54 144.03&#10;  Q 138.37 144.82 139.27 144.82&#10;  Z"/>
<path fill="#a4281f" d="&#10;  M 121.50 149.04&#10;  Q 121.20 149.43 121.20 149.99&#10;  L 116.70 147.91&#10;  L 86.34 136.87&#10;  Q 86.41 136.56 86.48 136.35&#10;  Q 86.69 135.77 87.28 135.98&#10;  L 118.44 147.28&#10;  Q 118.91 147.45 119.23 147.83&#10;  Q 120.10 148.87 121.50 149.04&#10;  Z"/>
<path fill="#ffcab5" d="&#10;  M 86.25 136.38&#10;  Q 86.30 136.63 86.34 136.87&#10;  L 116.70 147.91&#10;  Q 116.01 151.75 113.26 151.03&#10;  Q 102.61 148.23 87.86 141.09&#10;  C 86.72 140.54 86.06 139.64 85.08 138.85&#10;  Q 84.67 138.52 84.73 137.99&#10;  Q 84.88 136.69 86.25 136.38&#10;  Z"/>
</svg>