<?xml version="1.0" encoding="UTF-8"?>
<svg width="24px" height="24px" viewBox="0 0 24 24" version="1.1" xmlns="http://www.w3.org/2000/svg" xmlns:xlink="http://www.w3.org/1999/xlink">
    <title>握手</title>
    <g id="页面-1" stroke="none" stroke-width="1">
        <g id="握手">
            <rect id="矩形" opacity="0" x="0" y="0" width="24" height="24"></rect>
            <g id="合作" transform="translate(0.000000, 2.000000)" >
                <path d="M21.1125,3.3300397 L22.5,3.3300397 C23.3284271,3.33003972 24,4.0016126 24,4.83003972 L24,12.3300397 C24,13.1584668 23.3284271,13.8300397 22.5,13.8300397 L19.76925,13.8300397 L13.4925,4.76253972 L12.76275,3.72903973 L8.29575001,5.79153971 C8.00706102,5.92480653 7.68349141,5.962889 7.37175,5.90028973 C6.00824999,5.62653972 5.55075001,5.14953972 5.99924999,4.46853971 C6.43349999,3.80928971 8.28149998,2.48328972 11.544,0.489039725 C11.6295,0.436539737 11.718,0.391539737 11.80875,0.355539702 C13.179,-0.289460311 14.74275,-0.0569602869 16.49925,1.05378973 C17.9513626,1.97452534 19.497625,2.73759956 21.11175,3.3300397 L21.1125,3.3300397 Z M1.02449999,13.7527897 C0.412540483,13.5482495 0,12.975277 0,12.3300397 L0,4.8300397 C0,4.0016126 0.67157286,3.3300397 1.5,3.3300397 L4.959,3.3300397 L4.95299999,3.33528973 C4.53039612,3.7159666 4.29586801,4.26273724 4.31130884,4.83130605 C4.32674967,5.39987487 4.59060791,5.93311065 5.03325,6.29028972 C6.13281939,7.17779985 7.61691656,7.42453278 8.9445,6.94053972 L12.31875,5.71053971 L14.685,9.13053971 C14.7577588,9.20030281 14.823337,9.2771876 14.88075,9.36003971 L19.02825,15.3540397 C19.2761376,15.7123694 19.3559657,16.1607781 19.2469723,16.5826417 C19.1379789,17.0045052 18.8509363,17.3581285 18.4605,17.5515397 L11.835,20.8297897 C11.5275,20.9820397 11.19,21.0195397 10.875,20.9557897 L11.12025,20.7075397 C12.2754906,19.5388408 12.2754906,17.6582387 11.12025,16.4895397 L6.32025001,11.6325397 C5.89754409,11.2047347 5.32116285,10.963963 4.71975,10.963963 C4.11833715,10.963963 3.54195591,11.2047347 3.11924999,11.6325397 L1.02375,13.7527897 L1.02449999,13.7527897 Z M5.72699999,13.1077897 L9.984,17.4142897 C10.3574626,17.7924036 10.5029684,18.3399049 10.3665,18.8535397 L10.152,19.6657897 C10.0539268,20.0356002 9.77930644,20.3329743 9.41845482,20.460113 C9.05760319,20.5872516 8.65722692,20.5276987 8.34899998,20.3010397 L2.8755,16.2750397 C2.52453466,16.0168026 2.303206,15.6187148 2.2690822,15.1843202 C2.23495839,14.7499256 2.39141236,14.3221612 2.69775,14.0122897 L3.59249998,13.1062897 C3.87429439,12.8211636 4.25849475,12.6606984 4.65937499,12.6606984 C5.06025524,12.6606984 5.44445559,12.8211636 5.72625001,13.1062897 L5.72699999,13.1077897 Z" id="形状"></path>
            </g>
        </g>
    </g>
</svg>