<svg xmlns="http://www.w3.org/2000/svg" width="20" height="20" viewBox="0 0 20 20">
    <path data-name="矩形 8328" style="fill:none" d="M0 0h20v20H0z"/>
    <path data-name="联合 19" d="M-15894-65a4.007 4.007 0 0 1-4-4v-8.363a4.007 4.007 0 0 1 4-4h.092v-.818a.817.817 0 0 1 .818-.818.819.819 0 0 1 .817.818v.818h4.908v-.818a.818.818 0 0 1 .817-.818.817.817 0 0 1 .818.818v.818h.092a4.007 4.007 0 0 1 4 4V-69a4.007 4.007 0 0 1-4 4zm.758-6.994a.833.833 0 0 0-.239.579.819.819 0 0 0 .239.579l2.318 2.314.012.012.013.012.012.012.012.012a.8.8 0 0 0 .579.239.808.808 0 0 0 .578-.239l3.79-3.79a.807.807 0 0 0 .24-.579.807.807 0 0 0-.24-.579.8.8 0 0 0-.578-.239.813.813 0 0 0-.578.239l-3.212 3.216-1.788-1.787a.814.814 0 0 0-.574-.239.836.836 0 0 0-.583.239zm-3.124-5.733v1.273h13.091v-1.273a2 2 0 0 0-2-2h-.454v.822a.817.817 0 0 1-.818.818.818.818 0 0 1-.817-.818v-.822h-4.908v.822a.819.819 0 0 1-.817.818.817.817 0 0 1-.818-.818v-.822h-.455a2 2 0 0 0-2.003 2z" transform="translate(15899.816 84)" style="fill:#8E8F91"/>
</svg>
