<svg xmlns="http://www.w3.org/2000/svg" width="20" height="20" viewBox="0 0 20 20"><defs><style>.a{fill:none;}</style></defs><rect class="a" width="20" height="20"/><path class="b" d="M178.461,128.29a.817.817,0,0,1,1.265.013c.856,1.069,3.225,2.424,7.067,2.887a.812.812,0,0,1,.717.805v8.14a4.12,4.12,0,0,1-.5,1.958c-2.289,4.237-4.921,5.9-7.937,5.9l-.161,0c-2.935-.084-5.508-1.745-7.753-5.9a4.14,4.14,0,0,1-.492-1.774l0-.185V132a.812.812,0,0,1,.717-.805c3.76-.453,6.112-1.783,7-2.813Zm4.6,7.312a.8.8,0,0,0-1.132,0l-3.678,3.749-.008.008a.526.526,0,0,1-.744-.01l-1.259-1.293a.8.8,0,0,0-1.132,0,.811.811,0,0,0,0,1.14l2.2,2.249a.8.8,0,0,0,1.132,0l4.62-4.7a.811.811,0,0,0,0-1.139Z" transform="translate(-169.001 -127.997)"/></svg>