<svg xmlns="http://www.w3.org/2000/svg" version="1.1" viewBox="0.00 0.00 200.00 200.00" width="200.00" height="200.00">
<g stroke-width="2.00" fill="none" stroke-linecap="butt">
<path stroke="#6088ca" vector-effect="non-scaling-stroke" d="&#10;  M 161.20 41.71&#10;  Q 161.38 42.17 161.32 42.71&#10;  Q 161.27 43.20 161.63 43.54&#10;  Q 174.88 55.92 182.31 73.18&#10;  Q 182.67 74.02 182.35 74.85"/>
<path stroke="#5a6d89" vector-effect="non-scaling-stroke" d="&#10;  M 182.35 74.85&#10;  C 177.38 66.76 173.01 58.38 166.44 51.04&#10;  C 149.46 32.04 123.69 21.17 98.34 21.63&#10;  C 62.18 22.30 30.25 44.57 16.97 78.30&#10;  C 16.63 79.15 15.68 79.93 15.49 80.74&#10;  Q 14.53 84.93 12.64 89.08"/>
<path stroke="#6088ca" vector-effect="non-scaling-stroke" d="&#10;  M 12.64 89.08&#10;  C 15.93 72.78 24.50 57.62 35.97 45.71&#10;  Q 36.68 44.97 36.74 44.28"/>
<path stroke="#6088ca" vector-effect="non-scaling-stroke" d="&#10;  M 193.29 93.00&#10;  Q 193.64 93.52 192.53 93.15"/>
<path stroke="#4a6fae" vector-effect="non-scaling-stroke" d="&#10;  M 192.53 93.15&#10;  L 191.39 92.03"/>
<path stroke="#6088ca" vector-effect="non-scaling-stroke" d="&#10;  M 185.78 84.01&#10;  Q 185.99 78.87 182.71 75.08"/>
<path stroke="#5075b6" vector-effect="non-scaling-stroke" d="&#10;  M 182.35 74.85&#10;  Q 182.74 74.45 182.71 75.08"/>
<path stroke="#5a6d89" vector-effect="non-scaling-stroke" d="&#10;  M 182.71 75.08&#10;  Q 183.19 79.72 185.78 84.01"/>
<path stroke="#5075b6" vector-effect="non-scaling-stroke" d="&#10;  M 185.78 84.01&#10;  L 187.54 90.21&#10;  Q 187.69 90.74 188.23 90.80&#10;  Q 190.29 91.06 191.39 92.03"/>
<path stroke="#44546d" vector-effect="non-scaling-stroke" d="&#10;  M 191.39 92.03&#10;  C 188.15 94.63 186.79 97.90 184.99 101.89&#10;  C 183.08 106.13 182.87 110.14 179.13 113.70&#10;  C 176.39 116.31 173.17 115.38 173.87 120.98&#10;  Q 174.06 122.56 172.54 122.81"/>
<path stroke="#a08c89" vector-effect="non-scaling-stroke" d="&#10;  M 172.54 122.81&#10;  Q 173.42 109.89 172.79 97.38"/>
<path stroke="#5075b6" vector-effect="non-scaling-stroke" d="&#10;  M 172.79 97.38&#10;  L 175.63 91.71"/>
<path stroke="#3f4e66" vector-effect="non-scaling-stroke" d="&#10;  M 175.63 91.71&#10;  L 179.00 90.40"/>
<path stroke="#44546d" vector-effect="non-scaling-stroke" d="&#10;  M 179.00 90.40&#10;  Q 180.27 90.74 180.65 90.35&#10;  Q 180.97 90.03 180.47 89.21&#10;  Q 178.63 86.21 178.07 82.68&#10;  A 1.59 1.55 -72.5 0 0 177.63 81.81&#10;  C 176.17 80.33 176.21 77.98 175.67 76.61&#10;  C 174.84 74.52 174.31 72.49 173.17 70.56&#10;  Q 169.54 64.47 165.83 58.43&#10;  Q 164.71 56.62 161.70 53.89&#10;  C 157.45 50.03 153.90 45.59 149.26 42.22&#10;  Q 147.22 40.73 143.99 38.65&#10;  C 139.87 35.99 134.97 34.75 130.40 32.87&#10;  C 128.26 31.99 125.89 31.95 123.60 31.11&#10;  C 119.18 29.49 114.25 27.97 109.74 28.01&#10;  C 103.75 28.06 91.91 27.03 86.85 29.95&#10;  Q 86.43 30.20 85.94 30.22&#10;  C 83.47 30.33 81.34 30.28 78.94 31.14&#10;  C 73.86 32.96 68.31 34.31 63.78 36.67&#10;  Q 58.64 39.35 53.88 42.66&#10;  C 52.41 43.68 49.80 44.80 48.15 46.72&#10;  Q 47.83 47.10 47.35 47.24&#10;  Q 44.92 48.00 44.30 50.52&#10;  A 1.05 1.03 84.6 0 1 43.74 51.21&#10;  Q 41.34 52.37 40.03 54.73&#10;  Q 39.78 55.16 39.36 55.41&#10;  C 36.33 57.17 35.54 60.19 33.98 62.24&#10;  Q 32.13 64.68 29.97 66.90&#10;  Q 29.60 67.29 29.74 67.81&#10;  Q 30.06 69.04 29.03 69.14&#10;  A 1.03 1.02 10.1 0 0 28.22 69.70&#10;  Q 26.55 73.00 24.11 75.78&#10;  Q 23.71 76.22 23.61 76.81&#10;  Q 23.34 78.30 23.15 79.80&#10;  C 22.81 82.63 21.16 84.54 21.11 87.64&#10;  Q 21.10 88.12 20.86 88.52&#10;  L 20.32 89.46&#10;  Q 20.00 90.02 20.54 90.38&#10;  Q 21.71 91.16 22.99 90.95"/>
<path stroke="#3f4e66" vector-effect="non-scaling-stroke" d="&#10;  M 22.99 90.95&#10;  L 24.35 92.22"/>
<path stroke="#5075b6" vector-effect="non-scaling-stroke" d="&#10;  M 24.35 92.22&#10;  Q 25.15 93.40 26.22 93.55"/>
<path stroke="#3f4e66" vector-effect="non-scaling-stroke" d="&#10;  M 26.22 93.55&#10;  Q 22.53 94.05 21.79 97.02&#10;  C 20.77 101.11 19.04 105.07 17.44 109.82&#10;  Q 15.45 115.76 8.71 118.42&#10;  Q 6.98 119.09 6.77 121.59&#10;  Q 6.72 122.26 6.31 121.72&#10;  Q 5.99 121.31 6.27 120.73&#10;  Q 6.52 120.23 6.51 119.75&#10;  Q 6.51 119.27 6.30 119.70&#10;  L 6.02 120.28"/>
<path stroke="#5a6d89" vector-effect="non-scaling-stroke" d="&#10;  M 5.78 118.83&#10;  Q 6.73 118.45 6.01 117.03&#10;  A 1.16 1.14 31.6 0 1 5.88 116.50&#10;  L 5.68 103.35"/>
<path stroke="#5075b6" vector-effect="non-scaling-stroke" d="&#10;  M 9.03 90.93&#10;  Q 13.16 91.39 12.64 89.08"/>
<path stroke="#546681" vector-effect="non-scaling-stroke" d="&#10;  M 192.53 93.15&#10;  C 194.58 99.09 193.81 106.69 193.87 112.97"/>
<path stroke="#39475e" vector-effect="non-scaling-stroke" d="&#10;  M 178.83 133.22&#10;  L 177.20 133.19"/>
<path stroke="#44546d" vector-effect="non-scaling-stroke" d="&#10;  M 177.20 133.19&#10;  Q 178.07 132.27 177.49 131.46"/>
<path stroke="#39475e" vector-effect="non-scaling-stroke" d="&#10;  M 177.49 131.46&#10;  C 182.02 131.32 186.39 131.92 190.79 129.97&#10;  Q 191.34 129.72 191.41 129.11&#10;  L 192.78 115.46&#10;  Q 192.85 114.78 192.23 114.53&#10;  Q 191.21 114.11 191.36 113.08&#10;  A 0.68 0.67 -24.9 0 0 190.12 112.63&#10;  C 186.53 118.33 184.93 123.22 177.48 124.22&#10;  Q 174.08 124.67 174.51 128.19&#10;  Q 174.68 129.54 175.54 129.94&#10;  Q 175.95 130.13 176.19 130.51&#10;  L 176.79 131.49"/>
<path stroke="#44546d" vector-effect="non-scaling-stroke" d="&#10;  M 176.79 131.49&#10;  Q 175.33 130.77 174.54 131.18"/>
<path stroke="#4569a7" vector-effect="non-scaling-stroke" d="&#10;  M 175.63 91.71&#10;  L 175.23 90.02"/>
<path stroke="#1b212c" vector-effect="non-scaling-stroke" d="&#10;  M 175.23 90.02&#10;  Q 175.71 90.01 175.97 89.39&#10;  Q 176.13 89.01 175.98 88.51&#10;  Q 169.09 65.04 149.63 48.13&#10;  Q 147.80 46.54 146.70 47.39"/>
<path stroke="#4569a7" vector-effect="non-scaling-stroke" d="&#10;  M 146.70 47.39&#10;  Q 146.90 47.57 146.28 47.47"/>
<path stroke="#4569a7" vector-effect="non-scaling-stroke" d="&#10;  M 51.73 49.23&#10;  Q 50.58 49.33 49.65 50.15&#10;  Q 30.37 67.12 24.35 92.22"/>
<path stroke="#39475e" vector-effect="non-scaling-stroke" d="&#10;  M 179.00 90.40&#10;  C 178.19 87.43 176.74 84.56 175.84 81.82&#10;  C 172.38 71.25 167.10 63.17 159.57 55.06&#10;  C 158.74 54.17 157.35 53.59 156.60 52.55&#10;  Q 155.36 50.82 154.85 50.40&#10;  Q 150.09 46.54 138.75 38.48&#10;  Q 136.14 36.62 133.83 37.24&#10;  Q 133.33 37.37 132.87 37.15&#10;  Q 124.08 33.02 116.25 31.75&#10;  Q 113.84 31.36 112.74 30.93&#10;  Q 112.31 30.76 111.85 30.85&#10;  Q 109.80 31.24 107.93 30.18&#10;  Q 107.46 29.92 106.92 29.92&#10;  C 102.28 29.90 97.49 29.58 93.01 30.18&#10;  C 77.34 32.25 65.24 36.87 52.35 46.19&#10;  Q 51.73 46.64 50.50 48.12&#10;  C 49.29 49.58 47.75 49.81 46.68 51.74&#10;  Q 46.04 52.88 45.11 53.62&#10;  C 35.02 61.65 27.65 75.76 24.22 87.70&#10;  Q 23.47 90.31 22.99 90.95"/>
<path stroke="#947871" vector-effect="non-scaling-stroke" d="&#10;  M 27.02 108.30&#10;  L 27.05 110.47"/>
<path stroke="#4f607a" vector-effect="non-scaling-stroke" d="&#10;  M 27.05 110.47&#10;  L 26.83 125.67&#10;  A 1.46 1.43 62.7 0 1 26.60 126.42&#10;  Q 25.98 127.40 26.82 127.98"/>
<path stroke="#a6a7ca" vector-effect="non-scaling-stroke" d="&#10;  M 40.11 67.18&#10;  Q 29.36 82.90 27.51 101.99"/>
<path stroke="#4569a7" vector-effect="non-scaling-stroke" d="&#10;  M 27.51 101.99&#10;  L 26.22 93.55"/>
<path stroke="#f8caae" vector-effect="non-scaling-stroke" d="&#10;  M 57.26 91.51&#10;  Q 57.22 95.27 57.26 99.45&#10;  C 57.35 107.99 66.68 112.17 72.72 105.39"/>
<path stroke="#9a8681" vector-effect="non-scaling-stroke" d="&#10;  M 172.54 122.81&#10;  Q 172.59 122.51 172.65 122.20"/>
<path stroke="#a08c89" vector-effect="non-scaling-stroke" d="&#10;  M 165.78 141.82&#10;  L 157.22 147.69"/>
<path stroke="#f4b18c" vector-effect="non-scaling-stroke" d="&#10;  M 157.22 147.69&#10;  Q 154.74 146.79 158.55 144.69"/>
<path stroke="#f5b794" vector-effect="non-scaling-stroke" d="&#10;  M 158.55 144.69&#10;  C 161.11 143.71 162.83 137.43 164.31 134.92&#10;  Q 164.56 134.49 164.46 134.00&#10;  Q 164.07 132.10 165.33 130.65&#10;  Q 165.70 130.22 165.81 129.67&#10;  Q 167.38 121.90 166.95 113.98&#10;  Q 166.92 113.41 166.61 112.94&#10;  Q 165.56 111.38 166.09 109.41&#10;  A 0.77 0.76 -52.2 0 0 166.02 108.84&#10;  L 164.42 105.97&#10;  A 0.59 0.58 -46.0 0 0 163.39 105.99&#10;  C 161.43 109.85 155.09 107.07 156.01 113.87&#10;  A 0.96 0.95 -25.1 0 1 155.70 114.71&#10;  Q 154.57 115.74 154.20 117.16&#10;  Q 154.07 117.66 153.64 117.94&#10;  C 149.27 120.79 146.33 125.27 141.91 129.40&#10;  Q 141.55 129.74 141.08 129.88&#10;  C 139.86 130.24 138.93 131.48 138.12 132.00&#10;  Q 135.72 133.53 133.46 135.28&#10;  A 0.09 0.08 61.3 0 1 133.33 135.24&#10;  Q 133.29 135.12 133.25 134.99&#10;  Q 133.19 134.82 133.04 134.91&#10;  C 124.39 139.87 112.71 142.61 102.86 140.49&#10;  C 94.14 138.61 83.03 137.05 76.01 133.97&#10;  Q 72.86 132.58 70.73 131.81&#10;  C 62.10 128.70 53.73 122.48 46.81 116.55&#10;  C 42.68 113.00 38.31 110.37 34.03 107.16&#10;  A 2.24 2.22 -86.2 0 1 33.38 106.41&#10;  Q 32.13 104.11 29.46 104.63&#10;  Q 29.04 104.71 28.83 105.09&#10;  L 27.02 108.30"/>
<path stroke="#95807a" vector-effect="non-scaling-stroke" d="&#10;  M 27.02 108.30&#10;  L 27.51 101.99"/>
<path stroke="#a6a7ca" vector-effect="non-scaling-stroke" d="&#10;  M 172.79 97.38&#10;  Q 170.51 83.54 163.54 71.67"/>
<path stroke="#916b60" vector-effect="non-scaling-stroke" d="&#10;  M 159.75 151.44&#10;  Q 149.45 156.80 137.94 158.46"/>
<path stroke="#805d56" vector-effect="non-scaling-stroke" d="&#10;  M 137.94 158.46&#10;  L 127.14 159.58&#10;  Q 126.63 159.64 126.37 160.08&#10;  C 123.34 165.27 113.75 163.54 108.55 163.48&#10;  Q 108.06 163.48 107.61 163.30&#10;  L 106.72 162.94"/>
<path stroke="#39475e" vector-effect="non-scaling-stroke" d="&#10;  M 106.72 162.94&#10;  C 106.68 161.62 108.18 161.14 109.35 161.23&#10;  C 112.81 161.48 120.09 162.58 123.08 161.24&#10;  Q 123.57 161.02 123.77 160.53&#10;  Q 125.07 157.38 128.74 157.00"/>
<path stroke="#3f4e66" vector-effect="non-scaling-stroke" d="&#10;  M 177.20 133.19&#10;  C 167.16 149.72 147.26 156.77 128.74 157.00"/>
<path stroke="#44546d" vector-effect="non-scaling-stroke" d="&#10;  M 128.74 157.00&#10;  L 127.09 154.88"/>
<path stroke="#3f4e66" vector-effect="non-scaling-stroke" d="&#10;  M 177.49 131.46&#10;  L 176.79 131.49"/>
<path stroke="#2c497c" vector-effect="non-scaling-stroke" d="&#10;  M 175.23 90.02&#10;  C 170.74 73.67 160.85 57.18 146.70 47.39"/>
<path stroke="#f2a983" vector-effect="non-scaling-stroke" d="&#10;  M 158.55 144.69&#10;  Q 157.91 143.45 158.49 142.21&#10;  Q 159.41 140.28 161.85 134.62&#10;  C 163.77 130.17 165.33 121.37 162.37 117.18&#10;  Q 162.10 116.80 161.65 116.85&#10;  C 158.31 117.18 157.52 119.69 155.69 121.16&#10;  Q 152.51 123.72 151.00 125.47&#10;  Q 143.29 134.39 133.40 140.66&#10;  C 129.47 143.15 121.94 146.10 118.19 146.39&#10;  Q 103.39 147.57 89.51 145.00&#10;  Q 89.25 144.96 89.22 144.64&#10;  Q 89.19 144.25 88.80 144.17&#10;  C 73.80 141.39 57.39 135.46 45.59 125.50&#10;  C 43.60 123.82 41.54 122.75 39.35 121.53&#10;  A 0.71 0.70 32.6 0 0 38.42 121.73&#10;  Q 37.29 123.32 36.02 122.10&#10;  Q 35.50 121.60 35.20 122.25&#10;  L 33.74 125.35&#10;  Q 33.58 125.68 33.79 125.99&#10;  Q 36.60 130.13 35.77 135.11&#10;  Q 35.69 135.57 35.87 135.86&#10;  Q 36.05 136.17 36.43 136.36&#10;  Q 36.86 136.57 37.00 137.02&#10;  C 38.05 140.38 40.97 143.71 41.55 146.80&#10;  A 1.15 1.13 10.8 0 0 42.09 147.58&#10;  Q 45.27 149.51 47.45 152.43&#10;  Q 49.39 155.03 50.88 156.25&#10;  Q 54.70 159.39 58.46 162.60&#10;  C 59.50 163.49 60.22 164.62 61.21 165.63&#10;  Q 61.58 166.00 62.08 166.15&#10;  Q 63.85 166.69 64.94 168.30&#10;  Q 65.24 168.74 65.71 168.97&#10;  Q 70.82 171.45 75.88 174.07&#10;  C 79.74 176.07 84.19 176.71 88.24 179.01&#10;  Q 88.67 179.25 89.14 179.14&#10;  Q 92.86 178.31 93.88 181.76"/>
<path stroke="#af9794" vector-effect="non-scaling-stroke" d="&#10;  M 29.67 128.03&#10;  L 27.05 110.47"/>
<path stroke="#f7c4a6" vector-effect="non-scaling-stroke" d="&#10;  M 137.56 108.38&#10;  Q 140.61 109.77 137.32 112.42&#10;  Q 136.94 112.74 136.75 113.20&#10;  C 135.40 116.60 126.38 120.85 122.32 122.81&#10;  C 121.22 123.35 121.24 123.12 120.23 123.20&#10;  Q 104.51 124.48 90.65 117.31&#10;  C 88.78 116.34 85.21 115.03 82.92 113.14&#10;  C 80.20 110.91 77.43 110.50 75.72 106.93&#10;  A 0.77 0.77 0.0 0 0 75.00 106.50&#10;  Q 74.23 106.52 74.24 105.78&#10;  Q 74.25 105.36 73.83 105.37&#10;  L 72.72 105.39"/>
<path stroke="#f9d0b7" vector-effect="non-scaling-stroke" d="&#10;  M 72.72 105.39&#10;  C 73.78 103.50 74.77 102.05 74.77 99.75&#10;  C 74.76 95.64 75.72 87.05 73.42 83.86&#10;  Q 71.72 81.51 68.28 80.16&#10;  C 65.32 79.00 64.93 79.50 62.01 80.87&#10;  Q 56.52 83.45 57.26 91.51"/>
<path stroke="#f7c4a6" vector-effect="non-scaling-stroke" d="&#10;  M 57.26 91.51&#10;  Q 56.82 88.00 55.41 87.30&#10;  Q 54.94 87.06 54.63 86.65&#10;  L 40.11 67.18"/>
<path stroke="#a7add3" vector-effect="non-scaling-stroke" d="&#10;  M 40.11 67.18&#10;  Q 45.88 58.63 54.68 51.24"/>
<path stroke="#9e7f78" vector-effect="non-scaling-stroke" d="&#10;  M 157.22 147.69&#10;  Q 143.44 154.56 127.09 154.88"/>
<path stroke="#987870" vector-effect="non-scaling-stroke" d="&#10;  M 127.09 154.88&#10;  L 123.28 151.78"/>
<path stroke="#9e7f78" vector-effect="non-scaling-stroke" d="&#10;  M 123.28 151.78&#10;  Q 117.14 151.35 110.85 151.48&#10;  C 105.14 151.59 101.63 154.97 104.01 160.88"/>
<path stroke="#ef9c72" vector-effect="non-scaling-stroke" d="&#10;  M 104.01 160.88&#10;  Q 102.45 162.07 102.19 159.83&#10;  Q 102.14 159.38 101.68 159.33&#10;  L 100.56 159.22&#10;  Q 100.07 159.17 100.03 159.67&#10;  Q 99.98 160.38 99.24 160.49&#10;  Q 98.85 160.55 98.81 160.44&#10;  Q 98.77 160.31 98.74 160.16&#10;  Q 98.71 159.94 98.49 159.91&#10;  C 88.58 158.99 79.24 158.31 69.48 156.41&#10;  A 1.87 1.87 0.0 0 0 67.67 159.42&#10;  C 72.40 165.29 76.90 167.50 83.81 170.15&#10;  Q 84.28 170.33 84.59 170.72&#10;  C 86.71 173.33 99.00 174.03 102.68 174.29&#10;  C 109.44 174.77 121.23 173.55 127.48 169.06&#10;  Q 130.13 167.16 133.20 165.96&#10;  Q 133.45 165.87 133.64 165.47&#10;  Q 133.85 165.03 134.34 165.04&#10;  C 137.58 165.12 140.45 163.60 143.47 162.58&#10;  C 146.14 161.68 149.31 161.62 152.32 160.34"/>
<path stroke="#a8b3db" vector-effect="non-scaling-stroke" d="&#10;  M 143.92 49.19&#10;  Q 144.06 49.84 144.55 50.21&#10;  Q 156.23 59.08 163.54 71.67"/>
<path stroke="#f8caae" vector-effect="non-scaling-stroke" d="&#10;  M 163.54 71.67&#10;  Q 162.72 72.88 163.17 74.03&#10;  Q 163.33 74.43 162.90 74.40&#10;  Q 162.61 74.38 162.57 74.20&#10;  A 0.74 0.74 0.0 0 0 161.24 73.99&#10;  Q 159.00 77.37 156.91 80.47&#10;  C 154.93 83.40 152.74 87.96 150.20 91.48&#10;  C 148.60 93.70 147.97 96.53 145.90 98.82&#10;  Q 145.52 99.24 144.97 99.31&#10;  Q 143.44 99.51 144.01 101.48&#10;  A 0.85 0.76 41.9 0 1 144.04 101.76&#10;  Q 143.99 102.75 143.45 102.75&#10;  Q 142.94 102.75 142.75 103.22&#10;  Q 141.21 106.95 137.56 108.38"/>
<path stroke="#f9d0b7" vector-effect="non-scaling-stroke" d="&#10;  M 137.56 108.38&#10;  Q 133.39 110.00 129.68 106.98&#10;  A 0.52 0.52 0.0 0 0 128.84 107.32&#10;  L 128.68 108.51&#10;  Q 128.61 109.02 128.25 109.38&#10;  L 123.81 113.81&#10;  A 1.65 1.59 -71.0 0 1 122.91 114.27&#10;  Q 117.26 115.14 111.62 114.62&#10;  C 109.42 114.42 107.80 112.99 105.28 112.98&#10;  Q 104.93 112.97 104.69 112.73&#10;  L 104.51 112.55&#10;  Q 104.20 112.24 103.76 112.27&#10;  Q 100.04 112.58 97.24 110.35&#10;  C 95.39 108.87 93.96 108.30 91.96 107.57&#10;  Q 91.47 107.39 91.15 106.98&#10;  Q 89.38 104.75 87.09 103.08&#10;  Q 86.60 102.72 86.29 102.21&#10;  L 84.30 98.83&#10;  Q 84.04 98.38 83.92 97.88&#10;  Q 83.43 95.74 81.83 94.20&#10;  Q 81.44 93.82 81.50 93.28&#10;  Q 81.61 92.33 81.01 91.62&#10;  Q 80.69 91.24 80.62 90.75&#10;  Q 80.15 87.60 77.66 83.58&#10;  Q 75.51 80.09 71.14 68.70&#10;  C 69.39 64.14 66.74 58.36 63.86 54.39&#10;  Q 62.20 52.10 61.00 49.43&#10;  A 0.56 0.56 0.0 0 0 60.27 49.14&#10;  Q 58.87 49.71 57.94 49.00"/>
<path stroke="#967166" vector-effect="non-scaling-stroke" d="&#10;  M 105.07 161.57&#10;  L 105.88 162.54"/>
<path stroke="#dc875e" vector-effect="non-scaling-stroke" d="&#10;  M 105.88 162.54&#10;  L 104.98 164.36&#10;  Q 104.74 164.85 105.10 165.26&#10;  C 109.55 170.27 115.31 167.91 121.01 168.09&#10;  C 126.29 168.25 127.53 163.61 133.57 164.20&#10;  C 134.39 164.28 135.26 163.78 135.88 163.34&#10;  Q 136.25 163.07 136.71 163.01&#10;  Q 139.51 162.62 141.50 160.66&#10;  A 0.74 0.74 0.0 0 0 140.82 159.41&#10;  Q 136.83 160.31 137.94 158.46"/>
<path stroke="#85635c" vector-effect="non-scaling-stroke" d="&#10;  M 106.72 162.94&#10;  L 105.88 162.54"/>
<path stroke="#44546d" vector-effect="non-scaling-stroke" d="&#10;  M 123.28 151.78&#10;  L 122.82 153.06&#10;  Q 122.64 153.57 122.10 153.55&#10;  C 119.05 153.46 109.83 152.80 107.55 154.48&#10;  C 106.02 155.61 105.49 159.68 105.07 161.57"/>
<path stroke="#9c776f" vector-effect="non-scaling-stroke" d="&#10;  M 105.07 161.57&#10;  L 104.01 160.88"/>
<path stroke="#7d6c60" vector-effect="non-scaling-stroke" d="&#10;  M 142.20 88.00&#10;  A 6.93 6.93 0.0 0 0 135.27 81.07&#10;  L 134.47 81.07&#10;  A 6.93 6.93 0.0 0 0 127.54 88.00&#10;  L 127.54 100.48&#10;  A 6.93 6.93 0.0 0 0 134.47 107.41&#10;  L 135.27 107.41&#10;  A 6.93 6.93 0.0 0 0 142.20 100.48&#10;  L 142.20 88.00"/>
<path stroke="#7d6c60" vector-effect="non-scaling-stroke" d="&#10;  M 73.38 87.94&#10;  A 7.00 7.00 0.0 0 0 66.38 80.94&#10;  L 65.60 80.94&#10;  A 7.00 7.00 0.0 0 0 58.60 87.94&#10;  L 58.60 100.36&#10;  A 7.00 7.00 0.0 0 0 65.60 107.36&#10;  L 66.38 107.36&#10;  A 7.00 7.00 0.0 0 0 73.38 100.36&#10;  L 73.38 87.94"/>
<path stroke="#191716" vector-effect="non-scaling-stroke" d="&#10;  M 72.14 88.20&#10;  A 5.87 5.87 0.0 0 0 66.27 82.33&#10;  L 65.63 82.33&#10;  A 5.87 5.87 0.0 0 0 59.76 88.20&#10;  L 59.76 100.14&#10;  A 5.87 5.87 0.0 0 0 65.63 106.01&#10;  L 66.27 106.01&#10;  A 5.87 5.87 0.0 0 0 72.14 100.14&#10;  L 72.14 88.20"/>
<path stroke="#191716" vector-effect="non-scaling-stroke" d="&#10;  M 140.9392 87.9995&#10;  A 5.68 5.68 0.0 0 0 135.2493 82.3294&#10;  L 134.5093 82.3307&#10;  A 5.68 5.68 0.0 0 0 128.8393 88.0206&#10;  L 128.8608 100.3405&#10;  A 5.68 5.68 0.0 0 0 134.5507 106.0106&#10;  L 135.2907 106.0093&#10;  A 5.68 5.68 0.0 0 0 140.9607 100.3194&#10;  L 140.9392 87.9995"/>
</g>
<path fill="#6a7f9d" d="&#10;  M 161.20 41.71&#10;  Q 161.38 42.17 161.32 42.71&#10;  Q 161.27 43.20 161.63 43.54&#10;  Q 174.88 55.92 182.31 73.18&#10;  Q 182.67 74.02 182.35 74.85&#10;  C 177.38 66.76 173.01 58.38 166.44 51.04&#10;  C 149.46 32.04 123.69 21.17 98.34 21.63&#10;  C 62.18 22.30 30.25 44.57 16.97 78.30&#10;  C 16.63 79.15 15.68 79.93 15.49 80.74&#10;  Q 14.53 84.93 12.64 89.08&#10;  C 15.93 72.78 24.50 57.62 35.97 45.71&#10;  Q 36.68 44.97 36.74 44.28&#10;  Q 37.01 44.43 37.20 44.46&#10;  Q 37.39 44.49 37.61 44.29&#10;  C 72.18 11.51 124.06 10.80 159.85 41.91&#10;  Q 160.21 42.22 161.20 41.71&#10;  Z"/>
<path fill="#4a5a75" d="&#10;  M 182.35 74.85&#10;  Q 182.74 74.45 182.71 75.08&#10;  Q 183.19 79.72 185.78 84.01&#10;  L 187.54 90.21&#10;  Q 187.69 90.74 188.23 90.80&#10;  Q 190.29 91.06 191.39 92.03&#10;  C 188.15 94.63 186.79 97.90 184.99 101.89&#10;  C 183.08 106.13 182.87 110.14 179.13 113.70&#10;  C 176.39 116.31 173.17 115.38 173.87 120.98&#10;  Q 174.06 122.56 172.54 122.81&#10;  Q 173.42 109.89 172.79 97.38&#10;  L 175.63 91.71&#10;  L 179.00 90.40&#10;  Q 180.27 90.74 180.65 90.35&#10;  Q 180.97 90.03 180.47 89.21&#10;  Q 178.63 86.21 178.07 82.68&#10;  A 1.59 1.55 -72.5 0 0 177.63 81.81&#10;  C 176.17 80.33 176.21 77.98 175.67 76.61&#10;  C 174.84 74.52 174.31 72.49 173.17 70.56&#10;  Q 169.54 64.47 165.83 58.43&#10;  Q 164.71 56.62 161.70 53.89&#10;  C 157.45 50.03 153.90 45.59 149.26 42.22&#10;  Q 147.22 40.73 143.99 38.65&#10;  C 139.87 35.99 134.97 34.75 130.40 32.87&#10;  C 128.26 31.99 125.89 31.95 123.60 31.11&#10;  C 119.18 29.49 114.25 27.97 109.74 28.01&#10;  C 103.75 28.06 91.91 27.03 86.85 29.95&#10;  Q 86.43 30.20 85.94 30.22&#10;  C 83.47 30.33 81.34 30.28 78.94 31.14&#10;  C 73.86 32.96 68.31 34.31 63.78 36.67&#10;  Q 58.64 39.35 53.88 42.66&#10;  C 52.41 43.68 49.80 44.80 48.15 46.72&#10;  Q 47.83 47.10 47.35 47.24&#10;  Q 44.92 48.00 44.30 50.52&#10;  A 1.05 1.03 84.6 0 1 43.74 51.21&#10;  Q 41.34 52.37 40.03 54.73&#10;  Q 39.78 55.16 39.36 55.41&#10;  C 36.33 57.17 35.54 60.19 33.98 62.24&#10;  Q 32.13 64.68 29.97 66.90&#10;  Q 29.60 67.29 29.74 67.81&#10;  Q 30.06 69.04 29.03 69.14&#10;  A 1.03 1.02 10.1 0 0 28.22 69.70&#10;  Q 26.55 73.00 24.11 75.78&#10;  Q 23.71 76.22 23.61 76.81&#10;  Q 23.34 78.30 23.15 79.80&#10;  C 22.81 82.63 21.16 84.54 21.11 87.64&#10;  Q 21.10 88.12 20.86 88.52&#10;  L 20.32 89.46&#10;  Q 20.00 90.02 20.54 90.38&#10;  Q 21.71 91.16 22.99 90.95&#10;  L 24.35 92.22&#10;  Q 25.15 93.40 26.22 93.55&#10;  Q 22.53 94.05 21.79 97.02&#10;  C 20.77 101.11 19.04 105.07 17.44 109.82&#10;  Q 15.45 115.76 8.71 118.42&#10;  Q 6.98 119.09 6.77 121.59&#10;  Q 6.72 122.26 6.31 121.72&#10;  Q 5.99 121.31 6.27 120.73&#10;  Q 6.52 120.23 6.51 119.75&#10;  Q 6.51 119.27 6.30 119.70&#10;  L 6.02 120.28&#10;  Q 6.09 119.31 5.78 118.83&#10;  Q 6.73 118.45 6.01 117.03&#10;  A 1.16 1.14 31.6 0 1 5.88 116.50&#10;  L 5.68 103.35&#10;  Q 6.00 100.70 5.94 97.01&#10;  C 5.87 93.54 7.78 93.43 9.03 90.93&#10;  Q 13.16 91.39 12.64 89.08&#10;  Q 14.53 84.93 15.49 80.74&#10;  C 15.68 79.93 16.63 79.15 16.97 78.30&#10;  C 30.25 44.57 62.18 22.30 98.34 21.63&#10;  C 123.69 21.17 149.46 32.04 166.44 51.04&#10;  C 173.01 58.38 177.38 66.76 182.35 74.85&#10;  Z"/>
<path fill="#3e4d64" d="&#10;  M 179.00 90.40&#10;  C 178.19 87.43 176.74 84.56 175.84 81.82&#10;  C 172.38 71.25 167.10 63.17 159.57 55.06&#10;  C 158.74 54.17 157.35 53.59 156.60 52.55&#10;  Q 155.36 50.82 154.85 50.40&#10;  Q 150.09 46.54 138.75 38.48&#10;  Q 136.14 36.62 133.83 37.24&#10;  Q 133.33 37.37 132.87 37.15&#10;  Q 124.08 33.02 116.25 31.75&#10;  Q 113.84 31.36 112.74 30.93&#10;  Q 112.31 30.76 111.85 30.85&#10;  Q 109.80 31.24 107.93 30.18&#10;  Q 107.46 29.92 106.92 29.92&#10;  C 102.28 29.90 97.49 29.58 93.01 30.18&#10;  C 77.34 32.25 65.24 36.87 52.35 46.19&#10;  Q 51.73 46.64 50.50 48.12&#10;  C 49.29 49.58 47.75 49.81 46.68 51.74&#10;  Q 46.04 52.88 45.11 53.62&#10;  C 35.02 61.65 27.65 75.76 24.22 87.70&#10;  Q 23.47 90.31 22.99 90.95&#10;  Q 21.71 91.16 20.54 90.38&#10;  Q 20.00 90.02 20.32 89.46&#10;  L 20.86 88.52&#10;  Q 21.10 88.12 21.11 87.64&#10;  C 21.16 84.54 22.81 82.63 23.15 79.80&#10;  Q 23.34 78.30 23.61 76.81&#10;  Q 23.71 76.22 24.11 75.78&#10;  Q 26.55 73.00 28.22 69.70&#10;  A 1.03 1.02 10.1 0 1 29.03 69.14&#10;  Q 30.06 69.04 29.74 67.81&#10;  Q 29.60 67.29 29.97 66.90&#10;  Q 32.13 64.68 33.98 62.24&#10;  C 35.54 60.19 36.33 57.17 39.36 55.41&#10;  Q 39.78 55.16 40.03 54.73&#10;  Q 41.34 52.37 43.74 51.21&#10;  A 1.05 1.03 84.6 0 0 44.30 50.52&#10;  Q 44.92 48.00 47.35 47.24&#10;  Q 47.83 47.10 48.15 46.72&#10;  C 49.80 44.80 52.41 43.68 53.88 42.66&#10;  Q 58.64 39.35 63.78 36.67&#10;  C 68.31 34.31 73.86 32.96 78.94 31.14&#10;  C 81.34 30.28 83.47 30.33 85.94 30.22&#10;  Q 86.43 30.20 86.85 29.95&#10;  C 91.91 27.03 103.75 28.06 109.74 28.01&#10;  C 114.25 27.97 119.18 29.49 123.60 31.11&#10;  C 125.89 31.95 128.26 31.99 130.40 32.87&#10;  C 134.97 34.75 139.87 35.99 143.99 38.65&#10;  Q 147.22 40.73 149.26 42.22&#10;  C 153.90 45.59 157.45 50.03 161.70 53.89&#10;  Q 164.71 56.62 165.83 58.43&#10;  Q 169.54 64.47 173.17 70.56&#10;  C 174.31 72.49 174.84 74.52 175.67 76.61&#10;  C 176.21 77.98 176.17 80.33 177.63 81.81&#10;  A 1.59 1.55 -72.5 0 1 178.07 82.68&#10;  Q 178.63 86.21 180.47 89.21&#10;  Q 180.97 90.03 180.65 90.35&#10;  Q 180.27 90.74 179.00 90.40&#10;  Z"/>
<path fill="#344157" d="&#10;  M 179.00 90.40&#10;  L 175.63 91.71&#10;  L 175.23 90.02&#10;  Q 175.71 90.01 175.97 89.39&#10;  Q 176.13 89.01 175.98 88.51&#10;  Q 169.09 65.04 149.63 48.13&#10;  Q 147.80 46.54 146.70 47.39&#10;  Q 146.90 47.57 146.28 47.47&#10;  Q 146.17 46.87 145.57 46.44&#10;  C 116.84 25.95 79.96 26.69 52.06 48.25&#10;  Q 51.78 48.46 51.76 48.81&#10;  L 51.73 49.23&#10;  Q 50.58 49.33 49.65 50.15&#10;  Q 30.37 67.12 24.35 92.22&#10;  L 22.99 90.95&#10;  Q 23.47 90.31 24.22 87.70&#10;  C 27.65 75.76 35.02 61.65 45.11 53.62&#10;  Q 46.04 52.88 46.68 51.74&#10;  C 47.75 49.81 49.29 49.58 50.50 48.12&#10;  Q 51.73 46.64 52.35 46.19&#10;  C 65.24 36.87 77.34 32.25 93.01 30.18&#10;  C 97.49 29.58 102.28 29.90 106.92 29.92&#10;  Q 107.46 29.92 107.93 30.18&#10;  Q 109.80 31.24 111.85 30.85&#10;  Q 112.31 30.76 112.74 30.93&#10;  Q 113.84 31.36 116.25 31.75&#10;  Q 124.08 33.02 132.87 37.15&#10;  Q 133.33 37.37 133.83 37.24&#10;  Q 136.14 36.62 138.75 38.48&#10;  Q 150.09 46.54 154.85 50.40&#10;  Q 155.36 50.82 156.60 52.55&#10;  C 157.35 53.59 158.74 54.17 159.57 55.06&#10;  C 167.10 63.17 172.38 71.25 175.84 81.82&#10;  C 176.74 84.56 178.19 87.43 179.00 90.40&#10;  Z"/>
<path fill="#f9d6bf" d="&#10;  M 143.92 49.19&#10;  Q 144.06 49.84 144.55 50.21&#10;  Q 156.23 59.08 163.54 71.67&#10;  Q 162.72 72.88 163.17 74.03&#10;  Q 163.33 74.43 162.90 74.40&#10;  Q 162.61 74.38 162.57 74.20&#10;  A 0.74 0.74 0.0 0 0 161.24 73.99&#10;  Q 159.00 77.37 156.91 80.47&#10;  C 154.93 83.40 152.74 87.96 150.20 91.48&#10;  C 148.60 93.70 147.97 96.53 145.90 98.82&#10;  Q 145.52 99.24 144.97 99.31&#10;  Q 143.44 99.51 144.01 101.48&#10;  A 0.85 0.76 41.9 0 1 144.04 101.76&#10;  Q 143.99 102.75 143.45 102.75&#10;  Q 142.94 102.75 142.75 103.22&#10;  Q 141.21 106.95 137.56 108.38&#10;  Q 133.39 110.00 129.68 106.98&#10;  A 0.52 0.52 0.0 0 0 128.84 107.32&#10;  L 128.68 108.51&#10;  Q 128.61 109.02 128.25 109.38&#10;  L 123.81 113.81&#10;  A 1.65 1.59 -71.0 0 1 122.91 114.27&#10;  Q 117.26 115.14 111.62 114.62&#10;  C 109.42 114.42 107.80 112.99 105.28 112.98&#10;  Q 104.93 112.97 104.69 112.73&#10;  L 104.51 112.55&#10;  Q 104.20 112.24 103.76 112.27&#10;  Q 100.04 112.58 97.24 110.35&#10;  C 95.39 108.87 93.96 108.30 91.96 107.57&#10;  Q 91.47 107.39 91.15 106.98&#10;  Q 89.38 104.75 87.09 103.08&#10;  Q 86.60 102.72 86.29 102.21&#10;  L 84.30 98.83&#10;  Q 84.04 98.38 83.92 97.88&#10;  Q 83.43 95.74 81.83 94.20&#10;  Q 81.44 93.82 81.50 93.28&#10;  Q 81.61 92.33 81.01 91.62&#10;  Q 80.69 91.24 80.62 90.75&#10;  Q 80.15 87.60 77.66 83.58&#10;  Q 75.51 80.09 71.14 68.70&#10;  C 69.39 64.14 66.74 58.36 63.86 54.39&#10;  Q 62.20 52.10 61.00 49.43&#10;  A 0.56 0.56 0.0 0 0 60.27 49.14&#10;  Q 58.87 49.71 57.94 49.00&#10;  C 83.69 30.68 117.38 31.13 143.03 48.96&#10;  Q 143.59 49.34 143.92 49.19&#10;  Z&#10;  M 142.20 88.00&#10;  A 6.93 6.93 0.0 0 0 135.27 81.07&#10;  L 134.47 81.07&#10;  A 6.93 6.93 0.0 0 0 127.54 88.00&#10;  L 127.54 100.48&#10;  A 6.93 6.93 0.0 0 0 134.47 107.41&#10;  L 135.27 107.41&#10;  A 6.93 6.93 0.0 0 0 142.20 100.48&#10;  L 142.20 88.00&#10;  Z"/>
<path fill="#5690f7" d="&#10;  M 193.29 93.00&#10;  Q 193.64 93.52 192.53 93.15&#10;  L 191.39 92.03&#10;  Q 190.29 91.06 188.23 90.80&#10;  Q 187.69 90.74 187.54 90.21&#10;  L 185.78 84.01&#10;  Q 185.99 78.87 182.71 75.08&#10;  Q 182.74 74.45 182.35 74.85&#10;  Q 182.67 74.02 182.31 73.18&#10;  Q 174.88 55.92 161.63 43.54&#10;  Q 161.27 43.20 161.32 42.71&#10;  Q 161.38 42.17 161.20 41.71&#10;  C 166.38 36.80 171.96 48.02 173.96 51.52&#10;  Q 185.34 71.46 193.29 93.00&#10;  Z"/>
<path fill="#5690f7" d="&#10;  M 36.74 44.28&#10;  Q 36.68 44.97 35.97 45.71&#10;  C 24.50 57.62 15.93 72.78 12.64 89.08&#10;  Q 13.16 91.39 9.03 90.93&#10;  C 13.97 76.13 20.23 60.37 29.11 47.60&#10;  C 30.84 45.11 33.38 42.08 36.74 44.28&#10;  Z"/>
<path fill="#010101" d="&#10;  M 175.23 90.02&#10;  C 170.74 73.67 160.85 57.18 146.70 47.39&#10;  Q 147.80 46.54 149.63 48.13&#10;  Q 169.09 65.04 175.98 88.51&#10;  Q 176.13 89.01 175.97 89.39&#10;  Q 175.71 90.01 175.23 90.02&#10;  Z"/>
<path fill="#5690f7" d="&#10;  M 146.28 47.47&#10;  Q 146.90 47.57 146.70 47.39&#10;  C 160.85 57.18 170.74 73.67 175.23 90.02&#10;  L 175.63 91.71&#10;  L 172.79 97.38&#10;  Q 170.51 83.54 163.54 71.67&#10;  Q 156.23 59.08 144.55 50.21&#10;  Q 144.06 49.84 143.92 49.19&#10;  L 146.28 47.47&#10;  Z"/>
<path fill="#f8caae" d="&#10;  M 57.94 49.00&#10;  Q 58.87 49.71 60.27 49.14&#10;  A 0.56 0.56 0.0 0 1 61.00 49.43&#10;  Q 62.20 52.10 63.86 54.39&#10;  C 66.74 58.36 69.39 64.14 71.14 68.70&#10;  Q 75.51 80.09 77.66 83.58&#10;  Q 80.15 87.60 80.62 90.75&#10;  Q 80.69 91.24 81.01 91.62&#10;  Q 81.61 92.33 81.50 93.28&#10;  Q 81.44 93.82 81.83 94.20&#10;  Q 83.43 95.74 83.92 97.88&#10;  Q 84.04 98.38 84.30 98.83&#10;  L 86.29 102.21&#10;  Q 86.60 102.72 87.09 103.08&#10;  Q 89.38 104.75 91.15 106.98&#10;  Q 91.47 107.39 91.96 107.57&#10;  C 93.96 108.30 95.39 108.87 97.24 110.35&#10;  Q 100.04 112.58 103.76 112.27&#10;  Q 104.20 112.24 104.51 112.55&#10;  L 104.69 112.73&#10;  Q 104.93 112.97 105.28 112.98&#10;  C 107.80 112.99 109.42 114.42 111.62 114.62&#10;  Q 117.26 115.14 122.91 114.27&#10;  A 1.65 1.59 -71.0 0 0 123.81 113.81&#10;  L 128.25 109.38&#10;  Q 128.61 109.02 128.68 108.51&#10;  L 128.84 107.32&#10;  A 0.52 0.52 0.0 0 1 129.68 106.98&#10;  Q 133.39 110.00 137.56 108.38&#10;  Q 140.61 109.77 137.32 112.42&#10;  Q 136.94 112.74 136.75 113.20&#10;  C 135.40 116.60 126.38 120.85 122.32 122.81&#10;  C 121.22 123.35 121.24 123.12 120.23 123.20&#10;  Q 104.51 124.48 90.65 117.31&#10;  C 88.78 116.34 85.21 115.03 82.92 113.14&#10;  C 80.20 110.91 77.43 110.50 75.72 106.93&#10;  A 0.77 0.77 0.0 0 0 75.00 106.50&#10;  Q 74.23 106.52 74.24 105.78&#10;  Q 74.25 105.36 73.83 105.37&#10;  L 72.72 105.39&#10;  C 73.78 103.50 74.77 102.05 74.77 99.75&#10;  C 74.76 95.64 75.72 87.05 73.42 83.86&#10;  Q 71.72 81.51 68.28 80.16&#10;  C 65.32 79.00 64.93 79.50 62.01 80.87&#10;  Q 56.52 83.45 57.26 91.51&#10;  Q 56.82 88.00 55.41 87.30&#10;  Q 54.94 87.06 54.63 86.65&#10;  L 40.11 67.18&#10;  Q 45.88 58.63 54.68 51.24&#10;  L 57.94 49.00&#10;  Z"/>
<path fill="#5690f7" d="&#10;  M 51.73 49.23&#10;  L 54.68 51.24&#10;  Q 45.88 58.63 40.11 67.18&#10;  Q 29.36 82.90 27.51 101.99&#10;  L 26.22 93.55&#10;  Q 25.15 93.40 24.35 92.22&#10;  Q 30.37 67.12 49.65 50.15&#10;  Q 50.58 49.33 51.73 49.23&#10;  Z"/>
<path fill="#f6be9d" d="&#10;  M 40.11 67.18&#10;  L 54.63 86.65&#10;  Q 54.94 87.06 55.41 87.30&#10;  Q 56.82 88.00 57.26 91.51&#10;  Q 57.22 95.27 57.26 99.45&#10;  C 57.35 107.99 66.68 112.17 72.72 105.39&#10;  L 73.83 105.37&#10;  Q 74.25 105.36 74.24 105.78&#10;  Q 74.23 106.52 75.00 106.50&#10;  A 0.77 0.77 0.0 0 1 75.72 106.93&#10;  C 77.43 110.50 80.20 110.91 82.92 113.14&#10;  C 85.21 115.03 88.78 116.34 90.65 117.31&#10;  Q 104.51 124.48 120.23 123.20&#10;  C 121.24 123.12 121.22 123.35 122.32 122.81&#10;  C 126.38 120.85 135.40 116.60 136.75 113.20&#10;  Q 136.94 112.74 137.32 112.42&#10;  Q 140.61 109.77 137.56 108.38&#10;  Q 141.21 106.95 142.75 103.22&#10;  Q 142.94 102.75 143.45 102.75&#10;  Q 143.99 102.75 144.04 101.76&#10;  A 0.85 0.76 41.9 0 0 144.01 101.48&#10;  Q 143.44 99.51 144.97 99.31&#10;  Q 145.52 99.24 145.90 98.82&#10;  C 147.97 96.53 148.60 93.70 150.20 91.48&#10;  C 152.74 87.96 154.93 83.40 156.91 80.47&#10;  Q 159.00 77.37 161.24 73.99&#10;  A 0.74 0.74 0.0 0 1 162.57 74.20&#10;  Q 162.61 74.38 162.90 74.40&#10;  Q 163.33 74.43 163.17 74.03&#10;  Q 162.72 72.88 163.54 71.67&#10;  Q 170.51 83.54 172.79 97.38&#10;  Q 173.42 109.89 172.54 122.81&#10;  Q 172.59 122.51 172.65 122.20&#10;  Q 169.90 133.29 165.78 141.82&#10;  L 157.22 147.69&#10;  Q 154.74 146.79 158.55 144.69&#10;  C 161.11 143.71 162.83 137.43 164.31 134.92&#10;  Q 164.56 134.49 164.46 134.00&#10;  Q 164.07 132.10 165.33 130.65&#10;  Q 165.70 130.22 165.81 129.67&#10;  Q 167.38 121.90 166.95 113.98&#10;  Q 166.92 113.41 166.61 112.94&#10;  Q 165.56 111.38 166.09 109.41&#10;  A 0.77 0.76 -52.2 0 0 166.02 108.84&#10;  L 164.42 105.97&#10;  A 0.59 0.58 -46.0 0 0 163.39 105.99&#10;  C 161.43 109.85 155.09 107.07 156.01 113.87&#10;  A 0.96 0.95 -25.1 0 1 155.70 114.71&#10;  Q 154.57 115.74 154.20 117.16&#10;  Q 154.07 117.66 153.64 117.94&#10;  C 149.27 120.79 146.33 125.27 141.91 129.40&#10;  Q 141.55 129.74 141.08 129.88&#10;  C 139.86 130.24 138.93 131.48 138.12 132.00&#10;  Q 135.72 133.53 133.46 135.28&#10;  A 0.09 0.08 61.3 0 1 133.33 135.24&#10;  Q 133.29 135.12 133.25 134.99&#10;  Q 133.19 134.82 133.04 134.91&#10;  C 124.39 139.87 112.71 142.61 102.86 140.49&#10;  C 94.14 138.61 83.03 137.05 76.01 133.97&#10;  Q 72.86 132.58 70.73 131.81&#10;  C 62.10 128.70 53.73 122.48 46.81 116.55&#10;  C 42.68 113.00 38.31 110.37 34.03 107.16&#10;  A 2.24 2.22 -86.2 0 1 33.38 106.41&#10;  Q 32.13 104.11 29.46 104.63&#10;  Q 29.04 104.71 28.83 105.09&#10;  L 27.02 108.30&#10;  L 27.51 101.99&#10;  Q 29.36 82.90 40.11 67.18&#10;  Z"/>
<path fill="#6a7f9d" d="&#10;  M 182.71 75.08&#10;  Q 185.99 78.87 185.78 84.01&#10;  Q 183.19 79.72 182.71 75.08&#10;  Z"/>
<path fill="#f9d6bf" d="&#10;  M 72.72 105.39&#10;  C 66.68 112.17 57.35 107.99 57.26 99.45&#10;  Q 57.22 95.27 57.26 91.51&#10;  Q 56.52 83.45 62.01 80.87&#10;  C 64.93 79.50 65.32 79.00 68.28 80.16&#10;  Q 71.72 81.51 73.42 83.86&#10;  C 75.72 87.05 74.76 95.64 74.77 99.75&#10;  C 74.77 102.05 73.78 103.50 72.72 105.39&#10;  Z&#10;  M 73.38 87.94&#10;  A 7.00 7.00 0.0 0 0 66.38 80.94&#10;  L 65.60 80.94&#10;  A 7.00 7.00 0.0 0 0 58.60 87.94&#10;  L 58.60 100.36&#10;  A 7.00 7.00 0.0 0 0 65.60 107.36&#10;  L 66.38 107.36&#10;  A 7.00 7.00 0.0 0 0 73.38 100.36&#10;  L 73.38 87.94&#10;  Z"/>
<path fill="#010101" d="&#10;  M 73.38 100.36&#10;  A 7.00 7.00 0.0 0 1 66.38 107.36&#10;  L 65.60 107.36&#10;  A 7.00 7.00 0.0 0 1 58.60 100.36&#10;  L 58.60 87.94&#10;  A 7.00 7.00 0.0 0 1 65.60 80.94&#10;  L 66.38 80.94&#10;  A 7.00 7.00 0.0 0 1 73.38 87.94&#10;  L 73.38 100.36&#10;  Z&#10;  M 72.14 88.20&#10;  A 5.87 5.87 0.0 0 0 66.27 82.33&#10;  L 65.63 82.33&#10;  A 5.87 5.87 0.0 0 0 59.76 88.20&#10;  L 59.76 100.14&#10;  A 5.87 5.87 0.0 0 0 65.63 106.01&#10;  L 66.27 106.01&#10;  A 5.87 5.87 0.0 0 0 72.14 100.14&#10;  L 72.14 88.20&#10;  Z"/>
<path fill="#010101" d="&#10;  M 142.20 100.48&#10;  A 6.93 6.93 0.0 0 1 135.27 107.41&#10;  L 134.47 107.41&#10;  A 6.93 6.93 0.0 0 1 127.54 100.48&#10;  L 127.54 88.00&#10;  A 6.93 6.93 0.0 0 1 134.47 81.07&#10;  L 135.27 81.07&#10;  A 6.93 6.93 0.0 0 1 142.20 88.00&#10;  L 142.20 100.48&#10;  Z&#10;  M 140.9392 87.9995&#10;  A 5.68 5.68 0.0 0 0 135.2493 82.3294&#10;  L 134.5093 82.3307&#10;  A 5.68 5.68 0.0 0 0 128.8393 88.0206&#10;  L 128.8608 100.3405&#10;  A 5.68 5.68 0.0 0 0 134.5507 106.0106&#10;  L 135.2907 106.0093&#10;  A 5.68 5.68 0.0 0 0 140.9607 100.3194&#10;  L 140.9392 87.9995&#10;  Z"/>
<rect fill="#302c2a" x="59.76" y="82.33" width="12.38" height="23.68" rx="5.87"/>
<rect fill="#302c2a" x="-6.05" y="-11.84" transform="translate(134.90,94.17) rotate(-0.1)" width="12.10" height="23.68" rx="5.68"/>
<path fill="#3e4d64" d="&#10;  M 191.39 92.03&#10;  L 192.53 93.15&#10;  C 194.58 99.09 193.81 106.69 193.87 112.97&#10;  Q 194.02 119.54 194.06 126.18&#10;  C 194.10 135.06 184.36 133.13 178.83 133.22&#10;  L 177.20 133.19&#10;  Q 178.07 132.27 177.49 131.46&#10;  C 182.02 131.32 186.39 131.92 190.79 129.97&#10;  Q 191.34 129.72 191.41 129.11&#10;  L 192.78 115.46&#10;  Q 192.85 114.78 192.23 114.53&#10;  Q 191.21 114.11 191.36 113.08&#10;  A 0.68 0.67 -24.9 0 0 190.12 112.63&#10;  C 186.53 118.33 184.93 123.22 177.48 124.22&#10;  Q 174.08 124.67 174.51 128.19&#10;  Q 174.68 129.54 175.54 129.94&#10;  Q 175.95 130.13 176.19 130.51&#10;  L 176.79 131.49&#10;  Q 175.33 130.77 174.54 131.18&#10;  Q 173.00 128.17 172.65 122.20&#10;  Q 172.59 122.51 172.54 122.81&#10;  Q 174.06 122.56 173.87 120.98&#10;  C 173.17 115.38 176.39 116.31 179.13 113.70&#10;  C 182.87 110.14 183.08 106.13 184.99 101.89&#10;  C 186.79 97.90 188.15 94.63 191.39 92.03&#10;  Z"/>
<path fill="#6a7f9d" d="&#10;  M 193.29 93.00&#10;  Q 196.38 100.45 197.68 108.31&#10;  Q 198.35 112.37 193.87 112.97&#10;  C 193.81 106.69 194.58 99.09 192.53 93.15&#10;  Q 193.64 93.52 193.29 93.00&#10;  Z"/>
<path fill="#344157" d="&#10;  M 26.22 93.55&#10;  L 27.51 101.99&#10;  L 27.02 108.30&#10;  L 27.05 110.47&#10;  L 26.83 125.67&#10;  A 1.46 1.43 62.7 0 1 26.60 126.42&#10;  Q 25.98 127.40 26.82 127.98&#10;  C 25.06 134.08 18.92 133.28 13.01 133.19&#10;  C 4.72 133.07 5.98 125.91 6.02 120.28&#10;  L 6.30 119.70&#10;  Q 6.51 119.27 6.51 119.75&#10;  Q 6.52 120.23 6.27 120.73&#10;  Q 5.99 121.31 6.31 121.72&#10;  Q 6.72 122.26 6.77 121.59&#10;  Q 6.98 119.09 8.71 118.42&#10;  Q 15.45 115.76 17.44 109.82&#10;  C 19.04 105.07 20.77 101.11 21.79 97.02&#10;  Q 22.53 94.05 26.22 93.55&#10;  Z"/>
<path fill="#6a7f9d" d="&#10;  M 5.68 103.35&#10;  L 5.88 116.50&#10;  A 1.16 1.14 31.6 0 0 6.01 117.03&#10;  Q 6.73 118.45 5.78 118.83&#10;  C 1.95 115.83 4.09 107.52 5.68 103.35&#10;  Z"/>
<path fill="#f3af8b" d="&#10;  M 158.55 144.69&#10;  Q 157.91 143.45 158.49 142.21&#10;  Q 159.41 140.28 161.85 134.62&#10;  C 163.77 130.17 165.33 121.37 162.37 117.18&#10;  Q 162.10 116.80 161.65 116.85&#10;  C 158.31 117.18 157.52 119.69 155.69 121.16&#10;  Q 152.51 123.72 151.00 125.47&#10;  Q 143.29 134.39 133.40 140.66&#10;  C 129.47 143.15 121.94 146.10 118.19 146.39&#10;  Q 103.39 147.57 89.51 145.00&#10;  Q 89.25 144.96 89.22 144.64&#10;  Q 89.19 144.25 88.80 144.17&#10;  C 73.80 141.39 57.39 135.46 45.59 125.50&#10;  C 43.60 123.82 41.54 122.75 39.35 121.53&#10;  A 0.71 0.70 32.6 0 0 38.42 121.73&#10;  Q 37.29 123.32 36.02 122.10&#10;  Q 35.50 121.60 35.20 122.25&#10;  L 33.74 125.35&#10;  Q 33.58 125.68 33.79 125.99&#10;  Q 36.60 130.13 35.77 135.11&#10;  Q 35.69 135.57 35.87 135.86&#10;  Q 36.05 136.17 36.43 136.36&#10;  Q 36.86 136.57 37.00 137.02&#10;  C 38.05 140.38 40.97 143.71 41.55 146.80&#10;  A 1.15 1.13 10.8 0 0 42.09 147.58&#10;  Q 45.27 149.51 47.45 152.43&#10;  Q 49.39 155.03 50.88 156.25&#10;  Q 54.70 159.39 58.46 162.60&#10;  C 59.50 163.49 60.22 164.62 61.21 165.63&#10;  Q 61.58 166.00 62.08 166.15&#10;  Q 63.85 166.69 64.94 168.30&#10;  Q 65.24 168.74 65.71 168.97&#10;  Q 70.82 171.45 75.88 174.07&#10;  C 79.74 176.07 84.19 176.71 88.24 179.01&#10;  Q 88.67 179.25 89.14 179.14&#10;  Q 92.86 178.31 93.88 181.76&#10;  C 61.24 177.60 39.96 158.70 29.67 128.03&#10;  L 27.05 110.47&#10;  L 27.02 108.30&#10;  L 28.83 105.09&#10;  Q 29.04 104.71 29.46 104.63&#10;  Q 32.13 104.11 33.38 106.41&#10;  A 2.24 2.22 -86.2 0 0 34.03 107.16&#10;  C 38.31 110.37 42.68 113.00 46.81 116.55&#10;  C 53.73 122.48 62.10 128.70 70.73 131.81&#10;  Q 72.86 132.58 76.01 133.97&#10;  C 83.03 137.05 94.14 138.61 102.86 140.49&#10;  C 112.71 142.61 124.39 139.87 133.04 134.91&#10;  Q 133.19 134.82 133.25 134.99&#10;  Q 133.29 135.12 133.33 135.24&#10;  A 0.09 0.08 61.3 0 0 133.46 135.28&#10;  Q 135.72 133.53 138.12 132.00&#10;  C 138.93 131.48 139.86 130.24 141.08 129.88&#10;  Q 141.55 129.74 141.91 129.40&#10;  C 146.33 125.27 149.27 120.79 153.64 117.94&#10;  Q 154.07 117.66 154.20 117.16&#10;  Q 154.57 115.74 155.70 114.71&#10;  A 0.96 0.95 -25.1 0 0 156.01 113.87&#10;  C 155.09 107.07 161.43 109.85 163.39 105.99&#10;  A 0.59 0.58 -46.0 0 1 164.42 105.97&#10;  L 166.02 108.84&#10;  A 0.77 0.76 -52.2 0 1 166.09 109.41&#10;  Q 165.56 111.38 166.61 112.94&#10;  Q 166.92 113.41 166.95 113.98&#10;  Q 167.38 121.90 165.81 129.67&#10;  Q 165.70 130.22 165.33 130.65&#10;  Q 164.07 132.10 164.46 134.00&#10;  Q 164.56 134.49 164.31 134.92&#10;  C 162.83 137.43 161.11 143.71 158.55 144.69&#10;  Z"/>
<path fill="#6a7f9d" d="&#10;  M 27.05 110.47&#10;  L 29.67 128.03&#10;  Q 27.78 127.62 26.82 127.98&#10;  Q 25.98 127.40 26.60 126.42&#10;  A 1.46 1.43 62.7 0 0 26.83 125.67&#10;  L 27.05 110.47&#10;  Z"/>
<path fill="#344157" d="&#10;  M 177.49 131.46&#10;  L 176.79 131.49&#10;  L 176.19 130.51&#10;  Q 175.95 130.13 175.54 129.94&#10;  Q 174.68 129.54 174.51 128.19&#10;  Q 174.08 124.67 177.48 124.22&#10;  C 184.93 123.22 186.53 118.33 190.12 112.63&#10;  A 0.68 0.67 -24.9 0 1 191.36 113.08&#10;  Q 191.21 114.11 192.23 114.53&#10;  Q 192.85 114.78 192.78 115.46&#10;  L 191.41 129.11&#10;  Q 191.34 129.72 190.79 129.97&#10;  C 186.39 131.92 182.02 131.32 177.49 131.46&#10;  Z"/>
<path fill="#f1a37b" d="&#10;  M 158.55 144.69&#10;  Q 154.74 146.79 157.22 147.69&#10;  Q 143.44 154.56 127.09 154.88&#10;  L 123.28 151.78&#10;  Q 117.14 151.35 110.85 151.48&#10;  C 105.14 151.59 101.63 154.97 104.01 160.88&#10;  Q 102.45 162.07 102.19 159.83&#10;  Q 102.14 159.38 101.68 159.33&#10;  L 100.56 159.22&#10;  Q 100.07 159.17 100.03 159.67&#10;  Q 99.98 160.38 99.24 160.49&#10;  Q 98.85 160.55 98.81 160.44&#10;  Q 98.77 160.31 98.74 160.16&#10;  Q 98.71 159.94 98.49 159.91&#10;  C 88.58 158.99 79.24 158.31 69.48 156.41&#10;  A 1.87 1.87 0.0 0 0 67.67 159.42&#10;  C 72.40 165.29 76.90 167.50 83.81 170.15&#10;  Q 84.28 170.33 84.59 170.72&#10;  C 86.71 173.33 99.00 174.03 102.68 174.29&#10;  C 109.44 174.77 121.23 173.55 127.48 169.06&#10;  Q 130.13 167.16 133.20 165.96&#10;  Q 133.45 165.87 133.64 165.47&#10;  Q 133.85 165.03 134.34 165.04&#10;  C 137.58 165.12 140.45 163.60 143.47 162.58&#10;  C 146.14 161.68 149.31 161.62 152.32 160.34&#10;  Q 128.28 183.85 93.88 181.76&#10;  Q 92.86 178.31 89.14 179.14&#10;  Q 88.67 179.25 88.24 179.01&#10;  C 84.19 176.71 79.74 176.07 75.88 174.07&#10;  Q 70.82 171.45 65.71 168.97&#10;  Q 65.24 168.74 64.94 168.30&#10;  Q 63.85 166.69 62.08 166.15&#10;  Q 61.58 166.00 61.21 165.63&#10;  C 60.22 164.62 59.50 163.49 58.46 162.60&#10;  Q 54.70 159.39 50.88 156.25&#10;  Q 49.39 155.03 47.45 152.43&#10;  Q 45.27 149.51 42.09 147.58&#10;  A 1.15 1.13 10.8 0 1 41.55 146.80&#10;  C 40.97 143.71 38.05 140.38 37.00 137.02&#10;  Q 36.86 136.57 36.43 136.36&#10;  Q 36.05 136.17 35.87 135.86&#10;  Q 35.69 135.57 35.77 135.11&#10;  Q 36.60 130.13 33.79 125.99&#10;  Q 33.58 125.68 33.74 125.35&#10;  L 35.20 122.25&#10;  Q 35.50 121.60 36.02 122.10&#10;  Q 37.29 123.32 38.42 121.73&#10;  A 0.71 0.70 32.6 0 1 39.35 121.53&#10;  C 41.54 122.75 43.60 123.82 45.59 125.50&#10;  C 57.39 135.46 73.80 141.39 88.80 144.17&#10;  Q 89.19 144.25 89.22 144.64&#10;  Q 89.25 144.96 89.51 145.00&#10;  Q 103.39 147.57 118.19 146.39&#10;  C 121.94 146.10 129.47 143.15 133.40 140.66&#10;  Q 143.29 134.39 151.00 125.47&#10;  Q 152.51 123.72 155.69 121.16&#10;  C 157.52 119.69 158.31 117.18 161.65 116.85&#10;  Q 162.10 116.80 162.37 117.18&#10;  C 165.33 121.37 163.77 130.17 161.85 134.62&#10;  Q 159.41 140.28 158.49 142.21&#10;  Q 157.91 143.45 158.55 144.69&#10;  Z"/>
<path fill="#4a5a75" d="&#10;  M 176.79 131.49&#10;  L 177.49 131.46&#10;  Q 178.07 132.27 177.20 133.19&#10;  C 167.16 149.72 147.26 156.77 128.74 157.00&#10;  L 127.09 154.88&#10;  Q 143.44 154.56 157.22 147.69&#10;  L 165.78 141.82&#10;  Q 171.25 137.62 174.54 131.18&#10;  Q 175.33 130.77 176.79 131.49&#10;  Z"/>
<path fill="#344157" d="&#10;  M 177.20 133.19&#10;  L 178.83 133.22&#10;  Q 172.06 145.28 159.75 151.44&#10;  Q 149.45 156.80 137.94 158.46&#10;  L 127.14 159.58&#10;  Q 126.63 159.64 126.37 160.08&#10;  C 123.34 165.27 113.75 163.54 108.55 163.48&#10;  Q 108.06 163.48 107.61 163.30&#10;  L 106.72 162.94&#10;  C 106.68 161.62 108.18 161.14 109.35 161.23&#10;  C 112.81 161.48 120.09 162.58 123.08 161.24&#10;  Q 123.57 161.02 123.77 160.53&#10;  Q 125.07 157.38 128.74 157.00&#10;  C 147.26 156.77 167.16 149.72 177.20 133.19&#10;  Z"/>
<path fill="#4a5a75" d="&#10;  M 123.28 151.78&#10;  L 122.82 153.06&#10;  Q 122.64 153.57 122.10 153.55&#10;  C 119.05 153.46 109.83 152.80 107.55 154.48&#10;  C 106.02 155.61 105.49 159.68 105.07 161.57&#10;  L 104.01 160.88&#10;  C 101.63 154.97 105.14 151.59 110.85 151.48&#10;  Q 117.14 151.35 123.28 151.78&#10;  Z"/>
<path fill="#ed9468" d="&#10;  M 159.75 151.44&#10;  L 152.32 160.34&#10;  C 149.31 161.62 146.14 161.68 143.47 162.58&#10;  C 140.45 163.60 137.58 165.12 134.34 165.04&#10;  Q 133.85 165.03 133.64 165.47&#10;  Q 133.45 165.87 133.20 165.96&#10;  Q 130.13 167.16 127.48 169.06&#10;  C 121.23 173.55 109.44 174.77 102.68 174.29&#10;  C 99.00 174.03 86.71 173.33 84.59 170.72&#10;  Q 84.28 170.33 83.81 170.15&#10;  C 76.90 167.50 72.40 165.29 67.67 159.42&#10;  A 1.87 1.87 0.0 0 1 69.48 156.41&#10;  C 79.24 158.31 88.58 158.99 98.49 159.91&#10;  Q 98.71 159.94 98.74 160.16&#10;  Q 98.77 160.31 98.81 160.44&#10;  Q 98.85 160.55 99.24 160.49&#10;  Q 99.98 160.38 100.03 159.67&#10;  Q 100.07 159.17 100.56 159.22&#10;  L 101.68 159.33&#10;  Q 102.14 159.38 102.19 159.83&#10;  Q 102.45 162.07 104.01 160.88&#10;  L 105.07 161.57&#10;  L 105.88 162.54&#10;  L 104.98 164.36&#10;  Q 104.74 164.85 105.10 165.26&#10;  C 109.55 170.27 115.31 167.91 121.01 168.09&#10;  C 126.29 168.25 127.53 163.61 133.57 164.20&#10;  C 134.39 164.28 135.26 163.78 135.88 163.34&#10;  Q 136.25 163.07 136.71 163.01&#10;  Q 139.51 162.62 141.50 160.66&#10;  A 0.74 0.74 0.0 0 0 140.82 159.41&#10;  Q 136.83 160.31 137.94 158.46&#10;  Q 149.45 156.80 159.75 151.44&#10;  Z"/>
<path fill="#3e4d64" d="&#10;  M 123.28 151.78&#10;  L 127.09 154.88&#10;  L 128.74 157.00&#10;  Q 125.07 157.38 123.77 160.53&#10;  Q 123.57 161.02 123.08 161.24&#10;  C 120.09 162.58 112.81 161.48 109.35 161.23&#10;  C 108.18 161.14 106.68 161.62 106.72 162.94&#10;  L 105.88 162.54&#10;  L 105.07 161.57&#10;  C 105.49 159.68 106.02 155.61 107.55 154.48&#10;  C 109.83 152.80 119.05 153.46 122.10 153.55&#10;  Q 122.64 153.57 122.82 153.06&#10;  L 123.28 151.78&#10;  Z"/>
<path fill="#cb7954" d="&#10;  M 137.94 158.46&#10;  Q 136.83 160.31 140.82 159.41&#10;  A 0.74 0.74 0.0 0 1 141.50 160.66&#10;  Q 139.51 162.62 136.71 163.01&#10;  Q 136.25 163.07 135.88 163.34&#10;  C 135.26 163.78 134.39 164.28 133.57 164.20&#10;  C 127.53 163.61 126.29 168.25 121.01 168.09&#10;  C 115.31 167.91 109.55 170.27 105.10 165.26&#10;  Q 104.74 164.85 104.98 164.36&#10;  L 105.88 162.54&#10;  L 106.72 162.94&#10;  L 107.61 163.30&#10;  Q 108.06 163.48 108.55 163.48&#10;  C 113.75 163.54 123.34 165.27 126.37 160.08&#10;  Q 126.63 159.64 127.14 159.58&#10;  L 137.94 158.46&#10;  Z"/>
</svg>