<?xml version="1.0" encoding="UTF-8"?>
<svg width="24px" height="25px" viewBox="0 0 24 25" version="1.1" xmlns="http://www.w3.org/2000/svg" xmlns:xlink="http://www.w3.org/1999/xlink">
    <title>乒乓球</title>
    <g id="页面-1" stroke="none" stroke-width="1" >
        <g id="乒乓球" transform="translate(12.000000, 12.002529) scale(-1, 1) translate(-12.000000, -12.002529) " >
            <path d="M18.8993603,9.75251968 C18.9008605,9.76002062 18.9023607,9.76827166 18.9023607,9.77727278 C18.9023607,9.78627391 18.9016106,9.79452495 18.8993603,9.80277598 L18.8993603,9.80202589 L18.8993603,9.75251968 Z" id="路径"></path>
            <path d="M17.7194623,15.5132422 C18.5228131,14.2418327 18.9998729,12.6943886 18.9998729,11.0351805 C18.9998729,10.600126 18.9668688,10.1725724 18.9038609,9.75552006 L18.9098616,9.80277598 L9.79846887,18.9141687 C10.1562637,18.9711759 10.5680654,19.00418 10.987368,19.00418 C10.9911185,19.00418 10.9948689,19.00418 10.9986194,19.00418 L10.9978693,19.00418 C11.0008697,19.00418 11.00387,19.00418 11.0076205,19.00418 C12.6765798,19.00418 14.233025,18.5196192 15.5426893,17.6840144 L15.5089351,17.704267 L20.9996237,24.0050572 L24,21.0046809 L17.7194623,15.5132422 Z" id="路径"></path>
            <path d="M15.6492027,3.35196693 L15.6492027,3.35196693 C11.648951,-0.64828477 5.64819835,-1.1388463 2.25777313,2.26208024 C-1.13265209,5.66300678 -0.652591882,11.6532581 3.34765982,15.6535098 C4.56656269,16.8686622 6.06075009,17.80853 7.72820922,18.3703505 L7.80846929,18.3936034 L18.4200502,7.82252762 C17.8252256,6.06955777 16.8763566,4.57236999 15.6499528,3.35271703 L15.6492027,3.35196693 Z M4.99786679,12.0028019 C3.34090898,12.0028019 1.99749049,10.6593834 1.99749049,9.0024256 C1.99749049,7.34546779 3.34090898,6.0020493 4.99786679,6.0020493 C6.6548246,6.0020493 7.99824309,7.34546779 7.99824309,9.0024256 L7.99824309,9.0024256 C7.99824309,10.6593834 6.6548246,12.0028019 4.99786679,12.0028019 L4.99786679,12.0028019 Z" id="形状"></path>
        </g>
    </g>
</svg>