<?xml version="1.0" encoding="UTF-8"?>
<svg width="24px" height="25px" viewBox="0 0 24 25" version="1.1" xmlns="http://www.w3.org/2000/svg" xmlns:xlink="http://www.w3.org/1999/xlink">
    <g id="页面-1" stroke="none" stroke-width="1" >
        <g id="摩托车" transform="translate(0.000000, 0.586000)">
            <rect id="矩形"  opacity="0" x="0" y="0" width="24" height="24"></rect>
            <path d="M19.9595808,10.988024 C19.3458084,10.9932635 18.7664671,11.1362275 18.2492515,11.3877246 L18.2732036,11.3772455 L17.2754491,10.1998503 C18.0464072,9.75299401 18.9715569,9.48877246 19.9588323,9.48877246 C20.6781437,9.48877246 21.364521,9.62874251 21.992515,9.88323353 L21.9558383,9.87050898 C21.8892216,7.16691617 19.6811377,5 16.9670659,5 C16.9663174,5 16.9663174,5 16.9655689,5 L12.9738024,5 L14.9700599,6.99625749 L5.98802395,6.99625749 L3.99176647,5.99850299 L0,5.99850299 L5.1998503,11.1983533 C4.84056886,11.0696108 4.4258982,10.9932635 3.99401198,10.9887725 L3.99176647,10.9887725 C1.78667665,10.9887725 0,12.7761976 0,14.9805389 C0,17.1848802 1.78742515,18.9723054 3.99176647,18.9723054 C6.19685629,18.9723054 7.98353293,17.1848802 7.98353293,14.9805389 L7.98353293,14.9805389 C7.98053892,14.5471557 7.90344311,14.132485 7.76571856,13.747006 L7.7739521,13.7732036 L9.97979042,15.9790419 L14.8098802,16.8270958 C14.6077844,16.2806886 14.491018,15.6497006 14.491018,14.991018 C14.491018,13.6579341 14.9700599,12.4363772 15.7649701,11.489521 L15.7582335,11.4977545 L16.755988,12.6654192 C16.2934132,13.3083832 16.0164671,14.1122754 16.0164671,14.9805389 C16.0164671,17.1856287 17.8038922,18.9723054 20.0082335,18.9723054 C22.2125749,18.9723054 24,17.1848802 24,14.9805389 C24,12.7754491 22.2125749,10.9887725 20.0082335,10.9887725 C19.991018,10.9887725 19.9738024,10.9887725 19.9573353,10.9887725 L19.9595808,10.9887725 L19.9595808,10.988024 Z M3.99176647,16.9760479 C2.88922156,16.9760479 1.99550898,16.0823353 1.99550898,14.9797904 C1.99550898,13.8772455 2.88922156,12.9835329 3.99176647,12.9835329 C5.09431138,12.9835329 5.98802395,13.8772455 5.98802395,14.9797904 L5.98802395,14.9797904 C5.98802395,16.0823353 5.09431138,16.9760479 3.99176647,16.9760479 L3.99176647,16.9760479 Z M19.9595808,16.9760479 C18.8570359,16.9760479 17.9633234,16.0823353 17.9633234,14.9797904 C17.9633234,13.8772455 18.8570359,12.9835329 19.9595808,12.9835329 C21.0621257,12.9835329 21.9558383,13.8772455 21.9558383,14.9797904 L21.9558383,14.9797904 C21.9558383,16.0823353 21.0621257,16.9760479 19.9595808,16.9760479 L19.9595808,16.9760479 Z" id="形状" ></path>
        </g>
    </g>
</svg>