<?xml version="1.0" encoding="UTF-8"?>
<svg width="26px" height="26px" viewBox="0 0 26 26" version="1.1" xmlns="http://www.w3.org/2000/svg" xmlns:xlink="http://www.w3.org/1999/xlink">
    <g id="页面-1" stroke="none" stroke-width="1" >
        <g id="奥运会" >
            <path d="M20,0 C23.3137085,-6.08718376e-16 26,2.6862915 26,6 L26,20 C26,23.3137085 23.3137085,26 20,26 L6,26 C2.6862915,26 4.05812251e-16,23.3137085 0,20 L0,6 C-4.05812251e-16,2.6862915 2.6862915,6.08718376e-16 6,0 L20,0 Z M7.36942149,11.3699174 C6.016,11.9416529 5.0661157,13.2813884 5.0661157,14.8429752 C5.0661157,16.9243306 6.75335537,18.6115702 8.83471074,18.6115702 C10.6689256,18.6115702 12.1962975,17.3009917 12.5333884,15.5653554 L12.526843,15.5827107 C12.2289256,15.5766612 11.6421157,15.4145124 11.5489917,15.3883306 C11.2956033,16.6558678 10.177124,17.6112066 8.83500826,17.6112066 C7.30604959,17.6112066 6.06657851,16.3717355 6.06657851,14.8427769 C6.06657851,13.8871405 6.5507438,13.044562 7.28720661,12.5471074 C7.35454545,12.2640661 7.36733884,11.6533554 7.36942149,11.3699174 Z M15.6671736,11.2855207 C14.331405,11.8649917 13.3966942,13.1950083 13.3966942,14.7438017 C13.3966942,16.825157 15.0839339,18.5123967 17.1652893,18.5123967 C18.9201653,18.5123967 20.394876,17.3128926 20.814281,15.6890248 C20.4613223,15.6869421 19.9892562,15.5523636 19.8261157,15.502281 C19.4959669,16.6619174 18.4310413,17.5120331 17.1655868,17.5120331 C15.6366281,17.5120331 14.397157,16.272562 14.397157,14.7436033 C14.397157,13.8316033 14.8400661,13.0250248 15.5203967,12.5206281 C15.5121653,12.516562 15.5054215,12.5123967 15.5020496,12.4190744 C15.5505455,12.3033388 15.5119669,11.4174215 15.5119669,11.4174215 Z M21.231405,8 C19.4761322,8 18.001124,9.20009917 17.5846942,10.8223802 C18.0622149,10.8349752 18.508595,10.995438 18.5689917,11.0179504 C18.8964628,9.85414876 19.9631736,8.99996694 21.2317025,8.99996694 C22.7606612,8.99996694 24.0000331,10.239438 24.0000331,11.7683967 C24.0000331,13.2973554 22.7606612,14.5368264 21.2317025,14.5368264 C20.0676033,14.5368264 19.0730909,13.8174215 18.6639008,12.7998017 C18.2471736,12.4441653 17.6087934,12.3295207 17.5023802,12.312562 C17.7660826,14.1360661 19.3348099,15.5371901 21.231405,15.5371901 C23.3127603,15.5371901 25,13.8499504 25,11.768595 C25,9.68733884 23.3127603,8 21.231405,8 Z M9.272,12.311 L9.28638734,12.407345 C9.58980521,14.1843411 11.13644,15.5371901 13,15.5371901 C13.1202975,15.5371901 13.2392066,15.5309421 13.3566281,15.5199339 L13.2309752,15.4835372 C13.2570579,15.3869421 13.2324628,14.7939835 13.2244298,14.5255207 C13.1502479,14.5314711 13.0759669,14.5368264 13.0002975,14.5368264 C11.8395702,14.5368264 10.8472397,13.8217851 10.4357686,12.8089256 C10.0193388,12.4709421 9.26403306,12.3099835 9.272,12.311 Z M4.76859504,8 C2.68723967,8 1,9.68733884 1,11.768595 C1,13.8499504 2.68723967,15.5371901 4.76859504,15.5371901 C4.84287603,15.5371901 4.91646281,15.5345124 4.90039669,15.5302479 L4.90007775,14.5290322 C4.88723438,14.533399 4.82847603,14.5368264 4.76889256,14.5368264 C3.23993388,14.5368264 2.00046281,13.2973554 2.00046281,11.7683967 C2.00046281,10.239438 3.23993388,8.99996694 4.76889256,8.99996694 C6.29785124,8.99996694 7.53722314,10.239438 7.53722314,11.7683967 C7.53722314,12.6683967 7.10581818,13.4656529 6.44066116,13.9713388 C6.38333884,14.253686 6.18965289,14.8185785 6.18965289,15.1860165 L6.256,15.2318347 C7.59752066,14.654843 8.53719008,13.3216529 8.53719008,11.768595 C8.53719008,9.68733884 6.84995041,8 4.76859504,8 Z M13,8 C11.2748831,8 9.82152302,9.15945573 9.37432637,10.7413402 L9.347,10.849 L9.37448084,10.8541557 C9.6935329,10.9232164 10.1863251,11.0706887 10.3138843,11.1101818 C10.6096198,9.89957025 11.6985455,8.99996694 13.0002975,8.99996694 C14.5292562,8.99996694 15.7686281,10.239438 15.7686281,11.7683967 C15.7686281,12.670876 15.334843,13.4700165 14.6665124,13.975405 C14.5897521,14.4079008 14.5202314,14.9975868 14.5202314,14.9975868 C14.5202314,14.9975868 14.543438,15.1590413 14.4643967,15.2420496 C15.818314,14.6705124 16.768595,13.3305785 16.768595,11.768595 C16.768595,9.68733884 15.0813554,8 13,8 Z M9.26403306,10.8322975 L9.28872294,11.1014609 C9.1398877,11.0835808 8.98837727,11.0743802 8.83471074,11.0743802 C8.78175207,11.0743802 8.72928926,11.0762645 8.67692562,11.0784463 C8.73057851,11.3024793 8.75269421,11.9293554 8.7572562,12.0782149 L8.83500826,12.0743471 C9.9362314,12.0743471 10.8845289,12.7189752 11.3304132,13.6501157 L11.2475041,13.5992397 C11.7038017,14.0248926 12.3237355,14.1515372 12.5446942,14.1841653 C12.258876,12.564438 10.9395579,11.3011274 9.29173272,11.1018237 L9.32723377,10.9256981 L9.347,10.849 L9.26403306,10.8322975 Z M17.1652893,10.9752066 C17.0919008,10.9752066 17.0190579,10.9775372 16.9467603,10.9819132 L16.801,10.994 L16.8012231,11.9890579 C16.9810248,11.9801322 17.0726612,11.9751736 17.1655868,11.9751736 C18.3521983,11.9751736 19.3615868,12.7232397 19.7553058,13.7722975 C20.1379174,14.0692231 20.6379504,14.157686 20.8921322,14.1834711 C20.6214876,12.3679008 19.0561322,10.9752066 17.1652893,10.9752066 Z" id="形状结合"></path>
        </g>
    </g>
</svg>