<?xml version="1.0" encoding="UTF-8"?>
<svg width="24px" height="24px" viewBox="0 0 24 24" version="1.1" xmlns="http://www.w3.org/2000/svg" xmlns:xlink="http://www.w3.org/1999/xlink">
    <g  stroke="none" stroke-width="1" >
        <g id="sport_id_1" >
            <path d="M16.46848,1.34284315 L16.40528,2.21335209 C16.3992,2.29839195 16.44216,2.37954598 16.51632,2.42281104 C17.3416,2.9044873 17.944,3.28851274 18.3236,3.57487132 C18.70472,3.86239966 19.17256,4.33039936 19.72712,4.97887844 C19.77384,5.03336838 19.84384,5.06262837 19.91584,5.05763687 L21.23864,4.96576272 C20.38016,3.97743663 19.62352,3.23197172 18.96872,2.72935998 C18.314,2.22674823 17.48056,1.76457328 16.46848,1.34284315 Z" id="路径"></path>
            <path d="M18.14024,21.3767029 C18.00976,21.3323161 17.88536,21.2819204 17.76696,21.2255957 L17.7668,21.2257559 C17.70016,21.1940282 17.622,21.1965921 17.55752,21.2326463 C16.40704,21.8760938 15.37016,22.2426449 14.44704,22.3322997 C14.44704,22.3779684 14.44704,22.5320401 14.36408,22.7825768 C14.32224,22.9091671 14.2404,23.0790225 14.11872,23.292143 C15.68624,23.0790225 17.20136,22.4616943 18.66424,21.4401583 C18.66424,21.4401583 18.3944,21.4630727 18.14024,21.3767029 Z" id="路径"></path>
            <path d="M1.764176,9.31071997 L1.105232,7.96979971 C0.4511376,10.1053548 0.3049304,12.2408859 0.6666064,14.3764971 C0.800248,14.0085038 1.061336,13.7165447 1.449856,13.5007002 C1.39588,12.7185641 1.39588,12.0093377 1.449856,11.3729408 C1.503832,10.736624 1.608608,10.0491904 1.764176,9.31071997 Z" id="路径"></path>
            <path d="M12.41888,0.613252511 C12.43376,0.618364999 12.43376,0.618364999 12.46608,0.622152293 C12.61776,0.638972785 12.74152,0.651123856 13.01872,0.677191052 L13.03544,0.678761413 C13.58576,0.730521642 13.84144,0.759363409 14.14448,0.810178217 C15.54056,1.0393468 16.84056,1.52495699 18.0384,2.26542238 C19.41872,3.11963481 20.5644,4.25356383 21.4896,5.66133661 C22.10128,6.59364247 22.56024,7.51351362 22.86904,8.45791767 C23.12288,9.22995854 23.27272,10.0676181 23.34544,11.0284228 C23.3544,11.1445173 23.36272,11.2364155 23.38248,11.4421649 L23.3812,12.6588744 C23.3696,12.7023798 23.3696,12.7023798 23.36544,12.7641527 L23.36648,12.739716 C23.36056,12.8137473 23.35624,12.8731967 23.34704,13.0041936 C23.3292,13.2596177 23.32008,13.3736291 23.30472,13.5120773 C23.19488,14.5608543 22.96016,15.508359 22.57904,16.3851173 C21.92648,17.8852129 21.06376,19.160811 19.95976,20.2219265 C18.91184,21.2286402 17.69112,22.0084528 16.29496,22.5728214 C15.51432,22.8880955 14.99984,23.0510605 14.45272,23.1280563 C14.17984,23.1670749 13.95464,23.1957581 13.47128,23.2544864 C13.22376,23.2845316 13.11208,23.2983123 12.97472,23.3156183 C12.9148,23.3229093 12.86536,23.3302804 12.76232,23.346705 C12.7024,23.3562394 12.7024,23.3562394 12.64528,23.3648123 C12.53192,23.3813171 12.44976,23.3882876 12.37424,23.3864448 C11.85744,23.3756285 11.36952,23.3512719 10.90288,23.3116924 C10.78448,23.3013569 10.78448,23.3013569 10.66624,23.2906207 C10.17216,23.244952 9.84928,23.1972804 9.53248,23.1121924 C8.33024,22.7897876 7.330368,22.4097762 6.438064,21.9103052 C4.893512,21.0446836 3.61196,19.8479241 2.583624,18.3319647 C1.459168,16.6752336 0.812704,14.8750067 0.654416,12.9277587 C0.6454032,12.8304924 0.636576,12.7500515 0.6169392,12.5783533 L0.6188136,11.5291757 C0.626556,11.4958456 0.626556,11.4958456 0.6330328,11.4485745 C0.642548,11.3554745 0.6495192,11.2800011 0.6643624,11.1135107 C0.6933344,10.7887824 0.7081552,10.6442451 0.733272,10.4682204 C0.910696,9.20936758 1.288016,8.00453194 1.862848,6.85586876 C2.755448,5.07587229 4.043416,3.63441686 5.729264,2.52179988 C7.371264,1.44124712 9.12824,0.819295926 11.02152,0.66712792 C11.09888,0.660985084 11.17592,0.652820808 11.27912,0.640422165 L11.36144,0.630382268 C11.4364,0.621194052 11.44208,0.620500209 11.50504,0.613252511 L12.41888,0.613252511 Z M11.4872,0.306626656 L11.45264,0.00191463092 C11.36768,0.0116825263 11.36768,0.0116825263 11.28544,0.0217793082 L11.20464,0.0316293191 C11.10904,0.0431135473 11.03944,0.0504830283 10.97176,0.0558603939 C8.97168,0.216611305 7.11456,0.874010197 5.386544,2.01116807 C3.610632,3.18321842 2.249664,4.70638872 1.308512,6.58320277 C0.7041504,7.79085865 0.3070008,9.05898145 0.1204152,10.3828921 C0.0933608,10.5725373 0.07780672,10.7241252 0.047888,11.0595896 C0.03340632,11.2219137 0.02669656,11.2946631 0.01770656,11.3827956 L0.0144564,11.3966565 L0.005888064,11.4346336 L0,12.6126449 L0.001978816,12.6472569 C0.02144864,12.817593 0.02967936,12.8925858 0.03783984,12.980478 C0.2044416,15.0302801 0.887056,16.9311383 2.07004,18.6740791 C3.150992,20.2676753 4.5034,21.5306143 6.133528,22.4441479 C7.075728,22.971581 8.12232,23.3693791 9.37072,23.7041225 C9.72936,23.8004273 10.08224,23.8525857 10.6088,23.9012188 C10.7296,23.9121953 10.7296,23.9121953 10.84928,23.922611 C11.33056,23.9634724 11.8316,23.98847 12.36016,23.9995267 C12.47608,24.0023309 12.59016,23.9926363 12.73528,23.9714845 C12.79928,23.9619502 12.79928,23.9619502 12.86048,23.9521755 C12.9596,23.9363917 13,23.9303827 13.05128,23.9242134 C13.18912,23.9067471 13.2996,23.8932068 13.54664,23.8631616 C14.03432,23.8038725 14.26256,23.7748689 14.54048,23.7351291 C15.14896,23.6494803 15.70456,23.4735358 16.52864,23.1406352 C17.99704,22.5471027 19.28488,21.7244257 20.39056,20.6621885 C21.55528,19.5426651 22.46352,18.1997659 23.14744,16.6278022 C23.55464,15.6909536 23.80424,14.6833585 23.92008,13.5772152 C23.9364,13.4297135 23.946,13.3102538 23.96448,13.0466575 C23.9724,12.9329665 23.97656,12.8750394 23.98128,12.8147888 C23.98288,12.8097412 23.98504,12.8030111 23.98832,12.7927557 L24,11.4130812 L23.99864,11.3840776 C23.9792,11.182174 23.97104,11.0928396 23.96256,10.9821933 C23.8864,9.97596026 23.72808,9.09102964 23.4576,8.26843275 C23.13128,7.27017974 22.64832,6.3023725 22.00832,5.32688171 C21.0348,3.84554231 19.82464,2.64782938 18.36608,1.74519214 C17.09888,0.961878319 15.72192,0.447512898 14.24672,0.205346367 C13.92504,0.151410066 13.65904,0.121404949 13.09392,0.0682527876 L13.0772,0.0666810643 C12.80344,0.0409361132 12.682,0.0290097002 12.53152,0.0123504106 L12.5044,0.00868962607 C12.48232,0.00534086274 12.48232,0.00534079063 12.45,0.00155364012 L11.4872,0 L11.4872,0.306626656 Z" id="形状" fill-rule="nonzero"></path>
            <path d="M15.98752,11.0748927 C15.98312,11.0748927 15.97864,11.0725692 15.97416,11.0725692 C15.96968,10.9970156 15.97192,10.9191385 15.96072,10.843665 C15.95176,10.7728385 15.93832,10.7044156 15.8712,10.654821 C14.73456,9.81700124 13.598,8.97910134 12.4636,8.13655445 C12.4188,8.1034647 12.38528,8.10586831 12.34056,8.12942373 C12.11232,8.24039058 11.88408,8.34895382 11.65584,8.45984056 L8.66888,9.89720183 C8.61744,9.92316086 8.5928,9.9491199 8.58832,10.0128157 C8.57264,10.2087102 8.54808,10.4070084 8.52792,10.602903 C8.46304,11.2448282 8.39816,11.889157 8.33328,12.5311624 C8.27288,13.1306237 8.21248,13.7277616 8.14976,14.327223 C8.14312,14.3885953 8.16096,14.4240085 8.208,14.4594218 C9.31328,15.3066958 10.41856,16.1563734 11.52384,17.0036474 C11.56192,17.03201 11.59096,17.0413841 11.638,17.0201522 C12.34056,16.718098 13.04536,16.4206908 13.7456,16.116233 C14.34976,15.8542391 14.93816,15.5639626 15.49976,15.2146373 C15.55128,15.1816277 15.5736,15.1438108 15.57808,15.0825187 C15.58704,14.9314115 15.60496,14.7827079 15.6184,14.6340844 C15.67208,14.0534513 15.72576,13.4704948 15.78168,12.8898617 C15.81304,12.5571214 15.84656,12.2267046 15.8824,11.8962877 C15.91368,11.617789 15.95176,11.3487444 15.98752,11.0748927 Z" id="路径" fill-rule="nonzero"></path>
            <path d="M19.56536,7.7375545 C19.56096,7.19388101 19.55216,6.64340529 19.464,6.09972379 C19.4024,5.73273998 19.30104,5.38161201 19.02136,5.11430608 C18.90688,5.00556657 18.79672,4.89456767 18.67784,4.79036298 C18.07,4.26480473 17.39608,3.82985472 16.74208,3.36772785 C16.53504,3.22048245 16.30816,3.10042192 16.06152,3.03472313 C16.00872,3.0211347 15.95144,3.00301145 15.89856,3.00980567 C15.54184,3.05511379 15.18504,3.0958871 14.83272,3.16158589 C14.34376,3.25220214 13.85488,3.36093364 13.3924,3.55348717 C13.21624,3.62598017 13.05544,3.73697907 12.89032,3.83438954 C12.86608,3.84797797 12.84408,3.8887593 12.84624,3.91594417 C12.85064,4.26480473 12.86168,4.61366529 12.86824,4.96025844 C12.87928,5.43144694 12.88808,5.90037604 12.89688,6.37156454 C12.90128,6.5754391 12.89248,6.77932166 12.89912,6.98320423 C12.90128,7.06701825 12.91672,7.15084029 12.996,7.20746944 C14.11472,8.02975386 15.23352,8.85435376 16.35448,9.67671029 C16.38088,9.69481752 16.42712,9.70387113 16.45792,9.69481752 C17.46,9.37313382 18.462,9.04920675 19.464,8.72976643 C19.52128,8.7116592 19.53672,8.68449836 19.53672,8.63009656 C19.54328,8.33108696 19.55656,8.03880748 19.56536,7.7375545 Z" id="路径" fill-rule="nonzero"></path>
            <path d="M18.38944,17.6181714 C18.40544,17.5784316 18.37144,17.5505497 18.32144,17.5247509 C17.9852,17.3477648 17.64896,17.1688558 17.31272,16.9899468 C16.8304,16.7334811 16.34808,16.4770155 15.86376,16.2205499 C15.84176,16.2086119 15.79776,16.2066089 15.77976,16.2185469 C15.42552,16.4710065 15.0312,16.6539215 14.62896,16.8169667 C13.86648,17.123107 13.10192,17.4233184 12.33744,17.7235298 C12.28136,17.7454027 12.25536,17.7772105 12.24336,17.8328943 C12.19736,18.0575521 12.14928,18.2802069 12.10128,18.5048647 C11.9592,19.1629742 11.81512,19.8210838 11.67496,20.4791132 C11.67096,20.5009861 11.68296,20.538803 11.69904,20.5487379 C12.0012,20.7435909 12.30744,20.9324349 12.6096,21.1272878 C12.94984,21.3479396 13.29608,21.5567336 13.68432,21.6898938 C14.00656,21.8012613 14.32272,21.8310661 14.64896,21.6938998 C15.39944,21.3777444 16.154,21.0736071 16.90648,20.7634608 C17.03256,20.7117831 17.14864,20.6381524 17.27072,20.5805457 C17.60096,20.4215066 17.80504,20.163038 17.92712,19.8250097 C18.18336,19.1132995 18.29544,18.3796364 18.38944,17.6181714 Z" id="路径" fill-rule="nonzero"></path>
            <path d="M5.213624,7.08007789 C4.851216,7.302941 4.498224,7.52338446 4.142872,7.73898064 C3.693392,8.01517194 3.246264,8.29375082 2.86268,8.65950077 C2.65088,8.86052304 2.45556,9.06162543 2.389664,9.38138623 C2.25788,10.0136169 2.111976,10.6410403 2.08844,11.2878529 C2.06256,12.0363383 2.057848,12.7849039 2.04844,13.5333893 C2.04844,13.5745713 2.069616,13.6278514 2.100208,13.6569351 C2.500272,14.0736417 2.902688,14.4853808 3.305096,14.8996838 C3.526312,15.1297898 3.742816,15.3622994 3.964024,15.5924855 C4.081688,15.7160313 4.199352,15.839577 4.32408,15.9582354 C4.3782,16.0115156 4.437032,16.0139993 4.507632,15.9655264 C5.378352,15.3671867 6.249072,14.7712506 7.119792,14.172911 C7.148032,14.1535218 7.176272,14.1099363 7.178624,14.0736417 C7.253936,13.3807598 7.324536,12.6879581 7.395128,11.9951564 C7.477496,11.1885035 7.562216,10.379447 7.646936,9.57271392 C7.65164,9.51703019 7.63752,9.48554284 7.599872,9.44676454 C7.084496,8.93807966 6.573832,8.42691104 6.060808,7.91581454 C5.776064,7.63965529 5.493664,7.35865677 5.213624,7.08007789 Z" id="路径" fill-rule="nonzero"></path>
            <path d="M23.5888,13.255852 C23.60424,12.3183624 23.57344,11.3832764 23.43464,10.4531578 C23.30616,9.5828091 23.20336,8.67704716 22.8256,7.87132364 C22.58152,7.34659063 22.37464,6.86323984 22.09712,6.35343328 C22.02776,6.22411884 21.8972,6.02969049 21.80984,5.91032701 C21.46808,5.43533279 20.7956,5.3899205 20.2328,5.62119626 C20.25848,5.69331269 20.2868,5.76792088 20.30992,5.84003732 C20.46408,6.3001131 20.51544,6.77509931 20.53864,7.25506901 C20.554,7.58582235 20.54888,7.91905942 20.5412,8.25232853 C20.536,8.46120261 20.50776,8.66759294 20.49232,8.87646701 C20.47696,9.06795494 20.50776,9.23957299 20.64912,9.39628864 C20.75704,9.51566814 20.8444,9.65988499 20.91888,9.80410184 C21.0628,10.0826006 21.21704,10.3586958 21.32496,10.6496132 C21.63072,11.4827059 21.91336,12.3208461 22.20376,13.1589063 C22.22432,13.218596 22.25256,13.2409496 22.31944,13.2434334 C22.48896,13.2484008 22.656,13.2633032 22.8256,13.2733183 C23.07488,13.285737 23.32672,13.3006394 23.58368,13.3180255 C23.58624,13.2907044 23.5888,13.2733183 23.5888,13.255852 Z" id="路径" fill-rule="nonzero"></path>
            <path d="M2.020656,8.48267489 C2.16436,8.32563877 2.291584,8.14616891 2.456488,8.01653398 C2.859344,7.69744619 3.276328,7.39333291 3.69332,7.09670289 C3.935968,6.92470827 4.183336,6.75021389 4.447192,6.61810325 C4.659216,6.51340983 4.809992,6.38129918 4.927792,6.16692083 C5.292944,5.49389284 5.688728,4.84329858 6.19524,4.27246425 C6.534488,3.89108279 6.850168,3.48725958 7.177632,3.09591114 C7.229464,3.03359343 7.24124,2.97625922 7.210616,2.89649128 C7.111672,2.62977023 7.022152,2.35806568 6.930272,2.08885288 C6.840744,1.82462358 6.816592,1.7041945 6.578648,1.84378839 C6.180504,2.07560897 5.736376,2.34480574 5.354728,2.60155981 C4.725712,3.02531699 4.016152,3.57329295 3.502568,4.14163553 C2.925384,4.77976304 2.507728,5.51285735 2.048328,6.2457113 C1.84808,6.56727482 1.65332,6.73276365 1.530816,7.09670289 C1.474272,7.26371401 1.608384,7.60771126 1.66492,7.77721413 C1.752088,8.03400025 1.843968,8.28822251 1.94056,8.55991103 C1.973536,8.52754236 1.999456,8.50759236 2.020656,8.48267489 Z" id="路径" fill-rule="nonzero"></path>
            <path d="M8.376,2.44387471 C9.0752,2.36647032 9.7744,2.37102116 10.4688,2.46208609 C10.96992,2.52810536 11.46624,2.62372113 11.96264,2.71477805 C12.40648,2.79673328 12.40888,2.80129214 12.74536,2.6305474 C12.75488,2.62599655 12.7668,2.61916228 12.7764,2.61461144 C12.96728,2.52354651 13.15344,2.41882905 13.35152,2.34825894 C13.8908,2.15019312 14.45872,2.05686078 15.03144,1.98628265 C15.26768,1.95668615 15.50392,1.93392393 15.75928,1.90660284 C15.74256,1.842859 15.73304,1.78139057 15.7116,1.72675642 C15.6328,1.53097403 15.5612,1.33063279 15.46576,1.14168468 C15.43,1.07338198 15.34856,0.917531638 15.27224,0.897044833 C14.94048,0.805979904 14.6128,0.725498088 14.27392,0.659478018 C13.48888,0.502396223 12.60328,0.478312009 11.80384,0.462376047 C11.4268,0.453269554 8.77448,0.841176827 8.33776,0.977774221 C8.154,1.03695921 8.03696,1.19639895 7.84844,1.25785937 C7.989232,1.61528481 8.19696,2.0887327 8.33776,2.44387471 L8.376,2.44387471 Z" id="路径" fill-rule="nonzero"></path>
            <path d="M18.46,21.0774529 C18.622,21.0939577 18.81448,21.0871475 18.9764,21.0774529 C19.19456,21.0654348 19.39208,20.9539071 19.54056,20.8189843 C20.2644,20.1616759 20.90568,19.6160555 21.48432,18.8339996 C22.21768,17.8459539 22.88192,16.6560046 23.13432,15.4495506 C23.17176,15.2739265 23.10336,15.1083976 23.13432,14.9226783 C22.70584,14.8567392 22.22968,14.7174898 21.81552,14.6551561 C21.65032,15.0629693 21.42496,15.4344879 21.15584,15.7760415 C20.5852,16.4944016 19.95344,17.159722 19.24264,17.7513316 C19.1688,17.8140659 19.13088,17.8847322 19.11088,17.9735858 C19.04896,18.2616189 18.99656,18.5528568 18.91088,18.8339996 C18.68432,19.5799212 18.44336,20.3222373 18.03152,21.0115138 C18.18304,21.0365915 18.322,21.0654348 18.46,21.0774529 Z" id="路径" fill-rule="nonzero"></path>
            <path d="M1.1174,14.7611555 C0.990024,14.9033693 0.942176,15.0826789 0.976296,15.2575819 C1.133248,16.0877903 1.485888,16.8225751 1.893032,17.5571997 C2.475328,18.6112646 3.136592,19.5773573 4.035048,20.3748765 C4.253408,20.5684475 4.462288,20.726365 4.68292,20.9175324 C4.71932,20.9478981 4.829512,20.9781836 4.872728,20.9175324 C5.066064,20.6564198 5.26168,20.3975506 5.459568,20.1386813 C5.491408,20.0966982 5.484592,20.0710597 5.459568,20.0314 C5.370856,19.9008037 5.286704,19.7702073 5.202544,19.6372874 C4.683936,18.8397682 4.194904,18.028228 3.976544,17.0814443 C3.908304,16.7853191 3.749088,16.5474414 3.530728,16.3305553 C2.975728,15.7802078 2.407088,15.2438813 1.920328,14.6259121 C1.799776,14.4812947 1.658752,14.3576688 1.481336,14.2644085 C1.358504,14.4346645 1.2516,14.6095675 1.1174,14.7611555 Z" id="路径" fill-rule="nonzero"></path>
            <path d="M13.8432,22.4007226 C13.48872,22.3735618 13.14872,22.2621943 12.81784,22.1168558 C12.10312,21.803104 11.4272,21.4058667 10.77096,20.957112 C10.71944,20.9229005 10.65192,20.9011077 10.59144,20.9035915 C9.82472,20.9096005 9.05936,20.9873174 8.28968,20.9051138 C7.865576,20.8591246 7.439056,20.8685788 7.022648,20.7445523 C6.887944,20.703771 6.75252,20.6823789 6.618296,20.6470457 C6.566,20.6323036 6.540704,20.6483277 6.513232,20.6948777 C6.34384,21.0055047 6.169384,21.3137282 5.999992,21.6242751 C5.953728,21.7056775 5.916136,21.7734595 5.999992,21.8159233 C6.254464,21.9486028 6.501048,22.1184582 6.749256,22.2626751 C7.1206,22.4818847 7.5478,22.6311491 7.947096,22.7816154 C8.81048,23.1016966 9.69288,23.3750677 10.59144,23.4874767 C11.2076,23.5637514 11.82512,23.5579026 12.44296,23.4874767 C12.79384,23.4458942 13.13696,23.3717828 13.44736,23.1733243 C13.6996,23.004831 13.87336,22.7712798 13.90488,22.4119395 C13.87792,22.4087347 13.86032,22.4020046 13.8432,22.4007226 Z" id="路径" fill-rule="nonzero"></path>
            <path d="M7.361752,15.0262741 L4.980176,16.7557546 C4.901136,16.8131209 4.868288,16.914313 4.898736,17.0066118 C5.345344,18.3598466 5.818328,19.3747326 6.317688,20.05135 C7.922344,20.3014861 9.41656,20.3409855 10.8004,20.1697681 L11.11112,18.0275069 C11.12232,17.9501906 11.09216,17.872634 11.03152,17.8227991 L7.640344,15.0346066 C7.560384,14.9689079 7.445552,14.9654627 7.361752,15.0262741 Z" id="路径"></path>
            <path d="M19.8988,9.69834282 L17.03176,10.7794084 L16.46872,15.4021192 L18.87752,16.8516588 C20.47768,15.326806 21.34672,14.3233772 21.48464,13.8412122 C21.48464,12.9948997 20.956,11.6139432 19.8988,9.69834282 Z" id="路径"></path>
            <path d="M8.14856,3.32324497 C7.554696,3.92430074 6.869696,4.91515863 6.09352,6.29581865 C6.045968,6.3803137 6.058424,6.48548784 6.1244,6.55680307 L8.31208,8.92173508 C8.37904,8.99408387 8.48568,9.01491519 8.57544,8.97325254 L11.93784,7.40894038 C12.01728,7.37194876 12.0680803,7.29275768 12.0680803,7.20572282 L12.0680803,3.85551731 C12.06824,3.75310732 11.99832,3.66366884 11.89824,3.63803029 C10.54176,3.2905478 9.29184,3.18561402 8.14856,3.32324497 Z" id="路径"></path>
        </g>
    </g>
</svg>