<?xml version="1.0" encoding="UTF-8"?>
<svg width="24px" height="24px" viewBox="0 0 24 24" version="1.1" xmlns="http://www.w3.org/2000/svg" xmlns:xlink="http://www.w3.org/1999/xlink">
    <title>排球</title>
    <g id="页面-1" stroke="none" stroke-width="1" >
        <g id="排球" transform="translate(0.000000, -0.000000)" >
            <path d="M1.77959662,12.9412106 C1.97076596,13.9157774 4.72436924,21.5957512 13.7091362,23.8828872 C11.3175194,24.2219296 3.76098649,24.3660106 0.961478888,16.276434 C0.961478888,16.276434 0.460033776,14.2128195 1.77959662,12.9412106 Z M6.6607908,10.1557511 C6.6607908,10.1557511 8.96118291,19.6361375 21.250949,19.5850972 C20.0197309,21.1341998 17.530686,22.6506943 16.6905419,23.1376857 L16.4808569,23.2575376 C16.4322741,23.2848526 16.406195,23.2991232 16.406195,23.2991232 C16.406195,23.2991232 6.20059558,22.7993597 2.7625155,11.8447229 C3.58470526,10.9044764 4.98329905,10.0881506 6.6607908,10.1557511 Z M23.3528037,7.8104067 C25.4288982,13.6733758 21.8461531,18.56117 21.8461531,18.56117 C21.8461531,18.56117 20.5846243,18.7277311 18.4155691,18.0910867 C18.256368,18.0442064 22.3359166,16.0108321 23.3528037,7.8104067 Z M17.7381244,1.59717918 C17.7381244,1.59717918 20.3563027,2.94939665 22.249436,6.22827562 C21.7763927,13.7262561 18.4342092,16.6067563 16.4661955,17.6868439 C13.4970547,17.0472394 11.2774391,15.0594655 11.2774391,15.0594655 C17.9002099,9.8518805 17.7518552,2.03938666 17.7387551,1.61521367 L17.7381244,1.59717918 Z M12.1400852,0.0975590832 C14.7972238,0.300895707 16.4927557,1.04725533 16.4927557,1.04725533 C16.4927557,1.04725533 16.5011895,1.17341422 16.502682,1.40392171 L16.5024799,1.57281307 C16.4865401,3.44217567 15.9947722,9.88248254 10.2399919,14.1028988 C8.9030225,12.8064097 7.97974404,10.3574325 7.97974404,10.3574325 C7.97974404,10.3574325 11.7252023,6.55334989 12.1400852,0.0975590832 Z M9.69038801,5.02325118 C9.64038766,5.31135719 8.20229759,7.91916746 6.87342429,9.05438341 C1.49637863,9.37806567 0.0867479619,13.9238575 0.0867479619,13.9238575 C-0.104418177,12.9409706 -0.0248139393,10.1618312 0.788656877,8.23037764 C2.67125886,6.2112595 3.68693797,5.82236877 4.91701859,5.34633344 C7.2749231,4.43458305 9.19998458,4.8264338 9.69038801,5.02325118 Z M11.0320774,0 C11.0320774,0 10.7834357,2.26693587 10.111111,3.86636308 C5.23425687,2.77242014 2.01779206,5.69825475 1.64688545,6.05583923 L1.61094744,6.09121066 C5.02404334,0.592819351 11.0320774,0 11.0320774,0 Z" id="形状结合"></path>
        </g>
    </g>
</svg>