<?xml version="1.0" encoding="UTF-8"?>
<svg width="24px" height="25px" viewBox="0 0 24 25" version="1.1" xmlns="http://www.w3.org/2000/svg" xmlns:xlink="http://www.w3.org/1999/xlink">
    <title>形状结合 2</title>
    <g id="页面-1" stroke="none" stroke-width="1" >
        <g id="形状结合-2" transform="translate(0.000000, 0.497232)">
            <rect id="矩形"  opacity="0" x="0" y="-2.84217094e-14" width="24" height="24"></rect>
            <path d="M2,10 C2.98642223,12.1614845 3.87531112,13.71704 4.66666667,14.6666667 C5.45802221,15.6162933 6.79135554,16.7274044 8.66666667,18 L8,20 L10.6666667,20 C11.3197647,18.1978998 11.7642091,16.8645665 12,16 C12.2357909,15.1354335 12.4580131,14.0243224 12.6666667,12.6666667 C13.1833539,12.2966626 13.6277983,12.0744403 14,12 C14.3722017,11.9255597 15.0388684,11.9255597 16,12 C15.728953,13.5155604 15.4937277,14.7482726 15.294324,15.6981366 L15.1891109,16.1881932 C15.1213372,16.4961969 15.0583002,16.7667991 15,17 C14.7522241,17.9911036 14.4188908,18.9911036 14,20 L15.3333333,20 C16.2171575,18.3182432 16.7727131,16.9849099 17,16 C17.2272869,15.0150901 17.338398,13.4595345 17.3333333,11.3333333 C18.6666667,10.8888889 19.7777778,10.8888889 20.6666667,11.3333333 C21.5555556,11.7777778 22,12.1675894 22,12.5027682 C22.1890642,14.0779994 22.1890642,15.2437433 22,16 C21.8109358,16.7562567 21.5887136,17.4229234 21.3333333,18 L24,18 L24,20 C23.2364588,19.9186011 22.5697921,19.9186011 22,20 C21.4302079,20.0813989 20.541319,20.3036211 19.3333333,20.6666667 C16.1171812,21.5555556 13.8949589,22 12.6666667,22 C8.52971799,22 6.30749681,20.6666667 6,20.6666667 C5.6616472,20.6666667 4.55053675,20 2.66666667,20 L0,20 L0,18 L2.66666667,18 C2.30293571,16.7463396 2.08071348,15.6352285 2,14.6666667 C1.91928652,13.6981049 1.91928652,12.1425493 2,10 Z M4.66666667,4.66666667 C5.66746107,7.18624439 6.55634996,8.96402217 7.33333333,10 C8.1103167,11.0359778 9.22142782,11.9248667 10.6666667,12.6666667 C10.7334406,13.5993564 10.7334406,14.2660231 10.6666667,14.6666667 C10.4748432,15.8176076 10,16.6666667 10,16.6666667 C10,16.6666667 6.70814348,15.416287 4.66666667,11.3333333 C3.77777778,9.55555556 3.77777778,7.33333333 4.66666667,4.66666667 Z M16,6.66666667 C19.1111111,6.66666667 21.1111111,7.77777778 22,10 C18.9691998,9.75053337 16.7469775,9.75053337 15.3333333,10 C13.9196891,10.2494666 12.5863558,10.6939111 11.3333333,11.3333333 C10.3300387,10.7744832 9.66337204,10.3300387 9.33333333,10 C9.00329463,9.66996129 8.7810724,9.22551685 8.66666667,8.66666667 C10.4444444,7.33333333 12.8888889,6.66666667 16,6.66666667 Z M12.6666667,2 C15.3333333,2 17.5555556,3.11111111 19.3333333,5.33333333 C15.7777778,4.88888889 13.3333333,4.88888889 12,5.33333333 C10.6666667,5.77777778 9.33333333,6.66666667 8,8 L6,4 C7.77777778,2.66666667 10,2 12.6666667,2 Z" id="形状结合" ></path>
        </g>
    </g>
</svg>