<?xml version="1.0" encoding="UTF-8"?>
<svg width="24px" height="24px" viewBox="0 0 24 24" version="1.1" xmlns="http://www.w3.org/2000/svg" xmlns:xlink="http://www.w3.org/1999/xlink">
    <g id="页面-1" stroke="none" stroke-width="1" >
        <g id="网球">
            <path d="M9.39138879,3.21070028 C13.1707082,-0.504493935 18.7896959,-1.11364859 21.961267,2.00414605 C25.1328381,5.12194542 24.5132329,10.6456786 20.7339135,14.3608248 C18.0264624,17.0223595 14.3748775,18.0898427 11.3553291,17.3349643 L11.5079326,17.3408645 C9.87756212,17.2537179 8.66717632,17.5656084 7.70114305,18.1704855 C8.12319731,18.7564794 8.06663874,19.5719934 7.53329419,20.0962928 L4.00966008,23.5601293 C3.41306374,24.1466236 2.44578582,24.1466236 1.84918147,23.5601293 L0.447450859,22.1821395 C-0.149151088,21.595724 -0.149149485,20.6448268 0.447450859,20.0583325 L3.97107696,16.594496 C4.50062346,16.0739233 5.32219964,16.0154113 5.91738835,16.4189602 C6.53819588,15.5422514 6.68855661,14.553633 6.54677103,13.0188319 C5.45993764,9.9467828 6.50267584,6.05044084 9.39138879,3.21070028 Z M5.05131626,18.3642958 L2.24784703,21.1202754 L2.92942077,21.7902508 L5.73289802,19.0343499 L5.05131626,18.3642958 Z M18.6176162,1.2347563 L15.2469545,4.54913892 L12.6963505,2.04178344 L12.9954796,1.89389838 C12.4460634,2.15382932 11.9078996,2.46975765 11.3911259,2.84058433 L11.6444477,2.66457623 L14.4041504,5.37747641 L11.8766194,7.86213448 L9.07012982,5.10326455 L9.26734527,4.85011233 C8.9419156,5.25430979 8.65304936,5.67375149 8.40134274,6.10312318 L11.033655,8.69025145 L7.38131706,12.2806485 L7.3192191,12.0364674 C7.43486135,12.5314527 7.60838357,13.0060157 7.84082932,13.4508545 L11.8586737,9.50143593 L14.3342104,11.9349894 L10.3165705,15.8848517 C10.777276,16.1175503 11.2693272,16.2902013 11.7827381,16.4038878 L11.5071315,16.3367284 L15.1594695,12.7463314 L17.7917902,15.3339311 C17.5927578,15.446691 17.3916282,15.5518658 17.1889129,15.6494002 C17.8418668,15.3352908 18.4784827,14.9417816 19.0815359,14.4708261 L18.8089233,14.6768717 L16.0024338,11.9179781 L18.5299648,9.43331218 L21.2898456,12.1457988 C21.5877784,11.7188108 21.8471338,11.278458 22.0672729,10.8304346 L21.9228922,11.1123065 L19.3722882,8.60495894 L22.7437449,5.29064029 C22.792714,5.4678249 22.8340283,5.64790529 22.8677377,5.83043611 C22.756585,5.22849854 22.5628526,4.65355734 22.2847347,4.12118 L18.5477502,7.79408949 L16.0722135,5.36049666 L19.8087585,1.68668377 C19.4309568,1.49585959 19.0320735,1.34541612 18.6176162,1.2347563 Z M15.2283679,6.18847188 L17.7039046,8.62204895 L15.1763736,11.1067149 L12.7008369,8.67316145 L15.2283679,6.18847188 Z" id="形状结合"></path>
        </g>
    </g>
</svg>