<?xml version="1.0" encoding="UTF-8"?>
<svg width="24px" height="24px" viewBox="0 0 24 24" version="1.1" xmlns="http://www.w3.org/2000/svg" xmlns:xlink="http://www.w3.org/1999/xlink">
    <title>方程式</title>
    <g id="页面-1" stroke="none" stroke-width="1">
        <g id="方程式" transform="translate(0.000000, 0.000000)">
            <rect id="矩形" opacity="0" x="0" y="0" width="24" height="24"></rect>
            <path d="M19.550057,16.7200208 C19.550057,16.7200208 17.5050832,14.670047 14.5001217,14.670047 C11.4951603,14.670047 9.42818674,15.1515409 6.05023003,12.6700727 L2.00028193,22.2199503 C2.00028193,22.2199503 -0.0201921743,23.6839315 0.000152618679,21.6699573 L8.00020504,1.67021363 C8.00020504,1.67021363 8.68069632,0.162232958 10.0501788,1.67021363 C12.3196497,3.17819431 11.5871591,4.31967968 18.0000769,3.670188 C18.0000769,3.670188 22.6360175,3.4131913 24,6.22015532 L19.550057,16.7200208 Z M19.9997437,4.99994874 L18.9997565,7.4999167 C18.170428,7.2295861 17.5037699,7.06292157 16.9997821,6.99992311 C16.4957944,6.93692464 15.8291363,6.93692464 14.9998078,6.99992311 L15.999795,4.49995515 L12.5501467,4.22018095 L11.4998526,6.99992311 C11.4998526,6.99992311 8.63938928,5.56544149 8.49989107,5.49994233 C8.36039286,5.43444317 7,9 7,9 C7,9 7.79020773,9.89560822 8.61919711,10.1326052 C9.53568536,10.3946018 9.99987185,10.4998783 9.99987185,10.4998783 C9.99987185,10.9998718 9.05019159,13.2200656 9.05019159,13.2200656 C9.62542386,13.6514791 10.1086485,13.9114017 10.4998654,13.9998334 C10.875237,14.0846834 11.5418951,14.0846834 12.4998398,13.9998334 L13.499827,10.9998718 C14.6109239,10.9998718 15.4442465,10.9998718 15.999795,10.9998718 C16.5553434,10.9998718 17.2220015,10.9998718 17.9997693,10.9998718 L16.9997821,13.9998334 C17.3625792,14.1877768 17.6959082,14.3544414 17.9997693,14.499827 C18.3036304,14.6452126 18.6537284,14.8852836 19.0500634,15.22004 L20.4997373,12.4998526 L17.9997693,10.9998718 L18.9997565,7.4999167 L21.5500314,9.22011688 L22.9997053,6.49992952 C21.9494111,5.32972229 19.9997437,4.99994874 19.9997437,4.99994874 Z M9.99987185,10.4998783 L11.4998526,6.99992311 L14.9998078,6.99992311 L13.499827,10.9998718 C13.499827,10.9998718 10.4718658,10.5238779 9.99987185,10.4998783 Z" id="形状" ></path>
        </g>
    </g>
</svg>