<?xml version="1.0" encoding="UTF-8"?>
<svg width="24px" height="24px" viewBox="0 0 24 24" version="1.1" xmlns="http://www.w3.org/2000/svg" xmlns:xlink="http://www.w3.org/1999/xlink">
    <title>手球</title>
    <g id="页面-1" stroke="none" stroke-width="1" >
        <g id="手球" >
            <path d="M14.1918087,20.7267439 C14.2710925,20.7267439 14.3503764,20.8060277 14.3503764,20.8853116 C14.5089441,21.202447 14.7467956,21.5195823 14.9053633,21.8367177 L15.3810664,22.5502724 C15.4603502,22.6295562 15.5396341,22.7881239 15.5396341,23.0259754 L15.7774856,23.4223947 C15.3017825,23.5809624 14.7467956,23.7395301 14.2710925,23.8188139 C12.1304286,24.1359493 9.91048092,24.0566655 7.84910089,23.4223947 C7.92838474,23.263827 8.00766859,23.1845431 8.08695243,23.0259754 C8.16623628,22.8674077 8.24552013,22.7881239 8.32480397,22.6295562 L8.64193936,22.1538531 C8.95907475,21.67815 9.1969263,21.202447 9.51406169,20.7267439 L14.1918087,20.7267439 Z M6.58055933,16.6832677 C6.65984318,16.6832677 6.65984318,16.7625515 6.65984318,16.7625515 C7.05626242,17.4761061 7.45268165,18.1896608 7.84910089,18.9032154 C8.16623628,19.3789185 8.40408782,19.8546215 8.72122321,20.3303246 C8.32480397,21.0438793 8.00766859,21.67815 7.61124935,22.3124208 C7.5319655,22.3917047 7.45268165,22.5502724 7.37339781,22.6295562 L7.37339781,22.7088401 C7.29411396,22.8674077 7.29411396,22.9466916 7.21483011,23.0259754 C6.97697857,22.8674077 6.81841087,22.7881239 6.58055933,22.7088401 C4.5191793,21.7574339 2.77493466,20.0924731 1.58567695,18.1103769 L1.58567695,18.0310931 L1.74424464,17.7139577 C1.82352849,17.55539 1.90281234,17.4761061 1.98209618,17.3175384 C2.14066388,17.0796869 2.21994773,16.9211192 2.37851542,16.6832677 L6.58055933,16.6832677 Z M20.6930842,16.6832677 L20.9309357,17.3175384 L21.1687872,17.7139577 L21.3273549,17.9518092 L21.3273549,18.0310931 C20.9309357,18.8239315 20.4552326,19.5374862 19.9002457,20.1717569 C18.9488395,21.3610146 17.680298,22.3124208 16.3324726,22.9466916 C16.2730097,22.8872287 16.258144,22.7831687 16.2209796,22.7014072 L16.1268301,22.5577052 C16.0896658,22.4759438 16.0748001,22.3718837 16.0153372,22.3124208 C15.7774856,21.67815 15.4603502,21.1231631 15.1432148,20.4888923 C15.1432148,20.4690714 15.1382596,20.4542056 15.1308267,20.4418175 L15.0763191,20.3773994 L15.063931,20.3303246 C15.3017825,19.9339054 15.4603502,19.5374862 15.6982018,19.1410669 C16.094621,18.4275123 16.4117564,17.6346738 16.8081756,16.9211192 C16.8874595,16.8418353 16.8874595,16.7625515 16.9667433,16.6832677 L20.6930842,16.6832677 Z M13.8746733,12.7190753 L14.5089441,13.8290491 L15.6982018,15.969713 C15.7774856,16.1282807 15.7774856,16.2075646 15.8567695,16.2868484 L15.2224987,17.3968223 L14.033241,19.5374862 C13.9539571,19.61677 13.9539571,19.7753377 13.8746733,19.8546215 L9.91048092,19.8546215 C9.67262938,19.5374862 9.51406169,19.1410669 9.27621014,18.7446477 L8.08695243,16.6039838 C8.00766859,16.4454161 8.00766859,16.3661323 7.92838474,16.2868484 L8.06285014,16.0876874 C8.23283471,15.8111453 8.37237428,15.4940099 8.56265552,15.1768746 L9.75191323,13.0362107 L9.91048092,12.7190753 L13.8746733,12.7190753 Z M0,12.7190753 C0.158567695,13.0362107 0.31713539,13.3533461 0.475703084,13.6704815 C0.634270779,13.908333 0.713554626,14.0669007 0.792838474,14.2254684 C0.951406169,14.4633199 1.03069002,14.7011715 1.18925771,14.939023 C1.34782541,15.1768746 1.42710925,15.4147261 1.58567695,15.7318615 C1.58567695,15.8111453 1.5063931,15.8111453 1.5063931,15.8904292 L1.26854156,16.2868484 C1.18925771,16.4454161 1.10997386,16.5247 1.03069002,16.6832677 C0.475703084,15.4147261 0.158567695,14.0669007 0,12.7190753 Z M23.7058704,12.7190753 C23.7058704,12.877643 23.7058704,13.1154945 23.6265865,13.2740622 C23.388735,14.4633199 22.9130319,15.6525776 22.1994773,16.6832677 C22.1201934,16.6039838 21.9616257,16.4454161 21.8823419,16.2868484 C21.803058,16.2075646 21.6444903,16.0489969 21.5652065,15.8904292 C21.4859226,15.8111453 21.4859226,15.8111453 21.4066388,15.7318615 C21.6444903,15.4147261 21.803058,15.1768746 22.0409096,14.939023 C22.1201934,14.7804553 22.1994773,14.6218876 22.358045,14.4633199 C22.5958965,14.2254684 22.833748,13.908333 22.9923157,13.6704815 C23.2301673,13.3533461 23.4680188,13.0362107 23.7058704,12.7190753 Z M6.50127549,7.96204444 C6.65984318,8.27917983 6.81841087,8.59631522 7.05626242,8.91345061 C7.61124935,9.94414063 8.16623628,10.8955468 8.72122321,11.9262368 L8.48337167,12.3432111 C8.32480397,12.6309821 8.16623628,12.9304989 8.00766859,13.1947784 C7.5319655,13.9876168 7.13554626,14.7804553 6.65984318,15.5732938 C6.65984318,15.6525776 6.58055933,15.8111453 6.50127549,15.8904292 L3.0127862,15.8904292 C2.77493466,15.4940099 2.53708312,15.0183069 2.29923157,14.6218876 L1.34782541,12.877643 C1.30818348,12.8181801 1.2734968,12.7636724 1.24128774,12.7116424 L1.05794384,12.4093728 L0.951406169,12.2433722 C0.951406169,12.1640884 0.872122321,12.1640884 0.872122321,12.0848045 C0.872122321,12.0649835 0.867167081,12.0501178 0.85973422,12.0377297 L0.805226575,11.9733116 L0.792838474,11.9262368 C0.792838474,11.846953 0.872122321,11.846953 0.872122321,11.7676691 C0.931585207,11.6685643 0.986092852,11.5744147 1.03812288,11.4827428 L1.34039254,10.9426216 L1.5063931,10.6576953 L2.85421851,8.27917983 C2.85421851,8.19989598 2.93350235,8.04132829 3.0127862,7.96204444 L6.50127549,7.96204444 Z M20.772368,7.96204444 C21.0102196,8.35846368 21.2480711,8.83416676 21.4859226,9.230586 C21.803058,9.78557293 22.1201934,10.4198437 22.4373288,10.9748306 L22.833748,11.6091014 C22.833748,11.6883853 22.833748,11.6883853 22.9130319,11.6883853 L22.92542,11.7354601 L22.9799276,11.7998782 L22.9923157,11.846953 C22.9923157,11.8667739 22.9873605,11.8816396 22.9799276,11.8940277 L22.92542,11.9584459 L22.9130319,12.0055207 L22.4373288,12.7983591 C22.358045,12.877643 22.358045,13.0362107 22.2787611,13.1154945 L20.9309357,15.4940099 C20.9309357,15.5732938 20.8516519,15.7318615 20.772368,15.8111453 L17.2838787,15.8111453 C17.2838787,15.8111453 17.2045949,15.7318615 17.2045949,15.7318615 C16.8081756,15.0183069 16.3324726,14.2254684 15.9360533,13.5119138 C15.6982018,12.9569268 15.3810664,12.4812237 15.063931,11.9262368 C15.3017825,11.5298176 15.5396341,11.0541145 15.7774856,10.6576953 C16.2531887,9.86485678 16.6496079,9.07201831 17.125311,8.27917983 C17.125311,8.19989598 17.2045949,8.04132829 17.2838787,7.96204444 L20.772368,7.96204444 Z M13.8746733,3.99785207 C14.1125248,4.39427131 14.2710925,4.79069055 14.5089441,5.10782594 L15.6982018,7.24848982 C15.7774856,7.40705751 15.7774856,7.48634136 15.8567695,7.56562521 C15.6189179,7.96204444 15.4603502,8.35846368 15.2224987,8.67559907 L14.033241,10.8162629 C13.9539571,10.9748306 13.9539571,11.0541145 13.8746733,11.1333983 L9.91048092,11.1333983 L9.27621014,10.0234245 L8.08695243,7.8827606 C8.00766859,7.80347675 8.00766859,7.64490905 7.92838474,7.56562521 L8.56265552,6.3763675 C8.64193936,6.29708365 8.64193936,6.2177998 8.72122321,6.13851595 C9.0383586,5.74209672 9.27621014,5.26639363 9.51406169,4.79069055 C9.59334553,4.55283901 9.75191323,4.31498746 9.91048092,3.99785207 Z M1.03069002,7.16920597 C1.10997386,7.32777366 1.18925771,7.40705751 1.26854156,7.56562521 L1.58567695,8.19989598 L1.18925771,8.99273446 C1.10997386,9.07201831 1.03069002,9.230586 0.951406169,9.3891537 C0.792838474,9.62700524 0.634270779,9.94414063 0.475703084,10.1819922 C0.31713539,10.4991276 0.158567695,10.8162629 0,11.1333983 C0.0792838474,9.78557293 0.475703084,8.43774753 1.03069002,7.16920597 Z M22.1994773,7.08992212 C23.0715996,8.35846368 23.6265865,9.70628909 23.7851542,11.0541145 C23.5473027,10.8162629 23.3094511,10.4991276 23.0715996,10.1819922 C22.9130319,10.0234245 22.7544642,9.78557293 22.5958965,9.62700524 C22.4373288,9.3891537 22.1994773,9.15130215 22.0409096,8.91345061 C21.803058,8.67559907 21.6444903,8.43774753 21.4066388,8.04132829 L21.6210223,7.8263105 C21.7047461,7.74004967 21.8189148,7.61319551 21.8823419,7.48634136 C21.9616257,7.32777366 22.1201934,7.24848982 22.1994773,7.08992212 Z M7.21483011,0.826498179 C7.29411396,0.905782026 7.45268165,0.985065874 7.45268165,1.14363357 C7.45268165,1.30220126 7.5319655,1.38148511 7.61124935,1.54005281 C7.92838474,2.09503974 8.32480397,2.72931052 8.56265552,3.28429745 C8.56265552,3.30411841 8.56761076,3.31898413 8.57504362,3.33137223 L8.62955126,3.39579036 L8.64193936,3.44286514 L8.64193936,3.52214899 L8.47593881,3.80707532 L8.17366914,4.34719653 L8.00766859,4.63212285 L6.73912703,6.85207058 C6.65984318,6.93135443 6.65984318,7.08992212 6.58055933,7.16920597 L2.37851542,7.16920597 C2.29923157,6.93135443 2.14066388,6.77278673 2.06138003,6.53493519 L1.58567695,5.74209672 L1.78547224,5.40910456 C2.06455139,4.96511501 2.39437219,4.52112547 2.77493466,4.07713592 C3.96419237,2.65002667 5.47058547,1.54005281 7.21483011,0.826498179 Z M16.4117564,0.826498179 C18.2352849,1.6986205 19.8209618,3.12572975 20.9309357,4.8699744 C21.0895034,5.10782594 21.2480711,5.42496133 21.4066388,5.66281287 L21.4066388,5.74209672 L20.9309357,6.53493519 C20.8516519,6.77278673 20.6930842,6.93135443 20.6138003,7.16920597 L16.8874595,7.16920597 L16.8874595,7.08992212 L16.3324726,5.97994826 C16.1739049,5.58352902 16.0153372,5.18710978 15.7774856,4.79069055 L15.599097,4.47974921 C15.4207083,4.15641977 15.2423197,3.79964246 15.063931,3.44286514 L16.094621,1.54005281 L16.2531887,1.22291742 L16.2531887,1.14363357 C16.3324726,0.985065874 16.3324726,0.905782026 16.4117564,0.826498179 Z M15.8567695,0.588646637 C15.7774856,0.747214331 15.6982018,0.826498179 15.6982018,0.905782026 C15.6189179,1.06434972 15.5396341,1.22291742 15.4603502,1.30220126 C15.3017825,1.46076896 15.2224987,1.61933665 15.1432148,1.77790435 C14.9053633,2.25360743 14.5882279,2.72931052 14.2710925,3.2050136 L9.59334553,3.2050136 C9.51406169,3.12572975 9.43477784,3.04644591 9.51406169,2.96716206 C9.27621014,2.65002667 9.11764245,2.33289128 8.87979091,2.01575589 C8.72122321,1.77790435 8.56265552,1.54005281 8.40408782,1.30220126 C8.32480397,1.22291742 8.24552013,1.06434972 8.16623628,0.985065874 C8.08695243,0.826498179 8.00766859,0.667930484 7.92838474,0.588646637 L8.48337167,0.430078942 C10.8618871,-0.204191837 13.4782541,-0.12490799 15.8567695,0.588646637 Z" id="形状结合"></path>
        </g>
    </g>
</svg>