<?xml version="1.0" encoding="UTF-8"?>
<svg width="24px" height="24px" viewBox="0 0 24 24" version="1.1" xmlns="http://www.w3.org/2000/svg" xmlns:xlink="http://www.w3.org/1999/xlink">
    <title>沙滩排球 </title>
    <g id="页面-1" stroke="none" stroke-width="1" >
        <g id="沙滩排球-" transform="translate(0.000000, 0.000000)" >
            <path d="M1.7155276,12.9406146 C1.89998554,13.9151426 4.55690619,21.5948101 13.2262852,23.8817749 C10.9186011,24.2208838 3.62735275,24.364879 0.926129549,16.275625 C0.926129549,16.275625 0.442291055,14.2121728 1.7155276,12.9406146 Z M18.3141979,6.81633592 C19.5197583,6.59335925 20.7625175,6.86595029 21.7734442,7.57508698 C22.8706082,8.34300574 23.6297832,9.52160699 23.8874547,10.8573231 C24.1634457,12.2041588 23.9274534,13.6081127 23.2277164,14.782794 C22.8010104,15.5030904 22.20655,16.1035506 21.4976933,16.5304966 C21.3829771,16.5985743 21.2373818,16.5745751 21.1493047,16.4731385 C21.0611476,16.3717018 21.0548278,16.2207468 21.1341052,16.1118703 C21.1594644,16.0753115 21.1850636,16.0446726 21.2102627,16.0146735 L21.2226623,15.999794 C21.2694608,15.9514756 21.3075395,15.8950775 21.3349786,15.8331595 C21.6688877,14.6578381 21.7372054,13.4200388 21.5346521,12.2136785 C21.3580179,11.0451569 20.7227588,10.0014312 19.7763099,9.32489346 C18.9698564,8.71267358 17.9523698,8.46932158 16.9647223,8.65227557 C17.217114,8.68307456 17.4648659,8.7457925 17.7022181,8.83898943 C18.465633,9.14193947 19.0888125,9.72960015 19.4468807,10.4838954 C20.260134,12.1514405 19.6656735,14.1795339 18.0903653,15.1119032 C17.6359802,15.3681348 17.125997,15.5030904 16.6073741,15.5044503 L16.5657754,15.5044503 C16.4340198,15.5024504 16.3214635,15.4063735 16.2957843,15.2738179 C16.2701051,15.1413423 16.3382629,15.0084666 16.4592989,14.9550284 C16.5349764,14.9215895 16.609134,14.8846307 16.6814516,14.844152 C17.2884717,14.4996033 17.7104578,13.8917833 17.8290939,13.1911664 C17.9621295,12.4360712 17.8490132,11.6571368 17.5071845,10.9745192 C17.2815119,10.4294971 16.8934446,9.9714322 16.3985809,9.66592225 C15.7926008,10.6294106 15.4420524,11.7380141 15.3814944,12.8825365 C15.3362958,13.9048229 15.4731713,14.9271093 15.7854011,15.8991573 C16.12339,16.9827217 16.6864915,18.3045183 17.3195906,19.2389675 C17.2499929,19.2643267 17.1812752,19.2889659 17.1131974,19.3129651 C18.1450835,19.4919192 19.2726464,19.589436 20.504126,19.5841562 C19.0615334,21.4650544 15.8293996,23.2979541 15.8293996,23.2979541 L15.8146673,23.2970842 C15.3901233,23.2702179 5.9075835,22.5521269 2.66475239,11.8440106 C3.45807832,10.9038816 4.80756195,10.0875884 6.42616474,10.1551862 C6.42616474,10.1551862 7.53134441,14.875351 12.3483941,17.6364602 C12.2357578,15.6746047 12.6969426,12.8223785 12.9105356,12.3283947 C12.3043955,12.0286446 11.8508104,11.4794626 11.6626566,10.8172444 C11.2531501,9.51928707 11.9099285,8.12045305 13.1551675,7.63817291 C14.0454583,7.3250472 15.0320658,7.60261408 15.6414858,8.33764591 C16.3457827,7.54433599 17.2847118,7.00985756 18.3141979,6.81633592 Z M11.712415,0.0972624026 C14.2763307,0.300590919 15.9122769,1.04691758 15.9122769,1.04691758 C15.9122769,1.04691758 16.3941811,3.62533682 15.0085466,7.20192325 C13.2259652,5.95876411 9.17473839,8.46388176 11.7277745,12.4335113 L11.6946997,12.4660257 C11.5011139,12.655836 10.5020388,13.62856 9.87911523,14.1020164 C8.58907764,12.805579 7.69818693,10.3567795 7.69818693,10.3567795 C7.69818693,10.3567795 11.3121081,6.55278459 11.712415,0.0972624026 Z M4.74439603,5.34583226 C7.01951324,4.43411024 8.87698818,4.82595335 9.35017262,5.02275488 C9.30193421,5.31085741 7.91431582,7.91855569 6.63210997,9.05378237 C1.44384053,9.37745173 0.0837020427,13.9229823 0.0837020427,13.9229823 C-0.100751894,12.9401346 -0.0239428986,10.161106 0.760968579,8.22980946 C2.57164346,6.21720362 3.55119525,5.82436053 4.73296441,5.35041611 Z M14.7579148,9.44680945 C14.7329557,9.4544892 14.7084765,9.46216895 14.6839173,9.47112865 C13.9572212,9.74847953 13.4684372,10.4512564 13.4497179,11.2456303 L13.4713171,11.2068316 C13.8289054,10.5688526 14.2609712,9.97783199 14.7579148,9.44680945 Z M17.1018378,1.43432885 C17.1018378,1.43432885 19.6281547,2.7864924 21.4547347,6.06523261 C21.4547347,6.06523261 18.2837989,4.76897923 16.1783482,7.05783198 C16.9937849,4.57031164 17.0964899,2.4872494 17.1042158,1.73495776 L17.1041208,1.53475235 C17.1032683,1.46880733 17.1018378,1.43432885 17.1018378,1.43432885 Z M10.6442901,0 L10.640271,0.0361216914 C10.6064931,0.332166463 10.3562462,2.38531625 9.75559929,3.8662009 C5.15616274,2.79699197 2.08732959,5.56799466 1.61694575,6.02752835 L1.55385291,6.09095977 C4.84712065,0.592794113 10.6442901,0 10.6442901,0 Z" id="形状结合"></path>
        </g>
    </g>
</svg>