<svg id="交易_-选择" data-name="交易 -选择" xmlns="http://www.w3.org/2000/svg" width="20" height="20" viewBox="0 0 20 20">
  <circle id="椭圆_20" data-name="椭圆 20" cx="7.857" cy="7.857" r="7.857" transform="translate(2.143 2.143)" fill="#fff"/>
  <path id="交易" d="M102.6,89.2a10,10,0,1,0,10,10A10,10,0,0,0,102.6,89.2Zm5.906,13.2a.372.372,0,0,1-.085.087l-4.141,3.064a.386.386,0,0,1-.616-.311v-1.972H100.28q-3.618.021-3.929-3.576c.209.219,1.125,1.513,3.929,1.513q2.8,0,3.384-.064V99.247a.386.386,0,0,1,.386-.386.4.4,0,0,1,.224.071l4.139,2.925A.389.389,0,0,1,108.506,102.4Zm-3.584-5.2q-2.8,0-3.384.064v1.892a.386.386,0,0,1-.386.386.4.4,0,0,1-.224-.071l-4.141-2.922A.385.385,0,0,1,96.7,96a.372.372,0,0,1,.085-.087l4.139-3.064a.386.386,0,0,1,.616.311v1.972h3.384q3.618-.021,3.929,3.576C108.64,98.487,107.725,97.193,104.922,97.193Z" transform="translate(-92.6 -89.2)" fill="#0f1213"/>
</svg>
