<svg id="游戏返水-选择" xmlns="http://www.w3.org/2000/svg" width="20" height="20" viewBox="0 0 20 20">
  <circle id="椭圆_19" data-name="椭圆 19" cx="7.143" cy="7.143" r="7.143" transform="translate(2.857 2.857)" fill="#fff"/>
  <g id="组_3402" data-name="组 3402">
    <path id="路径_2125" data-name="路径 2125" d="M544.65,560.5a1.247,1.247,0,0,0,1.19-1.28c0-.87-.31-1.04-.82-1.22l-1.01-.35v2.85h.64Z" transform="translate(-533.249 -546.481)" fill="#0f1213"/>
    <path id="路径_2126" data-name="路径 2126" d="M85.331,91.01A10,10,0,1,0,95.3,80.98,10,10,0,0,0,85.331,91.01Zm14.09,2.71a2.737,2.737,0,0,1-2.69,2.78h-.65v.58a.75.75,0,0,1-1.5,0V96.5h-.36a3.027,3.027,0,0,1-2.97-3.08.75.75,0,1,1,1.5,0A1.531,1.531,0,0,0,94.22,95h.36V91.62l-1.51-.54a2.5,2.5,0,0,1-1.83-2.64,2.737,2.737,0,0,1,2.69-2.78h.65v-.58a.75.75,0,1,1,1.5,0v.58h.36a3.027,3.027,0,0,1,2.97,3.08.75.75,0,1,1-1.5,0,1.531,1.531,0,0,0-1.47-1.58h-.36v3.38l1.51.54A2.5,2.5,0,0,1,99.42,93.72Z" transform="translate(-85.33 -80.98)" fill="#0f1213"/>
    <path id="路径_2127" data-name="路径 2127" d="M402.825,347.171l1.01.35v-2.86h-.65a1.241,1.241,0,0,0-1.18,1.29C402.005,346.821,402.315,346.991,402.825,347.171Z" transform="translate(-394.583 -338.481)" fill="#0f1213"/>
  </g>
</svg>
