<svg xmlns="http://www.w3.org/2000/svg" width="42" height="42" viewBox="0 0 42 42">
    <g data-name="组 3756">
        <path data-name="游戏维护" d="m86.055 69.939-1.193 1.2a3.269 3.269 0 0 1-4.613-4.632l1.193-1.2c.658-.662.218-1.44-.968-1.255a5.943 5.943 0 0 0-3.3 1.682 6.017 6.017 0 0 0-1.618 5.485l-10.009 10.05a3.267 3.267 0 1 0 4.612 4.63l10.01-10.05a5.967 5.967 0 0 0 7.137-4.937c.185-1.192-.59-1.635-1.25-.973zM68.622 84.354a1.09 1.09 0 1 1-.02-1.519 1.084 1.084 0 0 1 .02 1.519zm-1.087-14.215 3.765 3.785 1.538-1.543-3.765-3.781-.845-1.62-2.69-1.93L64 66.589l1.922 2.7zm12.612 8.028a.542.542 0 0 0-.768 0l-2.307 2.317a.548.548 0 0 0 0 .772l5.442 5.463a2.18 2.18 0 0 0 3.077-3.088l-5.443-5.463z" transform="translate(-54.667 -54.691)" style="fill:#f4f4f4"/>
        <g data-name="矩形 8395" style="stroke:#f4f4f4;stroke-width:2px;fill:none">
            <rect width="42" height="42" rx="21" style="stroke:none"/>
            <rect x="1" y="1" width="40" height="40" rx="20" style="fill:none"/>
        </g>
    </g>
</svg>
