<svg width="80" height="80" viewBox="0 0 80 80" fill="none" xmlns="http://www.w3.org/2000/svg">
<g clip-path="url(#clip0_3527_152998)">
<path d="M80.0002 40.0001C81.0002 65.0001 53.0002 86.0001 28.0002 78.0001C3.00021 71.0001 -7.99979 38.0001 7.00021 17.0001C21.0002 -4.99991 56.0002 -5.99991 71.0002 15.0001C77.0002 22.0001 80.0002 31.0001 80.0002 40.0001Z" fill="url(#paint0_radial_3527_152998)"/>
<path d="M71.9995 40.0007C71.9995 60.0007 49.9995 77.0007 29.9995 70.0007C10.9995 65.0007 0.999514 38.0007 13.9995 22.0007C24.9995 4.00066 52.9995 3.00066 64.9995 20.0007C68.9995 26.0007 71.9995 33.0007 71.9995 40.0007Z" fill="#B8CCE3"/>
<path d="M40 8.00047C34.8604 8.07432 29.8143 9.38517 25.2886 11.8221C20.7629 14.259 16.8908 17.7503 14 22.0005C13 24.0005 11 25.0005 14 26.0005L12 32.0005C14 34.0005 13 38.0005 15 39.0005C16 36.0005 16 42.0005 18 39.0005C20 39.0005 21 38.0005 22 41.0005C23 42.0005 22 43.0005 21 42.0005C21 44.0005 17 43.0005 17 46.0005C17 48.0005 22 53.0005 23 49.0005C25 48.0005 21 43.0005 25 44.0005C28 46.0005 23 38.0005 26 42.0005C30 42.0005 27 45.0005 26 46.0005C23 45.0005 25 50.0005 27 50.0005C27 49.0005 27 47.0005 28 49.0005C28 52.0005 31 50.0005 31 52.0005C32 50.0005 37 52.0005 35 49.0005C34 46.0005 39 45.0005 36 43.0005C37 41.0005 35 40.0005 35 39.0005C32 39.0005 35 45.0005 32 43.0005C32 40.0005 28 38.0005 32 36.0005C31 33.0005 29 37.0005 27 35.0005C24 37.0005 31 37.0005 27 38.0005C24 42.0005 25 36.0005 27 35.0005C29 33.0005 25 32.0005 26 30.0005C23 32.0005 21 28.0005 24 26.0005C26 22.0005 26 28.0005 26 30.0005C28 31.0005 32 33.0005 29 30.0005C27 28.0005 29 24.0005 31 25.0005C31 23.0005 31 24.0005 33 25.0005C33 23.0005 35 27.0005 35 24.0005C37 24.0005 35 27.0005 37 26.0005C38 29.0005 47 27.0005 42 24.0005C42 20.0005 47 28.0005 47 24.0005C45 22.0005 52 25.0005 49 26.0005C49 28.0005 47 28.0005 49 30.0005C51 32.0005 52 33.0005 52 31.0005C55 31.0005 56 34.0005 53 34.0005C53 37.0005 51 41.0005 55 43.0005C56 45.0005 51 45.0005 54 47.0005C56 49.0005 58 51.0005 55 51.0005L57 56.0005C58 53.0005 61 50.0005 57 48.0005C56 46.0005 59 39.0005 61 43.0005C62 44.0005 64 43.0005 62 45.0005C61 48.0005 60 51.0005 64 53.0005C62 54.0005 59 54.0005 61 58.0005C63 57.0005 66 56.0005 64 55.0005C66 53.0005 66 50.0005 68 49.0005C69 48.0005 71 46.0005 69 46.0005C67 44.0005 66 40.0005 64 40.0005C66 38.0005 62 36.0005 63 34.0005C62 33.0005 64 30.0005 61 32.0005C57 33.0005 61 27.0005 59 25.0005C60 25.0005 63 28.0005 62 25.0005C62 22.0005 58 23.0005 57 21.0005C55 22.0005 52 21.0005 50 23.0005C49 22.0005 51 19.0005 49 18.0005C49 15.0005 43 15.0005 43 13.0005C48 12.0005 51 15.0005 53 18.0005C55 18.0005 58 18.0005 56 20.0005C60 22.0005 60 15.0005 56 15.0005C53 15.0005 50 14.0005 48 12.0005C46 11.0005 40 9.00047 41 11.0005C43 14.0005 37 13.0005 35 13.0005C34 14.0005 30 17.0005 29 15.0005C31 11.0005 36 12.0005 39 11.0005C38 8.00047 32 12.0005 31 9.00047C33.9349 8.22841 36.9672 7.89148 40 8.00047ZM45 13.0005C43 14.0005 47 14.0005 45 13.0005V13.0005ZM60 15.0005C61 16.0005 64 19.0005 60 15.0005V15.0005ZM53 16.0005C58 18.0005 52 18.0005 53 16.0005V16.0005ZM62 17.0005C63 18.0005 66 21.0005 62 17.0005V17.0005ZM63 19.0005C62 19.0005 63 19.0005 63 19.0005V19.0005ZM64 19.0005C65 20.0005 68 24.0005 64 19.0005V19.0005ZM15 20.0005C16 21.0005 13 21.0005 15 20.0005V20.0005ZM64 21.0005C64 23.0005 67 24.0005 65 22.0005L64 21.0005ZM66 22.0005C67 23.0005 68 25.0005 66 22.0005V22.0005ZM68 25.0005C68 25.0005 69 27.0005 68 25.0005V25.0005ZM69 28.0005L70 29.0005L69 28.0005ZM40 29.0005C39 30.0005 38 32.0005 35 31.0005C35 34.0005 31 30.0005 32 33.0005C34 35.0005 34 39.0005 37 38.0005C38 37.0005 38 34.0005 40 36.0005L43 30.0005L40 29.0005ZM46 29.0005C44 30.0005 43 33.0005 46 33.0005C46 37.0005 52 33.0005 48 31.0005L46 29.0005ZM70 31.0005L71 32.0005L70 31.0005ZM65 32.0005C64 33.0005 66 32.0005 65 32.0005V32.0005ZM10 32.0005C9 33.0005 11 33.0005 10 32.0005V32.0005ZM12 33.0005C9 34.0005 11 38.0005 12 34.0005V33.0005ZM69 34.0005C66 34.0005 67 43.0005 70 41.0005C72 39.0005 71 35.0005 69 34.0005ZM71 34.0005V35.0005V34.0005ZM43 36.0005C39 36.0005 42 39.0005 44 37.0005C45 36.0005 44 35.0005 43 36.0005ZM71 43.0005C68 43.0005 72 47.0005 71 43.0005V43.0005ZM8 45.0005H9H8ZM70 48.0005C70 49.0005 69 52.0005 70 48.0005V48.0005ZM62 50.0005C64 52.0005 60 51.0005 62 50.0005V50.0005ZM24 50.0005C21 51.0005 23 53.0005 25 52.0005C29 52.0005 24 51.0005 24 50.0005ZM19 51.0005C17 53.0005 22 54.0005 20 52.0005L19 51.0005ZM69 52.0005C69 52.0005 68 54.0005 69 52.0005V52.0005ZM16 55.0005C14 55.0005 18 56.0005 16 55.0005V55.0005ZM68 55.0005C68 55.0005 66 57.0005 68 55.0005V55.0005ZM57 66.0005V67.0005V66.0005ZM43 72.0005H40H43Z" fill="#758A9F"/>
</g>
<defs>
<radialGradient id="paint0_radial_3527_152998" cx="0" cy="0" r="1" gradientUnits="userSpaceOnUse" gradientTransform="translate(40.1921 40.7923) rotate(-45.0363) scale(38.414 39.1873)">
<stop stop-color="#5590CB"/>
<stop offset="1" stop-color="#C5CED7" stop-opacity="0"/>
</radialGradient>
<clipPath id="clip0_3527_152998">
<rect width="80" height="80" fill="white"/>
</clipPath>
</defs>
</svg>
