<svg width="49" height="49" viewBox="0 0 49 49" xmlns="http://www.w3.org/2000/svg">
    <g fill-rule="nonzero">
        <path d="M40.08 13.571h-5.257a5.307 5.307 0 1 0-9.801-2.82v.011-.011a5.307 5.307 0 1 0-9.788 2.842l-.013-.022H9.965c-.993 0-1.798.806-1.798 1.798v3.896c0 .992.805 1.798 1.798 1.798H40.08c.993 0 1.798-.806 1.798-1.798v-3.896c0-.992-.805-1.798-1.798-1.798zm-11.936-2.809a2.186 2.186 0 1 1 2.185 2.185h-2.185v-2.185zm-8.428-2.185c1.206 0 2.185.979 2.185 2.185v2.185h-2.185a2.186 2.186 0 0 1 0-4.37zM10.664 41.352c0 1.217.986 2.204 2.204 2.204H21.9V24.827H10.664v16.525zM28.144 43.537h9.033a2.204 2.204 0 0 0 2.204-2.184V24.808H28.144v18.729z"/>
    </g>
</svg>
