<?xml version="1.0" encoding="UTF-8"?>
<svg width="24px" height="25px" viewBox="0 0 24 25" version="1.1" xmlns="http://www.w3.org/2000/svg" xmlns:xlink="http://www.w3.org/1999/xlink">
   
    <g id="页面-1" stroke="none" stroke-width="1" >
        <g id="生日好礼" transform="translate(-0.000000, 0.355555)" >
            <path d="M12,6.55012987 C12.9059309,6.5734002 13.7675312,6.15855559 14.3142857,5.43584417 C14.7942857,4.78285717 14.7942857,3.89298703 14.3142857,3.24155844 L12,0 L9.70285714,3.24155844 C9.22285713,3.89454544 9.22285713,4.78441559 9.70285714,5.43584417 C10.2467532,6.15272729 11.1007792,6.56727273 12,6.55012987 L12,6.55012987 Z M18.12,17.4358442 L16.68,16.2701299 L15.24,17.4358442 C13.3018108,18.8591678 10.6639035,18.8591678 8.72571429,17.4358442 L7.2857143,16.2701299 L5.84571428,17.4358442 C4.92482385,18.1666866 3.78133043,18.5599515 2.60571428,18.5501299 C1.69413593,18.553193 0.796997557,18.3224696 0,17.88 L0,22.9215584 C0.0716883147,23.5916883 0.667012975,24.0779221 1.33714287,24.0187013 L22.6457143,24.0187013 C23.3159911,24.0786539 23.9107605,23.590638 23.9828571,22.9215584 L23.9828571,17.8815585 C23.1859995,18.3242032 22.2886789,18.5544368 21.3771429,18.5501299 C20.1956622,18.5638903 19.0454758,18.1704056 18.12,17.4358442 L18.12,17.4358442 Z M19.9885714,9.80727273 L13.32,9.80727273 L13.32,7.63012987 L10.6628571,7.63012987 L10.6628571,9.8244156 L3.99428571,9.8244156 C1.99344444,9.6444701 0.217025195,11.0999833 3.55271368e-15,13.0971429 L3.55271368e-15,14.8114286 C0.143289748,16.114602 1.29932088,17.0659769 2.60571428,16.9558442 C3.28191276,16.9540255 3.93643443,16.7171195 4.45714285,16.2857143 L7.30285713,13.9558442 L10.1485714,16.2872727 C11.2457143,17.0898701 12.7355844,17.0898701 13.8342857,16.2872727 L16.68,13.9558442 L19.5257143,16.2872727 C20.0509091,16.708052 20.7054545,16.9309091 21.3771429,16.9215585 C22.6953699,17.0411521 23.864601,16.0782559 24,14.7615585 L24,13.0472727 C23.7413271,11.0722879 21.9729047,9.65150408 19.9885714,9.8244156 L19.9885714,9.80727273 L19.9885714,9.80727273 Z" id="形状"></path>
        </g>
    </g>
</svg>