<svg id="链游-选择" xmlns="http://www.w3.org/2000/svg" width="20" height="20" viewBox="0 0 20 20">
  <rect id="矩形_1264" data-name="矩形 1264" width="20" height="20" fill="none"/>
  <circle id="椭圆_24" data-name="椭圆 24" cx="8.572" cy="8.572" r="8.572" transform="translate(1.429 1.488)" fill="#fff"/>
  <path id="减去_14" data-name="减去 14" d="M10,20A10,10,0,1,1,20,10,10.011,10.011,0,0,1,10,20ZM9.71,9.072a.6.6,0,0,0-.427.18l-.732.74a1.3,1.3,0,0,0-.106,1.876l2.525,2.555a.681.681,0,0,0,.971,0L16.8,9.509a.7.7,0,0,0,0-.983L13.885,5.578a.682.682,0,0,0-.972,0L11.788,6.717a.2.2,0,0,0,0,.278l.446.45a2.244,2.244,0,0,1,0,3.145l-.787.8a1.567,1.567,0,0,1-2.214.02.521.521,0,0,1-.155-.375.476.476,0,0,1,.807-.34.651.651,0,0,0,.454.188.6.6,0,0,0,.428-.18l.787-.8a1.263,1.263,0,0,0,0-1.769L9.029,5.578a.68.68,0,0,0-.971,0L3.2,10.491a.7.7,0,0,0,0,.983l2.913,2.947a.681.681,0,0,0,.971,0l1.126-1.138a.2.2,0,0,0,0-.277l-.446-.451a2.244,2.244,0,0,1,0-3.145l.85-.859a1.546,1.546,0,0,1,2.207,0,.5.5,0,0,1,.05.659.479.479,0,0,1-.711.049A.645.645,0,0,0,9.71,9.072ZM4.246,11.393a.117.117,0,0,1-.094-.048.119.119,0,0,1-.017-.107,2.484,2.484,0,0,0,.113-.778.117.117,0,0,1,.116-.12H4.4a2.393,2.393,0,0,0,.729-.114.115.115,0,0,1,.13.042.119.119,0,0,1,.018.107,2.445,2.445,0,0,0-.113.777.118.118,0,0,1-.034.085.116.116,0,0,1-.083.035H5.016a2.4,2.4,0,0,0-.734.115A.122.122,0,0,1,4.246,11.393ZM15.881,9.361H15.2a.237.237,0,0,1-.236-.238V8.43a.352.352,0,0,1,.329-.358H15.3a.342.342,0,0,1,.339.344v.019a.237.237,0,0,0,.236.238H15.9a.336.336,0,0,1,.242.1.344.344,0,0,1,.1.252A.353.353,0,0,1,15.881,9.361Z" transform="translate(0 0)" fill="#0f1213"/>
</svg>
