<svg xmlns="http://www.w3.org/2000/svg" width="27.999" height="27.999" viewBox="0 0 27.999 27.999"><path class="b" d="M14,28A14,14,0,0,1,4.1,4.1,14,14,0,0,1,23.9,23.9,13.908,13.908,0,0,1,14,28Zm-.406-15.3a.835.835,0,0,0-.6.251l-1.023,1.036a1.817,1.817,0,0,0-.148,2.626L15.36,20.19a.952.952,0,0,0,1.359,0l6.8-6.878a.981.981,0,0,0,0-1.376L19.439,7.809a.953.953,0,0,0-1.36,0L16.5,9.4a.278.278,0,0,0,0,.389l.624.631a3.143,3.143,0,0,1,0,4.4l-1.1,1.113a2.194,2.194,0,0,1-3.1.028.729.729,0,0,1-.217-.525.666.666,0,0,1,1.131-.476.908.908,0,0,0,.633.262.838.838,0,0,0,.6-.252l1.1-1.113a1.768,1.768,0,0,0,0-2.476L12.641,7.809a.954.954,0,0,0-1.36,0l-6.8,6.878a.982.982,0,0,0,0,1.376l4.08,4.127a.953.953,0,0,0,1.359,0L11.5,18.6a.278.278,0,0,0,0-.39l-.624-.631a3.143,3.143,0,0,1,0-4.4l1.19-1.2a2.165,2.165,0,0,1,3.09,0,.7.7,0,0,1,.07.922.668.668,0,0,1-1,.068A.9.9,0,0,0,13.595,12.7Zm-7.65,3.25a.164.164,0,0,1-.131-.067.168.168,0,0,1-.025-.151,3.429,3.429,0,0,0,.157-1.087.163.163,0,0,1,.047-.119.161.161,0,0,1,.116-.049h.059a3.335,3.335,0,0,0,1.02-.159.167.167,0,0,1,.052-.008.164.164,0,0,1,.131.067.168.168,0,0,1,.025.151,3.4,3.4,0,0,0-.158,1.087.166.166,0,0,1-.048.12.16.16,0,0,1-.114.048H7.021A3.363,3.363,0,0,0,6,15.942.167.167,0,0,1,5.944,15.95ZM22.235,13.1h-.958a.332.332,0,0,1-.33-.334V11.8a.494.494,0,0,1,.462-.5h.014a.479.479,0,0,1,.476.481v.026a.333.333,0,0,0,.329.335h.027a.47.47,0,0,1,.339.143.483.483,0,0,1,.137.352A.493.493,0,0,1,22.235,13.1Z"/></svg>