<svg id="电竞-选择" xmlns="http://www.w3.org/2000/svg" width="20" height="20" viewBox="0 0 20 20">
  <rect id="矩形_8178" data-name="矩形 8178" width="15.715" height="7.143" transform="translate(2.143 10.059)" fill="#fff"/>
  <g id="组_3410" data-name="组 3410" transform="translate(0)">
    <path id="路径_146" data-name="路径 146" d="M4653.25,3287.25a.733.733,0,0,1-.75-.714v-3.1a.733.733,0,0,1,.75-.714h2.375v-2.262a.751.751,0,0,1,1.5,0v2.976a.732.732,0,0,1-.75.714H4654v2.381A.732.732,0,0,1,4653.25,3287.25Z" transform="translate(-4643.75 -3279.75)" fill="#0f1213"/>
    <path id="减去_10" data-name="减去 10" d="M13,14H7A7,7,0,0,1,7,0h6a7,7,0,0,1,0,14ZM4.08,6.341a.672.672,0,1,0,0,1.345H5.8V9.4a.673.673,0,1,0,1.345,0V7.686H8.878a.672.672,0,1,0,0-1.345H7.143V4.6A.673.673,0,0,0,5.8,4.6V6.341ZM14,4a3,3,0,1,0,3,3A3,3,0,0,0,14,4Zm0,4.5A1.5,1.5,0,1,1,15.5,7,1.5,1.5,0,0,1,14,8.5Z" transform="translate(0 6)" fill="#0f1213"/>
  </g>
</svg>
