<svg xmlns="http://www.w3.org/2000/svg" width="27.999" height="27.999" viewBox="0 0 27.999 27.999"><path class="b" d="M5.661,23.872a3.081,3.081,0,0,1-.588-.057L.825,22.989A5.012,5.012,0,0,0,3.806,21.7l1.618.315a1.222,1.222,0,0,0,1.434-.968L10.127,4.233A1.225,1.225,0,0,0,9.159,2.8L5.439,2.076v-.37A5,5,0,0,0,5.195.158L9.509,1a3.062,3.062,0,0,1,2.418,3.586L8.66,21.4A3.062,3.062,0,0,1,5.661,23.872Z" transform="translate(16.015 3.81)"/><path class="b" d="M16.762,26.3H4a4,4,0,0,1-4-4V4A4,4,0,0,1,4,0H16.762a4,4,0,0,1,4,4V22.3A4,4,0,0,1,16.762,26.3ZM9.72,17.019v0l-1.253,3h3.83l-1.255-3a3.648,3.648,0,0,0,2.148.664c.072,0,.134,0,.191,0a3.3,3.3,0,0,0,2.234-.973,3.14,3.14,0,0,0,1-2.268,5.291,5.291,0,0,0-1.43-3.352,39.429,39.429,0,0,0-3.9-3.784L10.4,6.547l-.029.023-.031-.024L9.48,7.3l-.056.05a39.306,39.306,0,0,0-3.849,3.737A5.3,5.3,0,0,0,4.149,14.44a3.136,3.136,0,0,0,1,2.268,3.292,3.292,0,0,0,2.234.973c.057,0,.119,0,.191,0a3.65,3.65,0,0,0,2.145-.663Zm-2.158-.8h0l-.117,0a1.835,1.835,0,0,1-1.27-.554,1.688,1.688,0,0,1-.56-1.221,3.929,3.929,0,0,1,1.092-2.416A38.374,38.374,0,0,1,10.38,8.465l.019.016a38.07,38.07,0,0,1,3.654,3.542,3.924,3.924,0,0,1,1.092,2.416,1.688,1.688,0,0,1-.559,1.222,1.828,1.828,0,0,1-1.27.553l-.111,0A2.3,2.3,0,0,1,11.6,15.6a6.619,6.619,0,0,1-.653-.66l-.566-.679-.564.679a6.607,6.607,0,0,1-.652.66A2.258,2.258,0,0,1,7.562,16.218Z" transform="translate(0.692 0.515)"/></svg>