<svg xmlns="http://www.w3.org/2000/svg" width="28" height="27.918" viewBox="0 0 28 27.918"><path class="b" d="M21.34,26.337a16.2,16.2,0,0,0-9.6-3.309A16.631,16.631,0,0,0,1.985,26.34a1.25,1.25,0,0,1-.738.246l-.05,0a1.244,1.244,0,0,1-.973-.465l-.01-.013A1.164,1.164,0,0,1,.6,24.439,19.743,19.743,0,0,1,6.7,21.36,11.168,11.168,0,0,1,.4,11.3a11.262,11.262,0,1,1,22.525,0,11.088,11.088,0,0,1-2.12,6.55,11.211,11.211,0,0,1-4.174,3.509,19.738,19.738,0,0,1,6.1,3.079,1.4,1.4,0,0,1,.587.892,1.027,1.027,0,0,1-.2.778l-.009.012a1.271,1.271,0,0,1-1.769.218ZM2.8,11.3a8.977,8.977,0,0,0,8.941,8.774,8.8,8.8,0,0,0,6.209-15.04,8.664,8.664,0,0,0-6.209-2.648A9.048,9.048,0,0,0,2.8,11.3Z" transform="translate(2.8 0)"/><path class="b" d="M9.8,19.6a9.8,9.8,0,1,1,9.8-9.8A9.811,9.811,0,0,1,9.8,19.6ZM10.312,5.04a4.885,4.885,0,0,0-4.89,4.91,4.649,4.649,0,0,0,1.441,3.413A5.029,5.029,0,0,0,10.347,14.7a4.78,4.78,0,0,0,3.412-1.347,4.749,4.749,0,0,0,1.351-3.4,5,5,0,0,0-1.341-3.471A4.667,4.667,0,0,0,10.351,5.04Zm-.175,6.953h0a2,2,0,0,1-2-2.034V9.95a2.13,2.13,0,0,1,2.046-2.2h.163a2.123,2.123,0,1,1-.163,4.244h-.048Z" transform="translate(4.199 1.359)"/></svg>