<svg xmlns="http://www.w3.org/2000/svg" width="28" height="28" viewBox="0 0 28 28"><path class="a" d="M13.3,0A13.3,13.3,0,1,0,26.6,13.3,13.3,13.3,0,0,0,13.3,0ZM10.642,21.946a7.98,7.98,0,1,1,7.982-7.979A7.982,7.982,0,0,1,10.642,21.946ZM19.785,7.814C18.355,6.384,17.625,4.8,18.157,4.277s2.107.2,3.537,1.628,2.161,3.014,1.628,3.537S21.216,9.245,19.785,7.814Z" transform="translate(0 1.4)"/><path class="a" d="M283.2,354.43a2.33,2.33,0,0,0,1.895-2.194c-.12-1.5-1.224-2.334-3.325-2.493q-3.205.3-3.5,3.086a2.619,2.619,0,0,0,1.784,2.661,2.8,2.8,0,0,0-2.083,2.493c.12,1.544,1.284,2.355,3.5,2.427q3.865-.108,4.037-3.026.054-2-2.313-2.954Zm-1.431-4.1c1.11.039,1.682.664,1.724,1.9a2.146,2.146,0,0,1-.892,1.844q-2.433-1.019-2.313-2.322a1.452,1.452,0,0,1,1.475-1.425Zm-.174,9.61a1.988,1.988,0,0,1-2-2.194,2.094,2.094,0,0,1,1.071-1.844.531.531,0,0,1,.293.12.172.172,0,0,0,.12.06l.97.533c.871.44,1.284.991,1.245,1.664A1.693,1.693,0,0,1,281.6,359.943Z" transform="translate(-270.752 -339.257)"/></svg>