<svg width="21" height="21" viewBox="0 0 21 21" xmlns="http://www.w3.org/2000/svg">
    <path d="M12.955 5.88c-1.057 3.085-1.051 6.204.017 9.288.04.113 0 .195-.036.261-.034.06-.096.121-.222.14-.266.039-.53.068-.795.083l-3.501 1.813a.311.311 0 0 1-.453-.306l.22-2.209c-1.079-.463-2.29-1.161-3.278-2.122a.514.514 0 0 0-.607-.09l-2.821 1.55c-.179.103-.38-.088-.29-.271L2.957 10.5 1.189 6.983c-.09-.183.111-.374.29-.271l2.82 1.55c.2.11.444.069.608-.09.988-.96 2.199-1.659 3.278-2.122l-.22-2.209a.311.311 0 0 1 .453-.306l3.501 1.813c.264.015.528.044.794.083.126.019.211.093.241.162.039.092.046.157.001.285v.001zm6.552 5.586c-1.342 1.755-2.938 2.884-4.6 3.528a.325.325 0 0 1-.418-.196c-.992-2.821-.983-5.771.005-8.593a.325.325 0 0 1 .417-.196c1.662.644 3.256 1.772 4.596 3.526.435.57.435 1.363 0 1.932zM17.52 10.5a.776.776 0 0 0-.778-.774h-.01a.772.772 0 0 0-.773.774.78.78 0 0 0 1.56 0z" fill="#AADDCB" fill-rule="nonzero"/>
</svg>
