<svg id="捕鱼-选择" xmlns="http://www.w3.org/2000/svg" width="20" height="20" viewBox="0 0 20 20">
  <rect id="矩形_1264" data-name="矩形 1264" width="20" height="20" fill="none"/>
  <path id="路径_2315" data-name="路径 2315" d="M17.631,13.289,16.6,16.056S12.72,21.146,4.55,20.431c.089-.045-3.884-9.643-1.027-17.1-.089.268,6.25,1.116,6.25,1.116l4.375,1.027Z" transform="translate(-0.711 -0.952)" fill="#fff"/>
  <path id="捕鱼" d="M33.71,7.123a1.407,1.407,0,1,0-1.393-1.407A1.407,1.407,0,0,0,33.71,7.123ZM43.7,8.347a1.1,1.1,0,0,0-.221-.663c-.076-.1-.173-.224-.3-.38A18.469,18.469,0,0,0,40.782,5l1.409-1.544a.431.431,0,0,0,.126-.3.439.439,0,0,0-.19-.358h0L42.1,2.779c-2.3-1.34-5.923-1.149-6.871-1.068A21.232,21.232,0,0,0,27.9.151h-.05a1.082,1.082,0,0,0-.99.657l-.028.076A.744.744,0,0,0,26.8.973a23.276,23.276,0,0,0-.554,12.534,20.868,20.868,0,0,0,1.837,5.02h0a1.074,1.074,0,0,0,.811.551h.05c.526.048,1.046.073,1.549.073A12.874,12.874,0,0,0,40.777,14.4a13.589,13.589,0,0,0,2.9-5.842.139.139,0,0,0,.006-.039,1.135,1.135,0,0,0,.017-.182ZM33.71,3.781A1.932,1.932,0,1,1,31.8,5.713,1.932,1.932,0,0,1,33.71,3.781Zm-6.748,9.184-.008-.034a10.2,10.2,0,0,0,2.153-.324l-.839,1.818ZM30.5,18.334c-.143,0-.288,0-.433-.006-.316-.008-.643-.028-.968-.062a.464.464,0,0,1-.355-.246l-.145-.288h.2a6.319,6.319,0,0,0,4.894-1.893c2.209-2.411,1.865-6.284,1.767-7.075h0a.4.4,0,0,0-.4-.361.408.408,0,0,0-.277.112l-.006.008-.008.008c-.557.562-3.77,3.588-7.942,3.711a22.406,22.406,0,0,1,.24-9.187.593.593,0,0,1,.582-.481.57.57,0,0,1,.2.034l.028.014.017.008A24.974,24.974,0,0,1,31.5,4.477a2.55,2.55,0,0,0,2.209,3.784,2.5,2.5,0,0,0,1.8-.766,24.336,24.336,0,0,1,4.715,5.859.459.459,0,0,1-.07.52A12.093,12.093,0,0,1,30.5,18.331ZM30,15.093l1.787,1.334a6.225,6.225,0,0,1-2.31.6l.526-1.932Zm-.263-2.665a12.672,12.672,0,0,0,2.148-.923l-.347,2.131Zm2.626-1.191a15.161,15.161,0,0,0,1.767-1.219l.039,1.946Zm1.946,2.24a5.68,5.68,0,0,1-1.121,1.9l-.162.168-.411-2.036Zm0,0" transform="translate(-24.642 0.849)" fill="#0f1213"/>
</svg>
