<svg width="49" height="49" viewBox="0 0 49 49" xmlns="http://www.w3.org/2000/svg">
    <path d="M12.748 34.953 5.57 15.229a2.128 2.128 0 0 1 1.255-2.71l.014-.006 11.482-4.177a2.114 2.114 0 0 1 2.71 1.24l.006.014.413 1.143-8.448 23.235c-.104.279-.192.61-.25.952l-.004.033zM43.43 15.769l-9.4 25.855a2.101 2.101 0 0 1-2.715 1.25l.014.006-13.07-4.765a2.132 2.132 0 0 1-1.265-2.73l-.004.015 9.4-25.839a2.117 2.117 0 0 1 2.715-1.266l-.014-.004 13.07 4.764a2.132 2.132 0 0 1 1.265 2.73l.004-.014v-.002zm-7.94 10.227-.825-1.938a1.065 1.065 0 0 0-1.388-.57l.007-.002-1.588.7a1.064 1.064 0 0 1-1.38-.565l-.002-.007-.682-1.588a1.05 1.05 0 0 0-1.389-.554l.007-.002-1.953.825a1.035 1.035 0 0 0-.553 1.388l-.002-.006 2.334 5.511a1.082 1.082 0 0 0 1.405.553l-.008.002 5.495-2.35a1.034 1.034 0 0 0 .473-1.403l.002.006h.048z" fill-rule="nonzero"/>
</svg>
