<svg width="49" height="49" viewBox="0 0 49 49" xmlns="http://www.w3.org/2000/svg">
    <path d="M24.446 8.175c-.159-.005-.347-.008-.536-.008-9.276 0-16.834 7.22-17.157 16.246l-.001.03c.012 4.024 1.576 7.688 4.134 10.448l-.011-.013a20.952 20.952 0 0 1-1.964 5.955l.056-.123a17.738 17.738 0 0 0 6.997-2.068l-.09.045c2.473 1.275 5.404 2.023 8.514 2.023h.062-.004c.166.005.362.008.558.008 9.272 0 16.825-7.222 17.136-16.247v-.029c-.323-9.055-7.88-16.274-17.157-16.274-.19 0-.376.003-.563.008h.028-.002zm-8.77 19.366c-1.816 0-3.29-1.445-3.29-3.228 0-1.783 1.474-3.227 3.29-3.227 1.815 0 3.288 1.445 3.288 3.227 0 1.782-1.473 3.228-3.288 3.228zm8.77 0c-1.815 0-3.289-1.445-3.289-3.228 0-1.783 1.474-3.227 3.29-3.227 1.815 0 3.288 1.445 3.288 3.227 0 1.782-1.472 3.228-3.289 3.228zm8.771 0c-1.816 0-3.289-1.445-3.289-3.228 0-1.783 1.472-3.227 3.29-3.227 1.815 0 3.288 1.445 3.288 3.227 0 1.782-1.472 3.228-3.289 3.228z" fill-rule="nonzero"/>
</svg>
