<?xml version="1.0" encoding="UTF-8"?>
<svg width="23px" height="23px" viewBox="0 0 23 23" version="1.1" xmlns="http://www.w3.org/2000/svg" xmlns:xlink="http://www.w3.org/1999/xlink">
   
    <g id="页面-1" stroke="none" stroke-width="1">
        <g id="下载1" transform="translate(-0.003906, 0.921094)" >
            <path d="M11.0039062,0 C17.0811959,0 22.0078125,4.92661664 22.0078125,11.0039062 C22.0078125,17.0811959 17.0811959,22.0078125 11.0039062,22.0078125 C4.92661664,22.0078125 0,17.0811959 0,11.0039062 C0,4.92661664 4.92661664,0 11.0039062,0 Z M17.6179687,12.6890625 C17.0882813,12.6890625 16.6570312,13.1179687 16.6570312,13.65 L16.6570312,14.475 C16.6054688,14.7234375 16.40625,14.915625 16.153125,14.9554687 L5.7328125,14.9554687 C5.484375,14.9015625 5.2921875,14.7 5.2546875,14.446875 L5.2546875,13.6523437 C5.2546875,13.1226562 4.82578125,12.6914062 4.29375,12.6914062 C3.76171875,12.6914062 3.3328125,13.1203125 3.3328125,13.6523437 L3.3328125,15.4007812 C3.38671875,16.1742187 3.98671875,16.7953125 4.75078125,16.8773437 L17.1351563,16.8773437 C17.8921875,16.809375 18.496875,16.209375 18.576572,15.4546875 L18.576572,13.6523437 C18.5789062,13.1179687 18.1476563,12.6890625 17.6179687,12.6890625 Z M10.9617188,3.646875 C10.4320313,3.646875 10.0007813,4.07578125 10.0007813,4.6078125 L10,10.082 L8.803125,8.88515625 C8.428125,8.51015625 7.82109375,8.51015625 7.44609375,8.88515625 C7.07109375,9.26015625 7.07109375,9.8671875 7.44609375,10.2421875 L10.2415527,13.039451 C10.417403,13.238411 10.6745373,13.3640625 10.9617188,13.3640625 C11.2361409,13.3640625 11.4841415,13.2489397 11.6594399,13.0639968 L14.465625,10.25625 C14.840625,9.88125 14.840625,9.27421875 14.465625,8.89921875 C14.090625,8.52421875 13.4835938,8.52421875 13.1085938,8.89921875 L11.922,10.085 L11.9226563,4.60546875 C11.9226563,4.07578125 11.49375,3.646875 10.9617188,3.646875 Z" id="形状结合"></path>
        </g>
    </g>
</svg>