<svg xmlns="http://www.w3.org/2000/svg" width="24" height="24" viewBox="0 0 24 24">
  <g id="组_3807" data-name="组 3807" transform="translate(127 -436)">
    <rect id="矩形_8428" data-name="矩形 8428" width="24" height="24" transform="translate(-127 436)" fill="none"/>
    <path id="路径_2378" data-name="路径 2378" d="M-115,436a12,12,0,0,0-12,12,12,12,0,0,0,12,12,12,12,0,0,0,12-12A12,12,0,0,0-115,436Zm-6,8h9.586l-2.293-2.293a1,1,0,0,1,0-1.414,1,1,0,0,1,1.414,0l4,4a1,1,0,0,1,.216.325,1,1,0,0,1,0,.764,1,1,0,0,1-.541.541A1.01,1.01,0,0,1-109,446h-12a1,1,0,0,1-1-1A1,1,0,0,1-121,444Zm12,8h-9.586l2.293,2.293a1,1,0,0,1,0,1.414A1,1,0,0,1-117,456a1,1,0,0,1-.707-.293l-4-4a1,1,0,0,1-.216-.325,1,1,0,0,1,0-.764,1,1,0,0,1,.541-.541A1.01,1.01,0,0,1-121,450h12a1,1,0,0,1,1,1A1,1,0,0,1-109,452Z" fill="currentColor"/>
  </g>
</svg>
