<?xml version="1.0" encoding="UTF-8"?>
<svg width="24px" height="24px" viewBox="0 0 24 24" version="1.1" xmlns="http://www.w3.org/2000/svg" xmlns:xlink="http://www.w3.org/1999/xlink">
    
    <g id="页面-1" stroke="none" stroke-width="1" >
        <g id="扑克-" >
            <path d="M10.5530992,1.57882812 C10.5732715,1.30544363 10.533207,1.272929 10.1795381,1.20519019 C10.1795381,1.14287049 10.1795381,1.08055079 10.1795381,1.01832452 C10.0077935,0.958153767 10.0510331,0.896020929 9.71258685,0.831458837 C9.57875861,1.08055079 9.36078574,1.32973617 9.14290627,1.57882812 C8.76934524,1.57882812 8.31173297,1.57882812 7.93817194,1.57882812 C7.93817194,1.54771498 7.93817194,1.51650841 7.93817194,1.48539528 C8.28250182,1.34244304 8.59367816,1.06046273 8.67595498,0.738025998 C8.73824628,0.738025998 8.8004442,0.738025998 8.77868426,0.738025998 C8.99796459,0.171542693 9.52263106,0.0607313455 10.1795381,0 C10.4234735,0.272263294 10.4802548,0.162760006 10.5530992,0.186865679 C10.6682494,0.333181505 10.6994417,0.395501209 10.6464894,0.373731357 C10.9543971,0.668138234 11.2511913,1.02617287 11.4870018,1.11175735 C11.4870018,1.08055079 11.4870018,1.04943765 11.4870018,1.01832452 C11.7267345,0.98721138 11.8823227,0.956004812 12.0380043,0.924891676 C12.0380043,0.893778541 12.0380043,0.862571972 12.0380043,0.831458837 C12.1002956,0.831458837 12.1624935,0.831458837 12.1407336,0.831458837 C12.1407336,0.800345702 12.1407336,0.769139133 12.1407336,0.738025998 C12.2870761,0.738025998 12.349274,0.738025998 12.4115653,0.738025998 C12.4115653,0.706912862 12.4115653,0.675799727 12.4115653,0.644593158 C12.4738566,0.644593158 12.5360545,0.644593158 12.5142946,0.644593158 C12.5142946,0.613480023 12.5142946,0.582366887 12.5142946,0.551160319 C12.6076848,0.551160319 12.7851263,0.551160319 12.8785166,0.551160319 C12.8785166,0.520047184 12.8785166,0.488934048 12.8785166,0.373731357 C12.9408079,0.373731357 13.0030058,0.373731357 12.9812459,0.373731357 C12.9812459,0.426614344 12.9812459,0.395501209 12.9812459,0.280298518 C13.1680264,0.302068369 13.4388581,0.239748666 13.5415874,0.0934328393 C13.5415874,0.146409259 13.5415874,0.115202691 13.5415874,0 C13.8217582,0 14.1859802,0 14.3820998,0 C14.92395,0.258995831 15.2888258,1.11988601 15.4093926,1.57882812 C13.8748039,1.57882812 12.2557904,1.57882812 10.5530992,1.57882812 Z M18.3885418,2.69992876 C18.4459768,2.91435712 18.4706319,2.92463474 18.5753223,3.07356668 C18.6064213,3.07356668 18.6376136,3.07356668 18.5846614,3.07356668 C18.5846614,3.16699952 18.5846614,3.26043236 18.5846614,3.3538652 C18.6998116,3.3538652 18.7310039,3.3538652 18.6780516,3.3538652 C18.6780516,5.47114677 18.6780516,7.58917581 18.6780516,9.70645738 C18.6780516,13.1316118 18.6780516,16.5577006 18.6780516,19.9828551 C18.6852427,20.1948542 18.4644681,20.3412634 18.3885418,20.6367915 C18.0934286,20.7130327 17.9461522,20.9341882 17.6507588,21.0105229 C16.6453193,21.0105229 15.5555483,21.0105229 14.3820998,21.0105229 C11.7581137,21.0105229 9.04923584,21.0105229 6.34119853,21.0105229 C6.34119853,20.9793163 6.34119853,20.9482032 6.34119853,20.91709 C6.24780827,20.91709 6.07036678,20.91709 5.97697652,20.91709 C5.97697652,20.8859769 5.97697652,20.8547703 5.97697652,20.8236572 C5.91216368,20.7190124 5.90189075,20.6942527 5.60341549,20.6367915 C5.63003171,20.4223632 5.60537668,20.4119921 5.41663497,20.2631536 C5.46958725,20.2631536 5.4383949,20.2631536 5.40729595,20.2631536 C5.40729595,20.1697208 5.40729595,20.0762879 5.40729595,19.9828551 C5.37619699,19.9828551 5.34500464,19.9828551 5.31390569,19.9828551 C5.31390569,17.8654801 5.31390569,15.7475445 5.31390569,13.6301695 C5.31390569,10.2051084 5.31390569,6.77892622 5.31390569,3.3538652 C5.34500464,3.3538652 5.37619699,3.3538652 5.40729595,3.3538652 C5.40729595,3.26043236 5.40729595,3.16699952 5.40729595,3.07356668 C5.4383949,3.07356668 5.46958725,3.07356668 5.41663497,3.07356668 C5.60528329,2.92463474 5.6301251,2.91445056 5.60341549,2.69992876 C5.90179736,2.64218726 5.91216368,2.61780129 5.97697652,2.51306308 C5.97697652,2.48194994 5.97697652,2.45074338 5.97697652,2.41963024 C6.07036678,2.41963024 6.24780827,2.41963024 6.34119853,2.41963024 C6.34119853,2.3885171 6.34119853,2.35731054 6.34119853,2.3261974 C8.17771795,2.3261974 10.0147043,2.3261974 11.8512238,2.3261974 C13.8122324,2.3261974 15.7738014,2.3261974 17.6507588,2.3261974 C17.6507588,2.35731054 17.6507588,2.3885171 17.6507588,2.41963024 C17.744149,2.41963024 17.9215905,2.41963024 18.0149808,2.41963024 C18.0149808,2.45074338 18.0149808,2.48194994 18.0149808,2.51306308 C18.1638449,2.61770786 18.1741178,2.64246756 18.3885418,2.69992876 Z M6.07036678,6.81041309 C6.2571473,6.81041309 6.52797904,6.81041309 6.71475956,6.81041309 C6.73100947,6.53833666 6.95281133,5.8191841 7.00426936,5.68940588 C7.29069728,5.50375483 8.02726625,5.58653633 8.31173297,5.59597304 C8.4811429,6.06210948 8.7121904,6.30353994 8.68529401,6.81041309 C8.87207452,6.81041309 9.14290627,6.81041309 9.24563556,6.81041309 C9.30774008,6.44705278 9.15289903,6.22365486 9.04951601,5.96961097 C9.04951601,5.87627156 9.04951601,5.78274529 9.04951601,5.68940588 C9.01841706,5.68940588 8.98722471,5.68940588 8.87207452,5.68940588 C8.87207452,5.62708618 8.87207452,5.56476648 8.87207452,5.50254021 C8.9250268,5.50254021 8.89383445,5.50254021 8.77868426,5.50254021 C8.83163654,5.31567453 8.8004442,5.12880885 8.68529401,4.9420366 C8.73824628,4.9420366 8.70705394,4.9420366 8.67595498,4.9420366 C8.64485603,4.75517092 8.61366368,4.56830525 8.58256472,4.38143957 C8.55146577,4.38143957 8.52027342,4.38143957 8.40512323,4.38143957 C8.40512323,4.3192133 8.40512323,4.25689359 8.40512323,4.19466732 C8.45807551,4.19466732 8.42688316,4.19466732 8.31173297,4.19466732 C8.31173297,4.10123448 8.31173297,4.00780164 8.31173297,3.9143688 C8.36468525,3.9143688 8.3334929,3.9143688 8.21834272,3.9143688 C8.20900369,3.63416372 8.0315622,3.35377177 7.93817194,3.07356668 C7.83544266,3.07356668 7.56461091,3.07356668 7.37783039,3.07356668 C7.30620006,3.44720461 7.1505185,3.8210294 6.9108791,4.19466732 C6.9108791,4.28800673 6.9108791,4.38143957 6.9108791,4.47487241 C6.96383138,4.47487241 6.93263903,4.47487241 6.81748884,4.47487241 C6.81748884,4.53719211 6.81748884,4.59941838 6.81748884,4.66173808 C6.87044112,4.66173808 6.83924877,4.66173808 6.80814982,4.66173808 C6.74585852,4.94194317 6.6836606,5.22233512 6.53731807,5.50254021 C6.59027035,5.50254021 6.559078,5.50254021 6.44392781,5.50254021 C6.44392781,5.56476648 6.44392781,5.62708618 6.44392781,5.68940588 C6.49688009,5.68940588 6.46568774,5.68940588 6.35053755,5.68940588 C6.35053755,5.78274529 6.35053755,5.87627156 6.35053755,5.96961097 C6.32961814,6.22982143 6.19691058,6.44611845 6.07036678,6.81041309 Z M7.64866214,3.82093596 C7.71095344,3.82093596 7.77315136,3.82093596 7.75139143,3.82093596 C7.87279876,4.34593509 8.11608038,4.81861182 8.21834272,5.22224169 C7.92883292,5.22224169 7.47122065,5.22224169 7.18171085,5.22224169 C7.33729902,4.75517092 7.49307397,4.28800673 7.64866214,3.82093596 Z M2.70831749,12.5091623 C3.23410464,12.6201605 3.78734853,13.4099483 4.0157811,13.7236023 C4.2554205,13.8481483 4.41110206,13.9727877 4.48273239,14.0973337 C4.48273239,14.4398584 4.48273239,14.7823832 4.48273239,15.124908 C4.20685757,15.0325964 4.13335943,14.7845322 3.91305182,14.5644044 C3.63288104,14.3153125 3.26865903,14.0661271 3.07253949,13.8170351 C2.94805028,13.661376 2.82346767,13.5056235 2.61492723,13.3499644 C2.42982774,13.1057309 2.15610089,13.1179706 2.04524665,12.6960279 C1.68522721,12.600633 1.61294315,12.3567733 1.30746361,12.1354309 C1.08024512,11.8552258 0.768881995,11.5749273 0.373561033,11.2946288 C0.318087219,11.1540124 0.237211256,10.9543464 0,10.827558 C0.0737783039,10.5376359 0.040157811,10.1352207 0.17744149,9.9867559 C0.266068845,9.65002394 0.53923535,9.476052 0.653731807,9.23938661 C0.768881995,9.23938661 0.800074341,9.23938661 0.747122065,9.23938661 C0.747122065,9.17716034 0.747122065,9.11484064 0.747122065,9.05252093 C0.8934646,9.0214078 0.955662512,8.99029466 0.933902581,8.9590881 C1.32922354,8.61665674 1.64058666,8.27403852 1.86780516,7.93151373 C1.77320083,7.77828387 1.36200352,6.89833339 1.21407336,6.62354741 C1.32922354,6.40566203 1.36041589,6.18758978 1.30746361,5.96961097 C1.61667876,5.8305829 1.54168638,5.69304976 1.58763439,5.59597304 C2.63659377,5.16001542 3.60187548,4.72396436 4.48273239,4.28810016 C4.48273239,7.40174953 4.48273239,10.5164267 4.48273239,13.6301695 C4.53568467,13.6301695 4.50449232,13.6301695 4.47339336,13.6301695 C4.47339336,13.5679432 4.47339336,13.5056235 4.47339336,13.4433972 C4.15278461,13.1503918 4.12850314,12.6343623 3.91305182,12.2288637 C3.34738702,11.1643834 2.80572353,10.0096469 2.2413662,8.86574869 C2.26312613,8.86574869 2.20092821,8.86574869 2.05458568,8.86574869 C1.91879624,9.25115915 1.60220327,9.58751737 1.21407336,9.89332306 C1.14244303,10.017869 0.986761467,10.1425084 0.747122065,10.2670544 C0.781956631,10.4466323 0.886833891,10.3941231 0.840512323,10.4538267 C0.840512323,10.5161464 0.840512323,10.5784661 0.840512323,10.6406923 C1.08015173,10.7652383 1.23583329,10.8898777 1.30746361,11.0144237 C1.70278458,11.3569485 2.0141477,11.6995667 2.2413662,12.0419981 C2.58289437,12.2293309 2.69234775,12.1483246 2.70831749,12.5091623 Z M11.944614,7.93151373 C11.7578335,8.27403852 11.4870018,8.61665674 11.3842725,8.9590881 C11.3219812,8.99029466 11.2597833,9.0214078 11.1134407,9.05252093 C11.1134407,9.11484064 11.1134407,9.17716034 11.1134407,9.23938661 C11.1041017,9.30170632 10.9266602,9.36393259 10.9173212,9.42625229 C10.9173212,9.48847856 10.9173212,9.55079827 10.9173212,9.61311797 C10.761733,9.73766395 10.6059581,9.86220992 10.4503699,9.9867559 C10.4503699,10.0490756 10.4503699,10.1113019 10.4503699,10.1736216 C10.2947817,10.2981675 10.1390068,10.4227135 9.98341859,10.5472595 C9.98341859,10.6095792 9.98341859,10.6718989 9.98341859,10.7341252 C9.82783042,10.8586712 9.67205547,10.9833106 9.5164673,11.1078565 C9.5164673,11.1700828 9.5164673,11.2324025 9.5164673,11.2946288 C9.42307705,11.3569485 9.24563556,11.4192682 9.1522453,11.4814945 C8.91232572,11.9481915 8.8694596,12.4446936 8.77868426,13.2565315 C9.17988881,13.5406608 9.19315023,13.963351 9.61919659,14.0973337 C9.8127012,14.2122561 10.4152551,14.401551 10.6464894,14.2841059 C10.6464894,14.2529928 10.6464894,14.2218796 10.6464894,14.1907665 C10.8550299,14.1595599 10.9796125,14.1284468 11.0200505,14.0973337 C11.0200505,14.0661271 11.0200505,14.035014 11.0200505,14.0039008 C11.166393,14.0039008 11.2285909,14.0039008 11.206831,14.0039008 C11.206831,13.9727877 11.206831,13.9415811 11.206831,13.910468 C11.4464704,13.785922 11.6022453,13.6612826 11.6737823,13.5367366 C11.6737823,13.7858286 11.6737823,14.035014 11.6737823,14.2841059 C11.7267345,14.2841059 11.6955422,14.2841059 11.580392,14.2841059 C11.6333443,14.4398584 11.6021519,14.595611 11.4870018,14.7512701 C11.5087617,14.7823832 11.4465638,14.8134964 11.3842725,14.8447029 C11.3842725,14.9069292 11.3842725,14.9692489 11.3842725,15.0314752 C11.2908822,15.0626818 11.1134407,15.0937949 11.0200505,15.124908 C11.0418104,15.2183409 10.9796125,15.3117737 10.9173212,15.4052065 C11.6643499,15.4052065 12.4116587,15.4052065 13.0746361,15.4052065 C13.0746361,15.3740934 13.0746361,15.3428868 13.0746361,15.3117737 C12.7913835,15.1513495 12.896074,15.1354659 12.6076848,14.8447029 C12.6606371,14.8447029 12.6294448,14.8447029 12.5142946,14.8447029 C12.4576067,14.6669002 12.4253871,14.6141107 12.4115653,14.2841059 C12.3804664,14.2841059 12.349274,14.2841059 12.318175,14.2841059 C12.318175,14.035014 12.318175,13.7858286 12.318175,13.5367366 C12.349274,13.5367366 12.3804664,13.5367366 12.4115653,13.5367366 C12.5905944,13.8630041 13.4001946,14.5077841 14.0085387,14.2841059 C14.0085387,14.2529928 14.0085387,14.2218796 14.0085387,14.1907665 C14.2481781,14.1595599 14.4039531,14.1284468 14.47549,14.0973337 C14.6863652,13.8697313 14.916759,13.7886316 14.9424413,13.6301695 C15.1345451,13.4742301 15.0249049,13.4161148 15.2132731,13.2565315 C15.2132731,12.9140068 15.2132731,12.5713885 15.2132731,12.2288637 C15.1821741,12.2288637 15.1509817,12.2288637 15.1198828,12.2288637 C15.0887838,12.0732046 15.0575915,11.9174521 14.9424413,11.761793 C14.9642012,11.7305864 14.9020033,11.6994733 14.839712,11.6683601 C14.839712,11.6060404 14.839712,11.5438142 14.839712,11.4814945 C14.7463218,11.4192682 14.5688803,11.3569485 14.47549,11.2946288 C14.47549,11.2324025 14.47549,11.1700828 14.47549,11.1078565 C14.4039531,10.9833106 14.2481781,10.8586712 14.0085387,10.7341252 C14.0085387,10.6718989 14.0085387,10.6095792 14.0085387,10.5472595 C13.9370018,10.4227135 13.7812268,10.2981675 13.5415874,10.1736216 C13.5415874,10.1113019 13.5415874,10.0490756 13.5415874,9.9867559 C13.4700505,9.86220992 13.3142755,9.73766395 13.0746361,9.61311797 C13.0746361,9.55079827 13.0746361,9.48847856 13.0746361,9.42625229 C13.0652971,9.36393259 12.8878556,9.30170632 12.8785166,9.23938661 C12.8785166,9.17716034 12.8785166,9.11484064 12.8785166,9.05252093 C12.8162253,9.0214078 12.7540274,8.99029466 12.6076848,8.9590881 C12.6076848,8.89686182 12.6076848,8.83454212 12.6076848,8.77231585 C12.6294448,8.74110928 12.5672469,8.70999615 12.5049556,8.67888301 C12.5049556,8.61656331 12.5049556,8.55433704 12.5049556,8.49201733 C12.4426643,8.4609042 12.3804664,8.42969763 12.318175,8.39858449 C12.318175,8.33635822 12.318175,8.27403852 12.318175,8.21171881 C12.2870761,8.21171881 12.2558837,8.21171881 12.1407336,8.21171881 C12.0644337,7.95879612 12.3135989,8.03793373 11.944614,7.93151373 Z M19.5092249,8.9590881 C19.869151,9.05149317 19.9426491,9.29955736 20.0789055,9.51968513 C20.3590763,9.76877708 20.7232983,10.0179625 20.9194178,10.2670544 C21.1279583,10.4227135 21.2525409,10.5784661 21.3770301,10.7341252 C21.6461808,10.9782652 21.9199077,10.9661189 21.9467107,11.3880616 C22.3907813,11.4834565 22.4630654,11.7273163 22.6844937,11.9485652 C22.9957634,12.2288637 23.3071266,12.5091623 23.6183963,12.7893673 C23.7579213,12.9300772 23.8387973,13.1296497 23.9919573,13.2565315 C24.0022302,13.5464536 24.0358507,13.9487754 23.8145158,14.0973337 C23.8162902,14.4183689 23.5394815,14.6315826 23.3382255,14.8447029 C23.2759342,14.8758161 23.2137363,14.9069292 23.151445,14.9381358 C23.151445,15.0003621 23.151445,15.0626818 23.151445,15.124908 C22.8090763,15.4363197 22.4665208,15.7478248 22.1241522,16.059143 C22.325128,16.507714 22.6593717,16.9579669 22.777884,17.4604487 C22.746785,17.6784275 22.7155927,17.8964998 22.6844937,18.1143852 C22.4593298,18.2535067 22.5343222,18.3910398 22.4043229,18.4881165 C21.4394148,18.9240741 20.4741331,19.3601252 19.5092249,19.7959894 C19.5092249,16.6822466 19.5092249,13.5675695 19.5092249,10.4538267 C19.5403239,10.4538267 19.5715162,10.4538267 19.518564,10.4538267 C19.518564,10.5161464 19.518564,10.5784661 19.518564,10.6406923 C19.9232239,10.9336977 19.9475054,11.4497273 20.0789055,11.8552258 C20.7286215,12.9197062 21.270285,14.0744426 21.7505911,15.2183409 C21.8128824,15.2183409 21.8750803,15.2183409 21.9373716,15.2183409 C22.1483402,14.8321829 22.476607,14.4931152 22.777884,14.1907665 C22.9783928,13.9894187 23.1542467,13.9612954 23.2448353,13.6301695 C23.2137363,13.6301695 23.1825439,13.6301695 23.151445,13.6301695 C23.151445,13.5679432 23.151445,13.5056235 23.151445,13.4433972 C23.0580547,13.3810775 22.8806132,13.3187578 22.8712742,13.2565315 C22.5600045,12.9140068 22.2486414,12.5713885 21.9373716,12.2288637 C21.6990397,12.00939 21.691942,12.2795043 21.4797594,11.8552258 C21.1032099,11.7384348 20.4079194,10.792801 19.9855152,10.4538267 C19.882786,10.2981675 19.6119542,10.142415 19.5092249,9.9867559 C19.5092249,9.64423111 19.5092249,9.30161288 19.5092249,8.9590881 Z M17.9215905,16.5263072 C17.73481,16.5263072 17.4639783,16.5263072 17.2771978,16.5263072 C17.3449991,16.7983836 17.1231972,17.5175362 16.987688,17.6473144 C16.7853113,17.832872 16.0487423,17.7500905 15.6802243,17.7407472 C15.5948656,17.2746108 15.3638181,17.0331803 15.3066633,16.5263072 C15.0887838,16.5263072 14.870811,16.5263072 14.6529315,16.5263072 C14.6529315,16.5574203 14.6529315,16.5885335 14.6529315,16.6196466 C14.6840305,16.6196466 14.7152228,16.6196466 14.7463218,16.6196466 C14.7774207,16.7753991 14.8086131,16.9310582 14.839712,17.0868108 C14.870811,17.0868108 14.9020033,17.0868108 14.849051,17.0868108 C14.849051,17.1802436 14.849051,17.2736765 14.849051,17.3670159 C14.9642012,17.3670159 14.9953936,17.3670159 14.9424413,17.3670159 C14.9424413,17.4604487 14.9424413,17.5538816 14.9424413,17.6473144 C15.0575915,17.6473144 15.0887838,17.6473144 15.1198828,17.6473144 C15.1198828,17.7096341 15.1198828,17.7718604 15.1198828,17.8341801 C15.1509817,17.8341801 15.1821741,17.8341801 15.2132731,17.8341801 C15.244372,18.0209523 15.2755644,18.2079114 15.3066633,18.3946837 C15.3377623,18.3946837 15.3689546,18.3946837 15.3160023,18.3946837 C15.4311525,18.5815494 15.4623449,18.768415 15.4093926,18.9551873 C15.5245428,18.9551873 15.5557351,18.9551873 15.5868341,18.9551873 C15.5868341,19.017507 15.5868341,19.0798267 15.5868341,19.142053 C15.617933,19.142053 15.6491254,19.142053 15.6802243,19.142053 C15.6802243,19.2354858 15.6802243,19.3289186 15.6802243,19.4223515 C15.7113233,19.4223515 15.7425156,19.4223515 15.7736146,19.4223515 C15.7829536,19.7025566 15.9603951,19.9828551 16.0537854,20.2631536 C16.1565147,20.2631536 16.4273464,20.2631536 16.6141269,20.2631536 C16.7698085,19.8895157 16.92549,19.5156909 17.0810782,19.142053 C17.0810782,19.0486201 17.0810782,18.9551873 17.0810782,18.8617544 C17.1121772,18.8617544 17.1433695,18.8617544 17.1744685,18.8617544 C17.1744685,18.7995282 17.1744685,18.7372085 17.1744685,18.6749822 C17.2055674,18.6749822 17.2367598,18.6749822 17.1838075,18.6749822 C17.33015,18.3946837 17.3923479,18.1143852 17.4546392,17.8341801 C17.4857382,17.8341801 17.5169305,17.8341801 17.5480295,17.8341801 C17.5480295,17.7718604 17.5480295,17.7096341 17.5480295,17.6473144 C17.5791285,17.6473144 17.6103208,17.6473144 17.6414198,17.6473144 C17.6414198,17.5538816 17.6414198,17.4604487 17.6414198,17.3670159 C17.7463904,17.1068988 17.879098,16.8905084 17.9215905,16.5263072 Z M16.3432952,19.5157843 C16.3650551,19.5157843 16.3028572,19.5157843 16.2405659,19.5157843 C16.2032098,18.9907852 15.9599282,18.5181085 15.7736146,18.1143852 C16.0631244,18.1143852 16.5207367,18.1143852 16.8102465,18.1143852 C16.8102465,18.1455917 16.8102465,18.1767049 16.8102465,18.207818 C16.7442196,18.3604873 16.4815128,19.2392231 16.3432952,19.5157843 Z M8.21834272,21.7578922 C10.5746723,21.7578922 12.8476044,21.7578922 15.1198828,21.7578922 C15.1198828,21.7890053 15.1198828,21.8201184 15.1198828,21.851325 C15.0575915,21.851325 14.9953936,21.851325 14.849051,21.851325 C14.7441738,22.0634175 14.7251222,21.920839 14.3820998,22.0380972 C14.3820998,22.0693038 14.3820998,22.1004169 14.3820998,22.1315301 C14.4038597,22.1315301 14.3416618,22.1315301 14.2793705,22.1315301 C14.0007873,22.2759772 13.8546316,22.4602268 13.4388581,22.5052614 C13.4388581,22.5674877 13.4388581,22.6298074 13.4388581,22.6920337 C13.7451782,22.8700232 13.8825553,23.1503218 14.2793705,23.2526307 C14.7462284,22.7544468 15.2132731,22.2560761 15.6802243,21.7578922 C15.9697341,21.7578922 16.4273464,21.7578922 16.7168562,21.7578922 C16.7168562,21.7890053 16.7168562,21.8201184 16.7168562,21.851325 C16.2717582,22.3495089 15.7424223,22.8477862 15.2132731,23.3460636 C15.2132731,23.4082898 15.2132731,23.4706095 15.2132731,23.5328358 C15.1821741,23.5328358 15.1509817,23.5328358 15.1198828,23.5328358 C15.0575915,23.6262686 14.9953936,23.7197015 14.849051,23.8131343 C14.870811,23.8131343 14.8086131,23.8131343 14.7463218,23.8131343 C14.7152228,23.875454 14.6840305,23.9376803 14.6529315,24 C14.3727607,24 14.0085387,24 13.8124192,24 C13.6525351,23.8117328 13.5957538,23.9213295 13.4388581,23.8131343 C13.4077592,23.7508146 13.3765668,23.6885883 13.3454679,23.6262686 C13.1216114,23.4159513 12.8248172,23.0579167 12.5049556,22.9723322 C12.5049556,23.0034453 12.5049556,23.0346519 12.5049556,23.065765 C12.4115653,23.065765 12.2341238,23.065765 12.1407336,23.065765 C12.1407336,23.0968782 12.1407336,23.1280847 12.1407336,23.1591979 C12.1624935,23.1591979 12.1002956,23.1591979 12.0380043,23.1591979 C12.0380043,23.190311 12.0380043,23.2214242 12.0380043,23.2526307 C11.975713,23.2526307 11.9135151,23.2526307 11.8512238,23.2526307 C11.8512238,23.2837439 11.8512238,23.314857 11.8512238,23.3460636 C11.7889325,23.3460636 11.7267345,23.3460636 11.580392,23.3460636 C11.580392,23.3771767 11.580392,23.4082898 11.580392,23.439403 C11.571053,23.439403 11.3936115,23.439403 11.3842725,23.439403 C11.3842725,23.4706095 11.3842725,23.5017227 11.3842725,23.5328358 C11.3219812,23.5328358 11.2597833,23.5328358 11.1134407,23.5328358 C11.1134407,23.5640424 11.1134407,23.5951555 11.1134407,23.6262686 C11.1352006,23.6262686 11.0730027,23.6262686 11.0107114,23.6262686 C11.0107114,23.6573818 11.0107114,23.6885883 11.0107114,23.7197015 C10.8239309,23.7820212 10.5530992,23.8442475 10.4503699,23.9065672 C10.4503699,23.9376803 10.4503699,23.9687934 10.4503699,24 C10.1701991,24 9.8059771,24 9.60985756,24 C9.60985756,23.9687934 9.60985756,23.9376803 9.60985756,23.9065672 C9.54756626,23.9065672 9.48536835,23.9065672 9.33902581,23.9065672 C9.39197809,23.8442475 9.36078574,23.7820212 9.24563556,23.7197015 C9.14047812,23.5403104 8.99198761,23.4005349 8.77868426,23.1591979 C8.77868426,23.0968782 8.77868426,23.0346519 8.77868426,22.9723322 C8.83163654,22.9723322 8.8004442,22.9723322 8.68529401,22.9723322 C8.68529401,22.9101059 8.68529401,22.8477862 8.68529401,22.7854665 C8.73824628,22.7854665 8.70705394,22.7854665 8.67595498,22.7854665 C8.67595498,22.7232403 8.67595498,22.6609205 8.67595498,22.5986943 C8.64485603,22.5986943 8.61366368,22.5986943 8.58256472,22.5986943 C8.58256472,22.5052614 8.58256472,22.4118286 8.58256472,22.3183958 C8.55146577,22.3183958 8.52027342,22.3183958 8.40512323,22.3183958 C8.42688316,22.1315301 8.36468525,21.9446644 8.21834272,21.7578922 Z" id="形状"></path>
        </g>
    </g>
</svg>