<?xml version="1.0" encoding="UTF-8"?>
<svg width="24px" height="24px" viewBox="0 0 24 24" version="1.1" xmlns="http://www.w3.org/2000/svg" xmlns:xlink="http://www.w3.org/1999/xlink">
   
    <g id="页面-1" stroke="none" stroke-width="1" >
        <g id="龙虎斗-">
            <rect id="矩形"  opacity="0" x="0" y="0" width="24" height="24"></rect>
            <g id="虎" transform="translate(0.000000, 1.000000)" >
                <path d="M11.9967024,20.9659598 C12.2934872,21.2462566 13.13108,21.9420521 14.3182193,22.0376828 C13.5960429,22.3047892 12.8145095,22.4531816 12.0065952,22.4531816 L11.9934048,22.4531816 C11.1854905,22.4531816 10.4039571,22.3047892 9.68178071,22.0376828 C10.8623248,21.9453498 11.6999176,21.2495542 11.9967024,20.9659598 Z M12.8705688,19.5150117 C12.9563067,19.5150117 13.0354493,19.5446902 13.0981039,19.6007496 C13.1508656,19.6469161 13.1904369,19.6930826 13.2201154,19.7359516 C13.2201154,19.7425468 13.223413,19.7458444 13.2300082,19.7524396 C13.2596867,19.8052014 13.2629843,19.8744512 13.2366035,19.9371057 C13.1574608,20.1217718 12.8837593,20.5603539 12.0098928,20.5999252 L11.9868096,20.5999252 C11.1162407,20.5603539 10.8392415,20.1217718 10.7600989,19.9371057 C10.7337181,19.8744512 10.7370157,19.8052014 10.7699918,19.7524396 C10.7963726,19.7062731 10.8425392,19.6535113 10.8985985,19.6007496 C10.9612531,19.5446902 11.0436933,19.5150117 11.1261336,19.5150117 L12.8705688,19.5150117 Z M21.6191261,15.0632393 C21.6158285,15.0731321 21.6158285,15.0830249 21.6158285,15.0929178 C21.6092333,15.099513 21.6059357,15.1061082 21.6026381,15.116001 C21.4742423,15.5043956 21.3166052,15.8825043 21.13108,16.247081 C20.7782358,16.2701643 20.4023083,16.2866523 20.0692498,16.1481527 C19.6867271,15.9898675 19.5152514,15.6304281 19.2877164,15.31056 C19.0898599,15.0368584 18.8491344,14.8027282 18.4863974,14.8357042 C18.1104699,14.8686803 17.721352,15.0896202 17.4113768,15.2874767 C17.2893652,15.3633217 17.4014839,15.5578807 17.5234955,15.478738 C17.8235779,15.2874767 18.3050289,14.9775014 18.6809563,15.0698345 C19.0370981,15.1555723 19.2217642,15.6403209 19.4229184,15.9074272 C19.8153339,16.4218543 20.4089035,16.5075921 21.012366,16.474616 C20.7122836,17.0385072 20.346249,17.5661247 19.9373454,18.0376828 C19.426216,18.0376828 19.485573,17.302316 19.1723001,17.0451024 C19.0305029,16.9263885 18.8557296,16.9197933 18.6809563,16.9461742 C18.4369332,16.9791502 18.1962077,17.0352096 17.9587799,17.0978642 C17.8202803,17.1308403 17.8796373,17.3451849 18.0181369,17.3122088 C18.2588623,17.2495542 18.506183,17.1803044 18.7535037,17.1572211 C19.0436933,17.1275427 19.1360264,17.3286968 19.2217642,17.5694223 C19.3206925,17.8464215 19.4756801,18.1498015 19.7592745,18.2355394 C19.1096455,18.9412277 18.3610882,19.5018213 17.5795548,19.8447727 C17.8961253,19.3633217 18.1401484,18.8390019 18.3050289,18.2784083 C18.3275973,18.2002095 18.2837049,18.118277 18.2061006,18.0937422 C18.1268863,18.0710544 18.0442607,18.1167936 18.0214345,18.1959681 C17.569662,19.732654 16.4616653,20.9824479 15.0272053,21.7211123 C13.7444353,21.9057784 12.7551525,21.2264709 12.3297609,20.8637339 C13.1343776,20.7318296 13.4212696,20.263569 13.510305,20.0525221 C13.5432811,19.9733794 13.5564716,19.8876416 13.5465787,19.8052014 C14.1467436,19.6930826 14.6084089,19.0071799 14.9183842,17.7606836 C15.1624073,16.7812937 15.2217642,15.8183918 15.2250618,15.7788205 C15.227865,15.7394224 15.2148104,15.7005375 15.188801,15.6708125 C15.1627917,15.6410875 15.1259837,15.6229867 15.0865622,15.6205352 C15.0056022,15.6162224 14.936357,15.6781012 14.9315746,15.7590348 C14.86892,16.7878889 14.4798021,19.4193811 13.4278648,19.5249046 C13.3915911,19.4754404 13.3487222,19.4292739 13.2959604,19.3831074 C13.1805441,19.2775839 13.0288541,19.2182269 12.8705688,19.2182269 L11.1261336,19.2182269 C10.9678483,19.2182269 10.8161583,19.2775839 10.700742,19.3831074 C10.6479802,19.4292739 10.6051113,19.4754404 10.5688376,19.5249046 C9.4641385,19.4127859 9.11129431,16.7878889 9.06842539,15.7623324 C9.06680143,15.7229319 9.04952723,15.685807 9.02043263,15.6591885 C8.99133802,15.63257 8.952827,15.6186574 8.91343776,15.6205352 C8.83099753,15.6238329 8.76834295,15.6930826 8.77164056,15.7755229 C8.77493817,15.8150942 8.81780709,16.7779961 9.05193735,17.757386 C9.35531739,19.0038823 9.82357791,19.6930826 10.4501237,19.8052014 C10.4402308,19.8876416 10.4534213,19.9733794 10.4863974,20.0525221 C10.5787304,20.263569 10.8656224,20.7318296 11.6669415,20.8637339 C11.2415499,21.2264709 10.2522671,21.9057784 8.97279472,21.7211123 C7.53833471,20.9824479 6.430338,19.732654 5.97526793,18.1959681 C5.96512085,18.1581398 5.94017675,18.125987 5.90605762,18.1067562 C5.87193848,18.0875254 5.83151554,18.082835 5.79389942,18.0937422 C5.7147568,18.1168254 5.66859027,18.1992657 5.69167354,18.2784083 C5.856554,18.8390019 6.10057708,19.3633217 6.42044518,19.8447727 C5.63891179,19.5018213 4.89035449,18.9412277 4.23742786,18.2355394 C4.52102226,18.1498015 4.67600989,17.8464215 4.77823578,17.5694223 C4.86397362,17.3286968 4.95300907,17.1275427 5.24649629,17.1572211 C5.49051937,17.1803044 5.74113768,17.2495542 5.97856554,17.3122088 C6.11706513,17.3451849 6.17642209,17.1308403 6.03792251,17.0978642 C5.80708986,17.0352096 5.569662,16.9824479 5.33223413,16.9461742 C5.15086562,16.9197933 4.96949711,16.9230909 4.82440231,17.0451024 C4.51442704,17.302316 4.5704864,18.0376828 4.06595218,18.0376828 C3.64589957,17.5586202 3.28419866,17.0343198 2.98433636,16.474616 C3.58779885,16.5075921 4.18136851,16.4218543 4.57378401,15.9074272 C4.77493817,15.6436185 4.94641385,15.1885484 5.2860676,15.0764297 C5.49051937,15.0071799 5.72135202,15.1028106 5.91261336,15.1819532 C6.1071723,15.2610958 6.29513603,15.3633217 6.47650453,15.478738 C6.59521847,15.5578807 6.70733718,15.3633217 6.58862325,15.2874767 C6.27535037,15.0896202 5.89942292,14.8785732 5.52679308,14.8390019 C5.16075845,14.7961329 4.91014015,15.0302632 4.71228359,15.31056 C4.49464138,15.6172376 4.32646331,15.9700818 3.96702391,16.1316647 C3.62737016,16.2899499 3.23165705,16.2734619 2.86562242,16.247081 C2.68095631,15.884344 2.52596867,15.5051189 2.39736191,15.116001 C2.39388288,15.1051151 2.38827868,15.0950275 2.38087387,15.0863225 C2.38087387,15.0797273 2.38087387,15.0698345 2.37757626,15.0632393 C2.36108821,15.0038823 2.34460016,14.9412277 2.31821929,14.8785732 C2.13355317,14.3542533 1.70156636,13.7936597 0.715581204,13.5925056 C1.31574608,13.2198757 1.67188788,12.4548304 1.68837593,12.4152591 L1.95218467,11.8381775 L1.46743611,12.2371882 C1.33882935,12.3031404 0.593569662,12.3855806 0,12.4218543 C1.1442704,11.9206177 2.13685078,10.677419 2.18301731,10.618062 L2.68425392,9.98492106 L1.99175598,10.4004198 C1.69497115,10.5751931 1.36191261,10.5488122 1.12778236,10.4960505 C2.02143446,9.87280235 2.81286068,8.27346187 2.85243199,8.19761686 C2.86232481,8.18112881 2.86562242,8.16464077 2.86562242,8.14485511 C2.87221764,8.13496228 2.87881286,8.12177185 2.88540808,8.10858141 C2.96125309,7.90742725 3.0370981,7.70957069 3.10964551,7.51501175 C3.5350371,6.38722939 3.92415499,5.35178009 4.43858203,4.45812799 C5.07831822,3.34683368 5.90931575,2.44988396 7.23825227,1.85961191 C8.38582028,1.35178009 9.90272053,1.06488809 11.9901072,1.06488809 L12.0065952,1.06488809 C14.0939819,1.06488809 15.6141797,1.34848248 16.7617477,1.85961191 C18.0906843,2.44988396 18.9183842,3.34683368 19.5581204,4.45812799 C20.0725474,5.35178009 20.4616653,6.38722939 20.8870569,7.51501175 C20.9629019,7.70957069 21.0354493,7.90742725 21.1112943,8.10858141 C21.1178895,8.12177185 21.1244847,8.13496228 21.13108,8.14485511 C21.1343776,8.16464077 21.1409728,8.18112881 21.147568,8.19761686 C21.1838417,8.27346187 21.9785655,9.87609996 22.8722176,10.4960505 C22.6380874,10.5521099 22.3050289,10.5784907 22.008244,10.4004198 L21.3124485,9.98492106 L21.8136851,10.618062 C21.8631492,10.677419 22.8557296,11.9206177 24,12.4218543 C23.4031327,12.3855806 22.657873,12.3031404 22.5325639,12.2371882 L22.0445177,11.8381775 L22.3083265,12.4152591 C22.3248145,12.4548304 22.6809563,13.2198757 23.2811212,13.5925056 C22.3215169,13.7903621 21.8829349,14.33117 21.6883759,14.8455971 C21.6619951,14.9181445 21.6389118,14.9906919 21.6191261,15.0632393 Z M19.1723001,10.7994305 C19.3569662,11.3600241 19.1195383,11.9404033 19.1953833,12.5108897 C19.2283594,12.7714009 19.3437758,12.9791502 19.4822754,13.1967925 C19.5713108,13.3319944 19.6570486,13.470494 19.6735367,13.6386721 C19.69662,13.8365286 19.637263,14.0343852 19.5845012,14.2256465 C19.5482275,14.3641461 19.7625721,14.4235031 19.7988458,14.2850035 C19.8845837,13.9717306 19.9571311,13.6452673 19.8186315,13.335292 C19.6933223,13.0582929 19.4789777,12.8472459 19.4229184,12.5372706 C19.3140973,11.9371057 19.5812036,11.3369408 19.3866447,10.7433712 C19.3404782,10.6081692 19.1261336,10.6642286 19.1723001,10.7994305 Z M4.61335532,10.7433712 C4.41549876,11.3369408 4.68590272,11.9371057 4.57708162,12.5372706 C4.52102226,12.8472459 4.30338005,13.0582929 4.18136851,13.335292 C4.04286892,13.6452673 4.11211871,13.9717306 4.19785655,14.2850035 C4.23742786,14.4235031 4.45177246,14.3641461 4.41220115,14.2256465 C4.36273702,14.044278 4.30997527,13.8596119 4.3231657,13.6716482 C4.33305853,13.4902797 4.41879637,13.3451849 4.51442704,13.1967925 C4.65622424,12.9791502 4.76834295,12.7714009 4.80461665,12.5108897 C4.87716406,11.9404033 4.6430338,11.3600241 4.82769992,10.7994305 C4.87056884,10.6642286 4.65622424,10.6081692 4.61335532,10.7433712 Z M5.62572135,7.54139262 L6.60511129,8.1778312 C6.61170651,8.18442642 7.25474031,8.59992518 7.70651278,9.05169765 C7.98351195,9.32869683 8.1088211,9.71781472 8.0362737,10.0970398 C8.03297609,10.1135278 8.02967848,10.1300159 8.02638087,10.1432063 C7.98351195,10.3443605 8.13520198,10.5751931 8.34954658,10.6444429 C8.37592745,10.6510381 8.42209398,10.660931 8.47485573,10.660931 C8.62654575,10.660931 8.86397362,10.5817883 9.03215169,10.1563967 C9.03874691,10.1399087 9.14756801,9.82993343 8.94641385,9.41113706 C8.65622424,8.81426979 7.91096455,8.30973557 6.73371805,7.91402246 L5.62572135,7.54139262 Z M18.370981,7.54469023 L17.2629843,7.91402246 C16.0857378,8.30973557 15.3404782,8.81426979 15.0535862,9.41113706 C14.852432,9.82993343 14.9579555,10.1399087 14.9645507,10.1530991 C15.1360264,10.5817883 15.3701566,10.660931 15.5218467,10.660931 C15.577906,10.660931 15.6207749,10.6510381 15.6471558,10.6444429 C15.864798,10.5751931 16.016488,10.3443605 15.9703215,10.1432063 C15.9670239,10.1300159 15.9637263,10.1135278 15.9604287,10.0970398 C15.8911789,9.71781472 16.0131904,9.32869683 16.2934872,9.05169765 C16.7452597,8.60322279 17.3849959,8.18442642 17.3915911,8.1778312 L18.370981,7.54469023 Z M16.2769992,8.65928215 C16.211047,8.71863912 16.1450948,8.77799608 16.0824402,8.84065066 C15.736956,9.18335434 15.5827314,9.67440554 15.6702391,10.1530991 C15.6735367,10.1728848 15.6768343,10.1893728 15.6834295,10.2091585 C15.6900247,10.2454322 15.6438582,10.3344676 15.5581204,10.3608485 C15.4525969,10.3938246 15.3338829,10.2784083 15.2415499,10.0508732 C15.2349547,10.0343852 15.1788953,9.82993343 15.3206925,9.53974382 C15.4361088,9.29901834 15.6999176,8.97915025 16.2769992,8.65928215 Z M7.72300082,8.65928215 C8.24402308,8.95276937 8.50453421,9.23636377 8.63314097,9.45400598 C8.82769992,9.78706451 8.76504534,10.0244924 8.75515251,10.0508732 C8.66281946,10.2784083 8.54410552,10.3938246 8.43858203,10.3608485 C8.3561418,10.3344676 8.30667766,10.2454322 8.31657049,10.2091585 L8.32646331,10.1530991 C8.41879637,9.6782434 8.26380874,9.18689963 7.91426216,8.84065066 C7.85160758,8.77799608 7.78895301,8.71863912 7.72300082,8.65928215 Z M11.3371805,6.56530029 C10.7238252,6.73677597 10.3314097,7.07313211 10.3149217,7.08632255 C10.2522671,7.13908429 10.2456719,7.23141735 10.3017312,7.29407193 C10.354493,7.3567265 10.4468261,7.36332172 10.5094806,7.31055997 C10.5127782,7.30726237 10.8755153,6.9972871 11.4295136,6.84889468 C12.1582852,6.64774052 12.8672712,6.80602576 13.5300907,7.31385758 C13.5564716,7.33694085 13.58615,7.34683368 13.6191261,7.34683368 C13.6829987,7.34683368 13.7397052,7.30596194 13.7599035,7.24536706 C13.7801018,7.18477219 13.7592597,7.11805089 13.7081616,7.07972733 C12.7815334,6.36744373 11.9076669,6.40701504 11.3371805,6.56530029 Z M11.9934048,1.40124423 C11.9109646,1.40124423 11.8450124,1.46719641 11.8450124,1.54633903 L11.8186315,3.42927391 C11.5746084,3.44246434 11.350371,3.47214283 11.1492168,3.51171414 C10.3017312,3.6765946 9.73124485,3.9964627 9.70816158,4.00965313 C9.63561418,4.05252205 9.61253092,4.1415575 9.65210223,4.2141049 C9.6784831,4.26027143 9.73124485,4.28665231 9.78070899,4.28665231 C9.80708986,4.28665231 9.83017312,4.28005709 9.85325639,4.26686665 C9.86644683,4.26027143 10.6941467,3.79860614 11.8153339,3.72935635 L11.7955482,5.14403071 C11.155812,5.20338767 10.7535037,5.75408842 10.7370157,5.78046929 C10.6875515,5.84642148 10.7040396,5.93875453 10.7699918,5.98492106 C10.7963726,6.00470672 10.8260511,6.01459955 10.8557296,6.01459955 C10.9018961,6.01459955 10.9480627,5.99151628 10.9777411,5.95194497 C10.9810387,5.94864736 11.3009068,5.50676772 11.7922506,5.44081554 L11.7823578,6.15969435 C11.7790602,6.24213458 11.8450124,6.30808677 11.9274526,6.31138438 C12.0098928,6.31138438 12.075845,6.24543219 12.0791426,6.16299196 L12.0890354,5.45400598 C12.3561418,5.50347011 12.6265458,5.6782434 12.8936521,5.96513541 C12.9497115,6.02778998 13.0420445,6.03108759 13.1046991,5.97502824 C13.1640561,5.91896888 13.1673537,5.82663582 13.1112943,5.76398124 C12.7815334,5.40783945 12.4418796,5.20338767 12.0923331,5.15062593 L12.1121187,3.71946352 C12.7419621,3.71946352 13.4476505,3.85796311 14.143446,4.26686665 C14.2126958,4.30973557 14.3017312,4.2833547 14.3446002,4.2141049 C14.3874691,4.14485511 14.3610882,4.05252205 14.2918384,4.01295074 C13.5333883,3.56777349 12.7716406,3.4259763 12.1154163,3.42267869 L12.1417972,1.54963664 C12.1417972,1.47049402 12.075845,1.40124423 11.9934048,1.40124423 Z M20.6859027,0.286652308 L20.725474,0.346009274 C21.1014015,0.939578936 21.0948063,2.15639674 20.6990932,3.00717993 C20.4748557,3.48533326 20.135202,3.89423681 19.7361913,4.17123598 C19.5746084,3.90412964 19.4031327,3.65021373 19.215169,3.40619064 C19.0107172,3.14567951 18.7864798,2.89835882 18.5391591,2.66752617 C18.1071723,2.26851546 17.6125309,1.93545692 17.0453421,1.66505297 C17.9785655,0.672472588 19.3899423,0.092093363 20.0791426,0.00635552298 C20.3231657,-0.0266205694 20.5276175,0.0690100984 20.6859027,0.286652308 Z M4.70898599,3.13578669 C3.93404782,2.30478916 3.59769167,0.468020816 3.59439406,0.44823516 C3.57826958,0.369115324 3.50265037,0.31676356 3.42291838,0.329521228 C3.38554548,0.336116446 3.35403499,0.354436498 3.3322952,0.380573104 L3.30750206,0.425151896 C3.30090684,0.44823516 3.29760923,0.474616034 3.30090684,0.500996908 C3.31739489,0.58013953 3.65704864,2.44328875 4.49134378,3.33694085 C4.52102226,3.36991694 4.56059357,3.38640499 4.60016488,3.38640499 C4.63643858,3.38640499 4.67271228,3.37321455 4.70239077,3.34683368 C4.76174773,3.29077432 4.76504534,3.19514365 4.70898599,3.13578669 Z M20.5145609,0.331121796 C20.4583774,0.345345474 20.4157428,0.391172509 20.4056059,0.44823516 C20.4023083,0.468020816 20.0659522,2.30478916 19.2877164,3.13578669 C19.2428689,3.18327226 19.2360099,3.253973 19.2671393,3.30905626 L19.2976092,3.34683368 C19.3239901,3.37321455 19.3602638,3.38640499 19.3965375,3.38640499 C19.4361088,3.38640499 19.4756801,3.36991694 19.5053586,3.33694085 C20.3396538,2.44328875 20.6826051,0.58013953 20.6957955,0.500996908 C20.7013943,0.459089328 20.6907783,0.416625561 20.6661171,0.382282976 C20.6300491,0.336917739 20.5707445,0.316898119 20.5145609,0.331121796 Z M3.07486198,10.2478357 L3.21457293,10.5676365 C3.28165957,10.7286329 3.33576728,10.8931769 3.33718054,11.0698345 C3.33718054,11.6798922 2.97774114,12.2042121 2.72382523,12.7318296 C2.47650453,13.2462566 2.33470734,13.8068502 2.34130256,14.3806342 C2.34350096,14.4795624 2.35302739,14.5858187 2.37379011,14.6906094 L2.41384996,14.8455971 C2.49299258,15.1028106 2.65127782,15.3237504 2.93157461,15.3699169 C3.07337181,15.3962978 3.13272877,15.1819532 2.99093157,15.1555723 C2.43693322,15.0599417 2.54575433,14.1530991 2.61500412,13.7705765 C2.72712284,13.1275427 3.0700742,12.6065204 3.32728772,12.019546 C3.56141797,11.4919285 3.6438582,10.947823 3.39983512,10.407015 C3.2844188,10.1498015 3.11294312,9.87939757 3.19868096,9.58261274 C3.27122836,9.32210161 3.50535862,9.11435223 3.77576257,9.08467374 C3.91426216,9.0681857 3.91755977,8.84394827 3.77576257,8.86043631 C3.37015664,8.90660284 3.03050289,9.2132805 2.9645507,9.62218405 C2.94806265,9.72440993 2.95136026,9.82663582 2.97114592,9.92226649 C2.99187375,10.033443 3.03036829,10.1411201 3.07486198,10.2478357 Z M21.645507,14.5521099 C21.704864,14.0145995 21.5762572,13.4309227 21.3652102,12.9362813 C21.1442704,12.4119615 20.7947238,11.9338081 20.6892003,11.3666193 C20.6298434,11.0368584 20.6826051,10.7400736 20.8276999,10.4399911 C20.9002473,10.2817059 20.9826876,10.120123 21.0222589,9.94864736 C21.0354493,9.892588 21.0420445,9.83323104 21.0453421,9.77387407 C21.0618302,9.30561356 20.6760099,8.91319806 20.2242374,8.86043631 C20.0824402,8.84394827 20.0824402,9.0681857 20.2242374,9.08467374 C20.4946414,9.11435223 20.7221764,9.32210161 20.7980214,9.58261274 C20.8870569,9.87609996 20.7122836,10.1498015 20.5968673,10.407015 C20.3528442,10.947823 20.438582,11.4919285 20.6694147,12.019546 C20.9266282,12.6065204 21.2728772,13.1275427 21.3849959,13.7705765 C21.4509481,14.1530991 21.5630668,15.0599417 21.0057708,15.1555723 C20.8639736,15.1819532 20.9266282,15.3962978 21.0651278,15.3699169 C21.3553174,15.3204528 21.5169002,15.0830249 21.5927453,14.8192162 C21.6191261,14.7301807 21.6356142,14.6411453 21.645507,14.5521099 Z M4.26380874,4.16793838 C3.86150041,3.89423681 3.52184666,3.48533326 3.30090684,3.00717993 C2.91508656,2.1761824 2.89530091,0.998935902 3.24814509,0.388878194 C3.26463314,0.352604492 3.28771641,0.3196284 3.31079967,0.286652308 C3.46908491,0.0690100984 3.67353669,-0.0266205694 3.92085738,0.00635552298 C4.6067601,0.092093363 6.01813685,0.672472588 6.95465787,1.66505297 C6.38417148,1.93545692 5.88953009,2.26851546 5.45754328,2.66752617 C5.21022259,2.89835882 4.98598516,3.14567951 4.784831,3.40619064 C4.59356966,3.64691612 4.42209398,3.90083203 4.26380874,4.16793838 Z" id="形状结合"></path>
            </g>
        </g>
    </g>
</svg>