<?xml version="1.0" encoding="UTF-8"?>
<svg width="24px" height="24px" viewBox="0 0 24 24" version="1.1" xmlns="http://www.w3.org/2000/svg" xmlns:xlink="http://www.w3.org/1999/xlink">
    
    <g id="页面-1" stroke="none" stroke-width="1" >
        <g id="轮盘-">
            <rect id="矩形"  opacity="0" x="0" y="0" width="24" height="24"></rect>
            <g id="编组" transform="translate(0.960000, 2.880000)" >
                <path d="M23.0396857,8.71915245 L23.0395547,8.85122465 C23.0191804,10.5166358 22.2656181,15.7615228 13.8662628,18.0586434 C3.72284939,20.5032089 0.776138893,14.332428 0.490212766,13.5724703 C0.490212766,13.5724703 4.34031651,18.9844898 12.926109,17.061716 C20.76564,15.4096454 23.0369094,9.87194271 23.0218049,8.40467702 L23.0190825,8.33361702 C23.0190825,8.33361702 23.0370749,8.47263337 23.0396857,8.71915245 Z M22.4103326,5.85553461 C23.3808831,10.2485926 19.1821537,14.9193575 13.0322313,16.2879288 C6.88230885,17.6565494 1.11000509,15.2047838 0.13945461,10.8117258 C-0.831095866,6.41866775 3.36763356,1.74790292 9.51755597,0.379282382 C15.6675274,-0.989288984 21.4398311,1.46247658 22.4103326,5.85553461 Z M9.65046715,1.05555351 C9.60152401,1.06644252 9.5528775,1.0778608 9.50425728,1.0893471 L9.606,1.337 L9.63841967,1.33216495 C9.70855397,1.3186807 9.76573342,1.30551793 9.82317578,1.29279356 C14.9035707,0.165700179 19.6719926,2.18478196 20.4737373,5.80259734 C21.275482,9.42041272 17.8070056,13.2669216 12.7266107,14.394015 C7.64621575,15.5211083 2.87779391,13.5020266 2.07604917,9.88421117 C1.36490321,6.67526914 4.01344531,3.28651958 8.16643216,1.77499918 L8.06961022,1.57480905 L8.227,1.452 L8.20636501,1.45945504 C3.66176151,2.9989504 0.727390387,6.66361419 1.49320865,10.1298985 C2.33741267,13.9510713 7.3582514,16.0836806 12.7076203,14.8932487 C18.0569402,13.7027676 21.7090828,9.64007646 20.8648788,5.81890366 C20.0206748,1.99773087 14.9998361,-0.134878384 9.65046715,1.05555351 Z M13.7691892,2.04163371 L13.7794272,2.08023228 C13.8307675,2.29825105 13.8541993,2.59544282 13.7425654,2.91213476 L14.3394589,3.06074305 L12.0702768,5.28961923 C12.0702768,5.28961923 12.4119861,5.69872618 12.1689369,6.08213059 L17.0032813,4.54667704 C17.0032813,4.54667704 18.078035,5.44869708 18.1378723,6.97368106 L11.083676,6.67651411 C11.083676,6.67651411 11.0588629,7.02320062 10.7334326,7.02320062 C10.4080023,7.02320062 10.2747125,6.70673196 10.1908021,6.23073887 L10.0970751,6.1811697 L9.85042483,6.42886671 L5.41072081,5.43822751 C5.41072081,5.43822751 5.4246932,5.42760565 5.45068646,5.4079568 L5.64221045,5.26398771 C6.19002675,4.85414583 7.55853657,3.84552835 8.07454322,3.60555739 L8.36559049,3.90277396 L9.05621111,3.50651828 L8.7109008,2.91213476 L8.57106211,2.62262744 C5.23963796,3.89378798 3.1378449,6.68421049 3.72646524,9.34031821 C4.00817266,10.6113746 4.86137892,11.6495946 6.06411927,12.3588551 C6.0438107,12.7368873 6.37771903,13.1541777 6.8934186,13.353181 C7.40566768,13.550902 7.92940195,13.4683415 8.17034436,13.1792812 C9.4782259,13.4788465 10.9640539,13.4923107 12.4825136,13.1554107 C16.646657,12.231562 19.4778782,9.02566124 18.8062167,5.99484387 C18.3431114,3.90528799 16.335848,2.44472932 13.7691892,2.04163371 Z M7.37375986,11.2748936 C7.90387526,11.2748936 8.33361702,11.7457721 8.33361702,12.2758875 C8.33361702,12.8060029 7.90387526,13.2357447 7.37375986,13.2357447 C6.84364446,13.2357447 6.37276596,12.8060029 6.37276596,12.2758875 C6.37276596,11.7457721 6.84364446,11.2748936 7.37375986,11.2748936 Z M10.3881223,7.32041719 L10.6397055,7.36993674 L10.6347725,13.214584 C10.6347725,13.214584 9.48474121,13.3038978 8.41492053,13.1155449 C8.42769701,13.0932164 8.96608512,12.0514699 8.17320331,11.2828748 L10.3881223,7.32041719 Z M11.4240533,7.02320062 L17.0032813,10.0941573 C17.0032813,10.0941573 15.6317088,11.8319067 14.0434786,12.3725531 L11.083676,7.27084801 L11.4240533,7.02320062 Z M7.05837822,11.594846 C7.05837822,11.594846 6.70131135,11.9037372 6.64244011,12.0976283 C6.64244011,12.0976283 6.58448302,12.3719646 6.73842583,12.3673025 C6.73842583,12.3673025 6.9055781,12.4052854 6.9623925,12.23018 C7.01938973,12.1123461 7.05979515,12.0376601 7.05837822,11.9605059 C7.05837822,11.9605059 7.14211433,11.9233457 7.37375986,11.7776759 C7.37375986,11.7776759 7.47280798,11.7726024 7.37833061,11.594846 C7.37833061,11.594846 7.31694545,11.4908158 7.05837822,11.594846 Z M9.84549183,6.87464195 L9.94908492,7.12228935 L4.517847,10.8370995 C4.517847,10.8370995 3.70982087,9.49193404 3.97521651,8.26148721 L9.84549183,6.87464195 Z M10.9307528,4.25526587 L10.3881223,4.25526587 L10.0970751,4.55297863 L10.7383656,5.55031637 L10.9800829,5.74382966 C10.893114,6.03459579 10.9800829,6.14078 10.9800829,6.14078 C11.2295449,6.52979134 11.7200335,6.24497947 11.7200335,6.24497947 C11.9913488,6.15889086 11.8729567,5.74382966 11.8729567,5.74382966 C11.8323087,5.40126151 11.4289863,5.50069757 11.4289863,5.50069757 L11.4240533,5.19802294 L10.9307528,4.25526587 Z M9.84549183,4.7514538 L9.30286134,4.94992897 L10.0921421,5.94230483 L9.84549183,4.7514538 Z M12.6129073,2.22089536 C12.6129073,2.22089536 12.5230773,2.34841565 12.5093142,2.4739512 L10.4867824,3.3125088 L10.1908021,3.66480223 L9.50511452,3.75907794 L7.62563982,4.55794051 C7.62563982,4.55794051 7.20159875,4.55615423 6.93501919,4.7514538 C6.93501919,4.7514538 6.67781234,4.99910119 6.8363591,5.25260361 C6.8363591,5.25260361 7.03289,5.68051608 7.47764968,5.4461169 C7.47764968,5.4461169 7.71571648,5.38404379 7.82296,5.10374723 L9.84549183,4.25526587 L10.1908021,3.85831553 L10.7334326,3.85831553 L12.6622374,2.92052034 C12.6622374,2.92052034 13.0217547,3.02978092 13.298595,2.91555846 C13.5754352,2.801336 13.5328633,2.35729742 13.397255,2.22089536 C13.2616468,2.08449329 12.9536793,2.05715334 12.6129073,2.22089536 Z M8.61224071,1.28310017 C8.4124032,1.41495711 8.3641411,1.57699238 8.36529592,1.70504001 C8.45891945,1.67211618 8.55214576,1.64108464 8.6460676,1.61100152 C8.67662904,1.66170173 8.76515861,1.73252421 9.02399425,1.66752141 L9.02399425,1.8647985 L9.31703898,2.36997583 C9.2002186,2.40470845 9.08464785,2.44126489 8.97038093,2.4795838 C9.0061117,2.54619977 9.04784744,2.6237387 9.09103956,2.70482445 L9.2131215,2.93664839 C9.33175868,3.16512084 9.42909692,3.36439253 9.40645443,3.36214654 C9.44241603,3.356868 9.94415192,3.36214654 9.94415192,3.36214654 L10.1908021,3.11403363 L9.50018152,1.97776327 L9.30286134,1.9231826 C9.40453056,1.62274081 9.30286134,1.47661346 9.30286134,1.47661346 C9.11614712,1.13022467 8.61224071,1.28310017 8.61224071,1.28310017 Z M9.762,1.716 L9.94908492,2.16919257 L10.4867824,2.91213476 L11.6263064,2.41683997 C11.6263064,2.41683997 11.7319307,2.08160558 11.9177397,1.9366703 C11.3089445,1.96009324 10.6824123,2.03949813 10.0501684,2.17975139 L9.762,1.716 Z" id="形状结合"></path>
            </g>
        </g>
    </g>
</svg>