<?xml version="1.0" encoding="UTF-8"?>
<svg width="24px" height="24px" viewBox="0 0 24 24" version="1.1" xmlns="http://www.w3.org/2000/svg" xmlns:xlink="http://www.w3.org/1999/xlink">
    
    <g id="页面-1" stroke="none" stroke-width="1" >
        <g id="iPhone-SE-gen-2" transform="translate(-332.000000, -235.000000)">
            <g id="收藏-1" transform="translate(332.000000, 235.000000)">
                <rect id="矩形"  opacity="0" x="0" y="0" width="24" height="24"></rect>
                <path d="M22.2480828,4.3377716 C22.0011824,4.008571 21.7542819,3.76167055 21.5073815,3.51477009 C18.6268762,0.551964684 15.5817706,0.798865135 12.7012654,3.10326934 C12.4543649,3.26786964 12.2074645,3.51477009 11.960564,3.76167055 C11.7136636,3.51477009 11.4667631,3.35016979 11.2198627,3.10326934 C8.33935742,0.881165285 5.29425186,0.551964684 2.4137466,3.51477009 C2.16684615,3.76167055 1.9199457,4.008571 1.7553454,4.3377716 C-1.70126092,9.35808077 0.191642542,14.2960898 5.29425186,18.7402979 C6.44645396,19.7278997 7.59865607,20.6332014 8.83315832,21.3739027 C9.24465907,21.6208032 9.65615983,21.8677036 9.98536043,22.1146041 C10.2322609,22.2792044 10.314561,22.3615045 10.4791613,22.3615045 C10.5614615,22.4438047 10.6437616,22.4438047 10.8083619,22.5261048 C10.8906621,22.608405 11.0552624,22.608405 11.2198627,22.6907051 C11.8782639,22.8553054 12.8658657,22.7730053 13.5242669,22.3615045 C13.606567,22.3615045 13.7711673,22.2792044 13.9357676,22.1146041 C14.2649682,21.9500038 14.676469,21.7031033 15.0879697,21.3739027 C16.322472,20.6332014 17.4746741,19.7278997 18.6268762,18.7402979 C23.8117857,14.2137896 25.7046891,9.27578062 22.2480828,4.3377716 Z M16.9758705,16.8643776 C16.0590732,17.6401291 15.0717531,18.4158807 14.084433,19.0505864 C13.7318186,19.262155 13.4497272,19.4737236 13.0971129,19.6147694 C12.9560671,19.6852922 12.8150214,19.7558151 12.7444985,19.826338 C12.6034528,19.8968608 12.3918842,19.9673837 12.1803156,20.0379066 C12.1097927,20.0379066 12.0392699,20.0379066 11.968747,20.0379066 C11.8277013,20.0379066 11.6866555,20.0379066 11.6161327,20.0379066 C11.5456098,20.0379066 11.5456098,20.0379066 11.5456098,20.0379066 C11.5456098,20.0379066 11.5456098,20.0379066 11.5456098,20.0379066 C11.5456098,20.0379066 11.5456098,20.0379066 11.5456098,20.0379066 C11.5456098,20.0379066 11.4750869,20.0379066 11.4750869,19.9673837 C11.4045641,19.9673837 11.3340412,19.8968608 11.2635183,19.8968608 C11.1929955,19.826338 11.0519498,19.7558151 10.910904,19.6852922 C10.6288126,19.5442465 10.2761982,19.3326779 9.9235839,19.1211093 C8.93626378,18.4864035 7.94894366,17.7811749 7.03214641,16.9349005 C3.08286593,13.4087572 1.67240861,9.81209104 4.14070891,6.14490202 C4.28175464,5.93333342 4.49332324,5.79228769 4.63436897,5.58071909 C6.60900921,3.46503312 8.65417232,3.67660172 10.6993354,5.29862763 C10.910904,5.43967336 11.0519498,5.58071909 11.1929955,5.72176483 C11.1929955,5.72176483 11.1929955,5.72176483 11.1929955,5.72176483 L11.8277013,6.42699348 C11.8982241,6.49751635 11.8982241,6.49751635 11.968747,6.56803921 C11.968747,6.56803921 11.968747,6.56803921 11.968747,6.56803921 L11.968747,6.56803921 C12.0392699,6.49751635 12.1803156,6.35647062 12.3213613,6.21542489 C12.6034528,5.93333342 12.8855443,5.65124196 13.2381586,5.3691505 C15.2833217,3.74712459 17.3284848,3.53555599 19.303125,5.65124196 C19.4441708,5.86281056 19.6557394,6.00385629 19.7967851,6.21542489 C22.4061311,9.67104531 20.9956738,13.3382343 16.9758705,16.8643776 Z" id="形状"  fill-rule="nonzero"></path>
            </g>
        </g>
    </g>
</svg>