<?xml version="1.0" encoding="UTF-8"?>
<svg width="24px" height="24px" viewBox="0 0 24 24" version="1.1" xmlns="http://www.w3.org/2000/svg" xmlns:xlink="http://www.w3.org/1999/xlink">
   
    <g id="页面-1" stroke="none" stroke-width="1" >
        <path d="M2,0 L8.8,0 C9.9045695,-2.02906125e-16 10.8,0.8954305 10.8,2 L10.8,8.8 C10.8,9.9045695 9.9045695,10.8 8.8,10.8 L2,10.8 C0.8954305,10.8 1.3527075e-16,9.9045695 0,8.8 L0,2 C-1.3527075e-16,0.8954305 0.8954305,2.02906125e-16 2,0 Z M15.2,0 L22,0 C23.1045695,-2.02906125e-16 24,0.8954305 24,2 L24,8.8 C24,9.9045695 23.1045695,10.8 22,10.8 L15.2,10.8 C14.0954305,10.8 13.2,9.9045695 13.2,8.8 L13.2,2 C13.2,0.8954305 14.0954305,2.02906125e-16 15.2,0 Z M14.2,13.2 L23,13.2 C23.5522847,13.2 24,13.6477153 24,14.2 L24,14.6 C24,15.1522847 23.5522847,15.6 23,15.6 L14.2,15.6 C13.6477153,15.6 13.2,15.1522847 13.2,14.6 L13.2,14.2 C13.2,13.6477153 13.6477153,13.2 14.2,13.2 Z M14.2,21.6 L23,21.6 C23.5522847,21.6 24,22.0477153 24,22.6 L24,23 C24,23.5522847 23.5522847,24 23,24 L14.2,24 C13.6477153,24 13.2,23.5522847 13.2,23 L13.2,22.6 C13.2,22.0477153 13.6477153,21.6 14.2,21.6 Z M17.8,18 L23,18 C23.5522847,18 24,18.4477153 24,19 L24,19.4 C24,19.9522847 23.5522847,20.4 23,20.4 L17.8,20.4 C17.2477153,20.4 16.8,19.9522847 16.8,19.4 L16.8,19 C16.8,18.4477153 17.2477153,18 17.8,18 Z M2,13.2 L8.8,13.2 C9.9045695,13.2 10.8,14.0954305 10.8,15.2 L10.8,22 C10.8,23.1045695 9.9045695,24 8.8,24 L2,24 C0.8954305,24 1.3527075e-16,23.1045695 0,22 L0,15.2 C-1.3527075e-16,14.0954305 0.8954305,13.2 2,13.2 Z" id="全部游戏" ></path>
    </g>
</svg>