<?xml version="1.0" encoding="UTF-8"?>
<svg width="24px" height="24px" viewBox="0 0 24 24" version="1.1" xmlns="http://www.w3.org/2000/svg" xmlns:xlink="http://www.w3.org/1999/xlink">
   
    <g id="页面-1" stroke="none" stroke-width="1" >
        <g id="历史记录" >
            <path d="M12,1.7807974e-06 C5.3725822,1.7807974e-06 0,5.37258577 0,12.0000018 C0,18.6274178 5.3725822,24.0000018 12,24.0000018 C18.6274142,24.0000018 24,18.6274178 24,12.0000018 C24.0017316,8.81687276 22.7380069,5.763618 20.4871944,3.51280555 C18.236382,1.2619931 15.1831272,-0.0017315825 12,1.7807974e-06 Z M17.8169908,13.7254917 L11.7124165,13.7254917 C11.094091,13.7255022 10.5918287,13.2261599 10.5882337,12.6078448 L10.5882337,4.8169963 C10.5560704,4.39609959 10.7624041,3.9926588 11.1224907,3.77237234 C11.4825774,3.55208588 11.9357198,3.55208588 12.2958064,3.77237234 C12.6558931,3.9926588 12.8622267,4.39609959 12.8300635,4.8169963 L12.8300635,11.4967339 L17.8169908,11.4967339 C18.4029268,11.5415088 18.8555177,12.0300045 18.8555177,12.6176487 C18.8555177,13.205293 18.4029268,13.6937887 17.8169908,13.7385636 L17.8169908,13.7254917 Z" id="形状"></path>
        </g>
    </g>
</svg>