<?xml version="1.0" encoding="UTF-8"?>
<svg width="24px" height="24px" viewBox="0 0 24 24" version="1.1" xmlns="http://www.w3.org/2000/svg" xmlns:xlink="http://www.w3.org/1999/xlink">
    <title>新游戏 </title>
    <g id="页面-1" stroke="none" stroke-width="1" >
        <g id="新游戏-">
            <rect id="矩形"  opacity="0" x="0" y="0" width="24" height="24"></rect>
            <g id="游戏" transform="translate(0.000000, 1.333333)" >
                <path d="M15.4228571,3.44205214 L13.14,3.44205214 L13.14,1.14830764 C13.14,0.513867667 12.6285714,0 11.9971429,0 C11.3657143,0 10.8542857,0.513867667 10.8542857,1.14830764 L10.8542857,3.44205214 L8.57142857,3.44205214 C3.83714286,3.44205214 0,7.29749502 0,12.0543594 C0,16.8112238 3.83714286,20.6666667 8.57142857,20.6666667 L15.4285714,20.6666667 C20.1628571,20.6666667 24,16.8112238 24,12.0543594 C24,7.29749502 20.1542857,3.44205214 15.4228571,3.44205214 Z M9.42285714,12.6285132 L7.99428571,12.6285132 L7.99428571,14.0638978 C7.99428571,14.5375747 7.61142857,14.9251285 7.13714286,14.9251285 C6.66571429,14.9251285 6.28,14.5404454 6.28,14.0638978 L6.28,12.6285132 L4.85142857,12.6285132 C4.38,12.6285132 3.99428571,12.2438302 3.99428571,11.7672825 C3.99428571,11.2936056 4.37714286,10.9060518 4.85142857,10.9060518 L6.28,10.9060518 L6.28,9.47066722 C6.28,8.99699032 6.66285714,8.6094365 7.13714286,8.6094365 C7.60857143,8.6094365 7.99428571,8.99411955 7.99428571,9.47066722 L7.99428571,10.9060518 L9.42285714,10.9060518 C9.89428571,10.9060518 10.28,11.2907348 10.28,11.7672825 C10.2771429,12.2438302 9.89428571,12.6285132 9.42285714,12.6285132 Z M15.7085714,11.4802056 C14.9171429,11.4802056 14.28,10.8400241 14.28,10.044821 C14.28,9.249618 14.9171429,8.6094365 15.7085714,8.6094365 C16.5,8.6094365 17.1371429,9.249618 17.1371429,10.044821 C17.1371429,10.8371533 16.4971429,11.4802056 15.7085714,11.4802056 Z M18.5657143,14.9222577 C17.7742857,14.9222577 17.1371429,14.2820762 17.1371429,13.4868732 C17.1371429,12.6916701 17.7742857,12.0514886 18.5657143,12.0514886 C19.3571429,12.0514886 19.9942857,12.6916701 19.9942857,13.4868732 C19.9942857,14.2820762 19.3542857,14.9222577 18.5657143,14.9222577 Z" id="形状"></path>
            </g>
        </g>
    </g>
</svg>