<?xml version="1.0" encoding="UTF-8"?>
<svg width="24px" height="24px" viewBox="0 0 24 24" version="1.1" xmlns="http://www.w3.org/2000/svg" xmlns:xlink="http://www.w3.org/1999/xlink">
    <title>Andar Bahar </title>
    <g id="页面-1" stroke="none" stroke-width="1" >
        <g id="Andar-Bahar-" >
            <path d="M11.5413489,0.00021928997 C14.1078074,-0.0135864805 16.0108092,0.626158884 17.64917,1.44467728 C17.64917,1.47584556 17.64917,1.50701384 17.64917,1.53818212 C17.1750509,2.05231838 16.6585387,2.56659503 16.1421672,3.08077808 C14.7729543,2.53046603 12.5801479,1.80947721 10.5554592,2.28608049 C9.84120568,2.45423009 9.1448859,2.61353465 8.49448042,2.84701596 C8.38021112,2.90710617 7.98580831,3.07881251 7.9264202,3.03402566 C7.39441537,2.50430526 6.86222275,1.97439767 6.28796551,1.44467728 C6.65330804,1.36661617 6.89987435,1.14394548 7.17526619,1.02399907 C7.85036586,0.729912759 8.59785799,0.529050499 9.33483398,0.322806327 C9.83557202,0.244885623 10.336404,0.166964918 10.837142,0.0890910125 C11.0667604,0.0379862621 11.3793344,0.146045666 11.5413489,0.00021928997 Z M5.53211678,1.91215471 C6.06412161,2.4418751 6.59631423,2.97173589 7.12831906,3.50145628 C7.03104462,3.62355545 6.79635593,3.64835904 6.6588478,3.7351716 C6.36124997,3.92307048 6.05928606,4.1741483 5.76685241,4.38961192 C4.93490239,5.00258813 3.93464693,6.18136693 3.46644324,7.14758367 C3.45080985,7.13199953 3.43512951,7.11641539 3.3772437,7.10083125 C2.90312468,6.58669499 2.3866124,6.07237154 1.87024096,5.55823529 C2.05413286,5.41484248 2.10934268,5.190955 2.24581797,4.99729982 C2.52355717,4.60329717 2.88974475,4.17049796 3.23170761,3.82867644 C3.65493595,3.40565828 4.10933718,2.92011635 4.55092185,2.56654823 C4.88584265,2.35272258 5.31010382,2.19402642 5.53211678,1.91215471 Z M18.400324,1.91215471 C19.366308,2.22191876 20.8857518,3.85479041 21.40494,4.62332723 C21.6723039,4.93150011 22.0699461,5.21660097 22.1091469,5.65174014 C21.6622103,5.97676073 21.0553717,6.96815545 20.5551971,7.14758367 C20.3292875,6.32298138 18.7702673,4.73293101 18.1139465,4.24940145 C17.9676593,4.14162284 16.9227571,3.50505982 16.9402684,3.40795144 C17.4410064,2.90939933 17.9418383,2.41070682 18.400324,1.91215471 Z M11.5413489,3.03402566 C16.2365779,2.97356106 18.9972567,5.41418729 20.3251561,8.69017963 C21.2242875,10.738956 21.2026449,13.5834595 20.3204614,15.608415 C19.3289381,17.884308 17.4910051,19.5241527 15.1562776,20.4699182 C14.4601456,20.7518835 13.6569272,20.8115525 12.813616,20.9841012 C12.5585523,20.9841012 12.2611892,20.9841012 11.9216206,20.9841012 C10.4472931,20.9841012 9.3801849,20.6348387 8.34894433,20.1894505 C5.77009176,19.0755822 4.18590795,17.1382816 3.32560187,14.2995812 C3.01011718,13.2586261 2.82580276,11.5617331 3.09556095,10.3262336 C3.28466397,9.74475329 3.4262565,9.13453824 3.61197933,8.59667478 C4.6367412,6.27838172 6.46570733,4.55219242 8.81841559,3.59496113 C9.37027906,3.37041846 9.99974612,3.26699218 10.6024064,3.1274837 C10.8925396,3.06032682 11.3151576,3.17381493 11.5413489,3.03402566 Z M11.8746735,6.02571272 C10.9003798,7.00990036 9.86557123,8.0720087 8.96395168,9.20436268 C8.49250864,9.88117303 7.78539103,10.326608 7.45694894,11.2143893 C6.69377646,13.2772522 8.20261014,15.0567458 9.62121144,15.4214521 C10.3662623,15.5969024 10.8579396,15.226159 11.2596661,15.094232 C11.2596661,15.1098161 11.2596661,15.1254002 11.2596661,15.1409844 C11.134552,15.3008973 11.1343173,15.5152378 11.0249305,15.7019199 C10.5309998,16.5450078 10.1668779,16.9507103 9.15174019,17.1977634 C9.06587389,17.412057 8.89137143,17.753551 9.15174019,17.9456618 C9.47154401,18.1218608 10.3083765,17.9924142 10.6540482,17.9924142 C11.6038355,17.9924142 12.511699,17.9924142 13.3769815,17.9924142 C13.8956534,17.9924142 14.4737603,18.0273264 14.8323424,17.9456618 C14.9734185,17.7779333 15.0175019,17.6852241 14.9731838,17.3847263 C14.7196693,17.197857 14.2981311,17.1450207 14.0295466,16.9640481 C13.6196512,16.6878391 12.8976044,15.6724832 12.8089213,15.094232 C12.8245547,15.094232 12.840235,15.094232 12.813616,15.094232 C13.3103635,15.5334427 14.3696785,15.4719017 14.921542,15.1877368 C15.9987438,14.6330256 17.2091346,13.3080929 16.6585856,11.494857 C16.2961069,10.3010088 15.4360355,9.78532822 14.7384482,8.92389494 C13.9917541,7.88677738 13.0468024,6.96155676 12.1094091,6.02571272 C12.0734007,6.02571272 11.9951398,6.02571272 11.8746735,6.02571272 Z M1.4007697,6.35293288 C1.94840793,6.88265327 2.49628089,7.41251407 3.04391911,7.94223446 C2.93439147,8.19153392 2.82481687,8.44088017 2.67303682,8.69017963 C2.4610236,9.36694318 2.37637793,10.1294897 2.15661843,10.8871691 C1.94573194,11.9677163 2.28976048,14.1699005 2.57444785,14.9539747 C2.64515022,15.1487063 3.04344964,16.05619 2.99697198,16.1225981 C2.84110753,16.3611337 1.63564618,17.582219 1.4007697,17.665194 C1.4007697,17.6496099 1.4007697,17.6340257 1.4007697,17.6184416 C1.03369013,17.2234562 0.899890819,16.5287685 0.654310403,15.9823876 C0.0120737216,14.1432718 -0.288669567,11.1265471 0.367932936,8.97064736 C0.542717085,8.3967017 0.739378596,7.78292991 0.935993159,7.24108852 C1.10627038,6.95065254 1.34006707,6.71675003 1.4007697,6.35293288 Z M22.5316711,6.35293288 C22.9341488,6.64374325 23.0420333,7.29303565 23.2311832,7.75527157 C24.1407368,9.97795382 24.2739258,13.1656828 23.4659189,15.608415 C23.3001955,16.1093539 22.9514253,17.4721004 22.5316711,17.665194 C22.2390966,17.1655187 21.2089827,16.538456 21.0246683,16.02914 C21.2671033,15.7246175 21.3140035,15.2698694 21.40494,14.8605166 C21.858731,13.5954869 22.0841241,11.4241902 21.6396757,9.90550862 C21.5254533,9.39137237 21.3689316,8.87709572 21.1702044,8.36295947 C21.1725048,8.26758265 20.9709608,8.05352301 21.0246683,7.89548204 C21.5410398,7.38134578 22.057552,6.86706913 22.5316711,6.35293288 Z M12.0108202,7.10083125 C12.4285557,7.38270296 13.0965663,8.2647747 13.3769815,8.69017963 C14.079733,9.56097275 15.2777298,10.3064844 15.7196431,11.3546465 C16.3393452,12.8243761 15.4110596,14.2685065 14.2642822,14.5800489 C13.3763712,14.8212521 12.8098602,14.0032017 12.5741857,13.551636 C12.4849861,13.3807252 12.4722165,13.118556 12.2971976,12.9907005 C12.2360255,12.8911118 12.071288,12.9038412 11.8277264,12.8971957 C11.8220458,12.9348223 11.8571153,12.9138094 11.7760845,12.9439481 C11.4469382,13.5389066 11.1148343,14.3665977 10.3723655,14.5800489 C10.0242056,14.6990593 9.62083587,14.4937511 9.38647581,14.3930392 C8.77574065,14.0507497 7.84750208,13.1632493 8.16115583,11.915582 C8.42504562,10.8659691 8.98873976,10.6068418 9.48037007,9.90550862 C10.0507776,9.21175696 10.6855497,8.63678171 11.1704666,7.94223446 C11.4402717,7.64243864 11.7947225,7.41962755 12.0108202,7.10083125 Z M3.33029658,16.9172957 C3.64258886,17.0278354 4.06825845,17.8683494 4.26454438,18.1326715 C4.74354591,18.7776115 5.44071073,19.4400077 6.05322988,19.9089827 C6.37401959,20.108441 6.97029503,20.3070101 7.12831906,20.6101287 C6.69016153,20.9026706 5.93952394,22.011859 5.48516966,22.1059722 C5.18470805,21.7304552 4.60603778,21.4614065 4.21759726,21.1710641 C3.60911556,20.7162693 3.07631263,20.0545751 2.57914256,19.4415053 C2.52651484,19.3136498 1.84038259,18.5490909 1.87024096,18.4131392 C2.37097901,17.9145403 2.87181095,17.4158478 3.33029658,16.9172957 Z M20.5551971,16.9172957 C20.9359852,17.0444959 21.4837643,17.7946407 21.7758223,18.085919 C21.9038941,18.2136341 22.1586292,18.3408812 22.0621998,18.5065972 C21.8485434,19.2941813 20.0941763,21.0124616 19.3862136,21.4982843 C19.1405863,21.7084128 18.7841637,21.8557368 18.4942182,22.1059722 C18.285773,22.0194404 17.0284351,20.7664381 16.9402684,20.5166706 C17.8552209,20.2302594 19.1666419,18.8618501 19.6678964,18.1326715 C19.9827708,17.7668887 20.4191912,17.3627307 20.5551971,16.9172957 Z M7.87947307,20.9841012 C8.33232505,21.0543469 8.73292488,21.3171713 9.14704547,21.4515319 C9.76209977,21.6511306 10.4574336,21.6830944 11.1188248,21.8255045 C11.4474077,21.8255045 11.7761315,21.8255045 12.062462,21.8255045 C13.0865666,21.8254577 13.9566846,21.7484729 14.7337535,21.4982843 C15.2031778,21.3269055 15.6727429,21.15548 16.1421672,20.9841012 C16.4769941,21.4837765 17.507108,22.1108393 17.64917,22.6201553 C17.3365491,22.7059382 17.0163227,22.9501834 16.6632803,23.0876327 C16.2047947,23.2590114 15.7039628,23.430437 15.2032247,23.6018157 C13.4744907,24.1852616 10.528183,24.0913824 8.86536272,23.5550633 C8.11542933,23.3132049 7.46676089,23.1318111 6.80438389,22.8071649 C6.78696651,22.7759031 6.27928029,22.598534 6.28785534,22.5266972 C6.84658936,22.012561 7.36310164,21.4982375 7.87947307,20.9841012 Z" id="形状"></path>
        </g>
    </g>
</svg>