<svg xmlns="http://www.w3.org/2000/svg" width="16" height="16" viewBox="0 0 16 16"><defs></defs><path class="a" d="M64.311,54.272a7.726,7.726,0,0,1,3.12.635,8.27,8.27,0,0,1,2.547,1.716,7.96,7.96,0,0,1,1.716,2.539,8.067,8.067,0,0,1,0,6.23,8.05,8.05,0,0,1-4.264,4.255,8.067,8.067,0,0,1-6.23,0,8.074,8.074,0,0,1-4.255-4.255,8.067,8.067,0,0,1,0-6.23,7.96,7.96,0,0,1,1.716-2.539A8.3,8.3,0,0,1,61.2,54.907,7.663,7.663,0,0,1,64.311,54.272Zm.018,13.479a1.056,1.056,0,0,0,.778-.313,1.034,1.034,0,0,0,.313-.76,1.091,1.091,0,1,0-2.181,0,1.034,1.034,0,0,0,.313.76A1.056,1.056,0,0,0,64.329,67.751Zm.912-4.4a.8.8,0,0,1,.358-.608q.375-.322.84-.715a6.356,6.356,0,0,0,.858-.885,1.946,1.946,0,0,0,.429-1.135,3.89,3.89,0,0,0-.143-1.305,2.557,2.557,0,0,0-.59-1.046,2.9,2.9,0,0,0-1.064-.7A4.126,4.126,0,0,0,64.4,56.7a3.842,3.842,0,0,0-1.815.384,3.778,3.778,0,0,0-1.171.93,3.323,3.323,0,0,0-.626,1.126,2.968,2.968,0,0,0-.161.974.85.85,0,0,0,.295.679,1.007,1.007,0,0,0,.6.223.958.958,0,0,0,.59-.179.624.624,0,0,0,.268-.545,1.4,1.4,0,0,1,.134-.527,2.53,2.53,0,0,1,.366-.6,2.1,2.1,0,0,1,.563-.483,1.424,1.424,0,0,1,.742-.2,1.946,1.946,0,0,1,1.287.4,1.164,1.164,0,0,1,.447,1.01.972.972,0,0,1-.179.563,2.711,2.711,0,0,1-.456.5q-.277.241-.59.483t-.59.5a2.749,2.749,0,0,0-.465.563,1.369,1.369,0,0,0-.206.661l.018.679a.707.707,0,0,0,.25.509.977.977,0,0,0,.661.259.923.923,0,0,0,.653-.268.738.738,0,0,0,.223-.572Z" transform="translate(-56.32 -54.272)"/></svg>