<svg width="49" height="49" viewBox="0 0 49 49" xmlns="http://www.w3.org/2000/svg">
    <path d="M26.187 6.142a2.388 2.388 0 0 0-3.374 0L6.114 22.816a2.38 2.38 0 0 0 .03 3.339c.92.919 2.407.932 3.343.029l.7-.698v15.688a2.384 2.384 0 0 0 2.385 2.382h4.771a2.384 2.384 0 0 0 2.386-2.382V36.41a2.384 2.384 0 0 1 2.385-2.382h4.772a2.384 2.384 0 0 1 2.385 2.382v4.764a2.384 2.384 0 0 0 2.386 2.382h4.771a2.384 2.384 0 0 0 2.386-2.382V25.486l.699.698c.936.903 2.424.89 3.344-.03a2.38 2.38 0 0 0 .029-3.338l-16.7-16.674z" fill-rule="nonzero"/>
</svg>
