<svg width="45" height="45" viewBox="0 0 45 45" xmlns="http://www.w3.org/2000/svg">
    <g fill="none" fill-rule="evenodd">
        <path d="M0 0h45v45H0z"/>
        <path d="m42.81 20.742-2.828-2.685c-.67-.637-1.22-1.897-1.22-2.8V11.46c0-1.807-1.554-3.282-3.454-3.283h-4c-.949 0-2.276-.523-2.947-1.16l-2.827-2.685c-1.343-1.276-3.541-1.276-4.884 0l-2.827 2.687c-.671.637-2 1.159-2.948 1.159h-3.997c-1.899 0-3.454 1.475-3.454 3.282v3.797c0 .9-.55 2.163-1.22 2.8l-2.828 2.685a3.177 3.177 0 0 0 0 4.643l2.827 2.684c.672.638 1.22 1.9 1.22 2.8v3.798c0 1.804 1.556 3.282 3.455 3.282h3.997c.95 0 2.277.522 2.948 1.159l2.827 2.686c1.343 1.275 3.542 1.275 4.885 0l2.826-2.686c.671-.637 1.998-1.16 2.948-1.16h3.999c1.9 0 3.454-1.477 3.454-3.281V30.87c0-.904.55-2.164 1.22-2.8l2.827-2.685a3.18 3.18 0 0 0 0-4.643zm-22.46 9.704-7.62-7.241 2.442-2.32 5.179 4.92L31.012 15.68 33.454 18 20.35 30.446z" fill="#3AC167" fill-rule="nonzero"/>
    </g>
</svg>
