<svg width="21" height="21" viewBox="0 0 21 21" xmlns="http://www.w3.org/2000/svg">
    <g fill-rule="nonzero">
        <path d="M11.164 15.408a3.275 3.275 0 0 0 3.267-3.267h-3.267l.295-3.253a2.056 2.056 0 0 0-.302 0h.007a3.261 3.261 0 0 0-3.08 2.253l-.007.023H2.333v1.767h5.672a3.266 3.266 0 0 0 3.159 2.477zM9.297 2.333h3.733V4.2H9.297z"/>
        <path d="M16.039 7.797 17 6.684l-1.436-1.227-.962 1.134a6.398 6.398 0 0 0-3.443-.993c-1.854 0-3.525.78-4.703 2.03l-.004.004H4.098v1.766h4.38V8.336a4.527 4.527 0 0 1 2.685-.883 4.674 4.674 0 0 1 .012 9.334h-.016a4.583 4.583 0 0 1-2.694-.87l.013.008v-1.228h-4.38v1.767h2.154a6.536 6.536 0 1 0 9.78-8.672l.006.006z"/>
    </g>
</svg>
