<svg width="25" height="24" viewBox="0 0 25 24" xmlns="http://www.w3.org/2000/svg">
    <path d="m6.504 16.932-3.662-9.2a.902.902 0 0 1-.064-.336c0-.425.293-.788.704-.93l.007-.001 5.859-1.949c.11-.039.239-.061.373-.061.462 0 .857.266 1.01.64l.002.006.211.533-4.31 10.838c-.053.13-.098.285-.127.444l-.003.016zm15.654-8.949-4.796 12.06c-.153.38-.546.647-1.006.647-.134 0-.261-.023-.38-.063l.008.002-6.668-2.222c-.419-.144-.712-.506-.712-.932 0-.12.023-.235.067-.342l-.003.007 4.797-12.052c.154-.383.55-.65 1.013-.65.131 0 .256.02.372.06l-.008-.003 6.669 2.222c.418.144.711.506.711.932 0 .12-.023.235-.066.342l.002-.007zm-4.05 4.77-.422-.903a.546.546 0 0 0-.5-.304.587.587 0 0 0-.208.038h.003l-.81.325a.574.574 0 0 1-.204.037.546.546 0 0 1-.5-.3v-.003l-.349-.741a.539.539 0 0 0-.493-.3.588.588 0 0 0-.215.042l.003-.002-.996.386a.485.485 0 0 0-.33.446c0 .072.017.14.048.2l-.001-.002 1.19 2.57c.089.177.28.298.503.298a.589.589 0 0 0 .214-.04l-.004.002 2.804-1.097c.178-.079.3-.243.3-.434a.447.447 0 0 0-.059-.22l.001.003h.025z" fill-rule="nonzero"/>
</svg>
