<svg width="21" height="21" viewBox="0 0 21 21" xmlns="http://www.w3.org/2000/svg">
    <g fill-rule="nonzero">
        <path d="M13.197 2.371h-.221l-2.513.887-2.512-.887c-.444-.148-.961.148-1.035.666v1.847c0 .517.443.887.887.887h.221l2.44-1.109 2.512 1.109c.517.148.96-.148 1.108-.665V3.258c0-.517-.443-.887-.887-.887zM9.207 16.34 5.88 5.254c-.222-.444-.665-.665-1.183-.517l-1.108.37c-.37.073-.592.443-.592.812l-.665 10.643c0 .517.37.887.813.96H8.32c.517 0 .887-.37.887-.886.073-.074 0-.222 0-.296zM17.928 5.919c0-.37-.222-.665-.592-.813l-1.108-.444c-.444-.148-.96.074-1.109.517l-3.326 11.086c-.148.444.148.96.592 1.109.074 0 .148.074.295.074h5.1c.517 0 .887-.37.887-.887l-.74-10.643z"/>
    </g>
</svg>
