<svg width="21" height="21" viewBox="0 0 21 21" xmlns="http://www.w3.org/2000/svg">
    <g  fill-rule="nonzero">
        <path d="M10.996 10.812h-1.26v1.872h1.26c.254 0 .49-.103.656-.276a.935.935 0 0 0-.656-1.596z"/>
        <path d="M10.5 3.5c-3.86 0-7 3.14-7 7s3.14 7 7 7 7-3.14 7-7-3.14-7-7-7zm1.424 10.242H11.1v1.297h-.866v-1.297h-.476v1.297h-.87v-1.297h-1.53v-.815h.845v-4.88h-.844v-.814h1.53V5.96h.87v1.272h.475V5.96h.866v1.272h.752a1.536 1.536 0 0 1 1.533 1.533c0 .822-.649 1.493-1.46 1.53.951 0 1.718.774 1.718 1.724a1.72 1.72 0 0 1-1.718 1.722z"/>
        <path d="M11.552 9.662a.823.823 0 0 0-.579-1.404H9.736v1.647h1.239a.824.824 0 0 0 .578-.243z"/>
        <path d="M10.5.583C5.023.583.583 5.023.583 10.5c0 5.477 4.44 9.917 9.917 9.917 5.477 0 9.917-4.44 9.917-9.917 0-5.477-4.44-9.917-9.917-9.917zm0 1.167a8.75 8.75 0 1 1 0 17.5 8.75 8.75 0 0 1 0-17.5z"/>
    </g>
</svg>
