<svg width="21" height="21" viewBox="0 0 21 21" xmlns="http://www.w3.org/2000/svg">
    <g fill-rule="nonzero">
        <path d="M12.709 10.179a8.91 8.91 0 0 0-.992 4.09v.898H8.374c.008-1.482.333-2.885.91-4.146l-.025.062a15.683 15.683 0 0 1 2.403-3.809l-.016.02H6.69V4.666H15.4v1.392a23.905 23.905 0 0 0-2.63 3.99l-.061.13zM16.73 13.404a6.12 6.12 0 0 0-.902 2.346l-.005.035-.09.548-2.51-.555c.272-1.652.997-3.06 2.01-4.06l.01-.01-1.815-.431.762-1.944 4.477 1.067-.14.848a14.698 14.698 0 0 0-1.779 2.13l-.017.026z"/>
        <path d="M6.742 12.756a4.753 4.753 0 0 0 .008 2.44l-.008-.035.129.503-2.909.67a5.999 5.999 0 0 1 .532-4.377l-.017.036-2.144.475v-1.956l5.245-1.179.2.77a12.34 12.34 0 0 0-1.015 2.56l-.021.093z"/>
    </g>
</svg>
