<svg width="21" height="21" viewBox="0 0 21 21" xmlns="http://www.w3.org/2000/svg">
    <g fill-rule="nonzero">
        <path d="M10.492 2.334a8.056 8.056 0 0 0-3.28.7l.05-.02v1.122l.51.51a6.383 6.383 0 0 1 2.743-.61 6.479 6.479 0 1 1-5.853 3.697l-.016.04-.51-.504H3.014a8.03 8.03 0 0 0-.663 3.223 8.158 8.158 0 0 0 8.158 8.158 8.158 8.158 0 0 0 8.158-8.158 8.158 8.158 0 0 0-8.158-8.158h-.018.001z"/>
        <path d="M3.748 5.903H4.7l.68.68 3.752 3.766a1.026 1.026 0 0 0 0 .146v-.003a1.36 1.36 0 1 0 1.36-1.36h-.143l-4.46-4.44V2.334H4.203v1.87h-1.87v1.7h1.415z"/>
        <path d="M10.492 13.551a3.06 3.06 0 0 1-3.053-2.98v-.005L5.95 9.071a4.567 4.567 0 0 0-.217 1.409v.012a4.759 4.759 0 1 0 4.758-4.759h-.012c-.503 0-.988.08-1.442.227l.033-.01 1.496 1.49a3.06 3.06 0 0 1-.037 6.118h-.04.002v-.007z"/>
    </g>
</svg>
