<svg width="29" height="28" viewBox="0 0 29 28" xmlns="http://www.w3.org/2000/svg">
    <g fill="#AADDCB" fill-rule="nonzero">
        <path d="M13.031 3.111c-1.552 0-2.81 1.277-2.81 2.852V17.37c0 1.575 1.258 2.852 2.81 2.852h8.434c1.552 0 2.81-1.277 2.81-2.852V9.405c0-.756-.296-1.481-.823-2.016l-3.393-3.442a2.79 2.79 0 0 0-1.987-.836h-5.04z"/>
        <path d="M5.535 10.63c0-1.575 1.259-2.852 2.811-2.852v14.259h11.245c0 1.575-1.259 2.852-2.811 2.852H8.346c-1.552 0-2.81-1.277-2.81-2.852V10.63z"/>
    </g>
</svg>
