<svg width="21" height="21" viewBox="0 0 21 21" xmlns="http://www.w3.org/2000/svg">
    <path d="M4.684 13.152c.26-3.262 3.825-6.454 4.655-7.65.722-1.074.447-2.35.216-2.91a.2.2 0 0 1 .232-.255h-.001c3.607.745 3.789 3.44 3.68 4.646-.11 1.206.109 2.02.903 1.844.794-.176.527-2.155.527-2.155s3.646 4.256 2.31 8.44c-.673 2.189-2.347 3.112-3.753 3.545-.073.036-.145-.035-.145-.14.181-.673.65-1.206.794-1.95.29-1.225-.865-2.352-1.72-2.99a2.118 2.118 0 0 1-.878-1.81v.005c0-.071-.11-.107-.143-.071a23.152 23.152 0 0 1-1.728 1.838l-.005.005c-1.334 1.454-2.022 3.086-.83 4.894.035.071-.037.176-.107.143-2.961-.783-4.186-2.984-4.007-5.43z" fill-rule="nonzero"/>
</svg>
