<svg width="21" height="21" viewBox="0 0 21 21" xmlns="http://www.w3.org/2000/svg">
    <g fill-rule="nonzero">
        <path d="M13.486 15.923h-.003a1.605 1.605 0 0 1-1.604-1.604v-.36H9.127v.36c0 .886-.718 1.604-1.604 1.604H7.52c-.741 0-1.342.602-1.342 1.343V17.302c0 .76.616 1.375 1.375 1.375h5.9c.759 0 1.375-.616 1.375-1.375V17.266c0-.741-.601-1.343-1.342-1.343zM17.387 6.093h-.481l.21-2.816a.877.877 0 0 0-.874-.944H4.763a.877.877 0 0 0-.874.947v-.003l.185 2.618H3.62c-.71 0-1.286.575-1.286 1.286v2.754a2.253 2.253 0 0 0 2.253 2.252h.002a.59.59 0 0 0 0-1.178 1.073 1.073 0 0 1-1.067-1.072V7.173c0-.054.044-.098.098-.098h.563c.33 3.228 3.033 5.725 6.32 5.725a6.352 6.352 0 0 0 6.295-5.494l.003-.033h.589c.053 0 .095.043.095.095v2.767a1.07 1.07 0 0 1-1.067 1.07.592.592 0 1 0 .002 1.18h-.002a2.253 2.253 0 0 0 2.25-2.25V7.363a1.286 1.286 0 0 0-1.28-1.27zm-4.313.774-.859.836a.385.385 0 0 0-.11.35V8.05l.197 1.177a.39.39 0 0 1-.57.413l.002.001-1.05-.555a.377.377 0 0 0-.366.001l.002-.001-1.06.555a.39.39 0 0 1-.557-.416v.002l.2-1.177a.385.385 0 0 0-.11-.347l-.862-.836a.393.393 0 0 1 .216-.668h.002l1.183-.173a.392.392 0 0 0 .287-.204l.001-.002.53-1.072a.394.394 0 0 1 .704-.002v.002l.53 1.072a.394.394 0 0 0 .294.216h.002l1.183.173a.394.394 0 0 1 .21.658h.001z"/>
    </g>
</svg>
