<svg width="32" height="32" viewBox="0 0 32 32" xmlns="http://www.w3.org/2000/svg">
    <path d="M9.333 8.508c0-.772-.597-1.397-1.333-1.397s-1.333.625-1.333 1.397V18.66c-.825.5-1.334 1.421-1.334 2.42 0 .997.509 1.92 1.334 2.419v1.77c0 .772.597 1.398 1.333 1.398s1.333-.626 1.333-1.397v-1.771c.825-.5 1.333-1.422 1.333-2.42s-.508-1.92-1.333-2.419V8.508zm8 0c0-.772-.597-1.397-1.333-1.397s-1.333.625-1.333 1.397v1.771c-.825.5-1.334 1.421-1.334 2.42 0 .997.509 1.92 1.334 2.419V25.27c0 .771.597 1.397 1.333 1.397s1.333-.626 1.333-1.397V15.118c.825-.5 1.334-1.422 1.334-2.42s-.509-1.92-1.334-2.419V8.508zM24 7.11c.736 0 1.333.625 1.333 1.397V18.66c.825.5 1.334 1.421 1.334 2.42 0 .997-.509 1.92-1.334 2.419v1.77c0 .772-.597 1.398-1.333 1.398s-1.333-.626-1.333-1.397v-1.771c-.825-.5-1.333-1.422-1.333-2.42s.508-1.92 1.333-2.419V8.508c0-.772.597-1.397 1.333-1.397z" fill-rule="nonzero"/>
</svg>
