<svg width="26" height="26" viewBox="0 0 26 26" xmlns="http://www.w3.org/2000/svg">
    <g fill="#AADDCB" fill-rule="nonzero">
        <path d="M14.444 3.066a.179.179 0 0 0 0-.077v.001a10.134 10.134 0 0 0-8.612 2.894H5.83c3.25 1.391 6.047 3.161 8.511 5.303l-.038-.032c1.268-2.098 1.268-4.93.14-8.09zM12.681 13.063a28.597 28.597 0 0 0-8.242-5.05l-.193-.069a9.972 9.972 0 0 0-1.357 5.052v.005c.006.451.038.89.095 1.32l-.006-.056c3.881.947 7.407.594 9.703-1.201zM16.17 22.618c1.13-.375 2.11-.9 2.98-1.56l-.025.018a43.935 43.935 0 0 0-1.497-2.528 8.002 8.002 0 0 0-1.457 4.043l-.002.027zM14.533 14.807A11.608 11.608 0 0 1 6.9 17.26h.022a19.526 19.526 0 0 1-3.366-.321l.119.018c1.586 3.649 5.168 6.155 9.339 6.155H13.595a10.47 10.47 0 0 1 2.474-6.588l-.013.016a26.887 26.887 0 0 0-1.522-1.732h-.001zM16.22 12.912c.621.644 1.268 1.263 1.801 1.996a9.393 9.393 0 0 1 5.09-1.263h-.016v-.658c-.004-4.025-2.367-7.5-5.786-9.124l-.062-.026c.338 1.016.534 2.185.534 3.399 0 2.094-.58 4.053-1.59 5.726l.029-.05zM21.002 19.32a10.031 10.031 0 0 0 1.64-3.013l.021-.071a6.698 6.698 0 0 0-3.143.788l.036-.017c.507.699.99 1.47 1.446 2.312z"/>
    </g>
</svg>
