<svg width="26" height="26" viewBox="0 0 26 26" xmlns="http://www.w3.org/2000/svg">
    <path d="M6.764 18.546 2.955 8.08a1.13 1.13 0 0 1 .666-1.438l.008-.002 6.092-2.217a1.122 1.122 0 0 1 1.438.658l.003.008.22.606-4.483 12.329a2.812 2.812 0 0 0-.132.505l-.003.017zm16.28-10.179-4.988 13.72a1.115 1.115 0 0 1-1.44.663l.008.002-6.935-2.528a1.131 1.131 0 0 1-.672-1.448l-.002.007 4.988-13.71a1.123 1.123 0 0 1 1.44-.671l-.007-.003 6.935 2.528a1.131 1.131 0 0 1 .671 1.449l.003-.008zm-4.212 5.427-.438-1.028a.565.565 0 0 0-.737-.303h.004l-.843.37a.565.565 0 0 1-.732-.3v-.003l-.363-.843a.557.557 0 0 0-.737-.294h.004l-1.037.437a.55.55 0 0 0-.293.736l-.001-.003 1.239 2.925a.574.574 0 0 0 .745.293l-.004.001 2.915-1.247a.549.549 0 0 0 .251-.744l.002.003h.025z" fill="#AADDCB" fill-rule="nonzero"/>
</svg>
