<svg width="26" height="26" viewBox="0 0 26 26" xmlns="http://www.w3.org/2000/svg">
    <path d="M5.799 16.283c.321-4.038 4.736-7.99 5.764-9.472.893-1.329.553-2.907.267-3.602a.249.249 0 0 1 .287-.316h-.001c4.466.922 4.69 4.26 4.556 5.753-.135 1.493.135 2.5 1.118 2.282.983-.217.652-2.667.652-2.667s4.515 5.269 2.86 10.45c-.832 2.709-2.905 3.852-4.646 4.389-.09.044-.18-.045-.18-.174.225-.834.806-1.493.983-2.415.36-1.516-1.07-2.911-2.13-3.7a2.622 2.622 0 0 1-1.086-2.242v.006c0-.088-.135-.133-.177-.088a28.664 28.664 0 0 1-2.14 2.275l-.006.007c-1.652 1.8-2.503 3.82-1.028 6.06.045.087-.045.217-.132.176-3.666-.97-5.183-3.694-4.961-6.722z" fill="#AADDCB" fill-rule="nonzero"/>
</svg>
