<svg width="22" height="22" viewBox="0 0 22 22" xmlns="http://www.w3.org/2000/svg">
    <g fill-rule="nonzero">
        <path d="M17.111 2.444V4.89h2.445z"/>
        <path d="M15.591 6.79a.51.51 0 0 1-.517-.502V2.444H7.662c-.855 0-1.55.675-1.55 1.504v5.605a5.75 5.75 0 0 1 4.902 1.982h5.611a.51.51 0 0 1 .517.501.51.51 0 0 1-.517.501h-4.931c.323.612.532 1.29.598 2.006h4.333a.51.51 0 0 1 .517.5.51.51 0 0 1-.517.502h-4.333c-.154 1.656-1.067 3.102-2.397 4.01h8.11c.855 0 1.55-.674 1.55-1.503V6.789h-3.964zm1.034 2.74H9.041a.51.51 0 0 1-.517-.502.51.51 0 0 1 .517-.501h7.584a.51.51 0 0 1 .517.501.51.51 0 0 1-.517.502z"/>
        <path d="M6.722 11a4.283 4.283 0 0 0-4.278 4.278 4.283 4.283 0 0 0 4.278 4.278A4.283 4.283 0 0 0 11 15.278 4.283 4.283 0 0 0 6.722 11zm1.268 4.753H6.722a.475.475 0 0 1-.475-.475v-1.901a.475.475 0 0 1 .95 0v1.425h.793a.475.475 0 0 1 0 .951z"/>
    </g>
</svg>
