<svg width="21" height="21" viewBox="0 0 21 21" xmlns="http://www.w3.org/2000/svg">
    <path d="M9.917 2.333c-4.83 0-8.75 3.92-8.75 8.75s3.92 8.75 8.75 8.75 8.75-3.92 8.75-8.75-3.92-8.75-8.75-8.75zm6.947 7.875h-3.027c-.097-2.213-.57-4.19-1.278-5.608a6.999 6.999 0 0 1 4.305 5.608zM2.97 11.958h3.028c.096 2.214.568 4.192 1.277 5.61a7.015 7.015 0 0 1-4.305-5.61zm3.028-1.75H2.969A6.999 6.999 0 0 1 7.274 4.6c-.709 1.417-1.172 3.395-1.277 5.608zm5.11 6.344c-.298.656-.604 1.085-.858 1.321-.122.114-.21.167-.262.193-.044.017-.062.017-.07.017-.01 0-.027 0-.07-.017a1.142 1.142 0 0 1-.263-.193c-.254-.236-.56-.665-.857-1.32-.508-1.138-.884-2.74-.98-4.595h4.33c-.087 1.855-.463 3.457-.97 4.594zm-3.36-6.344c.087-1.855.463-3.456.98-4.593.297-.657.603-1.085.857-1.322.123-.113.21-.166.263-.192.043-.018.06-.018.07-.018.008 0 .026 0 .07.018.052.026.14.079.262.192.254.237.56.665.858 1.322.507 1.137.883 2.738.98 4.593h-4.34zm4.812 7.36c.7-1.418 1.173-3.396 1.278-5.61h3.027a6.999 6.999 0 0 1-4.305 5.61z" fill-rule="nonzero"/>
</svg>
