<svg width="23" height="24" viewBox="0 0 23 24" xmlns="http://www.w3.org/2000/svg">
    <g  fill-rule="nonzero">
        <path d="M9.018 17.277H6.914a.67.67 0 0 1-.672-.665V7.364a.67.67 0 0 1 .672-.664h2.104c.665 0 1.204-.532 1.204-1.189 0-.656-.539-1.189-1.204-1.189H6.914c-.818 0-1.603.323-2.18.895a3.024 3.024 0 0 0-.9 2.154v9.249c.005 1.676 1.382 3.033 3.08 3.036h2.104c.665 0 1.204-.533 1.204-1.19 0-.656-.539-1.189-1.204-1.189z"/>
        <path d="m18.788 11.634-3.062-3.17a1.236 1.236 0 0 0-1.723.088 1.378 1.378 0 0 0-.063 1.802l.835.886H8.942c-.704 0-1.275.597-1.275 1.333 0 .737.57 1.334 1.275 1.334h5.868l-.893.933a1.377 1.377 0 0 0 .016 1.87 1.237 1.237 0 0 0 1.788.016l3.046-3.174c.252-.248.396-.593.4-.954a1.365 1.365 0 0 0-.38-.964z"/>
    </g>
</svg>
