<svg width="21" height="21" viewBox="0 0 21 21" xmlns="http://www.w3.org/2000/svg">
    <path d="m10.5 4.467 1.443 2.68c.334.622.926 1.07 1.63 1.202l.014.002 3.036.546-2.107 2.194a2.354 2.354 0 0 0-.664 1.638 2.298 2.298 0 0 0 0 .335v-.008l.419 3.021-2.664-1.286a2.517 2.517 0 0 0-1.107-.26h-.011c-.405 0-.787.094-1.127.262l.014-.007-2.648 1.281.418-3.021a3.02 3.02 0 0 0 0-.324v.007a2.354 2.354 0 0 0-.664-1.638L4.376 8.897l3.001-.546a2.323 2.323 0 0 0 1.668-1.182l.006-.012 1.45-2.69zm0-2.133h-.001a.888.888 0 0 0-.779.46l-.002.004-1.94 3.65a.922.922 0 0 1-.616.452l-.006.001-4.083.735a.894.894 0 0 0-.74.878v.006c0 .236.094.45.245.606l2.863 2.986c.155.158.25.374.25.612a1.11 1.11 0 0 1 0 .152v-.004l-.556 4.083a.46.46 0 0 0 0 .125v-.003.006c0 .487.396.882.883.882h.031a.863.863 0 0 0 .372-.104l-.004.002 3.638-1.755c.138-.068.299-.107.47-.107h.002c.172 0 .335.041.478.114L11 16.113l3.573 1.755a.78.78 0 0 0 .38.097h.039a.888.888 0 0 0 .883-.882.825.825 0 0 0 0-.131v.003l-.557-4.083a.825.825 0 0 1 0-.13v.003-.004a.85.85 0 0 1 .25-.604l2.854-3.01a.884.884 0 0 0-.474-1.48l-.006-.001-4.083-.735a.891.891 0 0 1-.625-.464l-.002-.005-1.94-3.65a.889.889 0 0 0-.777-.459H10.5z" fill="#AADDCB" fill-rule="nonzero"/>
</svg>
