<svg width="38" height="40" viewBox="0 0 38 40" xmlns="http://www.w3.org/2000/svg">
    <g fill="none" fill-rule="evenodd">
        <path d="M0 0h38v40H0z"/>
        <g fill="#FFF" fill-rule="nonzero" stroke="#FFF">
            <path d="M25.333 14.749h-1.967v6.616a1.69 1.69 0 0 1-1.69 1.69h-4.43v3.934h1.093c.094-.6.59-1.058 1.2-1.093h.004a1.289 1.289 0 0 1 1.2 1.086v.007h1.749c.093-.6.59-1.06 1.2-1.093h.004c.617.03 1.117.49 1.21 1.086l.001.007H26V15.404a.656.656 0 0 0-.656-.655h-.011z"/>
            <path d="M21.18 13h-8.524a.656.656 0 0 0-.656.656v7.213c0 .362.294.656.656.656h.218v2.404l3.607-2.404h4.7a.656.656 0 0 0 .655-.656v-7.213A.656.656 0 0 0 21.18 13z"/>
        </g>
    </g>
</svg>
