<svg width="23" height="24" viewBox="0 0 23 24" xmlns="http://www.w3.org/2000/svg">
    <path d="M19.251 2.928H3.748c-.659 0-1.192.534-1.192 1.192V19.7c0 .617.5 1.118 1.118 1.118h15.652c.618 0 1.118-.5 1.118-1.118V4.12c0-.658-.533-1.192-1.192-1.192zM7.586 16.97 5.35 14.734l1.193-1.192 1.08 1.088 2.72-2.757 1.193 1.192-3.95 3.906zm0-5.59L5.35 9.143l1.156-1.222 1.08 1.088 2.758-2.766 1.192 1.193-3.95 3.943zM17.65 15.51h-3.913v-1.685h3.913v1.685zm0-5.59h-3.913V8.235h3.913V9.92z" fill-rule="nonzero"/>
</svg>
