<svg width="21" height="21" viewBox="0 0 21 21" xmlns="http://www.w3.org/2000/svg">
    <g fill-rule="nonzero">
        <path d="M17.177 5.816h-2.253a2.274 2.274 0 1 0-4.2-1.209v.005-.005a2.274 2.274 0 1 0-4.195 1.218l-.006-.009H4.271a.77.77 0 0 0-.771.77v1.67c0 .426.345.77.77.77h12.907a.77.77 0 0 0 .77-.77v-1.67a.77.77 0 0 0-.77-.77zm-5.115-1.204a.937.937 0 1 1 .936.937h-.936v-.937zM8.45 3.676c.517 0 .936.42.936.936v.937H8.45a.937.937 0 0 1 0-1.873zM4.57 17.722c0 .522.423.945.945.945h3.871V10.64H4.57v7.082zM12.062 18.659h3.871c.519 0 .94-.419.944-.936v-7.09h-4.815v8.026z"/>
    </g>
</svg>
