<svg width="27" height="27" viewBox="0 0 27 27" xmlns="http://www.w3.org/2000/svg">
    <g fill-rule="nonzero">
        <path d="M12.585 21.268 3 16.5v3.172c0 .485.26.905.634 1.1l.007.003 8.945 4.506a2.033 2.033 0 0 0 1.843-.006l-.014.006 8.945-4.506c.381-.198.64-.618.64-1.103V16.5l-9.585 4.768a1.981 1.981 0 0 1-1.842-.007l.013.006z"/>
        <path d="m3.346 14.691 9.165 4.577a2.228 2.228 0 0 0 1.995-.007l-.016.007 9.164-4.577a.654.654 0 0 0 .346-.587.652.652 0 0 0-.342-.585l-.004-.002L14.618 9v4.07c0 .66-.492 1.193-1.1 1.193-.607 0-1.1-.534-1.1-1.194V9l-9.072 4.517a.654.654 0 0 0-.346.587c0 .26.14.483.342.586l.004.001zM16.5 4.5a3 3 0 1 1-6 0 3 3 0 0 1 6 0z"/>
    </g>
</svg>
