<svg width="22" height="22" viewBox="0 0 22 22" xmlns="http://www.w3.org/2000/svg">
    <path d="M15.824 1.351c-.206 0-.411-.04-.62-.055a24.624 24.624 0 0 0-1.89-.073h-.087c-.587 0-1.151.104-1.674.296l.035-.011a3.68 3.68 0 0 0-1.972 1.66l-.01.017a4.613 4.613 0 0 0-.531 1.556l-.004.027c-.05.31-.079.669-.079 1.034v.06-.004 2.53h-2.88v3.483h2.877v8.907h3.48v-8.91h2.873c.144-1.164.294-2.319.432-3.483H12.47a.578.578 0 0 1 0-.069v.002V5.953c0-.25.046-.49.13-.71l-.004.014c.12-.324.372-.57.686-.67l.008-.003c.212-.072.455-.113.708-.113h.038-.002 1.781c.074 0 .074 0 .074-.073V1.431c0-.049-.006-.076-.065-.08z" fill-rule="nonzero"/>
</svg>
