<svg width="18" height="18" viewBox="0 0 18 18" xmlns="http://www.w3.org/2000/svg">
    <path d="M17 7.392C17 3.864 13.414 1 9 1 4.587 1 1 3.864 1 7.392c0 3.167 2.846 5.815 6.667 6.314.26.059.613.17.7.388a1.632 1.632 0 0 1-.002.727l.002-.01-.114.656c-.034.197-.16.775.666.42 2.412-1.274 4.482-2.805 6.285-4.597l.002-.002A5.65 5.65 0 0 0 17 7.404L17 7.392zM6.18 9.284a.152.152 0 0 1-.153.145H3.774a.145.145 0 0 1-.147-.145V5.842c0-.084.069-.152.154-.152h.554c.084 0 .153.068.153.152v2.733h1.54c.083 0 .15.064.153.144l-.001.565zm1.333 0a.152.152 0 0 1-.152.145h-.553a.145.145 0 0 1-.147-.145V5.842c0-.084.069-.152.154-.152h.566c.084 0 .154.068.154.152l-.022 3.442zm3.86 0c0 .08-.065.145-.146.145h-.713L8.914 7.3v2.044c0 .08-.066.144-.146.144H8.76h.001-.566a.152.152 0 0 1-.154-.144V5.84c0-.083.069-.151.154-.151h.666l1.6 2.129V5.84c0-.083.069-.151.154-.151h.566c.085 0 .154.067.154.151l.038 3.443zm3.1-2.884a.153.153 0 0 1-.139.138h-1.52v.592h1.52a.16.16 0 0 1 .153.15v.573a.152.152 0 0 1-.153.15h-1.52v.586h1.52c.082 0 .149.064.152.144V9.3a.152.152 0 0 1-.152.144H12.087a.145.145 0 0 1-.146-.144V5.843c0-.083.068-.151.153-.151h2.24c.085 0 .154.067.154.151l-.014.557z" fill-rule="nonzero"/>
</svg>
