<svg width="20" height="20" viewBox="0 0 20 20" xmlns="http://www.w3.org/2000/svg">
    <g fill-rule="nonzero">
        <path d="M10.75 5.632h.007c1.194 0 2.288.415 3.14 1.105l-.008-.006 2.482-2.425a8.586 8.586 0 0 0-5.636-2.084c-3.154 0-5.906 1.676-7.377 4.166l-.022.04 2.742 2.305a5.027 5.027 0 0 1 4.667-3.101h.005zM5.71 10.556v-.003c0-.617.116-1.209.327-1.755l-.012.035.053-.1L3.336 6.43c-.072.125-.144.26-.208.378a8.115 8.115 0 0 0-.906 3.75c0 1.367.335 2.657.929 3.797l-.023-.047c.016.033.038.065.054.099l2.782-2.344a4.679 4.679 0 0 1-.253-1.504v-.001zM18.889 10.556a6.87 6.87 0 0 0-.202-1.563l.01.047H10.75v3.222h4.573a3.756 3.756 0 0 1-1.037 1.94l2.354 2.3c1.377-1.42 2.249-3.425 2.249-5.946z"/>
        <path d="M14.287 14.202a3.82 3.82 0 0 1-.686.546l-.015.009-.056.03a5.32 5.32 0 0 1-2.78.698h.006-.013c-2.15 0-3.986-1.317-4.706-3.172l-.011-.033a4.67 4.67 0 0 1-.067-.206l-2.782 2.344a8.538 8.538 0 0 0 7.539 4.47h.037-.002.058a8.234 8.234 0 0 0 5.13-1.774l-.016.011c.13-.101.267-.203.384-.315.117-.112.221-.208.328-.315l-2.348-2.293z"/>
    </g>
</svg>
