<svg width="23" height="23" viewBox="0 0 23 23" xmlns="http://www.w3.org/2000/svg">
    <path d="M2.741 5.893A13.54 13.54 0 0 0 11.5 2.556a13.54 13.54 0 0 0 8.759 3.338c.123.71.185 1.442.185 2.186 0 5.709-3.734 10.565-8.944 12.364-5.21-1.8-8.944-6.656-8.944-12.365 0-.745.063-1.475.185-2.186zm12.904 4.051a1.075 1.075 0 0 0-.014-1.531 1.137 1.137 0 0 0-1.567-.014l-3.682 3.598-1.446-1.413a1.137 1.137 0 0 0-1.567.014 1.075 1.075 0 0 0-.014 1.531l2.236 2.185a1.137 1.137 0 0 0 1.581 0l4.473-4.37z" fill-rule="nonzero"/>
</svg>
