<svg width="25" height="26" viewBox="0 0 25 26" xmlns="http://www.w3.org/2000/svg">
    <g fill-rule="nonzero">
        <path d="M13.889 2.958a.173.173 0 0 0-.001-.074v.001a9.727 9.727 0 0 0-8.28 2.792l-.001.001c3.124 1.342 5.814 3.05 8.183 5.117l-.036-.031c1.22-2.025 1.22-4.756.134-7.806zM12.193 12.606a27.48 27.48 0 0 0-7.925-4.874l-.185-.066a9.649 9.649 0 0 0-1.305 4.875v.004c.005.436.036.859.091 1.274l-.006-.054c3.732.915 7.123.573 9.33-1.159zM15.547 21.826a9.757 9.757 0 0 0 2.866-1.506l-.024.018a42.43 42.43 0 0 0-1.44-2.44 7.74 7.74 0 0 0-1.4 3.902l-.002.026zM13.974 14.289a11.136 11.136 0 0 1-7.339 2.365h.022a18.71 18.71 0 0 1-3.237-.31l.115.018c1.525 3.521 4.969 5.94 8.979 5.94h.558c.044-2.426.93-4.636 2.379-6.358l-.013.016a25.918 25.918 0 0 0-1.463-1.671h-.001zM15.596 12.46c.598.621 1.22 1.219 1.732 1.926a9.008 9.008 0 0 1 4.894-1.219h-.016v-.635a9.758 9.758 0 0 0-5.563-8.804l-.06-.025c.326.98.514 2.108.514 3.28 0 2.02-.558 3.91-1.528 5.525l.027-.049zM20.194 18.643a9.69 9.69 0 0 0 1.578-2.907l.02-.07a6.422 6.422 0 0 0-3.023.762l.035-.017c.487.675.95 1.419 1.39 2.232z"/>
    </g>
</svg>
