<svg width="23" height="24" viewBox="0 0 23 24" xmlns="http://www.w3.org/2000/svg">
    <path d="M11.5 2.672h-.024c-4.22 0-7.643 3.367-7.643 7.52 0 .05 0 .1.002.15v-.007 6.253h4.939V11.23H6.448v-.894a4.838 4.838 0 0 1-.002-.165c0-2.72 2.241-4.926 5.006-4.926h.05-.002.048c2.765 0 5.007 2.206 5.007 4.926 0 .058-.001.115-.003.173v-.008.894h-2.325v5.36h2.143c-.492 1.155-2.068 1.4-4.87 1.4v2.572c2.492 0 7.666 0 7.666-4.86v-5.507c0-4.154-3.421-7.52-7.642-7.52h-.026.001l.001-.002z" fill-rule="nonzero"/>
</svg>
