<svg width="23" height="23" viewBox="0 0 23 23" xmlns="http://www.w3.org/2000/svg">
    <g fill-rule="nonzero">
        <path d="M11.571 20.444a9.253 9.253 0 0 1-2.486-.339 8.912 8.912 0 0 1-3.779-2.186.619.619 0 0 1 0-.899.668.668 0 0 1 .925 0c.89.88 2 1.523 3.22 1.865 2.655.746 5.518.03 7.471-1.87 1.954-1.9 2.689-4.68 1.918-7.259a.62.62 0 0 1 .055-.483.651.651 0 0 1 .39-.305.666.666 0 0 1 .812.432 8.43 8.43 0 0 1-1.437 7.578c-1.678 2.166-4.306 3.44-7.097 3.441l.008.025zM3.539 14.056a.659.659 0 0 1-.626-.458c-1.139-3.79.51-7.85 4.003-9.852 3.492-2.002 7.933-1.435 10.778 1.376a.62.62 0 0 1 0 .898.664.664 0 0 1-.921 0 7.396 7.396 0 0 0-3.209-1.864c-2.648-.778-5.52-.084-7.489 1.81-1.968 1.894-2.717 4.685-1.954 7.276a.621.621 0 0 1-.054.484.65.65 0 0 1-.528.33z"/>
        <path d="M17.448 6.389c-.212.002-.396-.2-.438-.484l-.397-2.684c-.02-.31.135-.591.359-.653.224-.062.447.115.518.411l.39 2.692c.048.328-.109.645-.349.71l-.083.008zM5.944 20.444c-.21-.004-.391-.202-.438-.479l-.39-2.667c-.035-.316.12-.614.353-.675.232-.062.46.133.516.444l.396 2.659c.044.325-.11.639-.348.71l-.09.008zM11.5 5.111a6.389 6.389 0 1 0 6.389 6.389A6.398 6.398 0 0 0 11.5 5.111zm0 5.887a2.089 2.089 0 0 1 .696 4.053v.353a.696.696 0 0 1-1.392 0v-.38a2.08 2.08 0 0 1-1.393-1.938.696.696 0 1 1 1.393 0 .696.696 0 1 0 .696-.705 2.089 2.089 0 0 1-.696-4.053v-.353a.696.696 0 1 1 1.392 0v.353a2.08 2.08 0 0 1 1.393 1.965.696.696 0 0 1-1.393 0 .696.696 0 1 0-.696.696v.009z"/>
    </g>
</svg>
