<svg width="24" height="24" viewBox="0 0 24 24" xmlns="http://www.w3.org/2000/svg">
    <g fill="#AADDCB" fill-rule="nonzero">
        <path d="M24 19.303v-4.377h-5.063a2.19 2.19 0 1 0 .005 4.375l-.005.001H24zm-3.896-2.187a1.001 1.001 0 1 1-1.002-1.005c.553 0 1.002.449 1.002 1.002v.003zM3.911 7.524a.668.668 0 0 0-.663.667v.072c0 .367.296.664.663.664h2.592a6.691 6.691 0 0 1-.734-1.357l-.016-.046H3.91zM18.63 7.524a6.816 6.816 0 0 1-.764 1.424l.014-.021h3.87V7.524h-3.12zM20.719 6.118V5.034h-1.594a6.884 6.884 0 0 1-.107 1.125l.006-.041h1.695z"/>
        <path d="M18.938 13.52h4.398v-1.196c0-1.099-.89-1.989-1.987-1.991H3.802A2.11 2.11 0 0 1 1.837 8.23v-.005a1.843 1.843 0 0 1 0-.196v.004a2.08 2.08 0 0 1 2.067-1.916h1.444a6.558 6.558 0 0 1-.098-1.08v-.004H2.647A2.651 2.651 0 0 0 0 7.684v13.913a2.302 2.302 0 0 0 2.299 2.299h19.046c1.1 0 1.991-.892 1.991-1.992v-1.196h-4.398a3.596 3.596 0 1 1 .006-7.188h-.007z"/>
        <path d="M17.141 4.959v-.005a4.954 4.954 0 1 0-7.925 3.964l.013.009h5.917a4.932 4.932 0 0 0 1.995-3.964v-.004z"/>
    </g>
</svg>
