<svg width="23" height="23" viewBox="0 0 23 23" xmlns="http://www.w3.org/2000/svg">
    <g fill-rule="nonzero">
        <path d="M20.444 17.006V13.73h-3.773a1.636 1.636 0 0 0-1.7 1.638 1.636 1.636 0 0 0 1.703 1.637h-.003l3.773.001zm-2.904-1.637a.748.748 0 0 1-.746.747.748.748 0 0 1-.746-.75c0-.413.334-.749.746-.749s.746.336.746.75v.002zM5.47 8.188a.499.499 0 0 0-.494.5v.053c0 .275.222.497.495.497h1.931a5.016 5.016 0 0 1-.546-1.016l-.013-.034H5.471zM16.442 8.188a5.11 5.11 0 0 1-.57 1.066l.01-.016h2.885v-1.05h-2.325zM17.999 7.135v-.81H16.81c-.004.289-.032.569-.08.841l.004-.03H18z"/>
        <path d="M16.671 12.677h3.279v-.895c0-.823-.663-1.49-1.482-1.491H5.39a1.576 1.576 0 0 1-1.465-1.574v-.004a1.386 1.386 0 0 1 0-.147v.003a1.553 1.553 0 0 1 1.54-1.434h1.076a4.93 4.93 0 0 1-.072-.809v-.002h-1.94a1.98 1.98 0 0 0-1.973 1.984v10.416a1.72 1.72 0 0 0 1.713 1.72h14.196c.82 0 1.485-.667 1.485-1.49v-.896H16.67a2.687 2.687 0 0 1-2.767-2.69 2.687 2.687 0 0 1 2.771-2.69h-.004z"/>
        <path d="M15.332 6.268v-.004a3.7 3.7 0 0 0-3.692-3.708 3.7 3.7 0 0 0-3.693 3.708c0 1.213.58 2.29 1.478 2.967l.01.007h4.41a3.698 3.698 0 0 0 1.487-2.967v-.003z"/>
    </g>
</svg>
