<svg width="50" height="53" viewBox="0 0 50 53" xmlns="http://www.w3.org/2000/svg">
    <g fill="#AADDCB" fill-rule="nonzero">
        <path d="M41.667 10.278c1.534 0 2.777 1.3 2.777 2.903 0 1.489-1.072 2.716-2.453 2.884l-.324.02H8.333c-1.534 0-2.777-1.3-2.777-2.904 0-1.489 1.072-2.716 2.453-2.884l.324-.02h33.334zM41.667 23.677c1.534 0 2.777 1.3 2.777 2.904 0 1.489-1.072 2.716-2.453 2.883l-.324.02H8.333c-1.534 0-2.777-1.3-2.777-2.903 0-1.49 1.072-2.716 2.453-2.884l.324-.02h33.334zM41.667 37.077c1.534 0 2.777 1.3 2.777 2.903 0 1.489-1.072 2.716-2.453 2.884l-.324.02H8.333c-1.534 0-2.777-1.3-2.777-2.904 0-1.489 1.072-2.716 2.453-2.884l.324-.02h33.334z"/>
    </g>
</svg>
