<svg width="49" height="49" viewBox="0 0 49 49" xmlns="http://www.w3.org/2000/svg">
    <path d="M41.014 5.444H7.984a2.54 2.54 0 0 0-2.54 2.54v33.19a2.381 2.381 0 0 0 2.382 2.382h33.348a2.381 2.381 0 0 0 2.382-2.382V7.984a2.54 2.54 0 0 0-2.54-2.54h-.002zM16.162 35.362l-4.764-4.764 2.54-2.54 2.303 2.318 5.796-5.875 2.54 2.54-8.415 8.32zm0-11.91-4.764-4.764 2.462-2.605 2.302 2.32 5.875-5.893 2.54 2.54-8.415 8.402zM37.6 32.25h-8.337V28.66H37.6v3.589zm0-11.91h-8.337v-3.588H37.6v3.588z" fill-rule="nonzero"/>
</svg>
