<?xml version="1.0" encoding="UTF-8"?>
<svg width="24px" height="24px" viewBox="0 0 24 24" version="1.1" xmlns="http://www.w3.org/2000/svg" xmlns:xlink="http://www.w3.org/1999/xlink">
    
    <g id="页面-1" stroke="none" stroke-width="1" >
        <g id="公告09">
            <rect id="矩形"  opacity="0" x="0" y="0" width="24" height="24"></rect>
            <path d="M24,9.2107143 C23.9144385,8.46428572 23.2299465,7.91428572 22.4171123,7.91428572 L17.7112299,7.91428572 L16.2139037,6.53928571 L13.8609626,4.37857144 C14.1604278,4.02500001 14.2887701,3.59285716 14.28877,3.12142857 C14.28877,1.94285714 13.3048128,1 12.0213904,1 C10.7807487,1 9.7540107,1.94285714 9.7540107,3.08214287 L9.7540107,3.27857143 C9.79679145,3.67142858 9.9251337,4.02500001 10.1818182,4.33928572 L6.33155079,7.875 L1.62566844,7.875 C0.727272719,7.875 0,8.54285714 0,9.36785714 L0,21.5464286 C0.042780757,22.3321428 0.770053476,23 1.6684492,23 L22.4171123,23 C23.315508,23 24,22.3321429 24,21.5071428 L24,9.2107143 Z M8.57142858,7.45833333 L11.1648352,5 C11.6923077,5.20833333 12.2637363,5.20833333 12.8351648,5 L13.5384615,5.66666667 L16,8 L8,8 L8.57142858,7.45833333 Z M3.88105726,12 L12.1189427,12 C12.6035242,12 13,12.45 13,13 C13,13.55 12.6035242,14 12.1189427,14 L3.88105726,14 C3.39647577,14 3,13.55 3,13 C3,12.45 3.39647577,12 3.88105726,12 L3.88105726,12 Z M14.1340206,19 L3.82474226,19 C3.37113402,19 3,18.55 3,18 C3,17.45 3.37113402,17 3.82474226,17 L14.1752577,17 C14.628866,17 15,17.45 15,18 C15,18.55 14.5876289,19 14.1340206,19 L14.1340206,19 Z M20.1469194,16 L3.85308056,16 C3.38388626,16 3,15.55 3,15 C3,14.45 3.38388626,14 3.85308056,14 L20.1469194,14 C20.6161137,14 21,14.45 21,15 C21,15.55 20.6161137,16 20.1469194,16 Z" id="形状"  fill-rule="nonzero"></path>
        </g>
    </g>
</svg>