<svg xmlns="http://www.w3.org/2000/svg" width="24" height="24" viewBox="0 0 24 24">
  <g id="组_3803" data-name="组 3803" transform="translate(240 -436)">
    <rect id="矩形_8424" data-name="矩形 8424" width="24" height="24" transform="translate(-240 436)" fill="none"/>
    <path id="路径_2374" data-name="路径 2374" d="M-232,453a9.01,9.01,0,0,1,9-9,8.938,8.938,0,0,1,1,.059V438a2,2,0,0,0-2-2h-14a2,2,0,0,0-2,2v20a2,2,0,0,0,2,2h9.356A8.983,8.983,0,0,1-232,453Zm-5-14h10a1,1,0,0,1,1,1,1,1,0,0,1-1,1h-10a1,1,0,0,1-1-1A1,1,0,0,1-237,439Zm0,4h5a1,1,0,0,1,1,1,1,1,0,0,1-1,1h-5a1,1,0,0,1-1-1A1,1,0,0,1-237,443Zm2,10h-2a1,1,0,0,1-1-1,1,1,0,0,1,1-1h2a1,1,0,0,1,1,1A1,1,0,0,1-235,453Zm1-4h-3a1,1,0,0,1-1-1,1,1,0,0,1,1-1h3a1,1,0,0,1,1,1A1,1,0,0,1-234,449Zm9.09,2.052c0,.644.23.77.608.9l.748.259V450.1h-.482A.92.92,0,0,0-224.91,451.052ZM-223,446a7,7,0,0,0-7,7,7,7,0,0,0,7,7,7,7,0,0,0,7-7A7,7,0,0,0-223,446Zm3.03,8.956a2.027,2.027,0,0,1-1.992,2.059h-.482v.429A.555.555,0,0,1-223,458a.556.556,0,0,1-.556-.556v-.429h-.266a2.242,2.242,0,0,1-2.2-2.282.555.555,0,0,1,.555-.555.556.556,0,0,1,.556.555,1.134,1.134,0,0,0,1.088,1.171h.266v-2.5l-1.118-.4a1.853,1.853,0,0,1-1.356-1.956,2.028,2.028,0,0,1,1.993-2.059h.481v-.429A.556.556,0,0,1-223,448a.556.556,0,0,1,.556.556v.429h.266a2.242,2.242,0,0,1,2.2,2.282.556.556,0,0,1-.555.555.556.556,0,0,1-.556-.555,1.135,1.135,0,0,0-1.089-1.171h-.266v2.5l1.118.4a1.853,1.853,0,0,1,1.356,1.956Zm-1.718-.9-.748-.259V455.9h.474a.924.924,0,0,0,.881-.948C-221.081,454.31-221.31,454.184-221.688,454.051Z" fill="currentColor"/>
  </g>
</svg>
