<svg xmlns="http://www.w3.org/2000/svg" width="30" height="30" viewBox="0 0 30 30"><path class="b" d="M217.109,292.074a9.154,9.154,0,0,1,9.136,9.136,5.311,5.311,0,0,1-.062.988,19.2,19.2,0,0,1-3.333,1.111,25.977,25.977,0,0,1-3.272.494,1.71,1.71,0,0,0-1.42-.8h-1.852a1.6,1.6,0,0,0,0,3.21h1.852a1.488,1.488,0,0,0,1.481-.988,29.962,29.962,0,0,0,3.518-.556c.926-.247,1.79-.494,2.654-.8a9.037,9.037,0,0,1-8.642,6.42,9.154,9.154,0,0,1-9.136-9.136,9.049,9.049,0,0,1,9.074-9.074Zm.123-4.074a13.112,13.112,0,0,0-9.322,3.89,13.821,13.821,0,0,0-3.332,5.554h-.432a1.938,1.938,0,0,0-1.914,1.975v3.025a1.975,1.975,0,0,0,1.914,1.975h2.531v-6.728a10.5,10.5,0,0,1,2.716-4.321,11.111,11.111,0,0,1,7.9-3.272,10.994,10.994,0,0,1,7.9,3.272,10.7,10.7,0,0,1,2.593,4.136v6.913h2.469a1.988,1.988,0,0,0,1.975-1.975v-3.086a1.938,1.938,0,0,0-1.975-1.914h-.37A13.308,13.308,0,0,0,217.233,288Z" transform="translate(-202.232 -283.909)"/></svg>