<svg xmlns="http://www.w3.org/2000/svg" width="16" height="16" viewBox="0 0 16 16"><defs><style>.a{fill:#none;}</style></defs><path class="a" d="M3.2,15.93A3.2,3.2,0,0,1,0,12.73V3.13A3.2,3.2,0,0,1,3.2-.07H5.333a1.067,1.067,0,1,1,0,2.133H3.2A1.067,1.067,0,0,0,2.133,3.13v9.6A1.067,1.067,0,0,0,3.2,13.8h9.6a1.067,1.067,0,0,0,1.067-1.067V10.6A1.067,1.067,0,1,1,16,10.6V12.73a3.2,3.2,0,0,1-3.2,3.2Zm1.379-4.576a1.067,1.067,0,0,1,0-1.51l7.779-7.775H9.6a1.067,1.067,0,1,1,0-2.133h5.333A1.067,1.067,0,0,1,16,1V6.335a1.067,1.067,0,1,1-2.133,0V3.575L6.087,11.361a1.074,1.074,0,0,1-1.508,0Z" transform="translate(0 0.07)"/></svg>