<svg width="49" height="49" viewBox="0 0 49 49" xmlns="http://www.w3.org/2000/svg">
    <g fill-rule="nonzero">
        <path d="M27.222 5.778a.337.337 0 0 0-.002-.145v.002c-.796-.12-1.716-.19-2.652-.19h-.001a19.099 19.099 0 0 0-13.577 5.643v.002c6.123 2.621 11.396 5.957 16.04 9.993l-.073-.06c2.39-3.955 2.39-9.29.263-15.245h.002zM23.899 24.62A53.894 53.894 0 0 0 8.366 15.1l-.364-.128c-1.607 2.731-2.558 6.016-2.558 9.52v.01c.011.85.072 1.676.18 2.487l-.012-.106c7.315 1.787 13.96 1.12 18.287-2.263zM30.473 42.627a19.147 19.147 0 0 0 5.616-2.94l-.047.034a82.8 82.8 0 0 0-2.82-4.764 15.081 15.081 0 0 0-2.746 7.618l-.003.052zM27.389 27.906c-3.689 2.89-8.399 4.637-13.52 4.637-.289 0-.577-.006-.864-.017l.042.001a36.8 36.8 0 0 1-6.344-.606l.225.034c2.989 6.877 9.74 11.6 17.6 11.6h1.094a19.73 19.73 0 0 1 4.662-12.415l-.025.03a50.673 50.673 0 0 0-2.869-3.264h-.001zM30.568 24.333c1.172 1.215 2.39 2.382 3.395 3.764 2.565-1.504 5.65-2.393 8.944-2.393.217 0 .433.004.649.012l-.032-.001v-1.239c-.005-7.586-4.46-14.134-10.904-17.195l-.116-.049c.638 1.914 1.006 4.117 1.006 6.405 0 3.947-1.094 7.639-2.994 10.792l.052-.096zM39.58 36.41a18.905 18.905 0 0 0 3.092-5.678l.04-.134c-2.143.007-4.16.543-5.925 1.486l.068-.033a39.31 39.31 0 0 1 2.725 4.359z"/>
    </g>
</svg>
