<?xml version="1.0" encoding="UTF-8"?>
<svg width="24px" height="24px" viewBox="0 0 24 24" version="1.1" xmlns="http://www.w3.org/2000/svg" xmlns:xlink="http://www.w3.org/1999/xlink">
    <g id="页面-1" stroke="none" stroke-width="1" >
        <g id="篮球" >
            <path d="M15.9663205,23.3198563 C17.6338292,22.732698 19.0625877,21.8388377 20.2510993,20.6967661 L20.2473571,20.7005155 C19.550566,19.4737072 18.8904481,18.4516169 18.1809337,17.4685205 L18.2512864,17.5712545 C16.9400318,19.1242618 16.0987932,21.1129511 15.9670689,23.2928605 L15.9655721,23.3198563 L15.9663205,23.3198563 Z" id="路径"></path>
            <path d="M21.5945364,19.1205124 C22.4791842,17.9611936 23.1654972,16.5956569 23.5711479,15.1138885 L23.5906072,15.0306515 C22.1715783,15.1506327 20.879783,15.6035619 19.7638694,16.3107015 L19.7982973,16.2904546 C20.4172514,17.2105608 21.0257274,18.150164 21.5945364,19.1197625 L21.5945364,19.1205124 Z" id="路径"></path>
            <path d="M3.57227056,3.46295891 C7.73580316,5.18543978 11.3133128,7.47708171 14.4110768,10.2898922 L14.3796426,10.2621465 C16.0658621,7.74254023 16.3757134,4.31332604 15.1580129,0.443930636 C14.1932828,0.161974691 13.085602,6.66029748e-16 11.9397511,6.66029748e-16 C8.67733184,6.66029748e-16 5.72102161,1.31529449 3.57077369,3.44496172 L3.57227056,3.44346196 L3.57227056,3.46295891 Z" id="路径"></path>
            <path d="M5.42838432,16.3511951 C4.60510806,16.3474457 3.79754888,16.2972036 3.00420994,16.2012186 L3.10375152,16.210967 C2.12629806,16.0954851 1.28131724,15.948508 0.452053513,15.7587877 L0.618954065,15.7910327 C2.25128637,20.5992814 6.71718589,23.9970005 11.9749275,24 L11.9749275,24 C12.6821967,23.9977504 13.3722518,23.9325105 14.0420994,23.8095298 L13.9709982,23.8200281 C14.001684,20.812998 15.1310693,18.0766755 16.9759566,15.9882518 L16.9647301,16.0009998 C16.1579194,14.9811592 15.351857,14.0715513 14.497895,13.2091861 L14.5001403,13.2114357 C12.2413696,15.1708796 9.27458135,16.364693 6.02937599,16.364693 C5.8183179,16.364693 5.60800823,16.3594438 5.39994387,16.3496954 L5.42913275,16.3511951 L5.42838432,16.3511951 Z" id="路径"></path>
            <path d="M13.102816,11.782159 C10.0245112,8.99109514 6.41032837,6.72269958 2.44363364,5.15619434 L2.20563196,5.07295735 C0.826269997,6.99565693 0,9.39753164 0,11.9921262 C0,11.9958756 0,11.9988752 0,12.0026246 L0,12.0018747 C0.00449059781,12.5777847 0.04789971,13.1386971 0.127982038,13.6883612 L0.119749275,13.6216216 C1.00514548,13.8645837 2.09187015,14.0783003 3.20104781,14.2192782 L3.32304238,14.2320262 C7.45439237,14.6819559 10.8575171,13.8218403 13.102816,11.782159 Z" id="路径"></path>
            <path d="M15.8465712,11.6516794 C16.7821125,12.582284 17.6660118,13.5601312 18.4975208,14.5829714 L18.551408,14.6512107 C20.0782112,13.6516169 21.9388156,13.0412123 23.9393769,13.0014685 L23.949855,13.0014685 C23.949855,12.6617716 24,12.3115763 24,12.0018747 C23.9880251,7.37659741 21.3647675,3.36772379 17.5305454,1.37528511 L17.4639349,1.34379003 C18.3620544,5.34291517 17.8134531,8.9228558 15.8473197,11.6524293 L15.8465712,11.6516794 Z" id="路径"></path>
        </g>
    </g>
</svg>