<?xml version="1.0" encoding="UTF-8"?>
<svg width="24px" height="24px" viewBox="0 0 24 24" version="1.1" xmlns="http://www.w3.org/2000/svg" xmlns:xlink="http://www.w3.org/1999/xlink">
    <g id="页面-1" stroke="none" stroke-width="1">
        <g id="棒球" transform="translate(0.000000, -0.000027)" >
            <path d="M0,12.6771849 C2.92575758,12.7051539 5.84253063,13.8164653 8.07455905,16.0269655 C10.3008511,18.2317611 11.4217176,21.1108229 11.4563597,24.0000266 C8.52802595,23.9854478 5.60422849,22.8747703 3.37024795,20.6617346 C1.14140372,18.4550375 0.0205541794,15.569637 0,12.6771849 Z M10.4697412,0.107481325 C10.4999029,3.50816074 11.8192612,6.89993445 14.4392567,9.49466353 C17.0515716,12.0817546 20.4648141,13.3876604 23.8890173,13.4239488 C23.5595578,15.93466 22.4335709,18.3627319 20.4860154,20.2914824 C18.5102982,22.2481225 16.0161502,23.3696549 13.4411174,23.6768383 C13.3819939,20.3156482 12.067836,16.9722061 9.47800231,14.4080132 C6.88108024,11.83558 3.49349526,10.5327643 0.0898493306,10.4812634 C0.39559307,7.92340899 1.52993077,5.44385982 3.51148033,3.48080977 C5.46541225,1.54574455 7.92613424,0.429356752 10.4697412,0.107481325 Z M12.4156166,2.65612827e-05 C15.3824326,-0.00628080841 18.3518888,1.11074371 20.6153831,3.35304779 C22.8853578,5.60044649 24.0119846,8.55076986 24,11.4972584 C21.0367681,11.4883051 18.0763524,10.3700213 15.8153383,8.13091822 C13.5480038,5.88542901 12.4175367,2.94339334 12.4156166,2.65612827e-05 Z" id="形状结合"></path>
        </g>
    </g>
</svg>