<?xml version="1.0" encoding="UTF-8"?>
<svg width="24px" height="24px" viewBox="0 0 24 24" version="1.1" xmlns="http://www.w3.org/2000/svg" xmlns:xlink="http://www.w3.org/1999/xlink">
    <title>自行车</title>
    <g id="页面-1" stroke="none" stroke-width="1" >
        <g id="自行车">
            <rect id="矩形" opacity="0" x="0" y="0" width="24" height="24"></rect>
            <path d="M12.3027609,4.32210605 C12.805359,4.32210605 13.2703938,4.48062355 13.6437739,4.74582107 L13.8541288,4.88630814 C14.4393664,5.29950542 14.8247668,5.96137232 14.85632,6.71940149 L14.8675891,6.75996995 C15.403243,8.40599762 16.6586114,9.72747762 18.301634,10.365304 L19.9341389,10.9062167 L19.4833782,12.2584987 L19.505165,12.2600013 C22.0301759,12.5169348 24,14.649784 24,17.2424091 C24,20.008577 21.7574657,22.2511113 18.9912978,22.2511113 C16.2251299,22.2511113 13.9825956,20.008577 13.9825956,17.2424091 C13.9825956,15.1433669 15.2740249,13.3455832 17.1394228,12.5890565 L17.0883366,12.5702748 C15.5978213,11.9497277 14.3424529,10.8784198 13.4732361,9.49383334 L11.820447,11.8377888 L13.172729,13.1299693 L13.172729,20.1415514 L10.6687535,20.1415514 L10.6687535,14.2012772 L7.66368246,11.3261754 L6.66224253,10.6350091 L10.3982971,5.30626683 C10.8265198,4.70750642 11.5199399,4.32210605 12.3027609,4.32210605 Z M5.00870218,12.208915 C7.77487009,12.208915 10.0174044,14.4514493 10.0174044,17.2176172 L10.0127767,17.4348797 C9.89901362,20.1002603 7.7020762,22.2263194 5.00870218,22.2263194 C2.24253428,22.2263194 0,19.9837851 0,17.2176172 C0,14.4514493 2.24253428,12.208915 5.00870218,12.208915 Z M19.0326175,14.2117949 C17.3730671,14.2117949 16.0275465,15.5573155 16.0275465,17.216866 C16.0275465,18.8764165 17.3730671,20.221937 19.0326175,20.221937 C20.692168,20.221937 22.0376886,18.8764165 22.0376886,17.216866 L22.0325869,17.0403056 C21.9411794,15.4629231 20.6328984,14.2117949 19.0326175,14.2117949 Z M5.00870218,14.2117949 C3.34915169,14.2117949 2.00363113,15.5573155 2.00363113,17.216866 C2.00363113,18.8764165 3.34915169,20.221937 5.00870218,20.221937 C6.66825268,20.221937 8.01377324,18.8764165 8.01377324,17.216866 L8.00867156,17.0403056 C7.91726408,15.4629231 6.60898302,14.2117949 5.00870218,14.2117949 Z M16.5947536,1 C17.9169849,1 18.989044,2.0720591 18.989044,3.39429036 C18.989044,4.71652163 17.9169849,5.78858073 16.5947536,5.78858073 C16.1537595,5.78858073 15.7398109,5.66912916 15.3964816,5.46703813 L15.3852125,5.46027672 C14.6782696,5.04182057 14.2042196,4.27177111 14.2042196,3.39053403 C14.2042196,2.94953985 14.3236712,2.53559131 14.525011,2.19151067 L14.5310211,2.18024166 C14.9472234,1.47404996 15.7157704,1 16.5947536,1 Z" id="形状结合" ></path>
        </g>
    </g>
</svg>