<?xml version="1.0" encoding="UTF-8"?>
<svg width="24px" height="24px" viewBox="0 0 24 24" version="1.1" xmlns="http://www.w3.org/2000/svg" xmlns:xlink="http://www.w3.org/1999/xlink">
    <g id="页面-1" stroke="none" stroke-width="1" >
        <g id="橄榄球" >
            <path d="M19.2266667,1.88390572 C19.2266667,1.88390572 22.6554667,0.663703704 22.4,2.95569024 C22.1445333,5.24767677 18.9656,10.3938047 14.1333333,14.7461279 C9.30106667,19.0984512 1.8032,25.3952862 1.36,21.1773737 C1.3968,16.9591919 12.3562667,5.39744108 19.2266667,1.88390572 Z" id="路径"></path>
            <path d="M0.56,20.2289562 C0.56,20.2289562 0,19.2562963 0,16.996633 C0,15.5224242 0.598666667,10.687138 5.36,5.41414141 C10.4568,0.771178451 15.5682667,0 16.8266667,0 C19.3928,0 20.5333333,0.808080808 20.5333333,0.808080808 C20.5333333,0.808080808 15.2498667,1.83515152 9.33333333,7.81144781 C3.4168,13.7877441 1.13333333,18.6734007 0.56,20.2289562 Z" id="路径"></path>
            <path d="M23.2,3.77104377 C23.2,3.77104377 24,4.98612795 24,7.003367 C24,8.72 23.4013333,13.5552862 18.4,18.5858586 C13.5432,23.4712458 8.43173333,24 6.93333333,24 C4.6072,24 3.22666667,23.1919192 3.22666667,23.1919192 C3.22666667,23.1919192 8.75013333,22.4072727 14.4266667,16.1885522 C20.5832,10.4546801 22.8666667,5.56902357 23.2,3.77104377 Z" id="路径"></path>
        </g>
    </g>
</svg>