<svg xmlns="http://www.w3.org/2000/svg" width="28" height="28" viewBox="0 0 28 28"><path class="a" d="M106.6,89.2a14,14,0,1,0,14,14A14,14,0,0,0,106.6,89.2Zm8.268,18.477a.521.521,0,0,1-.119.122l-5.8,4.289a.54.54,0,0,1-.863-.435v-2.76h-4.737q-5.065.03-5.5-5.007c.293.306,1.575,2.118,5.5,2.118q3.923,0,4.737-.089v-2.648a.541.541,0,0,1,.54-.54.559.559,0,0,1,.313.1l5.794,4.095A.544.544,0,0,1,114.868,107.677Zm-5.017-7.287q-3.923,0-4.737.089v2.648a.541.541,0,0,1-.54.54.559.559,0,0,1-.313-.1l-5.8-4.091a.539.539,0,0,1-.128-.754.521.521,0,0,1,.119-.122l5.794-4.289a.54.54,0,0,1,.863.435v2.76h4.737q5.065-.03,5.5,5.007C115.056,102.2,113.775,100.39,109.851,100.39Z" transform="translate(-92.6 -89.2)"/></svg>