<svg xmlns="http://www.w3.org/2000/svg" width="20.3" height="20" viewBox="0 0 20.3 20">
    <path data-name="矩形 8436" transform="translate(.15)" style="fill:none" d="M0 0h20v20H0z"/>
    <g data-name="组 3919">
        <path data-name="路径 2367" d="M28.59 24.565a8.948 8.948 0 0 0-2.976-5.865 9.521 9.521 0 0 0-9.931-1.687c-.012 0-.012.011-.024.011s-.012.011-.024.011a9.3 9.3 0 0 0-2.918 1.928A8.862 8.862 0 0 0 10 25.391a8.875 8.875 0 0 0 .306 2.307.16.16 0 0 0 .024.069 9.045 9.045 0 0 0 2.306 3.949 9.37 9.37 0 0 0 5.318 2.652c.024 0 .035.011.059.011a7.362 7.362 0 0 0 1.012.08h.212a5.974 5.974 0 0 0 1.8-.253.622.622 0 0 0 .388-.8.658.658 0 0 0-.612-.425.756.756 0 0 0-.224.034 4.774 4.774 0 0 1-1.365.184h-.106a1.589 1.589 0 0 0 .059-.941c-.153-.6-.647-1.1-1.577-1.6l-.388-.207a3.4 3.4 0 0 1-1.165-.758 3.914 3.914 0 0 1-.518-1.6 1.918 1.918 0 0 0-1.012-1.377 2.889 2.889 0 0 0-1.318-.287 5.655 5.655 0 0 0-1.188.138c-.212.046-.412.1-.588.149a7.347 7.347 0 0 1-.118-1.354A7.782 7.782 0 0 1 15 18.779a2.05 2.05 0 0 0 .188.769 2.375 2.375 0 0 0 1.847 1.205.452.452 0 0 0 .118.011h.047a2.245 2.245 0 0 1 .706.126 1.132 1.132 0 0 1 .765.907 16.545 16.545 0 0 1 .141 4.81.636.636 0 0 0-.035.207.645.645 0 0 0 .647.631.658.658 0 0 0 .459-.184c.118-.115 2.765-2.732 3.471-3.6.082-.1.165-.2.259-.3a3.057 3.057 0 0 0 .824-1.366 3.1 3.1 0 0 0-.459-2.192 3.128 3.128 0 0 1-.4-1 .259.259 0 0 1 .059-.034 7.778 7.778 0 0 1 3.663 5.887.636.636 0 0 0 .647.574H28a.611.611 0 0 0 .588-.666zM13.2 27.721a1.536 1.536 0 0 1 .706.138.654.654 0 0 1 .341.505 4.97 4.97 0 0 0 .765 2.124 4.374 4.374 0 0 0 1.588 1.1l.024.011c.106.057.235.115.353.184.741.39.906.654.941.781a.763.763 0 0 1-.153.494 7.876 7.876 0 0 1-6.024-5.1 5.954 5.954 0 0 1 1.459-.241zm9.625-7.312c.635 1.194.353 1.515-.212 2.158-.094.1-.188.207-.282.321-.353.436-1.283 1.389-2.094 2.215 0-.4-.024-.861-.059-1.354-.082-1.125-.224-2.078-.224-2.112V21.6a2.4 2.4 0 0 0-1.612-1.882 3.4 3.4 0 0 0-1.13-.207 1.154 1.154 0 0 1-.859-.494 1.267 1.267 0 0 1 .047-.93 8.155 8.155 0 0 1 2.906-.539 8.339 8.339 0 0 1 3.13.608 1.251 1.251 0 0 0-.153.459 3.279 3.279 0 0 0 .541 1.791z" transform="translate(-9.85 -15.3)" style="stroke-width:.3px"/>
        <path data-name="路径 2368" d="M103.626 93.3a4.626 4.626 0 1 0 4.626 4.626 4.631 4.631 0 0 0-4.626-4.626zm0 7.991A3.376 3.376 0 1 1 107 97.915a3.384 3.384 0 0 1-3.376 3.376z" transform="translate(-88.103 -83.371)" style="stroke-width:.3px"/>
        <path data-name="路径 2369" d="M133.95 113.962v-2.137a.625.625 0 0 0-1.25 0v2.4a.648.648 0 0 0 .182.443l1.125 1.137a.627.627 0 0 0 .443.182.648.648 0 0 0 .443-.182.631.631 0 0 0 0-.887l-.943-.955z" transform="translate(-118.085 -99.236)" style="stroke-width:.3px"/>
    </g>
</svg>
