<svg xmlns="http://www.w3.org/2000/svg" width="14" height="14" viewBox="0 0 14 14">
    <g data-name="时间 (1)">
        <path data-name="路径 2348" d="M213.848 206.848a7 7 0 1 0 7 7 7 7 0 0 0-7-7zm0 12.567a5.567 5.567 0 1 1 5.567-5.567 5.541 5.541 0 0 1-5.567 5.567z" transform="translate(-206.848 -206.848)" style=""/>
        <path data-name="路径 2349" d="M445.262 348.093h-1.973v-3.313a.716.716 0 1 0-1.433 0v4.04a.7.7 0 0 0 .716.716h2.69a.7.7 0 0 0 .716-.716.714.714 0 0 0-.716-.727z" transform="translate(-436.465 -340.916)" style=""/>
    </g>
</svg>
