<svg xmlns="http://www.w3.org/2000/svg" width="16" height="16" viewBox="0 0 16 16"><path class="a" d="M8435.108,9186.781h-10.667a2.669,2.669,0,0,1-2.668-2.666v-10.666a2.672,2.672,0,0,1,2.668-2.668h10.667a2.669,2.669,0,0,1,2.665,2.668v.889h-6.222a4.444,4.444,0,1,0,0,8.889h6.222v.889A2.667,2.667,0,0,1,8435.108,9186.781Z" transform="translate(-8421.773 -9170.781)"/><path class="a" d="M8430.779,9176.781h-6a3,3,0,1,1,0-6h6v6Zm-6-4a1,1,0,1,0,1,1A1,1,0,0,0,8424.782,9172.781Z" transform="translate(-8414.78 -9165.779)"/></svg>