<svg id="导航返水" xmlns="http://www.w3.org/2000/svg" width="22" height="22" viewBox="0 0 22 22">
  <rect id="矩形_8161" data-name="矩形 8161" width="22" height="22" fill="none"/>
  <path id="路径_2358" data-name="路径 2358" d="M1135.644-601.77h-.036a9.539,9.539,0,0,1-6.781-2.807,9.567,9.567,0,0,1-2.827-6.778,9.627,9.627,0,0,1,9.587-9.644h.018a9.568,9.568,0,0,1,6.793,2.8,9.559,9.559,0,0,1,2.833,6.782,9.539,9.539,0,0,1-2.8,6.8A9.564,9.564,0,0,1,1135.644-601.77Zm-3.161-7.736a.7.7,0,0,0-.7.706,2.849,2.849,0,0,0,2.794,2.9h.339v.548a.715.715,0,0,0,.7.706.715.715,0,0,0,.7-.706v-.548h.611a2.575,2.575,0,0,0,2.528-2.615,2.339,2.339,0,0,0-1.719-2.48l-1.42-.508v-3.179h.339a1.437,1.437,0,0,1,1.381,1.485.707.707,0,0,0,.707.706.706.706,0,0,0,.706-.706,2.849,2.849,0,0,0-2.794-2.9h-.339v-.546a.715.715,0,0,0-.7-.706.715.715,0,0,0-.7.706v.546h-.613a2.576,2.576,0,0,0-2.531,2.614,2.342,2.342,0,0,0,1.723,2.483l1.421.508v3.176h-.339a1.439,1.439,0,0,1-1.385-1.484A.707.707,0,0,0,1132.484-609.506Zm4.451,2.192h-.6v-2.679l.949.33c.481.168.773.33.773,1.146A1.165,1.165,0,0,1,1136.934-607.314Zm-2.02-4.682h0l-.947-.331c-.482-.168-.774-.329-.774-1.146a1.166,1.166,0,0,1,1.109-1.213h.614V-612Z" transform="translate(-1124.615 622.385)" />
</svg>
