<svg width="16" height="16" viewBox="0 0 16 16" fill="none" xmlns="http://www.w3.org/2000/svg">
<path fill-rule="evenodd" clip-rule="evenodd" d="M8.00016 14.6668C11.6821 14.6668 14.6668 11.6821 14.6668 8.00016C14.6668 4.31826 11.6821 1.3335 8.00016 1.3335C4.31826 1.3335 1.3335 4.31826 1.3335 8.00016C1.3335 11.6821 4.31826 14.6668 8.00016 14.6668ZM6.90865 8.85703C6.98731 8.85393 7.06206 8.82195 7.11861 8.76719H7.11931L11.2363 4.7909C11.3224 4.71114 11.4354 4.66683 11.5527 4.66683C11.6701 4.66683 11.7831 4.71114 11.8692 4.7909C11.9105 4.82911 11.9434 4.87545 11.966 4.92701C11.9885 4.97858 12.0002 5.03424 12.0002 5.09052C12.0002 5.1468 11.9885 5.20246 11.966 5.25403C11.9434 5.30559 11.9105 5.35193 11.8692 5.39014L7.22992 10.5425C7.05491 10.7084 6.77208 10.7084 6.59707 10.5425L4.13079 7.78642C4.08959 7.74821 4.05672 7.70191 4.03424 7.65041C4.01177 7.59892 4.00016 7.54333 4.00016 7.48714C4.00016 7.43096 4.01177 7.37537 4.03424 7.32387C4.05672 7.27238 4.08959 7.22608 4.13079 7.18787C4.21686 7.10812 4.32987 7.0638 4.44722 7.0638C4.56456 7.0638 4.67757 7.10812 4.76364 7.18787L6.69228 8.78399C6.75296 8.83413 6.83 8.86013 6.90865 8.85703Z" fill="#FFB01B"/>
</svg>
