<svg xmlns="http://www.w3.org/2000/svg" width="28" height="28" viewBox="0 0 28 28"><path class="b" d="M304.7,41.129a.954.954,0,0,1-.676-.289l-5.066-5.066a.955.955,0,0,1,1.351-1.351l4.39,4.39,4.391-4.39a.955.955,0,0,1,1.351,1.351l-5.066,5.066A.953.953,0,0,1,304.7,41.129Z" transform="translate(-291.285 -34.133)"/><path class="b" d="M62.683,221.867H39.235a1.71,1.71,0,0,0-1.689,1.689v3.136a1.709,1.709,0,0,0,1.689,1.688h.241v12.593a2.646,2.646,0,0,0,2.654,2.653H59.837a2.646,2.646,0,0,0,2.654-2.653V228.38h.241a1.71,1.71,0,0,0,1.689-1.689v-3.136A1.786,1.786,0,0,0,62.683,221.867ZM51.924,241.648h-1.93V228.622h1.93Z" transform="translate(-37.547 -216.56)"/></svg>