<svg id="精彩活动-选择" xmlns="http://www.w3.org/2000/svg" width="20" height="20" viewBox="0 0 20 20">
  <rect id="矩形_1312" data-name="矩形 1312" width="20" height="20" fill="none"/>
  <g id="组_3353" data-name="组 3353">
    <rect id="矩形_8417" data-name="矩形 8417" width="5" height="12" transform="translate(8 8)" fill="#0f1213"/>
    <path id="路径_2128" data-name="路径 2128" d="M303.156,39.3a.712.712,0,0,1-.5-.214l-3.77-3.743a.686.686,0,0,1,0-1,.7.7,0,0,1,1.006,0l3.268,3.244,3.268-3.244a.7.7,0,0,1,1.005,0,.686.686,0,0,1,0,1l-3.77,3.743A.712.712,0,0,1,303.156,39.3Z" transform="translate(-293.173 -34.133)" fill="#fff"/>
    <path id="路径_2129" data-name="路径 2129" d="M56.254,221.867H38.8a1.268,1.268,0,0,0-1.257,1.248v2.317A1.268,1.268,0,0,0,38.8,226.68h.18v9.3a1.962,1.962,0,0,0,1.975,1.961H54.136a1.962,1.962,0,0,0,1.975-1.961v-9.3h.18a1.268,1.268,0,0,0,1.257-1.248v-2.317A1.325,1.325,0,0,0,56.254,221.867Zm-8.007,14.617H46.811v-9.626h1.436Z" transform="translate(-37.547 -217.945)" fill="#fff"/>
  </g>
</svg>
