<svg xmlns="http://www.w3.org/2000/svg" width="20" height="20" viewBox="0 0 20 20"><defs><style>.a{fill:none;}</style></defs><rect class="a" width="20" height="20"/><path class="b" d="M14.265,16.667a.437.437,0,0,1-.128-.02h-.018a.437.437,0,0,1-.276-.1l-2.26-1.5L9.756,16.522a.437.437,0,0,1-.55,0L7.367,15.04l-1.9,1.529a.437.437,0,0,1-.55,0L3.093,15.1.866,16.569a.436.436,0,0,1-.275.1.461.461,0,0,1-.075-.007.42.42,0,0,1-.073.007A.45.45,0,0,1,0,16.212V1.666A1.649,1.649,0,0,1,1.628,0H13.082a1.6,1.6,0,0,1,1.138.476,1.669,1.669,0,0,1,.49,1.191V16.212A.45.45,0,0,1,14.265,16.667ZM2.988,10.01a.568.568,0,0,0,0,1.137h6a.568.568,0,1,0,0-1.137Zm0-2.845a.568.568,0,1,0,0,1.136h8.733a.568.568,0,0,0,0-1.136Zm0-2.846a.568.568,0,0,0,0,1.137h8.733a.568.568,0,0,0,0-1.137Z" transform="translate(2.5 1.667)"/></svg>