<svg id="导航娱乐城" xmlns="http://www.w3.org/2000/svg" width="22.001" height="22" viewBox="0 0 22.001 22">
  <rect id="矩形_8368" data-name="矩形 8368" width="22" height="22" fill="none"/>
  <path id="路径_2356" data-name="路径 2356" d="M13,17.2H9A9,9,0,1,1,9-.8h4a9,9,0,0,1,0,18ZM4.707,7.734a.707.707,0,0,0,0,1.413h1.8v1.8a.706.706,0,1,0,1.412,0v-1.8H9.745a.707.707,0,0,0,0-1.413H7.924V5.908a.706.706,0,1,0-1.412,0V7.734ZM15.124,5.276a3.15,3.15,0,1,0,3.151,3.151A3.154,3.154,0,0,0,15.124,5.276Zm0,4.725A1.575,1.575,0,1,1,16.7,8.427,1.576,1.576,0,0,1,15.124,10Z" transform="translate(0 2.799)" />
</svg>
