<svg id="彩票-选择" xmlns="http://www.w3.org/2000/svg" width="20" height="20" viewBox="0 0 20 20">
  <g id="组_3797" data-name="组 3797" transform="translate(0 -1)">
    <circle id="椭圆_23" data-name="椭圆 23" cx="9.023" cy="9.023" r="9.023" transform="translate(1.504 1.514)" fill="#0f1213"/>
    <path id="路径_2198" data-name="路径 2198" d="M10,0A10,10,0,1,0,20,10,10,10,0,0,0,10,0ZM8,16.5a6,6,0,1,1,6-6A6,6,0,0,1,8,16.5ZM14.876,5.875C13.8,4.8,13.252,3.609,13.652,3.216s1.584.151,2.66,1.224,1.625,2.266,1.224,2.66S15.952,6.951,14.876,5.875Z" transform="translate(0 1)" fill="#fff"/>
    <path id="路径_2199" data-name="路径 2199" d="M281.9,353.267a1.752,1.752,0,0,0,1.424-1.649c-.09-1.13-.92-1.755-2.5-1.874q-2.41.226-2.63,2.32a1.969,1.969,0,0,0,1.341,2,2.1,2.1,0,0,0-1.566,1.874c.09,1.161.965,1.771,2.635,1.825q2.906-.081,3.036-2.275a2.3,2.3,0,0,0-1.739-2.221Zm-1.076-3.081c.835.029,1.265.5,1.3,1.431a1.614,1.614,0,0,1-.671,1.386q-1.829-.766-1.739-1.746a1.092,1.092,0,0,1,1.109-1.071Zm-.131,7.225a1.5,1.5,0,0,1-1.5-1.649,1.575,1.575,0,0,1,.806-1.386.4.4,0,0,1,.22.09.13.13,0,0,0,.09.045l.729.4c.655.331.965.745.936,1.251A1.273,1.273,0,0,1,280.7,357.412Z" transform="translate(-272.544 -341.912)" fill="#fff"/>
  </g>
  <rect id="矩形_1264" data-name="矩形 1264" width="20" height="20" transform="translate(0 0)" fill="none"/>
</svg>
