<svg id="体育运动-选择" xmlns="http://www.w3.org/2000/svg" width="20" height="20" viewBox="0 0 20 20">
  <circle id="椭圆_15" data-name="椭圆 15" cx="9.091" cy="9.091" r="9.091" transform="translate(0.909 0.909)" fill="#0f1213"/>
  <path id="足球" d="M74,84A10,10,0,1,0,64,74,10,10,0,0,0,74,84Zm-.429-13.373a.772.772,0,0,1,.859,0l2.643,1.922a.775.775,0,0,1,.266.817l-1.011,3.109a.773.773,0,0,1-.694.5H72.366a.772.772,0,0,1-.694-.5l-1.011-3.109a.771.771,0,0,1,.266-.817ZM67.2,68.181a8.972,8.972,0,0,1,3.4-2.462l-.214.4a.517.517,0,0,0,.154.7l2.94,1.692a1.255,1.255,0,0,0,1.033,0l2.935-1.69a.518.518,0,0,0,.152-.7l-.217-.4a8.992,8.992,0,0,1,3.469,2.536l-.241-.045a.515.515,0,0,0-.621.364l-.7,3.319a1.247,1.247,0,0,0,.319.982l2.516,2.27a.515.515,0,0,0,.717-.074l.042-.045a8.893,8.893,0,0,1-1.435,3.924l-.123-.8a.518.518,0,0,0-.547-.469l-3.366.42a1.246,1.246,0,0,0-.824.621L75.27,81.839a.517.517,0,0,0,.3.654l.478.219a9.042,9.042,0,0,1-4.239-.036l.449-.205a.517.517,0,0,0,.3-.654L71.232,78.7a1.246,1.246,0,0,0-.824-.621l-3.368-.42a.518.518,0,0,0-.547.469l-.092.6a8.918,8.918,0,0,1-1.317-3.967l.212.223a.519.519,0,0,0,.717.074l2.516-2.27a1.255,1.255,0,0,0,.319-.982l-.7-3.317a.516.516,0,0,0-.621-.364Z" transform="translate(-64 -64)" fill="#fff"/>
</svg>
