<?xml version="1.0" encoding="UTF-8"?>
<svg width="24px" height="25px" viewBox="0 0 24 25" version="1.1" xmlns="http://www.w3.org/2000/svg" xmlns:xlink="http://www.w3.org/1999/xlink">
    <title>编组 9</title>
    <g id="页面-1" stroke="none" stroke-width="1" fill-rule="evenodd">
        <g id="用户认证" transform="translate(-2926.000000, -946.000000)">
            <g id="编组-9" transform="translate(2926.000000, 946.000000)">
                <path d="M11.9678019,0 C14.0834041,1.39984835 15.7271959,2.29311216 16.8991773,2.67979142 C18.0711586,3.06647068 19.910887,3.32254683 22.4183623,3.44801988 L22.4183623,13.8485205 C22.4183623,15.5294199 21.4281788,17.4959395 19.4478118,19.7480792 C17.4674448,22.000219 14.9741081,23.4341474 11.9678019,24.0498644 L11.9678019,24.0640596 C8.96149559,23.4483425 6.46815894,22.0144141 4.48779192,19.7622744 C2.50742489,17.5101346 1.51724138,15.5436151 1.51724138,13.8627156 L1.51724138,3.46221503 C4.02471672,3.33674198 5.86444506,3.08066583 7.03642641,2.69398656 C8.20840776,2.3073073 9.85219958,1.4140435 11.9678019,0.0141951462 L11.9678019,0 Z M19.2895732,13.066787 C18.9985289,12.7654019 18.51827,12.757019 18.2168849,13.0480632 L14.1983734,16.9280345 L12.5405335,15.0864645 C12.2601847,14.7751056 11.780511,14.749967 11.4691521,15.0303157 C11.1577933,15.3106645 11.1326547,15.7903383 11.4130034,16.1016971 L13.5357626,18.45926 C13.5957615,18.5258955 13.6648899,18.5794214 13.7391079,18.6189271 C14.0310491,18.8277132 14.4393277,18.8052215 14.7067623,18.5469629 L19.2708493,14.1394753 C19.5722344,13.8484311 19.5806174,13.3681722 19.2895732,13.066787 Z M11.2781467,5.93103448 C9.37371651,5.93103448 7.82987082,7.47488017 7.82987082,9.37931034 C7.82987082,10.4924951 8.35735361,11.4824797 9.17594315,12.1111453 C8.37019104,12.429774 7.72614673,12.8931868 7.24381019,13.5013838 C6.39721118,14.5688936 5.98291998,15.7276576 6.00093657,16.9776759 C6.00093657,17.4980742 6.22217007,17.7582734 6.66463707,17.7582734 C7.10710407,17.7582734 7.37556089,17.5340169 7.47000753,17.0855039 C7.56989472,15.8382274 7.91779512,14.9063973 8.51370871,14.2900138 C9.1096223,13.6736303 10.0311016,13.3054669 11.2781467,13.1855237 C12.0451745,13.2489125 12.6055368,13.3541992 12.9592338,13.5013838 C13.3129307,13.6485684 13.7041345,13.9114451 14.1328451,14.2900138 L15.2025557,13.3382232 C14.5996838,12.7943358 14.0697366,12.4043123 13.612714,12.1681529 C13.5544493,12.1380455 13.4909647,12.1088987 13.4210582,12.0810638 C14.2164112,11.4493786 14.7264225,10.4739043 14.7264225,9.37931034 C14.7264225,7.47488017 13.1825768,5.93103448 11.2781467,5.93103448 Z M11.2781467,7.44827586 C12.3446276,7.44827586 13.2091812,8.31282945 13.2091812,9.37931034 C13.2091812,10.4457912 12.3446276,11.3103448 11.2781467,11.3103448 C10.2116658,11.3103448 9.3471122,10.4457912 9.3471122,9.37931034 C9.3471122,8.31282945 10.2116658,7.44827586 11.2781467,7.44827586 Z" id="形状结合"></path>
            </g>
        </g>
    </g>
</svg>