<svg id="质押分红-选择" xmlns="http://www.w3.org/2000/svg" width="20" height="20" viewBox="0 0 20 20">
  <circle id="椭圆_18" data-name="椭圆 18" cx="9.999" cy="9.999" r="9.999" transform="translate(0.001 0.001)" fill="#0f1213"/>
  <g id="组_3408" data-name="组 3408" transform="translate(0)">
    <path id="路径_2184" data-name="路径 2184" d="M2.858,9.922a7.108,7.108,0,0,1,.169-1.544.531.531,0,0,0-.364-.626L.951,7.239a.53.53,0,0,0-.668.383,10.02,10.02,0,0,0,0,4.634.53.53,0,0,0,.668.383l1.718-.516a.532.532,0,0,0,.364-.628,7.11,7.11,0,0,1-.175-1.573Zm.4,3.616-1.584.853a.53.53,0,0,0-.2.744,9.989,9.989,0,0,0,3.275,3.276.53.53,0,0,0,.744-.2l.856-1.589a.532.532,0,0,0-.186-.7,7.125,7.125,0,0,1-2.2-2.2.531.531,0,0,0-.7-.185Zm6.687,3.475a7.1,7.1,0,0,1-1.554-.171.532.532,0,0,0-.627.364l-.519,1.731a.53.53,0,0,0,.383.668,10.02,10.02,0,0,0,4.634,0,.53.53,0,0,0,.383-.668l-.519-1.731a.532.532,0,0,0-.627-.364,7.1,7.1,0,0,1-1.554.171ZM6.339,3.232,5.5,1.668a.53.53,0,0,0-.744-.2A9.989,9.989,0,0,0,1.477,4.742a.53.53,0,0,0,.2.744l1.568.844a.531.531,0,0,0,.7-.186A7.127,7.127,0,0,1,6.153,3.932a.531.531,0,0,0,.186-.7ZM18.947,7.239l-1.712.514a.532.532,0,0,0-.364.626,7.137,7.137,0,0,1-.006,3.117.532.532,0,0,0,.364.628l1.719.516a.53.53,0,0,0,.668-.383,10.021,10.021,0,0,0,0-4.634.53.53,0,0,0-.668-.383Zm-5.4,9.382L14.4,18.21a.53.53,0,0,0,.744.2,9.989,9.989,0,0,0,3.277-3.276.53.53,0,0,0-.2-.744l-1.585-.853a.531.531,0,0,0-.7.184,7.125,7.125,0,0,1-2.2,2.2.531.531,0,0,0-.186.7Zm3.105-10.29,1.569-.844a.53.53,0,0,0,.2-.744,9.989,9.989,0,0,0-3.277-3.275.53.53,0,0,0-.744.2L13.56,3.232a.531.531,0,0,0,.185.7A7.127,7.127,0,0,1,15.95,6.145a.531.531,0,0,0,.7.186Zm-6.7-3.5A7.114,7.114,0,0,1,11.512,3a.532.532,0,0,0,.627-.364l.51-1.7a.53.53,0,0,0-.383-.668,10.012,10.012,0,0,0-4.634,0,.53.53,0,0,0-.383.668l.51,1.7A.532.532,0,0,0,8.387,3a7.114,7.114,0,0,1,1.563-.173Z" transform="translate(0.051 0.061)" fill="#fff"/>
    <path id="路径_2185" data-name="路径 2185" d="M183.8,191.756a6.137,6.137,0,1,0,6.137-6.107A6.122,6.122,0,0,0,183.8,191.756Z" transform="translate(-179.919 -181.738)" fill="#fff"/>
  </g>
  <path id="椭圆_18_-_轮廓" data-name="椭圆 18 - 轮廓" d="M10,.714A9.286,9.286,0,0,0,3.434,16.566,9.286,9.286,0,0,0,16.566,3.434,9.225,9.225,0,0,0,10,.714M10,0A10,10,0,1,1,0,10,10,10,0,0,1,10,0Z" fill="#fff"/>
  <path id="椭圆_18_-_轮廓-2" data-name="椭圆 18 - 轮廓" d="M9.583.685A8.9,8.9,0,0,0,3.291,15.875,8.9,8.9,0,0,0,15.875,3.291,8.84,8.84,0,0,0,9.583.685m0-.685A9.583,9.583,0,1,1,0,9.583,9.583,9.583,0,0,1,9.583,0Z" transform="translate(0.417 0.417)" fill="#fff"/>
</svg>
