<svg xmlns="http://www.w3.org/2000/svg" width="28" height="28.001" viewBox="0 0 28 28.001"><g transform="translate(0)"><g transform="translate(0 0)"><path class="a" d="M4.022,13.978A10.014,10.014,0,0,1,4.26,11.8a.748.748,0,0,0-.514-.882L1.336,10.2a.746.746,0,0,0-.941.54,14.117,14.117,0,0,0,0,6.529.747.747,0,0,0,.941.54l2.421-.727a.75.75,0,0,0,.513-.885,10.017,10.017,0,0,1-.247-2.216Zm.569,5.095-2.231,1.2a.747.747,0,0,0-.283,1.048A14.073,14.073,0,0,0,6.69,25.938a.747.747,0,0,0,1.048-.283l1.206-2.239a.75.75,0,0,0-.261-.988,10.038,10.038,0,0,1-3.105-3.095.748.748,0,0,0-.988-.261Zm9.421,4.9a10,10,0,0,1-2.19-.241.75.75,0,0,0-.883.513l-.732,2.438a.747.747,0,0,0,.54.941,14.116,14.116,0,0,0,6.528,0,.747.747,0,0,0,.54-.941l-.732-2.438a.75.75,0,0,0-.883-.513,10.005,10.005,0,0,1-2.19.241ZM8.925,4.552,7.739,2.35A.747.747,0,0,0,6.69,2.066,14.072,14.072,0,0,0,2.076,6.68a.747.747,0,0,0,.283,1.048l2.21,1.19a.748.748,0,0,0,.988-.262A10.041,10.041,0,0,1,8.663,5.539a.748.748,0,0,0,.262-.986ZM26.688,10.2l-2.411.724a.75.75,0,0,0-.514.882,10.055,10.055,0,0,1-.009,4.392.75.75,0,0,0,.513.885l2.421.727a.747.747,0,0,0,.941-.54,14.117,14.117,0,0,0,0-6.529.746.746,0,0,0-.941-.54ZM19.079,23.415l1.2,2.238a.747.747,0,0,0,1.048.284,14.073,14.073,0,0,0,4.616-4.615.747.747,0,0,0-.283-1.048l-2.233-1.2a.748.748,0,0,0-.986.259,10.038,10.038,0,0,1-3.105,3.095.748.748,0,0,0-.262.989Zm4.375-14.5,2.21-1.19a.747.747,0,0,0,.285-1.048,14.072,14.072,0,0,0-4.616-4.614.747.747,0,0,0-1.048.283L19.1,4.553a.748.748,0,0,0,.26.986,10.041,10.041,0,0,1,3.108,3.118.748.748,0,0,0,.987.262Zm-9.442-4.93a10.022,10.022,0,0,1,2.2.244A.75.75,0,0,0,17.1,3.72l.719-2.394a.747.747,0,0,0-.54-.941,14.1,14.1,0,0,0-6.528,0,.747.747,0,0,0-.54.941l.719,2.394a.75.75,0,0,0,.884.513,10.022,10.022,0,0,1,2.2-.244Z" transform="translate(-0.012 -0.002)"/><path class="a" d="M183.8,194.6a8.994,8.994,0,1,0,8.993-8.949A8.971,8.971,0,0,0,183.8,194.6Z" transform="translate(-178.77 -180.573)"/></g></g></svg>