<svg id="unsc币种介绍-选中" xmlns="http://www.w3.org/2000/svg" width="20" height="19.996" viewBox="0 0 20 19.996">
  <rect id="矩形_1312" data-name="矩形 1312" width="19.996" height="19.996" fill="none"/>
  <ellipse id="椭圆_52" data-name="椭圆 52" cx="9.998" cy="9.998" rx="9.998" ry="9.998" transform="translate(0.004)" fill="#fff"/>
  <path id="路径_2347" data-name="路径 2347" d="M16652.973-486.4a3.959,3.959,0,0,1-.975-2.844v-5.7h1.678v5.713a2.54,2.54,0,0,0,.486,1.714,1.637,1.637,0,0,0,.818.472v-5.1a3.966,3.966,0,0,1,.971-2.844,3.808,3.808,0,0,1,2.84-1.005,3.818,3.818,0,0,1,2.855,1.017,3.957,3.957,0,0,1,.959,2.832v5.7h-1.676v-5.713a2.628,2.628,0,0,0-.486-1.714,1.708,1.708,0,0,0-.82-.468v5.1a3.95,3.95,0,0,1-.959,2.829,3.815,3.815,0,0,1-2.855,1.017A3.8,3.8,0,0,1,16652.973-486.4Zm4.172-7.471a2.531,2.531,0,0,0-.486,1.711v5.107a1.679,1.679,0,0,0,.8-.465,2.6,2.6,0,0,0,.488-1.714v-5.107A1.606,1.606,0,0,0,16657.145-493.875Z" transform="translate(-16647.299 500.697)" fill="#0f1213"/>
</svg>
