<svg id="unsc币种介绍" xmlns="http://www.w3.org/2000/svg" width="23.998" height="23.996" viewBox="0 0 23.998 23.996">
  <g id="组_3656" data-name="组 3656">
    <rect id="矩形_1312" data-name="矩形 1312" width="23.996" height="23.996" fill="none"/>
    <path id="减去_29" data-name="减去 29" d="M12,23.994a12,12,0,1,1,8.482-3.514A12.013,12.013,0,0,1,12,23.994ZM5.637,6.9h0v6.837A4.749,4.749,0,0,0,6.8,17.152a4.573,4.573,0,0,0,3.406,1.2,4.576,4.576,0,0,0,3.428-1.223,4.717,4.717,0,0,0,1.15-3.4V7.622a2.015,2.015,0,0,1,.98.561,3.141,3.141,0,0,1,.586,2.058v6.851h2.012V10.256a4.753,4.753,0,0,0-1.148-3.4,4.582,4.582,0,0,0-3.428-1.223,4.58,4.58,0,0,0-3.412,1.209,4.746,4.746,0,0,0-1.162,3.409v6.121a1.939,1.939,0,0,1-.982-.566,3.066,3.066,0,0,1-.584-2.058V6.9H5.637Zm5.592,9.467h0V10.242a3.031,3.031,0,0,1,.584-2.054,1.892,1.892,0,0,1,.963-.561v6.125a3.15,3.15,0,0,1-.584,2.058,2.026,2.026,0,0,1-.961.556Z" transform="translate(0.002 0.001)" />
  </g>
</svg>
