<svg id="导航板球" xmlns="http://www.w3.org/2000/svg" width="22" height="22" viewBox="0 0 22 22">
  <rect id="矩形_8413" data-name="矩形 8413" width="22" height="22" fill="none"/>
  <g id="组_3892" data-name="组 3892" transform="translate(0.57 -0.379)">
    <path id="减去_33" data-name="减去 33" d="M5.875,17.158a1.663,1.663,0,0,1-1.2-.5L.5,12.388A1.747,1.747,0,0,1,.5,9.95L9.76.5a1.669,1.669,0,0,1,2.392,0L16.335,4.77a1.75,1.75,0,0,1,0,2.438L7.07,16.653A1.664,1.664,0,0,1,5.875,17.158ZM7.641,4.913a.83.83,0,0,0-.6.252.873.873,0,0,0,0,1.219l3.381,3.447a.834.834,0,0,0,1.2,0,.876.876,0,0,0,0-1.219L8.238,5.166A.83.83,0,0,0,7.641,4.913ZM9.832,2.679a.831.831,0,0,0-.6.252.873.873,0,0,0,0,1.219L12.616,7.6a.835.835,0,0,0,1.2,0,.875.875,0,0,0,0-1.219L10.43,2.932A.832.832,0,0,0,9.832,2.679Z" transform="matrix(0.998, 0.07, -0.07, 0.998, 3.833, 1.832)" />
    <path id="矩形_1248" data-name="矩形 1248" d="M1.724,1.724l.029,2.988a.875.875,0,0,0,.862.862.835.835,0,0,0,.845-.845L3.431,1.74,1.724,1.724M0,0,5.121.049l.045,4.695A2.5,2.5,0,0,1,2.631,7.28,2.621,2.621,0,0,1,.045,4.695Z" transform="matrix(0.656, 0.755, -0.755, 0.656, 4.986, 13.703)" />
    <ellipse id="椭圆_8" data-name="椭圆 8" cx="3.459" cy="3.516" rx="3.459" ry="3.516" transform="translate(0.641 2)" />
  </g>
</svg>
