<svg id="板球-选择" xmlns="http://www.w3.org/2000/svg" width="20" height="20.002" viewBox="0 0 20 20.002">
  <rect id="矩形_8413" data-name="矩形 8413" width="20" height="20" fill="none"/>
  <g id="组_3892" data-name="组 3892" transform="translate(-0.218 -1.35)">
    <path id="路径_2379" data-name="路径 2379" d="M2.013,17.832a28.352,28.352,0,0,1,3.417-3.25L8.1,9.748l3.333-3.5L14.847,4l4.083,5.75L8.513,17.832H6.68l-3.667,2.75S.6,19.5,2.013,17.832Z" fill="#0f1213"/>
    <path id="联合_25" data-name="联合 25" d="M8484.155,16958.467a2.623,2.623,0,0,1,.256-3.648l2.392-2.123-.4-.469a1.753,1.753,0,0,1,.171-2.436l9.9-8.775a1.658,1.658,0,0,1,2.383.17l3.878,4.545a1.75,1.75,0,0,1-.17,2.432l-9.9,8.775a1.678,1.678,0,0,1-1.23.422,1.647,1.647,0,0,1-1.153-.588l-.152-.178-2.393,2.119a2.5,2.5,0,0,1-3.58-.246Zm1.362-2.35a.874.874,0,0,0-.085,1.217.831.831,0,0,0,1.191.08l2.239-1.979-1.111-1.3Zm7.921-10.641a.873.873,0,0,0-.289.592.853.853,0,0,0,.2.625l3.133,3.674a.835.835,0,0,0,1.191.084.873.873,0,0,0,.085-1.217l-3.133-3.674a.814.814,0,0,0-.578-.293c-.021,0-.042,0-.062,0A.826.826,0,0,0,8493.438,16945.477Zm2.341-2.078a.877.877,0,0,0-.289.592.85.85,0,0,0,.2.625l3.133,3.674a.809.809,0,0,0,.579.293.828.828,0,0,0,.612-.207.875.875,0,0,0,.085-1.219l-3.132-3.672a.835.835,0,0,0-.579-.295h-.051A.852.852,0,0,0,8495.779,16943.4Z" transform="translate(-8482.938 -16938)" fill="#fff"/>
    <ellipse id="椭圆_8" data-name="椭圆 8" cx="3.459" cy="3.516" rx="3.459" ry="3.516" transform="translate(0.641 2)" fill="#fff"/>
  </g>
</svg>
