<?xml version="1.0" encoding="UTF-8"?>
<svg width="24px" height="24px" viewBox="0 0 24 24" version="1.1" xmlns="http://www.w3.org/2000/svg" xmlns:xlink="http://www.w3.org/1999/xlink">
    <title>签到_副本备份</title>
    <g id="页面-1" stroke="none" stroke-width="1" fill="none" fill-rule="evenodd">
        <g id="签到_副本备份" fill="#b1b1b1" fill-rule="nonzero">
            <path d="M11.25,16.371 L9.129,14.25 C8.83615101,13.9569439 8.36118111,13.956776 8.06812502,14.249625 C7.77506892,14.542474 7.77490102,15.0174439 8.06774998,15.3105 L10.71975,17.9625 C11.0126249,18.2552865 11.4873751,18.2552865 11.78025,17.9625 L17.61375,12.129 C17.9068061,11.836151 17.906974,11.3611811 17.614125,11.068125 C17.321276,10.7750689 16.8463061,10.774901 16.55325,11.06775 L11.25,16.371 Z M18.7125,2.99999999 L22.5,2.99999999 C23.3284271,2.99999999 24,3.67157289 24,4.49999999 L24,22.5 C24,23.3284271 23.3284271,24 22.5,24 L1.5,24 C0.671572873,24 0,23.3284271 0,22.5 L0,4.49999999 C0,3.67157289 0.67157286,2.99999999 1.5,2.99999999 L5.28750001,2.99999999 C5.26275001,3.12149999 5.24999999,3.24675 5.24999999,3.375 L5.24999999,4.87499998 C5.24999999,5.91053389 6.08946609,6.74999999 7.125,6.74999999 C8.16053391,6.74999999 9,5.91053389 9,4.87499998 L9,3.375 C9,3.24675 8.98725,3.12149999 8.9625,2.99999999 L15.0375,2.99999999 C15.01275,3.12149999 15,3.24675 15,3.375 L15,4.87499998 C15,5.91053389 15.8394661,6.74999999 16.875,6.74999999 C17.9105339,6.74999999 18.75,5.91053389 18.75,4.87499998 L18.75,3.375 C18.75,3.24675 18.73725,3.12149999 18.7125,2.99999999 Z M7.12499998,0 C7.74632033,0 8.24999998,0.503679657 8.24999998,1.125 L8.24999998,4.87499998 C8.24999998,5.49632033 7.74632033,6 7.12499998,6 C6.50367964,6 5.99999998,5.49632033 5.99999998,4.87499998 L5.99999998,1.125 C5.99999998,0.503679657 6.50367964,0 7.12499998,0 L7.12499998,0 Z M16.875,0 C17.4963204,0 18,0.503679657 18,1.125 L18,4.87499998 C18,5.49632033 17.4963204,6 16.875,6 C16.2536797,6 15.75,5.49632033 15.75,4.87499998 L15.75,1.125 C15.75,0.503679657 16.2536797,0 16.875,0 L16.875,0 Z" id="形状"></path>
        </g>
    </g>
</svg>