<svg id="推广赚钱" xmlns="http://www.w3.org/2000/svg" width="24" height="24" viewBox="0 0 24 24">
  <rect id="矩形_1312" data-name="矩形 1312" width="24" height="24" fill="none"/>
  <path id="自助推广" d="M61.139,7.743a1.506,1.506,0,0,1,.472-1.122,1.569,1.569,0,0,1,1.135-.459h1.607v7.167H62.746a1.569,1.569,0,0,1-1.135-.459,1.506,1.506,0,0,1-.472-1.122v-4Zm17.853-6.58A3.706,3.706,0,0,1,80.982.015a2.017,2.017,0,0,1,1.581.472,4.477,4.477,0,0,1,1.173,1.683,13.63,13.63,0,0,1,.791,2.474A24.443,24.443,0,0,1,84.986,7.5a27.91,27.91,0,0,1,.153,2.844,19.275,19.275,0,0,1-.191,2.7,16.091,16.091,0,0,1-.561,2.538,11,11,0,0,1-.867,2.079,3.931,3.931,0,0,1-1.109,1.326A1.675,1.675,0,0,1,81.1,19.3,2.751,2.751,0,0,1,79.63,18.3a5.652,5.652,0,0,0-2-1.441,17.448,17.448,0,0,0-2.755-.969,30.283,30.283,0,0,0-3.022-.638q-1.53-.242-2.806-.434t-2.13-.37q-.854-.179-.956-.434V6.035q.1-.357.8-.587a14.535,14.535,0,0,1,1.785-.434q1.084-.2,2.448-.446a25.252,25.252,0,0,0,2.78-.663,18.6,18.6,0,0,0,2.767-1.071,9.835,9.835,0,0,0,2.448-1.671ZM69.811,16.8q.128.306.306.663.153.332.408.765t.612.944q.434.612.88,1.288a7.6,7.6,0,0,1,.676,1.224,1.481,1.481,0,0,1,.14.905q-.089.357-.727.357H70.652a2.312,2.312,0,0,1-.944-.191,2.752,2.752,0,0,1-.829-.587,7.184,7.184,0,0,1-.816-1.007q-.421-.612-.905-1.454a8.122,8.122,0,0,1-.816-1.7,8.677,8.677,0,0,1-.306-1.211,2.313,2.313,0,0,1,0-.969,3.567,3.567,0,0,1,.485.1l.561.128q.332.077.765.153.434.1.778.191t.625.191q.306.1.561.2Z" transform="translate(-61.139 1)" />
</svg>
