<svg id="推广赚钱-选中" xmlns="http://www.w3.org/2000/svg" width="20" height="20" viewBox="0 0 20 20">
  <rect id="矩形_1312" data-name="矩形 1312" width="20" height="20" fill="none"/>
  <g id="推广赚钱">
    <rect id="矩形_1312-2" data-name="矩形 1312" width="20" height="20" transform="translate(0)" fill="none"/>
    <path id="路径_2377" data-name="路径 2377" d="M2.644,6.057s1.318-.361,1.747-.51,0,7.2,0,7.2l-1.747-.8Z" fill="#0f1213"/>
    <path id="自助推广" d="M61.139,6.425a1.247,1.247,0,0,1,.393-.931,1.31,1.31,0,0,1,.946-.381h1.339v5.948H62.478a1.31,1.31,0,0,1-.946-.381,1.247,1.247,0,0,1-.393-.931V6.429ZM76.016.965A3.091,3.091,0,0,1,77.675.012,1.686,1.686,0,0,1,78.992.4a3.715,3.715,0,0,1,.977,1.4,11.278,11.278,0,0,1,.659,2.053,20.208,20.208,0,0,1,.382,2.37,23.064,23.064,0,0,1,.128,2.36,15.928,15.928,0,0,1-.159,2.241,13.305,13.305,0,0,1-.467,2.106,9.107,9.107,0,0,1-.722,1.725,3.266,3.266,0,0,1-.924,1.1,1.4,1.4,0,0,1-1.092.26,2.293,2.293,0,0,1-1.225-.83,4.709,4.709,0,0,0-1.667-1.2,14.581,14.581,0,0,0-2.3-.8,25.328,25.328,0,0,0-2.518-.529q-1.275-.2-2.338-.36t-1.775-.307q-.712-.149-.8-.36V5.008q.083-.3.667-.487a12.154,12.154,0,0,1,1.487-.36q.9-.166,2.04-.37a21.116,21.116,0,0,0,2.317-.55,15.539,15.539,0,0,0,2.306-.889A8.2,8.2,0,0,0,76.014.965ZM68.366,13.941q.107.254.255.55.128.276.34.635t.51.783q.362.508.733,1.069a6.3,6.3,0,0,1,.563,1.016,1.225,1.225,0,0,1,.117.751q-.074.3-.606.3H69.066a1.934,1.934,0,0,1-.787-.159,2.293,2.293,0,0,1-.691-.487,5.967,5.967,0,0,1-.68-.836q-.351-.508-.754-1.207a6.728,6.728,0,0,1-.68-1.411,7.175,7.175,0,0,1-.255-1,1.912,1.912,0,0,1,0-.8,2.983,2.983,0,0,1,.4.083l.467.106q.277.064.637.127.362.083.648.159t.521.159q.255.083.467.166Z" transform="translate(-61.139 0.909)" fill="#fff"/>
  </g>
</svg>
