<?xml version="1.0" encoding="UTF-8"?>
<svg width="24px" height="24px" viewBox="0 0 24 24" version="1.1" xmlns="http://www.w3.org/2000/svg" xmlns:xlink="http://www.w3.org/1999/xlink">
   
    <g  stroke="none" stroke-width="1" >
        <g >
            <path d="M1.2005991,14.3859205 L1.2005991,21.5968801 C1.2005991,22.9224359 2.27738392,24 3.6001997,24 L10.8005991,24 L10.8005991,14.3859205 L1.2005991,14.3859205 Z" ></path>
            <path d="M13.2009985,14.3859205 L13.2009985,24 L20.4005991,24 C21.7242137,24 22.8001997,22.9216359 22.8001997,21.5968801 L22.8001997,14.3859205 L13.2001997,14.3859205 L13.2009985,14.3859205 Z" ></path>
            <path d="M21.6003994,7.17576087 L17.8636046,7.17576087 C18.4083874,6.90216999 18.9076385,6.54618186 19.3453819,6.12139602 C20.0195706,5.44461858 20.3974039,4.52704917 20.3974039,3.57108104 C20.3974039,2.61511291 20.0187718,1.69834347 19.3453819,1.02076606 C17.9842237,-0.338388631 15.6173739,-0.339988578 14.2546181,1.02236601 C12.2911633,2.98950043 12.0259611,6.69257698 12.001997,7.10776314 C11.9996006,7.13096236 12.0115826,7.1509617 12.0115826,7.1749609 L11.9876186,7.1749609 C11.9876186,7.15176167 11.9996006,7.13016239 11.998003,7.10616319 C11.9740389,6.69017706 11.7088367,2.98790048 9.74458313,1.01916611 C8.38342486,-0.339988578 6.01417873,-0.339988578 4.65302047,1.02076606 C3.97963055,1.6975435 3.6009985,2.61431293 3.6009985,3.57028107 C3.6009985,4.5262492 3.97963055,5.44301863 4.65302047,6.11979607 C5.08117823,6.5477818 5.59480779,6.89257031 6.13639541,7.17416092 L2.3996006,7.17416092 C1.07598602,7.17416092 0,8.25252497 0,9.57728081 L0,13.1827606 L10.7998003,13.1827606 L10.7998003,8.37572087 L13.2001997,8.37572087 L13.2001997,13.1827606 L24,13.1827606 L24,9.57728081 C23.9992012,8.94050204 23.745981,8.32932241 23.2962556,7.87893743 C22.8465302,7.42855244 22.2362456,7.1749609 21.6003994,7.1749609 L21.6003994,7.17576087 Z M6.35287069,4.42145269 C6.18592112,4.25265832 6.07329006,4.03906544 6.02775836,3.8062732 C5.98222666,3.57348096 6.00619071,3.33268899 6.09645532,3.11349629 C6.18671992,2.8943036 6.34008987,2.70710984 6.53659511,2.57511424 C6.73310035,2.44311864 6.96395407,2.37192102 7.2011982,2.37032107 C7.52311533,2.37032107 7.8242636,2.49511691 8.05112332,2.72150936 C8.75886171,3.43028573 9.17184224,4.70224333 9.39311033,5.76300797 C8.33629556,5.54221533 7.05661508,5.1262292 6.3536695,4.42145269 L6.35287069,4.42145269 Z M14.6092861,5.76460791 C14.8297554,4.7030433 15.2427359,3.43108571 15.9512731,2.72150936 C16.1781328,2.49431694 16.4800799,2.3695211 16.8011982,2.3695211 C17.1223165,2.3695211 17.4242636,2.49431694 17.6487269,2.71910944 C18.1168248,3.18869379 18.1176236,3.95186834 17.6487269,4.42065272 C16.9409885,5.13102904 15.6700949,5.54461525 14.6100849,5.76460791 L14.6092861,5.76460791 Z"></path>
        </g>
    </g>
</svg>