<svg xmlns="http://www.w3.org/2000/svg" width="22" height="22" viewBox="0 0 22 22"><path class="b" d="M16,22H4a4,4,0,0,1-4-4V4A4,4,0,0,1,4,0H16a4,4,0,0,1,4,4V18A4,4,0,0,1,16,22ZM4.306,15.779a.868.868,0,0,0-.867.868v.068a.868.868,0,0,0,.867.868h12a.869.869,0,0,0,.868-.868v-.068a.869.869,0,0,0-.868-.868Zm0-5.672a.868.868,0,0,0-.867.868v.068a.868.868,0,0,0,.867.868h8.386a.869.869,0,0,0,.868-.868v-.068a.869.869,0,0,0-.868-.868Zm0-5.673A.868.868,0,0,0,3.44,5.3v.069a.868.868,0,0,0,.867.868H9.078a.869.869,0,0,0,.868-.868V5.3a.869.869,0,0,0-.868-.868Z" transform="translate(1)"/></svg>