<svg xmlns="http://www.w3.org/2000/svg" width="22" height="22" viewBox="0 0 22 22"><defs><style>.a{fill:#5a5a5a;}</style></defs><path class="a" d="M72.935,61.915a11,11,0,1,0,11,11,11,11,0,0,0-11-11Zm-.019,17.276A5.944,5.944,0,0,1,67.349,75.3l.009,0a.758.758,0,0,1-.087-.342.781.781,0,0,1,.781-.782.77.77,0,0,1,.732.542l.012,0a4.374,4.374,0,1,0,4.12-5.837,4.331,4.331,0,0,0-1.5.277l.551,1.055a.391.391,0,0,1,.1.266.423.423,0,0,1-.4.391h-.024l-3.9-.168a.39.39,0,0,1-.312-.6l2.1-3.3a.4.4,0,0,1,.346-.18.391.391,0,0,1,.329.209l.482.924a5.937,5.937,0,1,1,2.233,11.438Zm0,0" transform="translate(-61.935 -61.915)"/></svg>