<svg xmlns="http://www.w3.org/2000/svg" width="24" height="24" viewBox="0 0 24 24">
    <path data-name="矩形 8435" style="fill:none" d="M0 0h24v24H0z"/>
    <path data-name="路径 2370" d="m2207.7 4654.606-4.326-4.326a7.858 7.858 0 0 1-4.507 1.429h-.013a7.853 7.853 0 1 1 6.428-3.336l4.325 4.327a1.338 1.338 0 0 1 .092 1.8l-.016.02-.082.089a1.344 1.344 0 0 1-1.9 0zm.354-.354a.842.842 0 0 0 1.143.046.843.843 0 0 1-1.143-.046l-4.633-4.631a7.327 7.327 0 0 1-4.554 1.587 7.323 7.323 0 0 0 4.554-1.587zm1.257-.07-.057.064-.007.006.007-.006.057-.064a.84.84 0 0 0 .189-.538.84.84 0 0 1-.19.538zm-17.81-10.327a7.354 7.354 0 0 0 7.354 7.354 7.354 7.354 0 0 1-7.354-7.354zm3.707-3.647a5.158 5.158 0 0 0 7.2 7.389c.025-.03.053-.062.084-.093l.019-.019a1.079 1.079 0 0 1 .089-.081 5.108 5.108 0 0 0 1.417-3.549 5.158 5.158 0 0 0-8.805-3.647zm9.414 8.213a7.322 7.322 0 0 0 1.589-4.565 7.322 7.322 0 0 1-1.59 4.564zm-.109-4.565a5.658 5.658 0 0 0-11.316 0 5.658 5.658 0 0 1 11.316 0z" transform="translate(-2188.5 -4633.499)" />
</svg>
