<svg id="导航足球" xmlns="http://www.w3.org/2000/svg" width="22" height="22" viewBox="0 0 22 22">
  <rect id="矩形_8369" data-name="矩形 8369" width="22" height="22" fill="none"/>
  <path id="路径_2357" data-name="路径 2357" d="M1197.586,1876.8l2.662-3.173,5.308.136,2.367,3.357a9.484,9.484,0,0,1-10.337-.319Zm11.45-.473-2.573-3.416,1.719-4.893,4.071-1.182a9.495,9.495,0,0,1-3.215,9.49h0Zm-12.438-.318a9.5,9.5,0,0,1-2.714-9.687l4.137,1.672,1.4,4.855-2.827,3.161h0Zm3.934-3.568-1.342-4.636,3.9-2.684,3.782,2.928-1.587,4.514Zm7.069-5.4-3.82-2.957v-4.551a9.546,9.546,0,0,1,8.108,6.115l-4.288,1.394Zm-9.243-.148-4.027-1.777a9.513,9.513,0,0,1,8.263-5.607v4.472l-4.235,2.911h0Z" transform="translate(-1192 -1858)" />
</svg>
