<svg xmlns="http://www.w3.org/2000/svg" width="20" height="20" viewBox="0 0 20 20"><defs><style>.a{fill:none;}</style></defs><rect class="a" width="20" height="20"/><g transform="translate(-233.166 -233.167)"><path class="b" d="M251.666,386h-2.429a2.429,2.429,0,1,0,0,4.857h2.429v2.429a1.214,1.214,0,0,1-1.214,1.214H235.881a1.214,1.214,0,0,1-1.214-1.214V382.357h15.786a1.214,1.214,0,0,1,1.214,1.214Z" transform="translate(0 -143.487)"/><path class="b" d="M235.881,234.667H246.81a1.214,1.214,0,0,1,1.214,1.214V237.7H234.667v-1.821a1.214,1.214,0,0,1,1.214-1.214Zm13.357,9.06a1.214,1.214,0,1,1-1.214,1.214A1.214,1.214,0,0,1,249.238,243.727Z" transform="translate(-0.001 0)"/></g></svg>